<svg width="245" height="132" viewBox="0 0 245 132" fill="none" xmlns="http://www.w3.org/2000/svg">
<g id="image_infogr_01">
<path fill-rule="evenodd" clip-rule="evenodd" d="M98.0195 37.6807C96.6937 37.6807 95.6625 36.6495 95.6625 35.3237C95.6625 33.9979 96.6937 32.9667 98.0195 32.9667C99.3453 32.9667 100.376 33.9979 100.376 35.3237C100.376 36.6495 99.3453 37.6807 98.0195 37.6807ZM102.881 39.1538C103.765 37.9753 104.207 36.5022 104.207 35.0291C104.059 32.2301 101.702 29.2839 98.3141 29.2839C94.7786 29.2839 92.5689 32.2301 92.4216 35.0291C92.2743 36.5022 92.8635 37.9753 93.7474 39.1538L98.4614 45.3409L102.881 39.1538ZM102.881 59.7775C102.439 55.5054 101.555 51.3807 100.524 47.2559L99.4926 48.7291C99.3453 48.8764 99.3453 48.8764 99.198 49.0237C98.6087 49.4656 97.7248 49.3183 97.1356 48.7291L91.3904 40.9215C90.0646 39.1538 89.4754 37.0914 89.4754 34.8817C89.6227 33.4086 89.9173 32.0828 90.6539 30.9043C88.2969 28.6946 85.7926 26.485 82.9936 24.7172L79.3108 31.1989C78.8689 32.0828 78.8689 33.2613 79.6055 34.1452C80.1947 34.8817 81.0786 35.3237 82.1098 35.471L82.8463 35.6183C85.3506 35.9129 87.413 37.6807 88.1496 40.0377C88.8861 42.3946 88.1496 44.899 86.2345 46.5194L79.3108 52.5592C78.5743 53.2957 77.985 54.3269 77.985 55.3581V56.9785C77.985 58.0097 78.427 58.8936 79.3108 59.3355C80.784 60.3667 81.8151 61.9871 81.9625 63.7549L82.1098 65.3753C82.2571 66.5538 83.2883 67.585 84.6141 67.585H88.5915C90.9485 67.585 93.0108 66.2592 93.8947 64.1968L94.1893 63.6076C95.0732 61.5452 97.1356 60.0721 99.4926 59.9248H100.376C100.524 59.9248 100.524 59.9248 100.671 59.9248L102.881 59.7775ZM103.175 64.9334C103.175 64.1968 103.175 63.4603 103.028 62.7237L100.966 62.871C100.818 62.871 100.671 62.871 100.524 62.871H99.6399C98.4614 62.871 97.2829 63.6076 96.841 64.7861L96.5463 65.3753C95.2205 68.4689 92.127 70.5312 88.5915 70.5312H84.7614C82.1098 70.5312 79.7528 68.4689 79.4582 65.8173L79.3108 64.1968C79.1635 63.1656 78.7216 62.4291 77.8377 61.8398C76.2173 60.8086 75.1861 58.8936 75.1861 56.9785V55.3581C75.1861 53.4431 75.9227 51.6753 77.3958 50.3495L84.3194 44.3097C85.3506 43.4258 85.6453 42.1 85.3506 40.7742C84.9087 39.4484 83.8775 38.4172 82.4044 38.2699L81.6678 38.1226C80.0474 37.9753 78.427 37.0914 77.3958 35.9129C75.9227 34.1452 75.628 31.6409 76.8065 29.7258L80.6367 23.0968C78.5743 21.771 76.5119 20.7398 74.3022 19.7086C67.3786 16.4677 60.013 14.8473 53.3839 14.8473C52.942 14.8473 52.3527 14.8473 51.7635 14.8473L56.7721 22.3602C58.9818 25.4538 58.8345 29.5785 56.4775 32.5247L54.7097 34.7344C53.2366 36.6495 50.8796 37.6807 48.5226 37.386L46.6076 37.0914C44.9871 36.9441 43.3667 37.6807 42.4828 39.1538C41.157 41.5108 38.5054 42.8366 35.7065 42.3946L31.2871 41.8054C29.6667 41.6581 28.0463 42.3946 27.1624 43.7205C26.4258 44.899 26.4258 46.3721 27.1624 47.5506L30.1086 52.2645C30.9925 53.5904 32.7603 54.1796 34.2334 53.2957L37.1796 51.6753C39.0947 50.6441 42.0409 50.4968 44.3979 51.2334C45.4291 46.3721 49.7011 42.6893 54.7097 42.6893C60.3076 42.6893 64.8743 47.1086 65.3162 52.8538C65.4635 55.5054 64.727 58.0097 63.1065 60.0721L61.3388 62.4291L62.37 63.7549C62.5173 64.0495 62.6646 64.1968 62.8119 64.3441L66.4947 68.6162L66.642 68.7635C68.2624 70.8259 67.8205 73.7721 65.7581 75.3925L60.3076 79.8119C59.2764 80.5484 58.5398 81.7269 58.2452 82.9054L56.3302 88.9452C56.0355 89.8291 55.5936 90.5657 55.1517 91.1549L53.3839 93.3646C52.3527 94.5431 51.7635 96.0162 51.6162 97.4893C51.3216 99.5517 50.1431 101.319 48.0807 102.203C47.7861 102.351 47.4915 102.498 47.0495 102.498C44.6925 102.94 42.4828 101.319 42.1882 98.9624L40.4205 88.6506C40.2732 87.914 39.9785 87.0302 39.5366 86.4409L33.2022 78.3388C32.4656 77.3076 31.8764 76.1291 31.4344 74.9506L29.3721 67.585C28.9301 65.9646 27.6043 64.6388 25.8366 64.1968L25.3947 64.0495C24.0688 63.6076 22.743 63.0183 21.7119 61.9871L17.8817 58.3043C16.9979 57.5678 16.4086 56.6839 15.8194 55.6527C14.6409 53.5904 12.2839 52.4119 9.92689 52.8538L4.47635 54.6215C3.73979 58.0097 3.29786 61.3979 3.29786 64.9334C3.29786 92.4807 25.6893 114.872 53.0893 114.872C80.784 114.725 103.175 92.4807 103.175 64.9334ZM47.0495 53.0011C47.3441 49.3183 50.2904 45.4882 54.7097 45.4882C59.2764 45.4882 62.2226 49.3183 62.37 53.0011C62.5173 54.9162 61.928 56.8312 60.7495 58.3043L54.7097 66.4065L48.6699 58.3043C47.6388 56.8312 47.0495 54.9162 47.0495 53.0011ZM9.04302 41.9527L12.5785 46.814C13.0204 47.4033 13.9043 47.5506 14.6409 47.1086C14.7882 46.9613 14.7882 46.9613 14.9355 46.814L22.1538 37.0914C24.8054 33.7032 25.1 28.9893 23.0377 25.3065C25.3947 23.5387 28.0463 21.9183 30.6979 20.4452L35.8538 27.3688C36.2957 27.9581 37.1796 28.1054 37.9162 27.6635C38.0635 27.5161 38.0635 27.5161 38.2108 27.3688L45.4291 17.7936C45.871 17.057 46.313 16.4677 46.7549 15.5839C47.3441 15.4366 47.9334 15.4366 48.5226 15.4366L54.5624 24.128C56.0355 26.1903 55.8882 28.9893 54.4151 30.9043L52.6474 33.114C51.7635 34.1452 50.4377 34.7344 49.1119 34.5871L47.0495 34.1452C44.2506 33.8506 41.599 35.1764 40.1259 37.5334C39.3893 38.8592 37.7689 39.5957 36.2957 39.4484L31.8764 38.8592C29.2248 38.5645 26.4258 39.743 24.9527 41.9527C23.4796 44.0151 23.4796 46.814 24.8054 49.0237L27.7516 53.7377C28.9301 55.5054 30.6979 56.5366 32.7603 56.5366C33.7914 56.5366 34.6753 56.242 35.5592 55.8L38.5054 54.1796C39.9785 53.443 42.3355 53.443 44.1033 54.0323C44.2506 56.242 44.9872 58.157 46.313 59.9248L53.5312 69.5001C53.9732 70.0893 54.8571 70.2366 55.5936 69.7947C55.7409 69.6474 55.7409 69.6474 55.8882 69.5001L59.571 64.6388L60.013 65.228C60.1603 65.5226 60.4549 65.8173 60.6022 65.9646L64.285 70.2366C65.0216 70.9732 64.8743 72.1517 63.9904 72.8882L58.3925 77.1603C56.9194 78.3388 55.7409 79.8119 55.299 81.5796L53.3839 87.6194C53.2366 88.0614 52.942 88.5033 52.6474 88.9452L51.0269 91.5968C49.7011 93.2173 48.8173 95.1323 48.6699 97.342C48.5226 98.3732 47.9334 99.2571 46.9022 99.699C46.1656 99.9936 45.2818 99.699 44.9871 98.9624C44.9871 98.8151 44.9872 98.8151 44.8398 98.6678L43.0721 88.5033C42.9248 87.1775 42.3355 85.999 41.599 84.9678L35.4119 76.8656C34.8226 76.1291 34.3807 75.2452 34.2334 74.3613L32.171 66.9957C31.4344 64.3441 29.3721 62.2818 26.7205 61.5452L26.2785 61.3979C25.3947 61.1033 24.5108 60.6613 23.9215 60.0721L20.0914 56.3893C19.5022 55.8 18.9129 55.2108 18.471 54.4742C16.7032 51.3807 13.0204 49.6129 9.48496 50.3495H9.33765L5.50754 51.528C6.39141 48.1398 7.5699 45.0463 9.04302 41.9527ZM6.09678 30.0204C6.39141 26.3376 9.33765 22.5075 13.757 22.5075C18.1764 22.5075 21.2699 26.3376 21.4172 30.0204C21.5645 31.9355 20.9753 33.8506 19.7968 35.3237L13.757 43.4258L7.71721 35.3237C6.53872 33.8506 5.94947 31.9355 6.09678 30.0204ZM29.2248 10.5753C29.5194 6.89247 32.4656 3.06236 36.885 3.06236C41.4517 3.06236 44.3979 6.89247 44.5452 10.5753C44.6925 12.4903 44.1033 14.4054 42.9248 15.8785L36.885 23.9807L30.8452 15.8785C29.814 14.4054 29.2248 12.4903 29.2248 10.5753ZM107.005 34.8817C106.711 30.1678 102.881 26.485 98.1668 26.485C96.1044 26.485 94.042 27.2215 92.4216 28.6946C87.7076 24.128 81.8151 20.1505 75.3334 17.2043C67.9678 13.8161 60.3076 12.1957 53.2366 12.1957C51.3216 12.1957 49.2592 12.343 47.3441 12.6376C47.4914 11.9011 47.4914 11.3118 47.3441 10.5753C47.1968 4.68279 42.4828 0.263428 37.0323 0.263428C31.5818 0.263428 26.8678 4.68279 26.4258 10.428C26.2785 13.0796 27.0151 15.5839 28.6355 17.6462L28.9301 18.0882C26.2785 19.5613 23.7742 21.1817 21.4172 22.9495C19.5022 20.8871 16.7032 19.7086 13.757 19.5613C8.15915 19.5613 3.59248 23.9807 3.15054 29.7258C3.00323 32.3774 3.73979 34.8817 5.36022 36.9441L7.12797 39.1538C3.00323 46.9613 0.64624 56.3893 0.64624 64.6388C0.64624 93.9538 24.2162 117.671 53.2366 117.671C82.4044 117.671 105.974 94.2485 105.974 65.0807C105.974 65.0807 105.974 64.9334 105.974 64.7861C105.974 58.8936 104.501 50.0549 102.586 44.3097L105.238 40.7742C106.564 39.1538 107.153 37.0914 107.005 34.8817ZM13.4624 26.9269C15.3774 26.9269 16.8506 28.4 16.8506 30.3151C16.8506 32.2301 15.3774 33.7032 13.4624 33.7032C11.5473 33.7032 10.0742 32.2301 10.0742 30.3151C10.0742 28.4 11.5473 26.9269 13.4624 26.9269ZM13.4624 36.5022C10.0742 36.5022 7.27528 33.7032 7.27528 30.3151C7.27528 26.9269 10.0742 24.128 13.4624 24.128C16.8506 24.128 19.6495 26.9269 19.6495 30.3151C19.6495 33.7032 16.8506 36.5022 13.4624 36.5022ZM54.5624 56.5366C52.6474 56.5366 51.1742 55.0635 51.1742 53.1484C51.1742 51.2334 52.6474 49.7602 54.5624 49.7602C56.4775 49.7602 57.9506 51.2334 57.9506 53.1484C57.8033 55.0635 56.3302 56.5366 54.5624 56.5366ZM60.7495 53.1484C60.7495 56.5366 57.9506 59.3355 54.5624 59.3355C51.1742 59.3355 48.3753 56.5366 48.3753 53.1484C48.3753 49.7603 51.1742 46.9613 54.5624 46.9613C57.9506 46.9613 60.7495 49.7603 60.7495 53.1484ZM36.7377 7.48171C34.8226 7.48171 33.3495 8.95483 33.3495 10.8699C33.3495 12.7849 34.8226 14.2581 36.7377 14.2581C38.6527 14.2581 40.1259 12.7849 40.1259 10.8699C39.9785 8.95483 38.5054 7.48171 36.7377 7.48171ZM36.7377 17.057C33.3495 17.057 30.5506 14.2581 30.5506 10.8699C30.4033 7.3344 33.2022 4.68279 36.7377 4.68279C40.2732 4.68279 42.9248 7.48171 42.9248 10.8699C42.9248 14.2581 40.1259 17.057 36.7377 17.057ZM98.0195 30.0204C95.0732 30.0204 92.7162 32.3774 92.7162 35.3237C92.7162 38.2699 95.0732 40.6269 98.0195 40.6269C100.966 40.6269 103.323 38.2699 103.323 35.3237C103.323 32.3774 100.966 30.0204 98.0195 30.0204Z" fill="white"/>
<path d="M133.264 48.0092V41.4344H153.427C155.18 41.4344 156.412 40.8917 157.122 39.8063C157.831 38.721 158.186 37.0303 158.186 34.7343C158.186 32.6888 157.831 31.186 157.122 30.2259C156.454 29.224 155.222 28.723 153.427 28.723H141.154C138.482 28.723 136.458 28.1804 135.08 27.095C133.703 26.0096 133.014 23.9432 133.014 20.8959V9.81258C133.014 8.05929 133.494 6.68171 134.454 5.67983C135.456 4.67795 136.917 4.17701 138.837 4.17701H165.262V10.7518H143.346C142.928 10.7518 142.573 10.7936 142.281 10.8771C142.031 10.9606 141.801 11.1693 141.592 11.5033C141.384 11.8372 141.279 12.3381 141.279 13.0061V18.4538C141.279 19.7896 141.488 20.7498 141.905 21.3342C142.365 21.8769 143.241 22.1482 144.535 22.1482H156.996C160.586 22.1482 163.091 23.2336 164.51 25.4043C165.971 27.5333 166.702 30.5389 166.702 34.4212C166.702 35.9658 166.639 37.3434 166.514 38.554C166.389 39.7646 166.118 40.996 165.7 42.2484C165.283 43.459 164.719 44.4818 164.009 45.3167C163.342 46.1098 162.402 46.7569 161.192 47.2578C160.023 47.7587 158.624 48.0092 156.996 48.0092H133.264Z" fill="white"/>
<path d="M178.453 48.0092V13.7575C178.453 13.0061 178.411 12.4634 178.328 12.1294C178.286 11.7537 178.098 11.4406 177.764 11.1902C177.472 10.8979 177.013 10.7518 176.387 10.7518H171.565V4.17701H181.02C184.819 4.17701 186.719 6.01379 186.719 9.68734V48.0092H178.453Z" fill="white"/>
<path d="M136.312 80.8833C135.302 80.8833 134.47 80.7284 133.815 80.4184C133.172 80.097 132.662 79.6665 132.283 79.1269C131.904 78.5759 131.64 77.933 131.491 77.1983C131.353 76.4636 131.284 75.6772 131.284 74.8392C131.284 74.0012 131.353 73.2205 131.491 72.4973C131.64 71.7626 131.904 71.1255 132.283 70.5859C132.673 70.0349 133.195 69.6044 133.85 69.2944C134.516 68.9845 135.365 68.8295 136.398 68.8295H141.065V70.1382H136.932C136.174 70.1382 135.543 70.23 135.038 70.4137C134.533 70.5974 134.125 70.8844 133.815 71.2747C133.505 71.6535 133.281 72.1414 133.144 72.7384C133.017 73.3238 132.954 74.0241 132.954 74.8392C132.954 75.6543 133.017 76.3603 133.144 76.9572C133.27 77.5542 133.482 78.0478 133.781 78.4381C134.091 78.8284 134.493 79.1154 134.986 79.2991C135.48 79.4828 136.1 79.5746 136.846 79.5746H141.237V80.8833H136.312Z" fill="white"/>
<path d="M147.499 80.8833V70.1382H142.626V68.8295H153.974V70.1382H149.101V80.8833H147.499Z" fill="white"/>
<path d="M155.879 80.8833V70.4481C155.879 69.8282 156.017 69.4035 156.292 69.1739C156.579 68.9443 156.981 68.8295 157.498 68.8295H163.025C163.634 68.8295 164.133 68.9156 164.523 69.0878C164.925 69.26 165.241 69.5068 165.47 69.8282C165.711 70.1382 165.878 70.5228 165.97 70.982C166.062 71.4411 166.107 71.952 166.107 72.5145C166.107 73.1115 166.062 73.6453 165.97 74.116C165.878 74.5751 165.711 74.9655 165.47 75.2869C165.241 75.6083 164.925 75.8552 164.523 76.0274C164.133 76.1995 163.634 76.2857 163.025 76.2857H157.48V80.8833H155.879ZM162.457 74.977C162.882 74.977 163.22 74.9253 163.473 74.822C163.737 74.7072 163.938 74.5464 164.076 74.3398C164.225 74.1332 164.322 73.8806 164.368 73.5821C164.414 73.2722 164.437 72.9163 164.437 72.5145C164.437 72.1242 164.408 71.7855 164.351 71.4986C164.305 71.2001 164.208 70.9533 164.058 70.7581C163.921 70.5515 163.72 70.3965 163.456 70.2932C163.203 70.1898 162.87 70.1382 162.457 70.1382H158.255C157.911 70.1382 157.693 70.2013 157.601 70.3276C157.521 70.4539 157.48 70.6548 157.48 70.9303V74.977H162.457Z" fill="white"/>
<path d="M170.696 70.0176C170.88 69.5929 171.086 69.2657 171.316 69.0361C171.546 68.8065 171.89 68.6917 172.349 68.6917C172.785 68.6917 173.13 68.8123 173.382 69.0533C173.635 69.2829 173.847 69.6044 174.02 70.0176L178.583 80.8833H176.895L175.535 77.6116H169.146L167.803 80.8833H166.116L170.696 70.0176ZM169.629 76.3029H175.053L172.78 70.7753C172.722 70.649 172.659 70.5228 172.59 70.3965C172.533 70.2587 172.453 70.1898 172.349 70.1898C172.246 70.1898 172.166 70.2587 172.108 70.3965C172.051 70.5228 171.993 70.649 171.936 70.7753L169.629 76.3029Z" fill="white"/>
<path d="M190.56 80.8833H188.959V75.373H181.916V80.8833H180.314V68.8295H181.916V74.0643H188.959V68.8295H190.56V80.8833Z" fill="white"/>
<path d="M196.864 70.0176C197.047 69.5929 197.254 69.2657 197.484 69.0361C197.713 68.8065 198.058 68.6917 198.517 68.6917C198.953 68.6917 199.297 68.8123 199.55 69.0533C199.803 69.2829 200.015 69.6044 200.187 70.0176L204.75 80.8833H203.063L201.702 77.6116H195.314L193.971 80.8833H192.283L196.864 70.0176ZM195.796 76.3029H201.22L198.947 70.7753C198.89 70.649 198.827 70.5228 198.758 70.3965C198.7 70.2587 198.62 70.1898 198.517 70.1898C198.413 70.1898 198.333 70.2587 198.276 70.3965C198.218 70.5228 198.161 70.649 198.104 70.7753L195.796 76.3029Z" fill="white"/>
<path d="M131.628 105.148V94.7985C131.628 94.1556 131.778 93.7136 132.076 93.4726C132.375 93.22 132.788 93.0937 133.316 93.0937H140.703V94.4024H134.022C133.689 94.4024 133.471 94.4656 133.368 94.5919C133.276 94.7066 133.23 94.9133 133.23 95.2118V105.148H131.628Z" fill="white"/>
<path d="M144.289 105.148C143.761 105.148 143.348 105.016 143.049 104.752C142.751 104.487 142.602 104.051 142.602 103.443V94.7985C142.602 94.1556 142.751 93.7136 143.049 93.4726C143.348 93.22 143.761 93.0937 144.289 93.0937H151.745V94.4024H144.995C144.662 94.4024 144.444 94.4656 144.341 94.5919C144.249 94.7066 144.203 94.9133 144.203 95.2118V98.3285H151.573V99.6372H144.203V103.012C144.203 103.311 144.249 103.523 144.341 103.649C144.444 103.776 144.662 103.839 144.995 103.839H151.814V105.148H144.289Z" fill="white"/>
<path d="M159.98 92.956C161.094 92.956 162.029 93.065 162.787 93.2831C163.556 93.4898 164.176 93.8342 164.647 94.3163C165.118 94.7985 165.456 95.4356 165.663 96.2277C165.881 97.0084 165.99 97.9727 165.99 99.1207C165.99 100.28 165.881 101.256 165.663 102.048C165.456 102.829 165.118 103.46 164.647 103.942C164.176 104.424 163.556 104.769 162.787 104.975C162.029 105.182 161.094 105.285 159.98 105.285C158.878 105.285 157.943 105.182 157.173 104.975C156.416 104.769 155.796 104.424 155.314 103.942C154.843 103.46 154.499 102.829 154.281 102.048C154.074 101.256 153.971 100.28 153.971 99.1207C153.971 97.9727 154.074 97.0084 154.281 96.2277C154.499 95.4356 154.843 94.7985 155.314 94.3163C155.796 93.8342 156.416 93.4898 157.173 93.2831C157.943 93.065 158.878 92.956 159.98 92.956ZM155.641 99.1207C155.641 100.039 155.704 100.808 155.83 101.428C155.968 102.048 156.198 102.547 156.519 102.926C156.852 103.305 157.294 103.575 157.845 103.736C158.408 103.896 159.119 103.977 159.98 103.977C160.841 103.977 161.547 103.896 162.098 103.736C162.661 103.575 163.103 103.305 163.424 102.926C163.757 102.547 163.987 102.048 164.113 101.428C164.251 100.808 164.32 100.039 164.32 99.1207C164.32 98.2137 164.251 97.4503 164.113 96.8304C163.987 96.2105 163.757 95.7111 163.424 95.3323C163.103 94.9535 162.661 94.6837 162.098 94.523C161.547 94.3508 160.841 94.2647 159.98 94.2647C159.119 94.2647 158.408 94.3508 157.845 94.523C157.294 94.6837 156.852 94.9535 156.519 95.3323C156.198 95.7111 155.968 96.2105 155.83 96.8304C155.704 97.4503 155.641 98.2137 155.641 99.1207Z" fill="white"/>
<path d="M168.668 105.148V94.7985C168.668 94.1556 168.818 93.7136 169.116 93.4726C169.415 93.22 169.828 93.0937 170.356 93.0937H177.743V94.4024H171.062C170.729 94.4024 170.511 94.4656 170.408 94.5919C170.316 94.7066 170.27 94.9133 170.27 95.2118V105.148H168.668Z" fill="white"/>
<path d="M179.642 105.148V94.7124C179.642 94.0925 179.779 93.6677 180.055 93.4381C180.342 93.2085 180.744 93.0937 181.26 93.0937H186.788C187.396 93.0937 187.896 93.1798 188.286 93.352C188.688 93.5242 189.004 93.771 189.233 94.0925C189.474 94.4024 189.641 94.787 189.733 95.2462C189.824 95.7054 189.87 96.2162 189.87 96.7788C189.87 97.3757 189.824 97.9095 189.733 98.3802C189.641 98.8394 189.474 99.2297 189.233 99.5511C189.004 99.8726 188.688 100.119 188.286 100.292C187.896 100.464 187.396 100.55 186.788 100.55H181.243V105.148H179.642ZM186.22 99.2412C186.644 99.2412 186.983 99.1895 187.236 99.0862C187.5 98.9714 187.701 98.8107 187.838 98.6041C187.988 98.3974 188.085 98.1449 188.131 97.8464C188.177 97.5364 188.2 97.1806 188.2 96.7788C188.2 96.3884 188.171 96.0498 188.114 95.7628C188.068 95.4643 187.97 95.2175 187.821 95.0223C187.683 94.8157 187.482 94.6607 187.218 94.5574C186.966 94.4541 186.633 94.4024 186.22 94.4024H182.018C181.674 94.4024 181.456 94.4656 181.364 94.5919C181.283 94.7181 181.243 94.919 181.243 95.1945V99.2412H186.22Z" fill="white"/>
<path d="M194.459 94.2819C194.643 93.8571 194.849 93.53 195.079 93.3004C195.308 93.0708 195.653 92.956 196.112 92.956C196.548 92.956 196.893 93.0765 197.145 93.3176C197.398 93.5472 197.61 93.8686 197.782 94.2819L202.346 105.148H200.658L199.298 101.876H192.909L191.566 105.148H189.878L194.459 94.2819ZM193.391 100.567H198.816L196.543 95.0396C196.485 94.9133 196.422 94.787 196.353 94.6607C196.296 94.523 196.215 94.4541 196.112 94.4541C196.009 94.4541 195.928 94.523 195.871 94.6607C195.814 94.787 195.756 94.9133 195.699 95.0396L193.391 100.567Z" fill="white"/>
<path d="M211.568 93.0937V94.0408H213.582C214.421 94.0408 215.109 94.1499 215.649 94.368C216.2 94.5861 216.63 94.9075 216.94 95.3323C217.262 95.7456 217.486 96.2622 217.612 96.8821C217.738 97.502 217.801 98.208 217.801 99.0001C217.801 99.7922 217.738 100.504 217.612 101.135C217.486 101.755 217.262 102.283 216.94 102.72C216.63 103.144 216.2 103.472 215.649 103.701C215.109 103.919 214.421 104.028 213.582 104.028H211.568V105.148H209.966V104.028H207.934C207.096 104.028 206.402 103.919 205.851 103.701C205.311 103.472 204.881 103.144 204.559 102.72C204.249 102.283 204.031 101.755 203.905 101.135C203.79 100.504 203.733 99.7922 203.733 99.0001C203.733 98.208 203.79 97.502 203.905 96.8821C204.031 96.2622 204.249 95.7456 204.559 95.3323C204.881 94.9075 205.311 94.5861 205.851 94.368C206.402 94.1499 207.096 94.0408 207.934 94.0408H209.966V93.0937H211.568ZM209.966 95.3495H208.417C207.808 95.3495 207.309 95.4127 206.918 95.5389C206.54 95.6537 206.235 95.8546 206.006 96.1416C205.776 96.4286 205.615 96.8075 205.524 97.2781C205.443 97.7373 205.403 98.3113 205.403 99.0001C205.403 99.6889 205.443 100.274 205.524 100.757C205.615 101.227 205.77 101.612 205.989 101.91C206.218 102.197 206.528 102.404 206.918 102.53C207.309 102.656 207.808 102.72 208.417 102.72H209.966V95.3495ZM213.118 102.72C213.715 102.72 214.208 102.656 214.598 102.53C214.989 102.404 215.299 102.197 215.528 101.91C215.758 101.612 215.913 101.227 215.993 100.757C216.085 100.274 216.131 99.6889 216.131 99.0001C216.131 98.3113 216.085 97.7373 215.993 97.2781C215.913 96.8075 215.758 96.4286 215.528 96.1416C215.299 95.8546 214.989 95.6537 214.598 95.5389C214.208 95.4127 213.715 95.3495 213.118 95.3495H211.568V102.72H213.118Z" fill="white"/>
<path d="M229.678 105.148L229.729 95.1429C229.729 95.0625 229.723 94.9822 229.712 94.9018C229.7 94.81 229.66 94.764 229.591 94.764C229.534 94.764 229.459 94.8214 229.368 94.9362C229.276 95.0396 229.184 95.1601 229.092 95.2979L223.513 104.2C223.421 104.35 223.323 104.493 223.22 104.631C223.128 104.757 223.019 104.872 222.893 104.975C222.778 105.067 222.64 105.142 222.48 105.199C222.319 105.257 222.118 105.285 221.877 105.285C221.533 105.285 221.269 105.222 221.085 105.096C220.901 104.97 220.763 104.82 220.672 104.648C220.58 104.465 220.522 104.275 220.499 104.08C220.488 103.873 220.482 103.701 220.482 103.563V93.0937H222.084L222.049 102.943C222.049 103.104 222.055 103.236 222.066 103.34C222.078 103.431 222.13 103.477 222.221 103.477C222.29 103.477 222.353 103.443 222.411 103.374C222.468 103.294 222.526 103.207 222.583 103.116L228.076 94.2647C228.363 93.794 228.633 93.4611 228.885 93.2659C229.138 93.0593 229.454 92.956 229.832 92.956C230.188 92.956 230.464 93.0306 230.659 93.1798C230.854 93.3291 230.998 93.507 231.09 93.7136C231.181 93.9088 231.233 94.1097 231.245 94.3163C231.267 94.523 231.279 94.6837 231.279 94.7985V105.148H229.678Z" fill="white"/>
<path d="M244.354 105.148H242.752V95.229C242.752 94.8961 242.678 94.6779 242.528 94.5746C242.379 94.4598 242.167 94.4024 241.891 94.4024H237.604C237.202 94.4024 236.875 94.4541 236.622 94.5574C236.381 94.6607 236.192 94.8157 236.054 95.0223C235.928 95.2175 235.841 95.4586 235.796 95.7456C235.761 96.0326 235.744 96.3655 235.744 96.7443C235.744 97.1117 235.755 97.4503 235.778 97.7603C235.813 98.0702 235.882 98.34 235.985 98.5696C236.1 98.7877 236.26 98.9599 236.467 99.0862C236.685 99.2125 236.978 99.2756 237.345 99.2756H240.29C240.772 99.2756 241.013 99.4765 241.013 99.8783V100.154C241.013 100.292 240.961 100.429 240.858 100.567C240.766 100.693 240.669 100.802 240.565 100.894L235.951 105.148H233.815L238.757 100.67V100.584H236.812C236.295 100.584 235.859 100.492 235.503 100.309C235.158 100.125 234.877 99.8668 234.659 99.5339C234.452 99.201 234.303 98.7992 234.211 98.3285C234.119 97.8464 234.074 97.3183 234.074 96.7443C234.074 96.1818 234.119 95.6767 234.211 95.229C234.315 94.7813 234.475 94.4024 234.693 94.0925C234.923 93.771 235.227 93.5242 235.606 93.352C235.985 93.1798 236.45 93.0937 237.001 93.0937H242.58C243.154 93.0937 243.59 93.2372 243.889 93.5242C244.199 93.7997 244.354 94.2647 244.354 94.919V105.148Z" fill="white"/>
<path d="M131.628 129.412V119.063C131.628 118.42 131.778 117.978 132.076 117.737C132.375 117.484 132.788 117.358 133.316 117.358H140.049C140.577 117.358 140.99 117.484 141.289 117.737C141.599 117.978 141.754 118.42 141.754 119.063V129.412H140.152V119.476C140.152 119.178 140.101 118.971 139.997 118.856C139.894 118.73 139.676 118.667 139.343 118.667H134.022C133.689 118.667 133.471 118.73 133.368 118.856C133.276 118.971 133.23 119.178 133.23 119.476V129.412H131.628Z" fill="white"/>
<path d="M144.771 129.412V118.977C144.771 118.357 144.909 117.932 145.184 117.702C145.471 117.473 145.873 117.358 146.39 117.358H151.917C152.526 117.358 153.025 117.444 153.415 117.616C153.817 117.788 154.133 118.035 154.362 118.357C154.604 118.667 154.77 119.051 154.862 119.51C154.954 119.97 155 120.48 155 121.043C155 121.64 154.954 122.174 154.862 122.644C154.77 123.104 154.604 123.494 154.362 123.815C154.133 124.137 153.817 124.384 153.415 124.556C153.025 124.728 152.526 124.814 151.917 124.814H146.372V129.412H144.771ZM151.349 123.505C151.774 123.505 152.112 123.454 152.365 123.35C152.629 123.236 152.83 123.075 152.968 122.868C153.117 122.662 153.214 122.409 153.26 122.111C153.306 121.801 153.329 121.445 153.329 121.043C153.329 120.653 153.301 120.314 153.243 120.027C153.197 119.729 153.1 119.482 152.95 119.287C152.813 119.08 152.612 118.925 152.348 118.822C152.095 118.718 151.762 118.667 151.349 118.667H147.147C146.803 118.667 146.585 118.73 146.493 118.856C146.413 118.982 146.372 119.183 146.372 119.459V123.505H151.349Z" fill="white"/>
<path d="M163.175 117.22C164.289 117.22 165.225 117.329 165.982 117.547C166.751 117.754 167.371 118.098 167.842 118.581C168.313 119.063 168.651 119.7 168.858 120.492C169.076 121.273 169.185 122.237 169.185 123.385C169.185 124.544 169.076 125.52 168.858 126.312C168.651 127.093 168.313 127.724 167.842 128.206C167.371 128.689 166.751 129.033 165.982 129.24C165.225 129.446 164.289 129.55 163.175 129.55C162.073 129.55 161.138 129.446 160.369 129.24C159.611 129.033 158.991 128.689 158.509 128.206C158.038 127.724 157.694 127.093 157.476 126.312C157.269 125.52 157.166 124.544 157.166 123.385C157.166 122.237 157.269 121.273 157.476 120.492C157.694 119.7 158.038 119.063 158.509 118.581C158.991 118.098 159.611 117.754 160.369 117.547C161.138 117.329 162.073 117.22 163.175 117.22ZM158.836 123.385C158.836 124.303 158.899 125.072 159.025 125.692C159.163 126.312 159.393 126.812 159.714 127.19C160.047 127.569 160.489 127.839 161.04 128C161.603 128.161 162.314 128.241 163.175 128.241C164.036 128.241 164.742 128.161 165.293 128C165.856 127.839 166.298 127.569 166.619 127.19C166.952 126.812 167.182 126.312 167.308 125.692C167.446 125.072 167.515 124.303 167.515 123.385C167.515 122.478 167.446 121.715 167.308 121.095C167.182 120.475 166.952 119.975 166.619 119.597C166.298 119.218 165.856 118.948 165.293 118.787C164.742 118.615 164.036 118.529 163.175 118.529C162.314 118.529 161.603 118.615 161.04 118.787C160.489 118.948 160.047 119.218 159.714 119.597C159.393 119.975 159.163 120.475 159.025 121.095C158.899 121.715 158.836 122.478 158.836 123.385Z" fill="white"/>
<path d="M171.85 129.412C171.551 129.412 171.356 129.475 171.264 129.601C171.184 129.728 171.144 129.934 171.144 130.221V131.736H169.542V129.791C169.542 129.148 169.674 128.706 169.938 128.465C170.214 128.224 170.616 128.103 171.144 128.103H171.522L175.793 118.46C175.988 118.012 176.212 117.697 176.465 117.513C176.729 117.318 177.044 117.22 177.412 117.22C177.813 117.22 178.135 117.318 178.376 117.513C178.617 117.697 178.835 118.012 179.03 118.46L183.284 128.103H183.68C184.208 128.103 184.604 128.224 184.868 128.465C185.143 128.706 185.281 129.148 185.281 129.791V131.736H183.68V130.221C183.68 129.934 183.634 129.728 183.542 129.601C183.45 129.475 183.255 129.412 182.956 129.412H171.85ZM173.176 128.103H181.63L177.756 119.218C177.699 119.103 177.647 119 177.601 118.908C177.555 118.816 177.486 118.77 177.394 118.77C177.314 118.77 177.245 118.822 177.188 118.925C177.142 119.017 177.096 119.114 177.05 119.218L173.176 128.103Z" fill="white"/>
<path d="M190.986 118.546C191.169 118.121 191.376 117.794 191.606 117.565C191.835 117.335 192.18 117.22 192.639 117.22C193.075 117.22 193.419 117.341 193.672 117.582C193.924 117.811 194.137 118.133 194.309 118.546L198.872 129.412H197.185L195.824 126.14H189.436L188.093 129.412H186.405L190.986 118.546ZM189.918 124.831H195.342L193.069 119.304C193.012 119.178 192.949 119.051 192.88 118.925C192.822 118.787 192.742 118.718 192.639 118.718C192.535 118.718 192.455 118.787 192.398 118.925C192.34 119.051 192.283 119.178 192.225 119.304L189.918 124.831Z" fill="white"/>
<path d="M199.916 129.412L205.202 124.28C205.363 124.131 205.524 123.965 205.684 123.781C205.857 123.586 205.943 123.396 205.943 123.213C205.943 123.063 205.874 122.914 205.736 122.765C205.598 122.616 205.466 122.478 205.34 122.352L200.536 117.358H202.585L206.804 121.87C207.022 122.099 207.194 122.329 207.32 122.558C207.447 122.776 207.51 122.995 207.51 123.213C207.51 123.477 207.447 123.735 207.32 123.988C207.205 124.229 206.999 124.498 206.7 124.797L202.034 129.412H199.916ZM209.783 129.412H208.181V117.358H209.783V129.412ZM215.93 129.412L211.246 124.797C210.948 124.498 210.736 124.229 210.609 123.988C210.494 123.735 210.437 123.477 210.437 123.213C210.437 122.995 210.5 122.776 210.626 122.558C210.764 122.329 210.942 122.099 211.16 121.87L215.362 117.358H217.411L212.624 122.352C212.498 122.478 212.36 122.616 212.211 122.765C212.073 122.914 212.004 123.063 212.004 123.213C212.004 123.396 212.09 123.586 212.262 123.781C212.435 123.965 212.601 124.131 212.762 124.28L218.048 129.412H215.93Z" fill="white"/>
</g>
</svg>
