<svg width="321" height="132" viewBox="0 0 321 132" fill="none" xmlns="http://www.w3.org/2000/svg">
<g id="image_infogr_02">
<path fill-rule="evenodd" clip-rule="evenodd" d="M11.5412 23.27C10.6506 23.1216 9.61158 23.7153 9.46315 24.6058C9.31472 25.4964 9.90844 26.5354 10.799 26.6839L28.759 30.0977C28.9074 30.0977 29.0558 30.2462 29.2043 30.3946L33.0634 37.0739C33.2118 37.3708 33.2118 37.5192 33.0634 37.8161C29.2043 42.5658 26.8294 48.2061 26.0872 54.2917C26.0872 54.5886 25.7904 54.8854 25.4935 54.8854H18.6658C18.5173 54.8854 18.3689 54.8854 18.2205 54.5886L6.19771 40.9331C5.60399 40.1909 4.41655 40.0425 3.67441 40.7846C2.93226 41.3784 2.78383 42.5658 3.52598 43.1595L12.5802 53.8464C12.7286 53.9949 12.7286 54.2917 12.7286 54.5886C12.5802 54.8854 12.4317 54.8854 12.1349 54.8854H0.854248V58.2993H12.1349C12.4317 58.2993 12.5802 58.4477 12.7286 58.5962C12.877 58.893 12.877 59.0415 12.5802 59.3383L3.22912 70.0252C2.6354 70.7674 2.6354 71.8064 3.37755 72.4001C4.11969 72.9938 5.1587 73.1422 5.75242 72.4001L17.7752 58.5962C17.9236 58.4477 18.0721 58.2993 18.2205 58.2993H25.0482C25.3451 58.2993 25.642 58.5962 25.642 58.893C25.7904 66.0176 28.3137 72.8454 32.915 78.3373C33.0634 78.4857 33.0634 78.7826 32.915 79.0794L29.2043 85.6103C29.0558 85.7587 28.9074 85.9072 28.759 85.9072L10.9474 89.3211C10.0569 89.4695 9.46315 90.5085 9.61158 91.2506C9.76001 92.1412 10.799 92.7349 11.6896 92.5865L25.4935 89.7663C25.7904 89.7663 25.9388 89.7663 26.0872 90.0632C26.2357 90.3601 26.2357 90.5085 26.0872 90.8053L18.8142 103.422C18.3689 104.312 18.6658 105.351 19.4079 105.797C20.1501 106.242 21.3375 105.945 21.7828 105.203L29.0558 92.5865C29.2043 92.2896 29.3527 92.2896 29.6495 92.2896C29.9464 92.2896 30.0948 92.4381 30.2433 92.7349L34.8446 106.094C35.1414 106.984 36.1804 107.429 37.071 107.133C37.9616 106.836 38.4069 105.797 38.11 104.906L32.1728 87.5399C32.1728 87.3915 32.1728 87.243 32.1728 87.0946L35.1414 81.8996C35.2899 81.7512 35.4383 81.6027 35.5867 81.6027C35.7352 81.6027 35.8836 81.6027 36.1804 81.7511C42.1176 87.0946 49.6875 90.0632 57.7027 90.0632C75.3658 90.0632 89.7634 75.6656 89.7634 58.0024C89.7634 40.3394 75.5142 25.9417 57.8511 25.9417C49.8359 25.9417 42.266 28.9103 36.3289 34.2538C36.1804 34.4022 36.032 34.4022 35.7352 34.4022C35.5867 34.4022 35.4383 34.2538 35.2899 34.1053L32.3213 28.6134C32.1728 28.465 32.1728 28.3166 32.3213 28.0197L38.2584 10.8019C38.5553 9.91134 38.11 8.87233 37.071 8.57547C36.1804 8.27861 35.1414 8.7239 34.8446 9.76291L30.3917 23.1216C30.3917 23.4184 30.0948 23.5668 29.798 23.5668C29.5011 23.5668 29.3527 23.4184 29.2043 23.27L21.7828 10.5051C21.3375 9.61448 20.1501 9.31762 19.4079 9.91134C18.5173 10.3566 18.2205 11.5441 18.8142 12.2862L26.0872 24.7543C26.2357 24.9027 26.2357 25.1996 26.0872 25.4964C25.9388 25.7933 25.642 25.7933 25.4935 25.7933L11.5412 23.27ZM57.9996 0.263428C58.2964 0.263428 58.5933 0.263428 58.7417 0.411857C61.7103 1.154 63.1946 6.05217 63.9367 8.57547C64.2336 9.76291 64.5304 11.0988 64.8273 12.2862C65.1242 13.6221 65.2726 15.1064 65.5695 16.4422C65.7179 17.6297 65.8663 18.8171 65.8663 20.0045C65.8663 21.0435 64.9757 21.9341 63.9367 21.9341C62.8977 21.9341 62.0072 21.0435 62.0072 20.0045C62.0072 17.9265 61.7103 15.8485 61.4134 13.9189C61.1166 12.1378 60.6713 10.3566 60.0776 8.57547C59.7807 7.83333 59.6323 7.09118 59.3354 6.34903C59.0386 5.75531 58.8901 5.1616 58.5933 4.71631C58.4448 4.56788 58.2964 4.41945 57.9996 4.41945C57.7027 4.41945 57.5543 4.71631 57.4058 4.86474C57.109 5.31003 56.8121 5.90374 56.6637 6.49746C56.3668 7.23961 56.07 7.98175 55.9215 8.7239C55.3278 10.5051 54.8825 12.2862 54.5857 14.0674C54.2888 15.9969 53.992 18.2234 53.992 20.153C53.992 21.192 53.1014 22.0825 52.0624 22.0825C51.0234 22.0825 50.1328 21.192 50.1328 20.153C50.1328 18.9655 50.2812 17.7781 50.4297 16.5907C50.5781 15.2548 50.8749 13.7705 51.1718 12.4346C51.4687 11.0988 51.7655 9.91134 52.0624 8.7239C52.8045 6.2006 54.2888 1.30243 57.2574 0.560287C57.4058 0.263428 57.7027 0.263428 57.9996 0.263428ZM57.8511 29.8009C73.4362 29.8009 86.0527 42.4174 86.0527 58.0024C86.0527 73.5875 73.4362 86.204 57.8511 86.204C42.266 86.204 29.6495 73.5875 29.6495 58.0024C29.6495 42.4174 42.266 29.8009 57.8511 29.8009ZM97.3333 101.344C94.9585 101.344 91.9899 99.8595 89.9119 98.6721C88.7244 98.0784 87.6854 97.3362 86.6464 96.7425C85.459 96.0004 84.2716 95.1098 83.2326 94.2192C82.342 93.4771 81.303 92.7349 80.5608 91.8443C79.8187 91.1022 79.8187 89.9148 80.5608 89.1726C81.303 88.4305 82.4904 88.4305 83.2326 89.1726C84.7168 90.6569 86.3496 91.8444 87.9823 93.0318C89.4666 94.0708 91.0993 95.1098 92.732 95.8519C93.4742 96.1488 94.0679 96.5941 94.81 96.8909C95.4038 97.1878 95.9975 97.3362 96.4428 97.4847C96.7396 97.4847 96.8881 97.4847 97.0365 97.3362C97.1849 97.1878 97.3333 97.0394 97.1849 96.7425C97.0365 96.1488 96.8881 95.5551 96.5912 95.1098C96.2943 94.3677 95.9975 93.7739 95.5522 93.0318C94.6616 91.3991 93.771 89.7663 92.732 88.282C91.5446 86.5009 90.3572 84.8682 88.8729 83.3839C88.1307 82.6417 88.1307 81.4543 88.8729 80.7121C89.615 79.97 90.8024 79.97 91.5446 80.7121C92.4352 81.6027 93.1773 82.4933 93.9195 83.3839C94.81 84.5713 95.5522 85.6103 96.4428 86.7978C97.1849 87.8368 97.7786 89.0242 98.3724 90.0632C99.5598 92.2896 102.083 96.8909 100.45 99.5627C100.302 99.8595 100.154 100.008 100.005 100.156C99.2629 101.047 98.3723 101.344 97.3333 101.344ZM97.6302 65.8692C98.8176 65.8692 100.005 65.7208 101.193 65.5723C102.528 65.4239 104.013 65.1271 105.349 64.8302C106.536 64.5333 107.872 64.2365 109.059 63.9396C111.583 63.1975 116.481 61.7132 117.223 58.7446C117.223 58.4477 117.371 58.1509 117.371 57.854C117.371 57.5572 117.371 57.2603 117.223 56.9634C116.481 53.9949 111.583 52.5106 109.059 51.7684C107.872 51.4716 106.536 51.1747 105.349 50.8778C104.013 50.581 102.528 50.4326 101.193 50.1357C100.005 49.9873 98.8176 49.8388 97.6302 49.8388C96.5912 49.8388 95.7006 50.7294 95.7006 51.7684C95.7006 52.8074 96.5912 53.698 97.6302 53.698C99.7082 53.698 101.786 53.9949 103.716 54.2917C105.497 54.5886 107.278 55.0339 109.059 55.6276C109.801 55.9244 110.544 56.0729 111.286 56.3697C111.879 56.6666 112.473 56.815 112.918 57.1119C113.067 57.2603 113.215 57.4087 113.215 57.7056C113.215 58.0024 113.067 58.1509 112.918 58.2993C112.473 58.5962 111.879 58.893 111.286 59.0415C110.544 59.3383 109.801 59.6352 109.059 59.7836C107.278 60.3773 105.497 60.8226 103.716 61.1195C101.786 61.4163 99.5598 61.7132 97.6302 61.7132C96.5912 61.7132 95.7006 62.6038 95.7006 63.6428C95.7006 65.1271 96.5912 65.8692 97.6302 65.8692ZM90.2087 36.0349C89.7634 36.0349 89.1697 35.8865 88.8729 35.4412C88.1307 34.699 88.1307 33.5116 88.8729 32.7695C90.3572 31.2852 91.5446 29.6524 92.732 28.0197C93.771 26.5354 94.6616 24.9027 95.5522 23.27C95.849 22.6763 96.2943 21.9341 96.5912 21.192C96.8881 20.5983 97.0365 20.0045 97.1849 19.5592C97.1849 19.4108 97.1849 19.114 97.0365 18.9655C96.8881 18.8171 96.7396 18.8171 96.4428 18.8171C95.849 18.9655 95.2553 19.114 94.81 19.4108C94.0679 19.7077 93.4742 20.0045 92.732 20.4498C91.0993 21.3404 89.4666 22.231 87.9823 23.27C86.3496 24.4574 84.7168 25.6448 83.2326 27.1291C82.4904 27.8713 81.303 27.8713 80.5608 27.1291C79.8187 26.387 79.8187 25.1996 80.5608 24.4574C81.4514 23.5668 82.342 22.8247 83.2326 22.0825C84.42 21.192 85.459 20.4498 86.6464 19.5592C87.6854 18.8171 88.8729 18.2234 89.9119 17.4812C92.1383 16.1454 96.7396 13.7705 99.4114 15.4032C99.7082 15.5517 99.8566 15.7001 100.005 15.9969C100.154 16.1454 100.302 16.4422 100.45 16.5907C102.083 19.2624 99.5598 23.7153 98.3724 26.0901C97.7786 27.2776 97.0365 28.3166 96.4428 29.3556C95.7006 30.543 94.81 31.7305 93.9195 32.7695C93.1773 33.66 92.4352 34.699 91.5446 35.5896C91.2477 35.8865 90.654 36.0349 90.2087 36.0349ZM57.8511 117.671C57.5543 117.671 57.2574 117.671 56.9605 117.523C53.992 116.78 52.5077 111.882 51.7655 109.359C51.4687 108.172 51.1718 106.836 50.875 105.648C50.5781 104.312 50.4297 102.828 50.1328 101.492C49.9844 100.305 49.8359 99.1174 49.8359 97.9299C49.8359 96.8909 50.7265 96.0004 51.7655 96.0004C52.8045 96.0004 53.6951 96.8909 53.6951 97.9299C53.6951 100.008 53.992 102.086 54.2888 104.016C54.5857 105.797 55.031 107.578 55.6247 109.359C55.9215 110.101 56.07 110.843 56.3668 111.585C56.6637 112.179 56.8121 112.773 57.109 113.218C57.2574 113.367 57.4058 113.515 57.7027 113.515C57.9996 113.515 58.148 113.367 58.2964 113.218C58.5933 112.773 58.8901 112.179 59.0386 111.585C59.3354 110.843 59.6323 110.101 59.7807 109.359C60.3744 107.578 60.8197 105.797 61.1166 104.016C61.4134 102.086 61.7103 99.8595 61.7103 97.9299C61.7103 96.8909 62.6009 96.0004 63.6399 96.0004C64.6789 96.0004 65.5695 96.8909 65.5695 97.9299C65.5695 99.1174 65.421 100.305 65.2726 101.492C65.1242 102.828 64.8273 104.312 64.5304 105.648C64.2336 106.836 63.9367 108.172 63.6399 109.359C62.8977 111.882 61.4134 116.78 58.4448 117.523C58.4448 117.671 58.148 117.671 57.8511 117.671Z" fill="white"/>
<path d="M147.991 48.0092C147.616 48.0092 147.24 47.9675 146.864 47.884C146.53 47.8005 146.05 47.6335 145.424 47.383C144.798 47.0908 144.297 46.5481 143.921 45.755C143.545 44.9618 143.358 43.9599 143.358 42.7493C143.358 40.2029 144.255 38.2826 146.05 36.9885L166.338 23.0875C167.549 22.2526 168.321 21.3759 168.655 20.4575C168.989 19.4974 169.156 18.2659 169.156 16.7631C169.156 14.5506 168.78 13.0061 168.029 12.1294C167.319 11.211 165.9 10.7518 163.771 10.7518H146.301V4.17701H167.59C171.181 4.17701 173.727 5.11627 175.23 6.9948C176.774 8.83157 177.547 11.7746 177.547 15.8239C177.547 18.9547 177.171 21.3759 176.42 23.0875C175.668 24.7573 174.124 26.4062 171.786 28.0342L154.128 40.3073C154.086 40.349 154.002 40.4116 153.877 40.4951C153.752 40.5786 153.648 40.683 153.564 40.8082C153.481 40.8917 153.439 40.9752 153.439 41.0587C153.439 41.3091 153.606 41.4344 153.94 41.4344H175.731V48.0092H147.991Z" fill="white"/>
<path d="M185.153 48.0092V41.4344H205.316C207.069 41.4344 208.301 40.8917 209.01 39.8063C209.72 38.721 210.075 37.0303 210.075 34.7343C210.075 32.6888 209.72 31.186 209.01 30.2259C208.343 29.224 207.111 28.723 205.316 28.723H193.043C190.371 28.723 188.347 28.1804 186.969 27.095C185.592 26.0096 184.903 23.9432 184.903 20.8959V9.81258C184.903 8.05929 185.383 6.68171 186.343 5.67983C187.345 4.67795 188.806 4.17701 190.726 4.17701H217.151V10.7518H195.235C194.817 10.7518 194.462 10.7936 194.17 10.8771C193.92 10.9606 193.69 11.1693 193.481 11.5033C193.273 11.8372 193.168 12.3381 193.168 13.0061V18.4538C193.168 19.7896 193.377 20.7498 193.794 21.3342C194.254 21.8769 195.13 22.1482 196.424 22.1482H208.885C212.475 22.1482 214.98 23.2336 216.399 25.4043C217.86 27.5333 218.591 30.5389 218.591 34.4212C218.591 35.9658 218.528 37.3434 218.403 38.554C218.278 39.7646 218.006 40.996 217.589 42.2484C217.172 43.459 216.608 44.4818 215.898 45.3167C215.23 46.1098 214.291 46.7569 213.081 47.2578C211.912 47.7587 210.513 48.0092 208.885 48.0092H185.153Z" fill="white"/>
<path d="M145.347 69.7938C145.508 69.4264 145.692 69.1509 145.898 68.9672C146.116 68.7836 146.444 68.6917 146.88 68.6917C147.327 68.6917 147.655 68.7836 147.861 68.9672C148.068 69.1509 148.252 69.4264 148.412 69.7938L153.079 80.8833H151.374L147.207 70.5859C147.173 70.5055 147.138 70.4252 147.104 70.3448C147.069 70.2645 146.995 70.2243 146.88 70.2243C146.765 70.2243 146.685 70.2702 146.639 70.362C146.604 70.4424 146.576 70.517 146.553 70.5859L142.385 80.8833H140.681L145.347 69.7938Z" fill="white"/>
<path d="M156.5 80.8833C155.972 80.8833 155.558 80.7513 155.26 80.4873C154.961 80.2232 154.812 79.787 154.812 79.1786V70.5342C154.812 69.8914 154.961 69.4494 155.26 69.2083C155.558 68.9558 155.972 68.8295 156.5 68.8295H163.956V70.1382H157.206C156.873 70.1382 156.655 70.2013 156.551 70.3276C156.459 70.4424 156.413 70.649 156.413 70.9475V74.0643H163.784V75.373H156.413V78.7481C156.413 79.0466 156.459 79.2589 156.551 79.3852C156.655 79.5115 156.873 79.5746 157.206 79.5746H164.025V80.8833H156.5Z" fill="white"/>
<path d="M170.279 80.8833V70.1382H165.406V68.8295H176.754V70.1382H171.881V80.8833H170.279Z" fill="white"/>
<path d="M193.707 80.8833H192.105V75.373H185.062V80.8833H183.461V68.8295H185.062V74.0643H192.105V68.8295H193.707V80.8833Z" fill="white"/>
<path d="M200.01 70.0176C200.194 69.5929 200.4 69.2657 200.63 69.0361C200.86 68.8065 201.204 68.6917 201.663 68.6917C202.099 68.6917 202.444 68.8123 202.696 69.0533C202.949 69.2829 203.161 69.6044 203.333 70.0176L207.897 80.8833H206.209L204.849 77.6116H198.46L197.117 80.8833H195.43L200.01 70.0176ZM198.942 76.3029H204.367L202.094 70.7753C202.036 70.649 201.973 70.5228 201.904 70.3965C201.847 70.2587 201.766 70.1898 201.663 70.1898C201.56 70.1898 201.479 70.2587 201.422 70.3965C201.365 70.5228 201.307 70.649 201.25 70.7753L198.942 76.3029Z" fill="white"/>
<path d="M214.43 80.8833V70.4481C214.43 69.8282 214.568 69.4035 214.843 69.1739C215.13 68.9443 215.532 68.8295 216.049 68.8295H221.576C222.185 68.8295 222.684 68.9156 223.074 69.0878C223.476 69.26 223.792 69.5068 224.021 69.8282C224.263 70.1382 224.429 70.5228 224.521 70.982C224.613 71.4411 224.659 71.952 224.659 72.5145C224.659 73.1115 224.613 73.6453 224.521 74.116C224.429 74.5751 224.263 74.9655 224.021 75.2869C223.792 75.6083 223.476 75.8552 223.074 76.0274C222.684 76.1995 222.185 76.2857 221.576 76.2857H216.031V80.8833H214.43ZM221.008 74.977C221.433 74.977 221.771 74.9253 222.024 74.822C222.288 74.7072 222.489 74.5464 222.627 74.3398C222.776 74.1332 222.873 73.8806 222.919 73.5821C222.965 73.2722 222.988 72.9163 222.988 72.5145C222.988 72.1242 222.96 71.7855 222.902 71.4986C222.856 71.2001 222.759 70.9533 222.609 70.7581C222.472 70.5515 222.271 70.3965 222.007 70.2932C221.754 70.1898 221.421 70.1382 221.008 70.1382H216.806C216.462 70.1382 216.244 70.2013 216.152 70.3276C216.072 70.4539 216.031 70.6548 216.031 70.9303V74.977H221.008Z" fill="white"/>
<path d="M238.62 80.8833V68.8295H240.222V80.8833H238.62ZM228.771 68.8295V73.9782H234.522C235.061 73.9782 235.503 74.0643 235.848 74.2365C236.192 74.4087 236.462 74.6498 236.657 74.9597C236.864 75.2582 237.007 75.6198 237.088 76.0446C237.168 76.4578 237.208 76.9113 237.208 77.4049C237.208 77.8986 237.168 78.3578 237.088 78.7825C237.019 79.2073 236.881 79.5746 236.674 79.8846C236.479 80.1945 236.209 80.4414 235.865 80.625C235.521 80.7972 235.084 80.8833 234.556 80.8833H228.857C228.352 80.8833 227.944 80.7685 227.634 80.5389C227.324 80.2979 227.169 79.8731 227.169 79.2647V68.8295H228.771ZM228.771 75.2869V78.7481C228.771 79.0466 228.816 79.2589 228.908 79.3852C229.012 79.5115 229.23 79.5746 229.563 79.5746H233.799C234.155 79.5746 234.442 79.5287 234.66 79.4369C234.889 79.3335 235.067 79.19 235.194 79.0064C235.331 78.8227 235.423 78.5988 235.469 78.3348C235.515 78.0593 235.538 77.7493 235.538 77.4049C235.538 77.0605 235.515 76.7563 235.469 76.4923C235.423 76.2282 235.337 76.0101 235.211 75.8379C235.084 75.6543 234.907 75.5165 234.677 75.4247C234.459 75.3328 234.166 75.2869 233.799 75.2869H228.771Z" fill="white"/>
<path d="M253.484 80.8833H251.882V75.373H244.839V80.8833H243.238V68.8295H244.839V74.0643H251.882V68.8295H253.484V80.8833Z" fill="white"/>
<path d="M265.142 80.8833L259.58 76.2512C259.236 75.9642 259.012 75.6944 258.909 75.4419C258.806 75.1778 258.754 74.9253 258.754 74.6842C258.754 74.4891 258.811 74.2767 258.926 74.0471C259.041 73.8175 259.23 73.5879 259.494 73.3583L264.591 68.8295H266.675L260.992 73.806C260.832 73.9438 260.677 74.0758 260.527 74.2021C260.39 74.3283 260.321 74.4891 260.321 74.6842C260.321 74.9023 260.407 75.0975 260.579 75.2697C260.751 75.4419 260.935 75.6083 261.13 75.7691L267.312 80.8833H265.142ZM256.498 68.8295H258.1V80.8833H256.498V68.8295Z" fill="white"/>
<path d="M270.639 80.8833C270.111 80.8833 269.697 80.7513 269.399 80.4873C269.1 80.2232 268.951 79.787 268.951 79.1786V70.5342C268.951 69.8914 269.1 69.4494 269.399 69.2083C269.697 68.9558 270.111 68.8295 270.639 68.8295H278.095V70.1382H271.345C271.012 70.1382 270.794 70.2013 270.69 70.3276C270.599 70.4424 270.553 70.649 270.553 70.9475V74.0643H277.923V75.373H270.553V78.7481C270.553 79.0466 270.599 79.2589 270.69 79.3852C270.794 79.5115 271.012 79.5746 271.345 79.5746H278.164V80.8833H270.639Z" fill="white"/>
<path d="M150.616 105.148L145.054 100.515C144.71 100.228 144.486 99.9587 144.383 99.7061C144.28 99.4421 144.228 99.1895 144.228 98.9485C144.228 98.7533 144.285 98.5409 144.4 98.3113C144.515 98.0817 144.704 97.8521 144.968 97.6225L150.065 93.0937H152.149L146.466 98.0702C146.306 98.208 146.151 98.34 146.002 98.4663C145.864 98.5926 145.795 98.7533 145.795 98.9485C145.795 99.1666 145.881 99.3617 146.053 99.5339C146.225 99.7061 146.409 99.8726 146.604 100.033L152.786 105.148H150.616ZM141.972 93.0937H143.574V105.148H141.972V93.0937Z" fill="white"/>
<path d="M158.49 94.058C158.651 93.6907 158.834 93.4152 159.041 93.2315C159.259 93.0478 159.586 92.956 160.022 92.956C160.47 92.956 160.797 93.0478 161.004 93.2315C161.211 93.4152 161.394 93.6907 161.555 94.058L166.221 105.148H164.517L160.35 94.8501C160.315 94.7698 160.281 94.6894 160.246 94.6091C160.212 94.5287 160.137 94.4885 160.022 94.4885C159.908 94.4885 159.827 94.5344 159.781 94.6263C159.747 94.7066 159.718 94.7813 159.695 94.8501L155.528 105.148H153.823L158.49 94.058Z" fill="white"/>
<path d="M177.15 105.148L177.202 95.1429C177.202 95.0625 177.196 94.9822 177.184 94.9018C177.173 94.81 177.133 94.764 177.064 94.764C177.007 94.764 176.932 94.8214 176.84 94.9362C176.748 95.0396 176.656 95.1601 176.565 95.2979L170.985 104.2C170.894 104.35 170.796 104.493 170.693 104.631C170.601 104.757 170.492 104.872 170.365 104.975C170.251 105.067 170.113 105.142 169.952 105.199C169.791 105.257 169.591 105.285 169.349 105.285C169.005 105.285 168.741 105.222 168.557 105.096C168.374 104.97 168.236 104.82 168.144 104.648C168.052 104.465 167.995 104.275 167.972 104.08C167.96 103.873 167.955 103.701 167.955 103.563V93.0937H169.556L169.522 102.943C169.522 103.104 169.527 103.236 169.539 103.34C169.55 103.431 169.602 103.477 169.694 103.477C169.763 103.477 169.826 103.443 169.883 103.374C169.941 103.294 169.998 103.207 170.055 103.116L175.549 94.2647C175.836 93.794 176.105 93.4611 176.358 93.2659C176.61 93.0593 176.926 92.956 177.305 92.956C177.661 92.956 177.936 93.0306 178.132 93.1798C178.327 93.3291 178.47 93.507 178.562 93.7136C178.654 93.9088 178.706 94.1097 178.717 94.3163C178.74 94.523 178.751 94.6837 178.751 94.7985V105.148H177.15Z" fill="white"/>
<path d="M190.397 103.908C190.225 104.333 190.041 104.671 189.846 104.924C189.651 105.165 189.347 105.285 188.933 105.285C188.52 105.285 188.21 105.165 188.004 104.924C187.808 104.671 187.625 104.333 187.452 103.908L183.871 94.9707C183.836 94.8788 183.79 94.7927 183.733 94.7124C183.676 94.632 183.618 94.5919 183.561 94.5919C183.492 94.5919 183.435 94.6263 183.389 94.6952C183.354 94.764 183.337 94.8444 183.337 94.9362L183.371 105.148H181.77V94.3163C181.77 93.8801 181.902 93.5472 182.166 93.3176C182.442 93.0765 182.82 92.956 183.303 92.956C183.555 92.956 183.773 92.9904 183.957 93.0593C184.141 93.1282 184.296 93.2257 184.422 93.352C184.56 93.4668 184.674 93.6103 184.766 93.7825C184.858 93.9547 184.944 94.1384 185.024 94.3335L188.623 103.253C188.669 103.368 188.71 103.466 188.744 103.546C188.79 103.626 188.853 103.667 188.933 103.667C189.002 103.667 189.06 103.626 189.106 103.546C189.152 103.466 189.197 103.368 189.243 103.253L192.842 94.3335C192.992 93.9432 193.181 93.6161 193.411 93.352C193.652 93.088 194.03 92.956 194.547 92.956C195.029 92.956 195.408 93.0765 195.684 93.3176C195.959 93.5472 196.097 93.8801 196.097 94.3163V105.148H194.495L194.53 94.9362C194.53 94.7755 194.501 94.6779 194.444 94.6435C194.386 94.6091 194.34 94.5919 194.306 94.5919C194.249 94.5919 194.191 94.632 194.134 94.7124C194.076 94.7927 194.03 94.8788 193.996 94.9707L190.397 103.908Z" fill="white"/>
<path d="M202.406 94.2819C202.589 93.8571 202.796 93.53 203.026 93.3004C203.255 93.0708 203.6 92.956 204.059 92.956C204.495 92.956 204.839 93.0765 205.092 93.3176C205.344 93.5472 205.557 93.8686 205.729 94.2819L210.292 105.148H208.605L207.244 101.876H200.856L199.513 105.148H197.825L202.406 94.2819ZM201.338 100.567H206.762L204.489 95.0396C204.432 94.9133 204.369 94.787 204.3 94.6607C204.242 94.523 204.162 94.4541 204.059 94.4541C203.955 94.4541 203.875 94.523 203.818 94.6607C203.76 94.787 203.703 94.9133 203.645 95.0396L201.338 100.567Z" fill="white"/>
<path d="M214.062 105.148V94.4024H209.189V93.0937H220.537V94.4024H215.664V105.148H214.062Z" fill="white"/>
<path d="M231.638 105.148L231.689 95.1429C231.689 95.0625 231.684 94.9822 231.672 94.9018C231.661 94.81 231.62 94.764 231.551 94.764C231.494 94.764 231.419 94.8214 231.328 94.9362C231.236 95.0396 231.144 95.1601 231.052 95.2979L225.473 104.2C225.381 104.35 225.283 104.493 225.18 104.631C225.088 104.757 224.979 104.872 224.853 104.975C224.738 105.067 224.6 105.142 224.44 105.199C224.279 105.257 224.078 105.285 223.837 105.285C223.493 105.285 223.229 105.222 223.045 105.096C222.861 104.97 222.723 104.82 222.632 104.648C222.54 104.465 222.482 104.275 222.459 104.08C222.448 103.873 222.442 103.701 222.442 103.563V93.0937H224.044L224.009 102.943C224.009 103.104 224.015 103.236 224.026 103.34C224.038 103.431 224.09 103.477 224.181 103.477C224.25 103.477 224.313 103.443 224.371 103.374C224.428 103.294 224.486 103.207 224.543 103.116L230.036 94.2647C230.323 93.794 230.593 93.4611 230.845 93.2659C231.098 93.0593 231.414 92.956 231.793 92.956C232.148 92.956 232.424 93.0306 232.619 93.1798C232.814 93.3291 232.958 93.507 233.05 93.7136C233.141 93.9088 233.193 94.1097 233.205 94.3163C233.228 94.523 233.239 94.6837 233.239 94.7985V105.148H231.638Z" fill="white"/>
<path d="M244.127 105.148V99.8783H238.582C237.756 99.8783 237.118 99.6372 236.671 99.1551C236.223 98.6729 235.999 98.0186 235.999 97.192V93.0937H237.601V96.9165C237.601 97.502 237.721 97.9267 237.962 98.1908C238.203 98.4433 238.617 98.5696 239.202 98.5696H244.127V93.0937H245.728V105.148H244.127Z" fill="white"/>
<path d="M250.432 105.148C249.904 105.148 249.49 105.016 249.192 104.752C248.894 104.487 248.744 104.051 248.744 103.443V94.7985C248.744 94.1556 248.894 93.7136 249.192 93.4726C249.49 93.22 249.904 93.0937 250.432 93.0937H257.888V94.4024H251.138C250.805 94.4024 250.587 94.4656 250.483 94.5919C250.392 94.7066 250.346 94.9133 250.346 95.2118V98.3285H257.716V99.6372H250.346V103.012C250.346 103.311 250.392 103.523 250.483 103.649C250.587 103.776 250.805 103.839 251.138 103.839H257.957V105.148H250.432Z" fill="white"/>
<path d="M265.141 105.148C264.131 105.148 263.299 104.993 262.644 104.683C262.002 104.361 261.491 103.931 261.112 103.391C260.733 102.84 260.469 102.197 260.32 101.463C260.182 100.728 260.113 99.9415 260.113 99.1034C260.113 98.2654 260.182 97.4848 260.32 96.7615C260.469 96.0268 260.733 95.3897 261.112 94.8501C261.502 94.2991 262.025 93.8686 262.679 93.5587C263.345 93.2487 264.194 93.0937 265.227 93.0937H269.894V94.4024H265.761C265.004 94.4024 264.372 94.4943 263.867 94.6779C263.362 94.8616 262.954 95.1486 262.644 95.5389C262.335 95.9178 262.111 96.4057 261.973 97.0026C261.847 97.5881 261.783 98.2884 261.783 99.1034C261.783 99.9185 261.847 100.625 261.973 101.221C262.099 101.818 262.312 102.312 262.61 102.702C262.92 103.093 263.322 103.38 263.815 103.563C264.309 103.747 264.929 103.839 265.675 103.839H270.066V105.148H265.141Z" fill="white"/>
<path d="M281.051 105.148L275.489 100.515C275.144 100.228 274.92 99.9587 274.817 99.7061C274.714 99.4421 274.662 99.1895 274.662 98.9485C274.662 98.7533 274.719 98.5409 274.834 98.3113C274.949 98.0817 275.138 97.8521 275.402 97.6225L280.5 93.0937H282.583L276.901 98.0702C276.74 98.208 276.585 98.34 276.436 98.4663C276.298 98.5926 276.229 98.7533 276.229 98.9485C276.229 99.1666 276.315 99.3617 276.487 99.5339C276.659 99.7061 276.843 99.8726 277.038 100.033L283.22 105.148H281.051ZM272.406 93.0937H274.008V105.148H272.406V93.0937Z" fill="white"/>
<path d="M289.667 92.956C290.781 92.956 291.716 93.065 292.474 93.2831C293.243 93.4898 293.863 93.8342 294.334 94.3163C294.804 94.7985 295.143 95.4356 295.35 96.2277C295.568 97.0084 295.677 97.9727 295.677 99.1207C295.677 100.28 295.568 101.256 295.35 102.048C295.143 102.829 294.804 103.46 294.334 103.942C293.863 104.424 293.243 104.769 292.474 104.975C291.716 105.182 290.781 105.285 289.667 105.285C288.565 105.285 287.629 105.182 286.86 104.975C286.103 104.769 285.483 104.424 285 103.942C284.53 103.46 284.185 102.829 283.967 102.048C283.761 101.256 283.657 100.28 283.657 99.1207C283.657 97.9727 283.761 97.0084 283.967 96.2277C284.185 95.4356 284.53 94.7985 285 94.3163C285.483 93.8342 286.103 93.4898 286.86 93.2831C287.629 93.065 288.565 92.956 289.667 92.956ZM285.328 99.1207C285.328 100.039 285.391 100.808 285.517 101.428C285.655 102.048 285.884 102.547 286.206 102.926C286.539 103.305 286.981 103.575 287.532 103.736C288.094 103.896 288.806 103.977 289.667 103.977C290.528 103.977 291.234 103.896 291.785 103.736C292.348 103.575 292.79 103.305 293.111 102.926C293.444 102.547 293.674 102.048 293.8 101.428C293.938 100.808 294.006 100.039 294.006 99.1207C294.006 98.2137 293.938 97.4503 293.8 96.8304C293.674 96.2105 293.444 95.7111 293.111 95.3323C292.79 94.9535 292.348 94.6837 291.785 94.523C291.234 94.3508 290.528 94.2647 289.667 94.2647C288.806 94.2647 288.094 94.3508 287.532 94.523C286.981 94.6837 286.539 94.9535 286.206 95.3323C285.884 95.7111 285.655 96.2105 285.517 96.8304C285.391 97.4503 285.328 98.2137 285.328 99.1207Z" fill="white"/>
<path d="M298.355 105.148V94.7985C298.355 94.1556 298.504 93.7136 298.803 93.4726C299.101 93.22 299.515 93.0937 300.043 93.0937H307.43V94.4024H300.749C300.416 94.4024 300.198 94.4656 300.094 94.5919C300.002 94.7066 299.957 94.9133 299.957 95.2118V105.148H298.355Z" fill="white"/>
<path d="M314.136 92.956C315.25 92.956 316.185 93.065 316.943 93.2831C317.712 93.4898 318.332 93.8342 318.803 94.3163C319.273 94.7985 319.612 95.4356 319.819 96.2277C320.037 97.0084 320.146 97.9727 320.146 99.1207C320.146 100.28 320.037 101.256 319.819 102.048C319.612 102.829 319.273 103.46 318.803 103.942C318.332 104.424 317.712 104.769 316.943 104.975C316.185 105.182 315.25 105.285 314.136 105.285C313.034 105.285 312.098 105.182 311.329 104.975C310.572 104.769 309.952 104.424 309.47 103.942C308.999 103.46 308.655 102.829 308.436 102.048C308.23 101.256 308.126 100.28 308.126 99.1207C308.126 97.9727 308.23 97.0084 308.436 96.2277C308.655 95.4356 308.999 94.7985 309.47 94.3163C309.952 93.8342 310.572 93.4898 311.329 93.2831C312.098 93.065 313.034 92.956 314.136 92.956ZM309.797 99.1207C309.797 100.039 309.86 100.808 309.986 101.428C310.124 102.048 310.354 102.547 310.675 102.926C311.008 103.305 311.45 103.575 312.001 103.736C312.563 103.896 313.275 103.977 314.136 103.977C314.997 103.977 315.703 103.896 316.254 103.736C316.817 103.575 317.259 103.305 317.58 102.926C317.913 102.547 318.143 102.048 318.269 101.428C318.407 100.808 318.476 100.039 318.476 99.1207C318.476 98.2137 318.407 97.4503 318.269 96.8304C318.143 96.2105 317.913 95.7111 317.58 95.3323C317.259 94.9535 316.817 94.6837 316.254 94.523C315.703 94.3508 314.997 94.2647 314.136 94.2647C313.275 94.2647 312.563 94.3508 312.001 94.523C311.45 94.6837 311.008 94.9535 310.675 95.3323C310.354 95.7111 310.124 96.2105 309.986 96.8304C309.86 97.4503 309.797 98.2137 309.797 99.1207Z" fill="white"/>
<path d="M147.637 117.22C148.751 117.22 149.687 117.329 150.444 117.547C151.213 117.754 151.833 118.098 152.304 118.581C152.775 119.063 153.113 119.7 153.32 120.492C153.538 121.273 153.647 122.237 153.647 123.385C153.647 124.544 153.538 125.52 153.32 126.312C153.113 127.093 152.775 127.724 152.304 128.206C151.833 128.689 151.213 129.033 150.444 129.24C149.687 129.446 148.751 129.55 147.637 129.55C146.535 129.55 145.6 129.446 144.831 129.24C144.073 129.033 143.453 128.689 142.971 128.206C142.5 127.724 142.156 127.093 141.938 126.312C141.731 125.52 141.628 124.544 141.628 123.385C141.628 122.237 141.731 121.273 141.938 120.492C142.156 119.7 142.5 119.063 142.971 118.581C143.453 118.098 144.073 117.754 144.831 117.547C145.6 117.329 146.535 117.22 147.637 117.22ZM143.298 123.385C143.298 124.303 143.361 125.072 143.487 125.692C143.625 126.312 143.855 126.812 144.176 127.19C144.509 127.569 144.951 127.839 145.502 128C146.065 128.161 146.776 128.241 147.637 128.241C148.498 128.241 149.204 128.161 149.755 128C150.318 127.839 150.76 127.569 151.081 127.19C151.414 126.812 151.644 126.312 151.77 125.692C151.908 125.072 151.977 124.303 151.977 123.385C151.977 122.478 151.908 121.715 151.77 121.095C151.644 120.475 151.414 119.975 151.081 119.597C150.76 119.218 150.318 118.948 149.755 118.787C149.204 118.615 148.498 118.529 147.637 118.529C146.776 118.529 146.065 118.615 145.502 118.787C144.951 118.948 144.509 119.218 144.176 119.597C143.855 119.975 143.625 120.475 143.487 121.095C143.361 121.715 143.298 122.478 143.298 123.385Z" fill="white"/>
<path d="M165.934 118.667H158.719C158.386 118.667 158.168 118.73 158.065 118.856C157.973 118.971 157.927 119.178 157.927 119.476V122.593H163.851C164.39 122.593 164.832 122.679 165.176 122.851C165.521 123.012 165.791 123.241 165.986 123.54C166.192 123.838 166.336 124.194 166.416 124.607C166.497 125.021 166.537 125.474 166.537 125.968C166.537 126.462 166.497 126.921 166.416 127.345C166.347 127.759 166.21 128.12 166.003 128.43C165.808 128.74 165.538 128.981 165.194 129.154C164.849 129.326 164.413 129.412 163.885 129.412H158.013C157.485 129.412 157.072 129.291 156.773 129.05C156.475 128.798 156.326 128.35 156.326 127.707V119.063C156.326 118.42 156.475 117.978 156.773 117.737C157.072 117.484 157.485 117.358 158.013 117.358H165.934V118.667ZM157.927 123.901V127.277C157.927 127.575 157.973 127.787 158.065 127.914C158.168 128.04 158.386 128.103 158.719 128.103H163.127C163.483 128.103 163.77 128.057 163.988 127.965C164.218 127.874 164.396 127.736 164.522 127.552C164.66 127.368 164.752 127.145 164.798 126.881C164.844 126.616 164.867 126.312 164.867 125.968C164.867 125.623 164.844 125.325 164.798 125.072C164.752 124.808 164.666 124.59 164.539 124.418C164.413 124.246 164.235 124.12 164.006 124.039C163.787 123.947 163.495 123.901 163.127 123.901H157.927Z" fill="white"/>
<path d="M174.881 117.22C175.995 117.22 176.93 117.329 177.688 117.547C178.457 117.754 179.077 118.098 179.548 118.581C180.018 119.063 180.357 119.7 180.564 120.492C180.782 121.273 180.891 122.237 180.891 123.385C180.891 124.544 180.782 125.52 180.564 126.312C180.357 127.093 180.018 127.724 179.548 128.206C179.077 128.689 178.457 129.033 177.688 129.24C176.93 129.446 175.995 129.55 174.881 129.55C173.779 129.55 172.844 129.446 172.074 129.24C171.317 129.033 170.697 128.689 170.215 128.206C169.744 127.724 169.4 127.093 169.181 126.312C168.975 125.52 168.872 124.544 168.872 123.385C168.872 122.237 168.975 121.273 169.181 120.492C169.4 119.7 169.744 119.063 170.215 118.581C170.697 118.098 171.317 117.754 172.074 117.547C172.844 117.329 173.779 117.22 174.881 117.22ZM170.542 123.385C170.542 124.303 170.605 125.072 170.731 125.692C170.869 126.312 171.099 126.812 171.42 127.19C171.753 127.569 172.195 127.839 172.746 128C173.308 128.161 174.02 128.241 174.881 128.241C175.742 128.241 176.448 128.161 176.999 128C177.562 127.839 178.004 127.569 178.325 127.19C178.658 126.812 178.888 126.312 179.014 125.692C179.152 125.072 179.221 124.303 179.221 123.385C179.221 122.478 179.152 121.715 179.014 121.095C178.888 120.475 178.658 119.975 178.325 119.597C178.004 119.218 177.562 118.948 176.999 118.787C176.448 118.615 175.742 118.529 174.881 118.529C174.02 118.529 173.308 118.615 172.746 118.787C172.195 118.948 171.753 119.218 171.42 119.597C171.099 119.975 170.869 120.475 170.731 121.095C170.605 121.715 170.542 122.478 170.542 123.385Z" fill="white"/>
<path d="M183.569 129.412V118.977C183.569 118.357 183.707 117.932 183.983 117.702C184.27 117.473 184.671 117.358 185.188 117.358H190.715C191.324 117.358 191.823 117.444 192.214 117.616C192.615 117.788 192.931 118.035 193.161 118.357C193.402 118.667 193.568 119.051 193.66 119.51C193.752 119.97 193.798 120.48 193.798 121.043C193.798 121.64 193.752 122.174 193.66 122.644C193.568 123.104 193.402 123.494 193.161 123.815C192.931 124.137 192.615 124.384 192.214 124.556C191.823 124.728 191.324 124.814 190.715 124.814H185.171V129.412H183.569ZM190.147 123.505C190.572 123.505 190.911 123.454 191.163 123.35C191.427 123.236 191.628 123.075 191.766 122.868C191.915 122.662 192.013 122.409 192.059 122.111C192.105 121.801 192.128 121.445 192.128 121.043C192.128 120.653 192.099 120.314 192.041 120.027C191.995 119.729 191.898 119.482 191.749 119.287C191.611 119.08 191.41 118.925 191.146 118.822C190.893 118.718 190.561 118.667 190.147 118.667H185.946C185.601 118.667 185.383 118.73 185.291 118.856C185.211 118.982 185.171 119.183 185.171 119.459V123.505H190.147Z" fill="white"/>
<path d="M199.029 129.412L200.303 127.053L195.017 117.358H196.79L201.13 125.555L205.263 117.358H207.019L200.768 129.412H199.029Z" fill="white"/>
<path d="M207.873 129.412C207.575 129.412 207.38 129.475 207.288 129.601C207.207 129.728 207.167 129.934 207.167 130.221V131.736H205.566V129.791C205.566 129.148 205.698 128.706 205.962 128.465C206.237 128.224 206.639 128.103 207.167 128.103H207.546L211.817 118.46C212.012 118.012 212.236 117.697 212.488 117.513C212.752 117.318 213.068 117.22 213.435 117.22C213.837 117.22 214.158 117.318 214.399 117.513C214.641 117.697 214.859 118.012 215.054 118.46L219.307 128.103H219.703C220.231 128.103 220.627 128.224 220.891 128.465C221.167 128.706 221.305 129.148 221.305 129.791V131.736H219.703V130.221C219.703 129.934 219.657 129.728 219.565 129.601C219.474 129.475 219.278 129.412 218.98 129.412H207.873ZM209.199 128.103H217.654L213.78 119.218C213.722 119.103 213.671 119 213.625 118.908C213.579 118.816 213.51 118.77 213.418 118.77C213.338 118.77 213.269 118.822 213.211 118.925C213.165 119.017 213.119 119.114 213.074 119.218L209.199 128.103Z" fill="white"/>
<path d="M227.67 117.22C228.784 117.22 229.719 117.329 230.477 117.547C231.246 117.754 231.866 118.098 232.337 118.581C232.808 119.063 233.146 119.7 233.353 120.492C233.571 121.273 233.68 122.237 233.68 123.385C233.68 124.544 233.571 125.52 233.353 126.312C233.146 127.093 232.808 127.724 232.337 128.206C231.866 128.689 231.246 129.033 230.477 129.24C229.719 129.446 228.784 129.55 227.67 129.55C226.568 129.55 225.633 129.446 224.863 129.24C224.106 129.033 223.486 128.689 223.004 128.206C222.533 127.724 222.189 127.093 221.971 126.312C221.764 125.52 221.661 124.544 221.661 123.385C221.661 122.237 221.764 121.273 221.971 120.492C222.189 119.7 222.533 119.063 223.004 118.581C223.486 118.098 224.106 117.754 224.863 117.547C225.633 117.329 226.568 117.22 227.67 117.22ZM223.331 123.385C223.331 124.303 223.394 125.072 223.52 125.692C223.658 126.312 223.888 126.812 224.209 127.19C224.542 127.569 224.984 127.839 225.535 128C226.098 128.161 226.809 128.241 227.67 128.241C228.531 128.241 229.237 128.161 229.788 128C230.351 127.839 230.793 127.569 231.114 127.19C231.447 126.812 231.677 126.312 231.803 125.692C231.941 125.072 232.01 124.303 232.01 123.385C232.01 122.478 231.941 121.715 231.803 121.095C231.677 120.475 231.447 119.975 231.114 119.597C230.793 119.218 230.351 118.948 229.788 118.787C229.237 118.615 228.531 118.529 227.67 118.529C226.809 118.529 226.098 118.615 225.535 118.787C224.984 118.948 224.542 119.218 224.209 119.597C223.888 119.975 223.658 120.475 223.52 121.095C223.394 121.715 223.331 122.478 223.331 123.385Z" fill="white"/>
<path d="M237.96 127.208C237.96 127.541 238.006 127.776 238.098 127.914C238.189 128.04 238.408 128.103 238.752 128.103H243.126C243.803 128.103 244.262 127.942 244.503 127.621C244.756 127.3 244.882 126.777 244.882 126.054C244.882 125.744 244.859 125.463 244.813 125.21C244.767 124.958 244.681 124.74 244.555 124.556C244.44 124.372 244.274 124.234 244.056 124.143C243.849 124.039 243.585 123.988 243.264 123.988H237.96V127.208ZM237.96 122.679H243.074C243.407 122.679 243.677 122.639 243.883 122.558C244.102 122.478 244.268 122.357 244.383 122.197C244.509 122.025 244.595 121.812 244.641 121.56C244.687 121.296 244.71 120.98 244.71 120.613C244.71 120.027 244.607 119.556 244.4 119.2C244.205 118.845 243.803 118.667 243.195 118.667H238.735C238.448 118.667 238.247 118.724 238.132 118.839C238.017 118.942 237.96 119.143 237.96 119.442V122.679ZM244.727 123.333C245.382 123.425 245.846 123.689 246.122 124.125C246.398 124.562 246.535 125.227 246.535 126.123C246.535 126.571 246.495 126.995 246.415 127.397C246.346 127.787 246.214 128.132 246.019 128.43C245.835 128.729 245.571 128.97 245.227 129.154C244.882 129.326 244.446 129.412 243.918 129.412H238.063C237.822 129.412 237.592 129.389 237.374 129.343C237.168 129.297 236.99 129.211 236.841 129.085C236.691 128.958 236.571 128.786 236.479 128.568C236.399 128.35 236.358 128.074 236.358 127.742V119.063C236.358 117.926 236.886 117.358 237.943 117.358H243.797C244.716 117.358 245.376 117.639 245.778 118.202C246.179 118.764 246.38 119.574 246.38 120.63C246.38 120.963 246.352 121.278 246.294 121.577C246.248 121.875 246.162 122.145 246.036 122.386C245.921 122.616 245.755 122.811 245.537 122.972C245.318 123.121 245.049 123.218 244.727 123.264V123.333Z" fill="white"/>
<path d="M252.588 118.546C252.772 118.121 252.979 117.794 253.208 117.565C253.438 117.335 253.782 117.22 254.241 117.22C254.678 117.22 255.022 117.341 255.274 117.582C255.527 117.811 255.739 118.133 255.912 118.546L260.475 129.412H258.787L257.427 126.14H251.038L249.695 129.412H248.008L252.588 118.546ZM251.521 124.831H256.945L254.672 119.304C254.614 119.178 254.551 119.051 254.482 118.925C254.425 118.787 254.345 118.718 254.241 118.718C254.138 118.718 254.058 118.787 254 118.925C253.943 119.051 253.885 119.178 253.828 119.304L251.521 124.831Z" fill="white"/>
<path d="M272.452 129.412H270.851V123.901H263.808V129.412H262.206V117.358H263.808V122.593H270.851V117.358H272.452V129.412Z" fill="white"/>
<path d="M284.662 129.412L284.714 119.407C284.714 119.327 284.708 119.246 284.697 119.166C284.685 119.074 284.645 119.028 284.576 119.028C284.519 119.028 284.444 119.086 284.352 119.2C284.26 119.304 284.168 119.424 284.077 119.562L278.497 128.465C278.406 128.614 278.308 128.757 278.205 128.895C278.113 129.021 278.004 129.136 277.878 129.24C277.763 129.331 277.625 129.406 277.464 129.463C277.304 129.521 277.103 129.55 276.862 129.55C276.517 129.55 276.253 129.486 276.069 129.36C275.886 129.234 275.748 129.085 275.656 128.912C275.564 128.729 275.507 128.539 275.484 128.344C275.473 128.138 275.467 127.965 275.467 127.828V117.358H277.068L277.034 127.208C277.034 127.368 277.039 127.5 277.051 127.604C277.062 127.696 277.114 127.742 277.206 127.742C277.275 127.742 277.338 127.707 277.395 127.638C277.453 127.558 277.51 127.472 277.568 127.38L283.061 118.529C283.348 118.058 283.617 117.725 283.87 117.53C284.123 117.324 284.438 117.22 284.817 117.22C285.173 117.22 285.448 117.295 285.644 117.444C285.839 117.593 285.982 117.771 286.074 117.978C286.166 118.173 286.218 118.374 286.229 118.581C286.252 118.787 286.264 118.948 286.264 119.063V129.412H284.662Z" fill="white"/>
<path d="M299.338 129.412H297.737V119.493C297.737 119.16 297.662 118.942 297.513 118.839C297.364 118.724 297.151 118.667 296.876 118.667H292.588C292.186 118.667 291.859 118.718 291.607 118.822C291.366 118.925 291.176 119.08 291.038 119.287C290.912 119.482 290.826 119.723 290.78 120.01C290.746 120.297 290.728 120.63 290.728 121.009C290.728 121.376 290.74 121.715 290.763 122.025C290.797 122.334 290.866 122.604 290.97 122.834C291.084 123.052 291.245 123.224 291.452 123.35C291.67 123.477 291.963 123.54 292.33 123.54H295.275C295.757 123.54 295.998 123.741 295.998 124.143V124.418C295.998 124.556 295.946 124.694 295.843 124.831C295.751 124.958 295.653 125.067 295.55 125.159L290.935 129.412H288.8L293.742 124.935V124.849H291.796C291.28 124.849 290.843 124.757 290.487 124.573C290.143 124.389 289.862 124.131 289.644 123.798C289.437 123.465 289.288 123.063 289.196 122.593C289.104 122.111 289.058 121.583 289.058 121.009C289.058 120.446 289.104 119.941 289.196 119.493C289.299 119.046 289.46 118.667 289.678 118.357C289.908 118.035 290.212 117.788 290.591 117.616C290.97 117.444 291.434 117.358 291.986 117.358H297.565C298.139 117.358 298.575 117.501 298.873 117.788C299.183 118.064 299.338 118.529 299.338 119.183V129.412Z" fill="white"/>
</g>
</svg>
