<svg width="353" height="118" viewBox="0 0 353 118" fill="none" xmlns="http://www.w3.org/2000/svg">
<g id="image_infogr_03">
<path fill-rule="evenodd" clip-rule="evenodd" d="M87.1131 101.634V105.009H95.3316V101.634H87.1131Z" fill="white"/>
<path fill-rule="evenodd" clip-rule="evenodd" d="M87.1131 91.8007V95.1762H102.67V91.8007H87.1131Z" fill="white"/>
<path fill-rule="evenodd" clip-rule="evenodd" d="M69.7949 91.8008V95.1763H76.3991C76.8394 95.1763 77.1329 95.4698 77.1329 95.9101V100.753C77.1329 101.193 76.8394 101.487 76.3991 101.487H69.7949V104.862H78.894C79.7746 104.862 80.6551 104.129 80.6551 103.101V93.2684C80.6551 92.3879 79.9213 91.5073 78.894 91.5073L69.7949 91.8008Z" fill="white"/>
<path fill-rule="evenodd" clip-rule="evenodd" d="M94.4505 64.6502V76.0975C94.4505 76.5377 94.157 76.8313 93.7167 76.8313H79.0408C78.6005 76.8313 78.307 76.5377 78.307 76.0975V64.6502H74.9315V78.5924C74.9315 79.4729 75.6653 80.3535 76.6926 80.3535H96.3584C97.239 80.3535 98.1195 79.6197 98.1195 78.5924V64.6502H94.4505Z" fill="white"/>
<path fill-rule="evenodd" clip-rule="evenodd" d="M69.7949 54.8174V58.1929H110.888C112.649 58.1929 114.116 59.6605 114.116 61.4216V110.586C114.116 112.347 112.649 113.815 110.888 113.815H69.7949V117.19H110.888C114.557 117.19 117.492 114.255 117.492 110.586V61.4216C117.492 57.7526 114.557 54.8174 110.888 54.8174H69.7949Z" fill="white"/>
<path fill-rule="evenodd" clip-rule="evenodd" d="M62.4569 37.6464V41.0219H78.1602V37.6464H62.4569Z" fill="white"/>
<path fill-rule="evenodd" clip-rule="evenodd" d="M42.7913 48.3599H46.1668V41.7557C46.1668 41.3154 46.4603 41.0219 46.9006 41.0219H51.8904C52.3307 41.0219 52.6242 41.3154 52.6242 41.7557V48.3599H55.9997V39.2608C55.9997 38.3802 55.2659 37.6464 54.2386 37.6464H44.4057C43.5251 37.6464 42.7913 38.3802 42.7913 39.2608V48.3599Z" fill="white"/>
<path fill-rule="evenodd" clip-rule="evenodd" d="M69.7951 10.6426V22.0899C69.7951 22.5301 69.5015 22.8237 69.0613 22.8237H54.2386C53.7983 22.8237 53.5048 22.5301 53.5048 22.0899V10.6426H50.1293V24.5848C50.1293 25.4653 50.8631 26.1991 51.8904 26.1991H71.5562C72.4367 26.1991 73.3173 25.4653 73.3173 24.5848V10.6426H69.7951Z" fill="white"/>
<path fill-rule="evenodd" clip-rule="evenodd" d="M30.4637 55.8446H33.8392V7.41399C33.8392 5.65288 35.3068 4.18528 37.0679 4.18528H86.2323C87.9934 4.18528 89.461 5.65288 89.461 7.41399V55.8446H92.8365V7.41399C92.8365 3.74501 89.9013 0.809814 86.2323 0.809814H37.0679C33.3989 0.809814 30.4637 3.74501 30.4637 7.41399V55.8446Z" fill="white"/>
<path fill-rule="evenodd" clip-rule="evenodd" d="M32.9581 101.634V105.009H41.1766V101.634H32.9581Z" fill="white"/>
<path fill-rule="evenodd" clip-rule="evenodd" d="M32.9581 91.8007V95.1762H48.6613V91.8007H32.9581Z" fill="white"/>
<path fill-rule="evenodd" clip-rule="evenodd" d="M24.7397 91.8007H14.9068C14.0263 91.8007 13.2925 92.5345 13.2925 93.5619V103.395C13.2925 104.275 14.0263 105.156 14.9068 105.156H24.7397C25.6203 105.156 26.3541 104.422 26.3541 103.395V93.5619C26.5008 92.5345 25.767 91.8007 24.7397 91.8007ZM22.3916 101.634H17.5485C17.1082 101.634 16.8147 101.34 16.8147 100.9V96.0568C16.8147 95.6165 17.1082 95.323 17.5485 95.323H22.5383C22.9786 95.323 23.2721 95.6165 23.2721 96.0568V100.9C23.1254 101.193 22.6851 101.634 22.3916 101.634Z" fill="white"/>
<path fill-rule="evenodd" clip-rule="evenodd" d="M40.2964 64.6502V76.0975C40.2964 76.5377 40.0029 76.8313 39.5626 76.8313H24.8866C24.4464 76.8313 24.1529 76.5377 24.1529 76.0975V64.6502H20.7774V78.5924C20.7774 79.4729 21.5112 80.3535 22.3917 80.3535H42.0575C42.9381 80.3535 43.6719 79.6197 43.6719 78.5924V64.6502H40.2964Z" fill="white"/>
<path fill-rule="evenodd" clip-rule="evenodd" d="M56.7335 54.8174H7.56902C3.90004 54.8174 0.964844 57.7526 0.964844 61.4216V110.586C0.964844 114.255 3.90004 117.19 7.56902 117.19H56.7335C60.4025 117.19 63.3377 114.255 63.3377 110.586V61.4216C63.3377 57.7526 60.4025 54.8174 56.7335 54.8174ZM59.9622 110.586C59.9622 112.347 58.4946 113.815 56.7335 113.815H7.56902C5.80791 113.815 4.34031 112.347 4.34031 110.586V61.4216C4.34031 59.6605 5.80791 58.1929 7.56902 58.1929H56.7335C58.4946 58.1929 59.9622 59.6605 59.9622 61.4216V110.586Z" fill="white"/>
<path d="M143.478 48.5556V41.9808H161.073C162.618 41.9808 163.745 41.939 164.455 41.8555C165.206 41.772 165.958 41.5633 166.709 41.2294C167.502 40.8536 168.024 40.2483 168.274 39.4134C168.567 38.5785 168.713 37.4514 168.713 36.0321C168.713 33.9031 168.316 32.3168 167.523 31.2732C166.772 30.2296 165.185 29.7077 162.764 29.7077H144.605V23.1329H162.263C164.517 23.1329 166.041 22.6737 166.834 21.7553C167.669 20.8369 168.087 19.2924 168.087 17.1216C168.087 15.2014 167.753 13.7612 167.085 12.801C166.417 11.7992 165.039 11.2982 162.952 11.2982H144.229V4.7234H166.208C169.965 4.7234 172.637 5.66266 174.223 7.54118C175.809 9.37796 176.603 12.2792 176.603 16.245C176.603 22.298 174.411 25.5959 170.028 26.1386V26.389C174.828 26.6395 177.229 30 177.229 36.4704C177.229 40.311 176.477 43.2957 174.975 45.4247C173.513 47.512 170.821 48.5556 166.897 48.5556H143.478Z" fill="white"/>
<path d="M184.846 48.5556V41.9808H205.008C206.762 41.9808 207.993 41.4381 208.703 40.3527C209.412 39.2673 209.767 37.5767 209.767 35.2807C209.767 33.2352 209.412 31.7324 208.703 30.7722C208.035 29.7704 206.803 29.2694 205.008 29.2694H192.735C190.064 29.2694 188.039 28.7267 186.661 27.6414C185.284 26.556 184.595 24.4896 184.595 21.4422V10.359C184.595 8.60568 185.075 7.2281 186.035 6.22622C187.037 5.22434 188.498 4.7234 190.419 4.7234H216.843V11.2982H194.927C194.51 11.2982 194.155 11.34 193.862 11.4235C193.612 11.507 193.382 11.7157 193.174 12.0496C192.965 12.3836 192.861 12.8845 192.861 13.5525V19.0002C192.861 20.336 193.069 21.2961 193.487 21.8806C193.946 22.4233 194.823 22.6946 196.117 22.6946H208.578C212.168 22.6946 214.672 23.78 216.092 25.9507C217.553 28.0797 218.283 31.0853 218.283 34.9676C218.283 36.5122 218.221 37.8898 218.095 39.1004C217.97 40.311 217.699 41.5424 217.281 42.7948C216.864 44.0054 216.3 45.0281 215.591 45.863C214.923 46.6562 213.984 47.3032 212.773 47.8042C211.604 48.3051 210.206 48.5556 208.578 48.5556H184.846Z" fill="white"/>
<path d="M225.651 32.7134V20.1273C225.651 14.0325 226.966 9.8789 229.596 7.66642C232.268 5.41219 236.839 4.28508 243.309 4.28508C249.78 4.28508 254.33 5.41219 256.96 7.66642C259.631 9.8789 260.967 14.0325 260.967 20.1273V32.7134C260.967 38.8499 259.631 43.087 256.96 45.4247C254.288 47.7207 249.738 48.8687 243.309 48.8687C236.88 48.8687 232.33 47.7207 229.659 45.4247C226.987 43.087 225.651 38.8499 225.651 32.7134ZM233.917 20.503V32.4003C233.917 36.1156 234.605 38.7038 235.983 40.1649C237.402 41.5842 239.844 42.2938 243.309 42.2938C246.941 42.2938 249.404 41.5842 250.698 40.1649C252.034 38.7455 252.702 36.1573 252.702 32.4003V20.503C252.702 16.7459 252.034 14.1995 250.698 12.8637C249.404 11.5278 246.941 10.8599 243.309 10.8599C239.844 10.8599 237.402 11.5487 235.983 12.9263C234.605 14.3039 233.917 16.8294 233.917 20.503Z" fill="white"/>
<path d="M280.547 48.5556V29.019H271.687V26.6395H292.32V29.019H283.459V48.5556H280.547Z" fill="white"/>
<path d="M317.529 48.5556V26.6395H320.44V48.5556H317.529ZM299.62 26.6395V36.0008H310.077C311.058 36.0008 311.862 36.1573 312.488 36.4704C313.114 36.7835 313.605 37.2218 313.959 37.7854C314.335 38.3281 314.596 38.9856 314.742 39.7578C314.888 40.5093 314.961 41.3337 314.961 42.2312C314.961 43.1287 314.888 43.9636 314.742 44.7359C314.617 45.5082 314.367 46.1761 313.991 46.7397C313.636 47.3032 313.145 47.752 312.519 48.086C311.893 48.399 311.1 48.5556 310.14 48.5556H299.777C298.858 48.5556 298.117 48.3469 297.554 47.9294C296.99 47.4911 296.708 46.7188 296.708 45.6126V26.6395H299.62ZM299.62 38.3803V44.6733C299.62 45.216 299.704 45.6021 299.871 45.8317C300.058 46.0613 300.455 46.1761 301.06 46.1761H308.762C309.409 46.1761 309.931 46.0926 310.328 45.9257C310.745 45.7378 311.069 45.4769 311.298 45.1429C311.549 44.809 311.716 44.402 311.799 43.9219C311.883 43.421 311.924 42.8574 311.924 42.2312C311.924 41.6051 311.883 41.0519 311.799 40.5719C311.716 40.0918 311.559 39.6952 311.33 39.3821C311.1 39.0482 310.776 38.7977 310.359 38.6307C309.962 38.4637 309.43 38.3803 308.762 38.3803H299.62Z" fill="white"/>
<path d="M335.365 48.5556C333.528 48.5556 332.015 48.2738 330.825 47.7103C329.656 47.1258 328.728 46.3431 328.039 45.3621C327.35 44.3602 326.87 43.1914 326.599 41.8555C326.348 40.5197 326.223 39.0899 326.223 37.5662C326.223 36.0425 326.348 34.6232 326.599 33.3083C326.87 31.9724 327.35 30.814 328.039 29.833C328.749 28.8311 329.698 28.0484 330.888 27.4848C332.099 26.9213 333.643 26.6395 335.522 26.6395H344.006V29.019H336.492C335.115 29.019 333.967 29.1859 333.048 29.5199C332.13 29.8539 331.389 30.3757 330.825 31.0853C330.262 31.7741 329.855 32.6612 329.604 33.7466C329.375 34.8111 329.26 36.0843 329.26 37.5662C329.26 39.0482 329.375 40.3318 329.604 41.4172C329.834 42.5026 330.22 43.4001 330.763 44.1098C331.326 44.8194 332.057 45.3412 332.954 45.6752C333.852 46.0091 334.979 46.1761 336.336 46.1761H344.319V48.5556H335.365Z" fill="white"/>
<path d="M349.186 48.5556V45.1742H352.035V48.5556H349.186Z" fill="white"/>
<path d="M152.338 81.4297H150.737V75.9194H143.694V81.4297H142.093V69.3759H143.694V74.6107H150.737V69.3759H152.338V81.4297Z" fill="white"/>
<path d="M158.642 70.564C158.826 70.1393 159.032 69.8121 159.262 69.5825C159.491 69.3529 159.836 69.2381 160.295 69.2381C160.731 69.2381 161.076 69.3587 161.328 69.5997C161.581 69.8293 161.793 70.1508 161.965 70.564L166.529 81.4297H164.841L163.481 78.158H157.092L155.749 81.4297H154.061L158.642 70.564ZM157.574 76.8493H162.998L160.725 71.3217C160.668 71.1954 160.605 71.0692 160.536 70.9429C160.479 70.8051 160.398 70.7362 160.295 70.7362C160.192 70.7362 160.111 70.8051 160.054 70.9429C159.997 71.0692 159.939 71.1954 159.882 71.3217L157.574 76.8493Z" fill="white"/>
<path d="M177.455 81.4297L177.507 71.425C177.507 71.3447 177.501 71.2643 177.49 71.184C177.478 71.0921 177.438 71.0462 177.369 71.0462C177.312 71.0462 177.237 71.1036 177.145 71.2184C177.054 71.3217 176.962 71.4423 176.87 71.58L171.291 80.4826C171.199 80.6319 171.101 80.7754 170.998 80.9131C170.906 81.0394 170.797 81.1542 170.671 81.2575C170.556 81.3494 170.418 81.424 170.258 81.4814C170.097 81.5388 169.896 81.5675 169.655 81.5675C169.311 81.5675 169.046 81.5043 168.863 81.3781C168.679 81.2518 168.541 81.1025 168.45 80.9304C168.358 80.7467 168.3 80.5573 168.277 80.3621C168.266 80.1555 168.26 79.9833 168.26 79.8455V69.3759H169.862L169.827 79.2256C169.827 79.3863 169.833 79.5183 169.844 79.6217C169.856 79.7135 169.907 79.7594 169.999 79.7594C170.068 79.7594 170.131 79.725 170.189 79.6561C170.246 79.5757 170.304 79.4896 170.361 79.3978L175.854 70.5468C176.141 70.0761 176.411 69.7432 176.663 69.5481C176.916 69.3414 177.232 69.2381 177.61 69.2381C177.966 69.2381 178.242 69.3127 178.437 69.462C178.632 69.6112 178.776 69.7891 178.867 69.9958C178.959 70.1909 179.011 70.3918 179.022 70.5985C179.045 70.8051 179.057 70.9658 179.057 71.0806V81.4297H177.455Z" fill="white"/>
<path d="M190.702 80.1899C190.53 80.6147 190.347 80.9533 190.151 81.2059C189.956 81.4469 189.652 81.5675 189.239 81.5675C188.826 81.5675 188.516 81.4469 188.309 81.2059C188.114 80.9533 187.93 80.6147 187.758 80.1899L184.176 71.2528C184.142 71.161 184.096 71.0749 184.038 70.9945C183.981 70.9142 183.924 70.874 183.866 70.874C183.797 70.874 183.74 70.9084 183.694 70.9773C183.66 71.0462 183.642 71.1266 183.642 71.2184L183.677 81.4297H182.075V70.5985C182.075 70.1622 182.207 69.8293 182.471 69.5997C182.747 69.3587 183.126 69.2381 183.608 69.2381C183.86 69.2381 184.079 69.2726 184.262 69.3414C184.446 69.4103 184.601 69.5079 184.727 69.6342C184.865 69.749 184.98 69.8925 185.072 70.0647C185.163 70.2369 185.25 70.4205 185.33 70.6157L188.929 79.5356C188.975 79.6504 189.015 79.7479 189.049 79.8283C189.095 79.9086 189.158 79.9488 189.239 79.9488C189.308 79.9488 189.365 79.9086 189.411 79.8283C189.457 79.7479 189.503 79.6504 189.549 79.5356L193.148 70.6157C193.297 70.2254 193.486 69.8982 193.716 69.6342C193.957 69.3701 194.336 69.2381 194.852 69.2381C195.335 69.2381 195.713 69.3587 195.989 69.5997C196.264 69.8293 196.402 70.1622 196.402 70.5985V81.4297H194.801L194.835 71.2184C194.835 71.0577 194.807 70.9601 194.749 70.9257C194.692 70.8912 194.646 70.874 194.611 70.874C194.554 70.874 194.497 70.9142 194.439 70.9945C194.382 71.0749 194.336 71.161 194.301 71.2528L190.702 80.1899Z" fill="white"/>
<path d="M201.11 81.4297C200.581 81.4297 200.168 81.2977 199.87 81.0337C199.571 80.7696 199.422 80.3334 199.422 79.725V71.0806C199.422 70.4378 199.571 69.9958 199.87 69.7547C200.168 69.5022 200.581 69.3759 201.11 69.3759H208.566V70.6846H201.816C201.483 70.6846 201.265 70.7477 201.161 70.874C201.069 70.9888 201.023 71.1954 201.023 71.4939V74.6107H208.394V75.9194H201.023V79.2945C201.023 79.5929 201.069 79.8053 201.161 79.9316C201.265 80.0579 201.483 80.121 201.816 80.121H208.635V81.4297H201.11Z" fill="white"/>
<path d="M221.381 81.4297H219.78V75.9194H212.737V81.4297H211.135V69.3759H212.737V74.6107H219.78V69.3759H221.381V81.4297Z" fill="white"/>
<path d="M230.061 69.2381C231.174 69.2381 232.11 69.3472 232.868 69.5653C233.637 69.7719 234.257 70.1163 234.727 70.5985C235.198 71.0806 235.537 71.7178 235.743 72.5099C235.962 73.2905 236.071 74.2548 236.071 75.4028C236.071 76.5623 235.962 77.5381 235.743 78.3302C235.537 79.1108 235.198 79.7422 234.727 80.2243C234.257 80.7065 233.637 81.0509 232.868 81.2575C232.11 81.4642 231.174 81.5675 230.061 81.5675C228.959 81.5675 228.023 81.4642 227.254 81.2575C226.496 81.0509 225.877 80.7065 225.394 80.2243C224.924 79.7422 224.579 79.1108 224.361 78.3302C224.155 77.5381 224.051 76.5623 224.051 75.4028C224.051 74.2548 224.155 73.2905 224.361 72.5099C224.579 71.7178 224.924 71.0806 225.394 70.5985C225.877 70.1163 226.496 69.7719 227.254 69.5653C228.023 69.3472 228.959 69.2381 230.061 69.2381ZM225.722 75.4028C225.722 76.3212 225.785 77.0903 225.911 77.7103C226.049 78.3302 226.278 78.8295 226.6 79.2084C226.933 79.5872 227.375 79.857 227.926 80.0177C228.488 80.1784 229.2 80.2588 230.061 80.2588C230.922 80.2588 231.628 80.1784 232.179 80.0177C232.741 79.857 233.183 79.5872 233.505 79.2084C233.838 78.8295 234.067 78.3302 234.194 77.7103C234.331 77.0903 234.4 76.3212 234.4 75.4028C234.4 74.4959 234.331 73.7325 234.194 73.1126C234.067 72.4927 233.838 71.9933 233.505 71.6144C233.183 71.2356 232.741 70.9658 232.179 70.8051C231.628 70.6329 230.922 70.5468 230.061 70.5468C229.2 70.5468 228.488 70.6329 227.926 70.8051C227.375 70.9658 226.933 71.2356 226.6 71.6144C226.278 71.9933 226.049 72.4927 225.911 73.1126C225.785 73.7325 225.722 74.4959 225.722 75.4028Z" fill="white"/>
<path d="M240.35 79.2256C240.35 79.5585 240.396 79.7938 240.488 79.9316C240.58 80.0579 240.798 80.121 241.143 80.121H245.516C246.194 80.121 246.653 79.9603 246.894 79.6389C247.147 79.3174 247.273 78.7951 247.273 78.0719C247.273 77.7619 247.25 77.4807 247.204 77.2281C247.158 76.9755 247.072 76.7574 246.946 76.5737C246.831 76.3901 246.664 76.2523 246.446 76.1605C246.24 76.0572 245.976 76.0055 245.654 76.0055H240.35V79.2256ZM240.35 74.6968H245.465C245.798 74.6968 246.067 74.6566 246.274 74.5762C246.492 74.4959 246.659 74.3754 246.773 74.2146C246.9 74.0424 246.986 73.8301 247.032 73.5775C247.078 73.3135 247.101 72.9978 247.101 72.6304C247.101 72.0449 246.997 71.5743 246.791 71.2184C246.595 70.8625 246.194 70.6846 245.585 70.6846H241.125C240.838 70.6846 240.637 70.742 240.523 70.8568C240.408 70.9601 240.35 71.161 240.35 71.4595V74.6968ZM247.118 75.3511C247.772 75.443 248.237 75.707 248.513 76.1432C248.788 76.5795 248.926 77.2453 248.926 78.1407C248.926 78.5885 248.886 79.0132 248.805 79.415C248.736 79.8053 248.604 80.1497 248.409 80.4482C248.226 80.7467 247.962 80.9877 247.617 81.1714C247.273 81.3436 246.837 81.4297 246.308 81.4297H240.454C240.213 81.4297 239.983 81.4068 239.765 81.3608C239.558 81.3149 239.38 81.2288 239.231 81.1025C239.082 80.9763 238.961 80.8041 238.87 80.586C238.789 80.3678 238.749 80.0923 238.749 79.7594V71.0806C238.749 69.9441 239.277 69.3759 240.333 69.3759H246.188C247.106 69.3759 247.766 69.6571 248.168 70.2196C248.57 70.7822 248.771 71.5915 248.771 72.6476C248.771 72.9806 248.742 73.2962 248.685 73.5947C248.639 73.8932 248.553 74.163 248.427 74.4041C248.312 74.6337 248.145 74.8288 247.927 74.9895C247.709 75.1388 247.439 75.2363 247.118 75.2823V75.3511Z" fill="white"/>
<path d="M254.979 70.564C255.162 70.1393 255.369 69.8121 255.599 69.5825C255.828 69.3529 256.173 69.2381 256.632 69.2381C257.068 69.2381 257.413 69.3587 257.665 69.5997C257.918 69.8293 258.13 70.1508 258.302 70.564L262.865 81.4297H261.178L259.818 78.158H253.429L252.086 81.4297H250.398L254.979 70.564ZM253.911 76.8493H259.335L257.062 71.3217C257.005 71.1954 256.942 71.0692 256.873 70.9429C256.816 70.8051 256.735 70.7362 256.632 70.7362C256.529 70.7362 256.448 70.8051 256.391 70.9429C256.333 71.0692 256.276 71.1954 256.219 71.3217L253.911 76.8493Z" fill="white"/>
<path d="M274.843 81.4297H273.241V75.9194H266.198V81.4297H264.597V69.3759H266.198V74.6107H273.241V69.3759H274.843V81.4297Z" fill="white"/>
<path d="M287.053 81.4297L287.104 71.425C287.104 71.3447 287.099 71.2643 287.087 71.184C287.076 71.0921 287.036 71.0462 286.967 71.0462C286.909 71.0462 286.835 71.1036 286.743 71.2184C286.651 71.3217 286.559 71.4423 286.467 71.58L280.888 80.4826C280.796 80.6319 280.699 80.7754 280.595 80.9131C280.503 81.0394 280.394 81.1542 280.268 81.2575C280.153 81.3494 280.016 81.424 279.855 81.4814C279.694 81.5388 279.493 81.5675 279.252 81.5675C278.908 81.5675 278.644 81.5043 278.46 81.3781C278.276 81.2518 278.139 81.1025 278.047 80.9304C277.955 80.7467 277.898 80.5573 277.875 80.3621C277.863 80.1555 277.857 79.9833 277.857 79.8455V69.3759H279.459L279.424 79.2256C279.424 79.3863 279.43 79.5183 279.442 79.6217C279.453 79.7135 279.505 79.7594 279.597 79.7594C279.665 79.7594 279.729 79.725 279.786 79.6561C279.843 79.5757 279.901 79.4896 279.958 79.3978L285.451 70.5468C285.738 70.0761 286.008 69.7432 286.261 69.5481C286.513 69.3414 286.829 69.2381 287.208 69.2381C287.564 69.2381 287.839 69.3127 288.034 69.462C288.229 69.6112 288.373 69.7891 288.465 69.9958C288.557 70.1909 288.608 70.3918 288.62 70.5985C288.643 70.8051 288.654 70.9658 288.654 71.0806V81.4297H287.053Z" fill="white"/>
<path d="M300.868 81.4297L300.92 71.425C300.92 71.3447 300.914 71.2643 300.902 71.184C300.891 71.0921 300.851 71.0462 300.782 71.0462C300.725 71.0462 300.65 71.1036 300.558 71.2184C300.466 71.3217 300.374 71.4423 300.283 71.58L294.703 80.4826C294.611 80.6319 294.514 80.7754 294.411 80.9131C294.319 81.0394 294.21 81.1542 294.083 81.2575C293.969 81.3494 293.831 81.424 293.67 81.4814C293.509 81.5388 293.309 81.5675 293.067 81.5675C292.723 81.5675 292.459 81.5043 292.275 81.3781C292.092 81.2518 291.954 81.1025 291.862 80.9304C291.77 80.7467 291.713 80.5573 291.69 80.3621C291.678 80.1555 291.673 79.9833 291.673 79.8455V69.3759H293.274L293.24 79.2256C293.24 79.3863 293.245 79.5183 293.257 79.6217C293.268 79.7135 293.32 79.7594 293.412 79.7594C293.481 79.7594 293.544 79.725 293.601 79.6561C293.659 79.5757 293.716 79.4896 293.773 79.3978L299.267 70.5468C299.554 70.0761 299.823 69.7432 300.076 69.5481C300.328 69.3414 300.644 69.2381 301.023 69.2381C301.379 69.2381 301.654 69.3127 301.85 69.462C302.045 69.6112 302.188 69.7891 302.28 69.9958C302.372 70.1909 302.424 70.3918 302.435 70.5985C302.458 70.8051 302.469 70.9658 302.469 71.0806V81.4297H300.868ZM297.045 67.8261C297.458 67.8261 297.82 67.7457 298.13 67.585C298.452 67.4243 298.67 67.1488 298.784 66.7585H300.128C299.955 67.4817 299.617 68.0155 299.112 68.3599C298.618 68.7043 297.929 68.8765 297.045 68.8765C296.161 68.8765 295.467 68.7043 294.962 68.3599C294.457 68.0155 294.124 67.4817 293.963 66.7585H295.306C295.409 67.1488 295.622 67.4243 295.943 67.585C296.265 67.7457 296.632 67.8261 297.045 67.8261Z" fill="white"/>
<path d="M142.093 105.694V95.3449C142.093 94.702 142.242 94.26 142.54 94.019C142.839 93.7664 143.252 93.6401 143.78 93.6401H150.513C151.041 93.6401 151.454 93.7664 151.753 94.019C152.063 94.26 152.218 94.702 152.218 95.3449V105.694H150.616V95.7582C150.616 95.4597 150.565 95.253 150.461 95.1382C150.358 95.012 150.14 94.9488 149.807 94.9488H144.486C144.153 94.9488 143.935 95.012 143.832 95.1382C143.74 95.253 143.694 95.4597 143.694 95.7582V105.694H142.093Z" fill="white"/>
<path d="M155.235 105.694V95.2588C155.235 94.6389 155.373 94.2141 155.648 93.9845C155.935 93.7549 156.337 93.6401 156.854 93.6401H162.381C162.99 93.6401 163.489 93.7262 163.88 93.8984C164.281 94.0706 164.597 94.3174 164.827 94.6389C165.068 94.9488 165.234 95.3334 165.326 95.7926C165.418 96.2518 165.464 96.7626 165.464 97.3252C165.464 97.9221 165.418 98.4559 165.326 98.9266C165.234 99.3858 165.068 99.7761 164.827 100.098C164.597 100.419 164.281 100.666 163.88 100.838C163.489 101.01 162.99 101.096 162.381 101.096H156.837V105.694H155.235ZM161.813 99.7876C162.238 99.7876 162.577 99.7359 162.829 99.6326C163.093 99.5178 163.294 99.3571 163.432 99.1505C163.581 98.9438 163.679 98.6913 163.725 98.3928C163.77 98.0828 163.793 97.727 163.793 97.3252C163.793 96.9348 163.765 96.5962 163.707 96.3092C163.661 96.0107 163.564 95.7639 163.415 95.5687C163.277 95.3621 163.076 95.2071 162.812 95.1038C162.559 95.0005 162.226 94.9488 161.813 94.9488H157.612C157.267 94.9488 157.049 95.012 156.957 95.1382C156.877 95.2645 156.837 95.4654 156.837 95.7409V99.7876H161.813Z" fill="white"/>
<path d="M173.64 93.5024C174.753 93.5024 175.689 93.6114 176.446 93.8295C177.215 94.0362 177.835 94.3806 178.306 94.8627C178.777 95.3449 179.115 95.982 179.322 96.7741C179.54 97.5547 179.649 98.5191 179.649 99.667C179.649 100.827 179.54 101.802 179.322 102.594C179.115 103.375 178.777 104.006 178.306 104.489C177.835 104.971 177.215 105.315 176.446 105.522C175.689 105.728 174.753 105.832 173.64 105.832C172.537 105.832 171.602 105.728 170.833 105.522C170.075 105.315 169.455 104.971 168.973 104.489C168.502 104.006 168.158 103.375 167.94 102.594C167.733 101.802 167.63 100.827 167.63 99.667C167.63 98.5191 167.733 97.5547 167.94 96.7741C168.158 95.982 168.502 95.3449 168.973 94.8627C169.455 94.3806 170.075 94.0362 170.833 93.8295C171.602 93.6114 172.537 93.5024 173.64 93.5024ZM169.3 99.667C169.3 100.585 169.363 101.355 169.49 101.974C169.627 102.594 169.857 103.094 170.178 103.473C170.511 103.851 170.953 104.121 171.504 104.282C172.067 104.443 172.779 104.523 173.64 104.523C174.501 104.523 175.207 104.443 175.758 104.282C176.32 104.121 176.762 103.851 177.083 103.473C177.416 103.094 177.646 102.594 177.772 101.974C177.91 101.355 177.979 100.585 177.979 99.667C177.979 98.7601 177.91 97.9967 177.772 97.3768C177.646 96.7569 177.416 96.2575 177.083 95.8787C176.762 95.4999 176.32 95.2301 175.758 95.0694C175.207 94.8972 174.501 94.8111 173.64 94.8111C172.779 94.8111 172.067 94.8972 171.504 95.0694C170.953 95.2301 170.511 95.4999 170.178 95.8787C169.857 96.2575 169.627 96.7569 169.49 97.3768C169.363 97.9967 169.3 98.7601 169.3 99.667Z" fill="white"/>
<path d="M182.314 105.694C182.015 105.694 181.82 105.757 181.728 105.883C181.648 106.01 181.608 106.216 181.608 106.503V108.019H180.006V106.073C180.006 105.43 180.138 104.988 180.402 104.747C180.678 104.506 181.08 104.385 181.608 104.385H181.987L186.257 94.7422C186.452 94.2945 186.676 93.9788 186.929 93.7951C187.193 93.5999 187.508 93.5024 187.876 93.5024C188.278 93.5024 188.599 93.5999 188.84 93.7951C189.081 93.9788 189.299 94.2945 189.494 94.7422L193.748 104.385H194.144C194.672 104.385 195.068 104.506 195.332 104.747C195.607 104.988 195.745 105.43 195.745 106.073V108.019H194.144V106.503C194.144 106.216 194.098 106.01 194.006 105.883C193.914 105.757 193.719 105.694 193.421 105.694H182.314ZM183.64 104.385H192.095L188.22 95.4999C188.163 95.3851 188.111 95.2817 188.065 95.1899C188.019 95.0981 187.95 95.0521 187.859 95.0521C187.778 95.0521 187.709 95.1038 187.652 95.2071C187.606 95.299 187.56 95.3965 187.514 95.4999L183.64 104.385Z" fill="white"/>
<path d="M197.956 105.694L199.23 103.335L193.943 93.6401H195.717L200.056 101.837L204.189 93.6401H205.946L199.695 105.694H197.956Z" fill="white"/>
<path d="M216.315 105.694L210.753 101.062C210.409 100.775 210.185 100.505 210.082 100.253C209.979 99.9885 209.927 99.7359 209.927 99.4949C209.927 99.2997 209.984 99.0873 210.099 98.8577C210.214 98.6281 210.403 98.3985 210.667 98.1689L215.764 93.6401H217.848L212.166 98.6166C212.005 98.7544 211.85 98.8864 211.701 99.0127C211.563 99.139 211.494 99.2997 211.494 99.4949C211.494 99.713 211.58 99.9081 211.752 100.08C211.924 100.253 212.108 100.419 212.303 100.58L218.485 105.694H216.315ZM207.671 93.6401H209.273V105.694H207.671V93.6401Z" fill="white"/>
<path d="M221.795 105.694C221.255 105.694 220.842 105.585 220.555 105.367C220.268 105.149 220.124 104.724 220.124 104.093V93.6401H221.726V103.662C221.726 103.949 221.777 104.144 221.881 104.248C221.984 104.339 222.185 104.385 222.483 104.385H228.648V93.6401H230.25V104.385H230.611C231.139 104.385 231.535 104.506 231.799 104.747C232.075 104.988 232.213 105.43 232.213 106.073V108.019H230.611V106.503C230.611 106.205 230.565 105.992 230.473 105.866C230.382 105.751 230.169 105.694 229.836 105.694H221.795Z" fill="white"/>
<path d="M242.967 105.694L243.018 95.6893C243.018 95.6089 243.013 95.5286 243.001 95.4482C242.99 95.3564 242.95 95.3104 242.881 95.3104C242.823 95.3104 242.749 95.3678 242.657 95.4826C242.565 95.586 242.473 95.7065 242.381 95.8443L236.802 104.747C236.71 104.896 236.613 105.04 236.509 105.177C236.418 105.304 236.308 105.418 236.182 105.522C236.067 105.614 235.93 105.688 235.769 105.746C235.608 105.803 235.407 105.832 235.166 105.832C234.822 105.832 234.558 105.769 234.374 105.642C234.19 105.516 234.053 105.367 233.961 105.195C233.869 105.011 233.812 104.822 233.789 104.626C233.777 104.42 233.771 104.248 233.771 104.11V93.6401H235.373L235.338 103.49C235.338 103.651 235.344 103.783 235.356 103.886C235.367 103.978 235.419 104.024 235.511 104.024C235.579 104.024 235.643 103.989 235.7 103.92C235.757 103.84 235.815 103.754 235.872 103.662L241.365 94.8111C241.652 94.3404 241.922 94.0075 242.175 93.8123C242.427 93.6057 242.743 93.5024 243.122 93.5024C243.478 93.5024 243.753 93.577 243.948 93.7262C244.143 93.8755 244.287 94.0534 244.379 94.26C244.471 94.4552 244.522 94.6561 244.534 94.8627C244.557 95.0694 244.568 95.2301 244.568 95.3449V105.694H242.967Z" fill="white"/>
<path d="M256.782 105.694L256.834 95.6893C256.834 95.6089 256.828 95.5286 256.816 95.4482C256.805 95.3564 256.765 95.3104 256.696 95.3104C256.639 95.3104 256.564 95.3678 256.472 95.4826C256.38 95.586 256.288 95.7065 256.197 95.8443L250.617 104.747C250.526 104.896 250.428 105.04 250.325 105.177C250.233 105.304 250.124 105.418 249.997 105.522C249.883 105.614 249.745 105.688 249.584 105.746C249.423 105.803 249.223 105.832 248.981 105.832C248.637 105.832 248.373 105.769 248.189 105.642C248.006 105.516 247.868 105.367 247.776 105.195C247.684 105.011 247.627 104.822 247.604 104.626C247.592 104.42 247.587 104.248 247.587 104.11V93.6401H249.188L249.154 103.49C249.154 103.651 249.159 103.783 249.171 103.886C249.182 103.978 249.234 104.024 249.326 104.024C249.395 104.024 249.458 103.989 249.515 103.92C249.573 103.84 249.63 103.754 249.688 103.662L255.181 94.8111C255.468 94.3404 255.737 94.0075 255.99 93.8123C256.242 93.6057 256.558 93.5024 256.937 93.5024C257.293 93.5024 257.568 93.577 257.764 93.7262C257.959 93.8755 258.102 94.0534 258.194 94.26C258.286 94.4552 258.338 94.6561 258.349 94.8627C258.372 95.0694 258.384 95.2301 258.384 95.3449V105.694H256.782Z" fill="white"/>
</g>
</svg>
