<svg width="353" height="118" viewBox="0 0 353 118" fill="none" xmlns="http://www.w3.org/2000/svg">
<g id="image_infogr_04">
<path d="M121.318 42.3033V64.6404C121.318 65.1709 121.107 65.6797 120.732 66.0548C120.357 66.43 119.848 66.6408 119.318 66.6408C118.787 66.6408 118.279 66.43 117.903 66.0548C117.528 65.6797 117.318 65.1709 117.318 64.6404V49.6379H113.317V60.6397H97.3142V49.6379H93.3136V64.6404C93.3136 64.9031 93.2618 65.1632 93.1612 65.4059C93.0607 65.6486 92.9134 65.8691 92.7276 66.0548C92.5419 66.2406 92.3214 66.3879 92.0787 66.4885C91.836 66.589 91.5759 66.6408 91.3132 66.6408L89.9797 65.974C89.5939 65.632 89.3549 65.1543 89.3128 64.6404V42.3033C89.2674 41.5314 89.3803 40.7585 89.6447 40.0319C89.9091 39.3053 90.3193 38.6405 90.8502 38.0784C91.3811 37.5163 92.0214 37.0687 92.7317 36.7633C93.442 36.4579 94.2073 36.301 94.9805 36.3023H98.3144L103.982 41.97H106.649L112.65 36.3023H115.651C116.424 36.301 117.189 36.4579 117.899 36.7633C118.61 37.0687 119.25 37.5163 119.781 38.0784C120.312 38.6405 120.722 39.3053 120.986 40.0319C121.251 40.7585 121.364 41.5314 121.318 42.3033ZM109.65 112.315C109.031 112.315 108.437 112.069 107.999 111.632C107.562 111.194 107.316 110.6 107.316 109.981V69.9747H103.315V109.981C103.315 110.6 103.069 111.194 102.632 111.632C102.194 112.069 101.6 112.315 100.981 112.315C100.363 112.315 99.769 112.069 99.3313 111.632C98.8937 111.194 98.6477 110.6 98.6477 109.981L97.6476 64.9738H113.317L112.317 109.981C112.317 110.6 112.071 111.194 111.633 111.632C111.196 112.069 110.602 112.315 109.983 112.315H109.65ZM115.984 32.3016H112.317L110.983 32.9684L105.649 37.9692L100.648 32.9684L99.3145 32.3016H95.3138C93.999 32.294 92.6976 32.5643 91.4945 33.0947C90.2914 33.625 89.2139 34.4036 88.3326 35.3793C87.4514 36.355 86.7861 37.5059 86.3805 38.7565C85.9749 40.0072 85.8381 41.3295 85.9789 42.6367V64.6404C85.9789 66.232 86.6112 67.7584 87.7366 68.8838C88.8621 70.0092 90.3884 70.6414 91.9799 70.6414L94.3137 69.9747L95.3138 109.981C96.0128 112.22 97.4087 114.176 99.2978 115.566C101.187 116.955 103.471 117.704 105.816 117.704C108.161 117.704 110.444 116.955 112.333 115.566C114.223 114.176 115.618 112.22 116.317 109.981L117.318 69.9747C118.215 70.354 119.191 70.5092 120.162 70.4268C121.133 70.3444 122.069 70.0269 122.889 69.5018C123.71 68.9766 124.39 68.2596 124.872 67.4126C125.353 66.5656 125.621 65.6142 125.652 64.6404V42.6367C125.793 41.3295 125.656 40.0072 125.251 38.7565C124.845 37.5059 124.18 36.355 123.299 35.3793C122.417 34.4036 121.34 33.625 120.137 33.0947C118.934 32.5643 117.632 32.294 116.317 32.3016" fill="white"/>
<path d="M78.6447 42.3033V64.6404C78.6447 65.1709 78.434 65.6797 78.0589 66.0548C77.6838 66.43 77.175 66.6408 76.6445 66.6408C76.114 66.6408 75.6051 66.43 75.23 66.0548C74.8548 65.6797 74.6441 65.1709 74.6441 64.6404V49.6379H70.6434V60.6397H54.6408V49.6379H50.64V64.6404C50.64 65.1709 50.4293 65.6797 50.0542 66.0548C49.6791 66.43 49.1702 66.6408 48.6397 66.6408L47.3061 65.974C46.9203 65.632 46.6815 65.1543 46.6394 64.6404V42.3033C46.5939 41.5314 46.7068 40.7585 46.9712 40.0319C47.2356 39.3053 47.6459 38.6405 48.1768 38.0784C48.7076 37.5163 49.348 37.0687 50.0583 36.7633C50.7686 36.4579 51.5338 36.301 52.307 36.3023H55.6409L61.3085 41.97H63.9756L69.9767 36.3023H72.9772C73.7504 36.301 74.5156 36.4579 75.2259 36.7633C75.9362 37.0687 76.5765 37.5163 77.1074 38.0784C77.6383 38.6405 78.0486 39.3053 78.313 40.0319C78.5773 40.7585 78.6902 41.5314 78.6447 42.3033ZM66.9761 112.315C66.3572 112.315 65.7636 112.069 65.3259 111.632C64.8883 111.194 64.6424 110.6 64.6424 109.981V69.9747H60.6417V109.981C60.6417 110.6 60.3959 111.194 59.9582 111.632C59.5206 112.069 58.927 112.315 58.3081 112.315C57.6891 112.315 57.0955 112.069 56.6578 111.632C56.2201 111.194 55.9743 110.6 55.9743 109.981L54.9742 64.9738H70.6434L69.6433 109.981C69.6433 110.6 69.3974 111.194 68.9598 111.632C68.5221 112.069 67.9285 112.315 67.3095 112.315H66.9761ZM73.3106 32.3016H69.3099L67.9763 32.9684L62.6421 37.9692L57.6412 32.9684L56.3077 32.3016H52.307C50.9922 32.294 49.6907 32.5643 48.4876 33.0947C47.2845 33.625 46.2071 34.4036 45.3258 35.3793C44.4445 36.355 43.7793 37.5059 43.3737 38.7565C42.9681 40.0072 42.8312 41.3295 42.9721 42.6367V64.6404C42.9721 66.232 43.6043 67.7584 44.7297 68.8838C45.8551 70.0092 47.3815 70.6414 48.9731 70.6414L51.3069 69.9747L52.307 109.981C53.0059 112.22 54.4018 114.176 56.291 115.566C58.1802 116.955 60.4638 117.704 62.8087 117.704C65.1537 117.704 67.4374 116.955 69.3266 115.566C71.2157 114.176 72.6116 112.22 73.3106 109.981L74.3107 69.9747C75.2081 70.354 76.1843 70.5092 77.155 70.4268C78.1258 70.3444 79.0619 70.0269 79.8824 69.5018C80.703 68.9766 81.3834 68.2596 81.8648 67.4126C82.3462 66.5656 82.6141 65.6142 82.6455 64.6404V42.6367C82.7863 41.3295 82.6495 40.0072 82.2439 38.7565C81.8383 37.5059 81.173 36.355 80.2917 35.3793C79.4105 34.4036 78.333 33.625 77.1299 33.0947C75.9268 32.5643 74.6254 32.294 73.3106 32.3016Z" fill="white"/>
<path d="M35.9708 42.3033V64.6404C35.9708 65.1709 35.76 65.6797 35.3849 66.0548C35.0097 66.43 34.501 66.6408 33.9705 66.6408C33.4399 66.6408 32.9312 66.43 32.556 66.0548C32.1809 65.6797 31.9701 65.1709 31.9701 64.6404V49.6379H27.9695V60.6397H11.9667V49.6379H7.96612V64.6404C7.96612 65.1709 7.75532 65.6797 7.38018 66.0548C7.00505 66.43 6.49628 66.6408 5.96576 66.6408L4.63222 65.974C4.24642 65.632 4.00751 65.1543 3.9654 64.6404V42.3033C3.91992 41.5314 4.0329 40.7585 4.29729 40.0319C4.56168 39.3053 4.97194 38.6405 5.50283 38.0784C6.03372 37.5163 6.67396 37.0687 7.38425 36.7633C8.09455 36.4579 8.85988 36.301 9.63307 36.3023H12.967L18.6345 41.97H21.3017L27.3027 36.3023H30.3032C31.0763 36.301 31.8417 36.4579 32.552 36.7633C33.2623 37.0687 33.9026 37.5163 34.4335 38.0784C34.9644 38.6405 35.3745 39.3053 35.6389 40.0319C35.9033 40.7585 36.0163 41.5314 35.9708 42.3033ZM24.3022 112.315C23.6832 112.315 23.0897 112.069 22.652 111.632C22.2144 111.194 21.9684 110.6 21.9684 109.981V69.9747H17.9678V109.981C17.9678 110.6 17.722 111.194 17.2843 111.632C16.8466 112.069 16.253 112.315 15.634 112.315C15.0151 112.315 14.4215 112.069 13.9839 111.632C13.5462 111.194 13.3004 110.6 13.3004 109.981L12.3001 64.9738H27.9695L26.9693 109.981C26.9693 110.6 26.7234 111.194 26.2858 111.632C25.8481 112.069 25.2545 112.315 24.6356 112.315H24.3022ZM30.6366 32.3016H26.9693L25.6357 32.9684L20.3015 37.9692L15.3006 32.9684L13.9671 32.3016H9.96648C8.6517 32.294 7.35014 32.5643 6.14707 33.0947C4.94399 33.625 3.86651 34.4036 2.98522 35.3793C2.10393 36.355 1.4387 37.5059 1.03309 38.7565C0.627474 40.0072 0.490616 41.3295 0.631509 42.6367V64.6404C0.631509 66.232 1.2638 67.7584 2.38921 68.8838C3.51462 70.0092 5.04101 70.6414 6.63258 70.6414L8.96625 69.9747L9.96648 109.981C10.6654 112.22 12.0612 114.176 13.9504 115.566C15.8396 116.955 18.1233 117.704 20.4682 117.704C22.8132 117.704 25.0968 116.955 26.9859 115.566C28.8751 114.176 30.271 112.22 30.97 109.981L31.9701 69.9747C32.8674 70.354 33.8437 70.5092 34.8144 70.4268C35.7852 70.3444 36.7213 70.0269 37.5418 69.5018C38.3624 68.9766 39.0428 68.2596 39.5242 67.4126C40.0056 66.5656 40.2735 65.6142 40.3048 64.6404V42.6367C40.4457 41.3295 40.309 40.0072 39.9034 38.7565C39.4978 37.5059 38.8325 36.355 37.9512 35.3793C37.0699 34.4036 35.9925 33.625 34.7894 33.0947C33.5863 32.5643 32.2847 32.294 30.97 32.3016" fill="white"/>
<path d="M99.6484 17.2988C99.6484 15.884 100.21 14.5273 101.211 13.527C102.211 12.5266 103.568 11.9646 104.983 11.9646C106.397 11.9646 107.754 12.5266 108.754 13.527C109.755 14.5273 110.317 15.884 110.317 17.2988V20.2994C110.317 21.7141 109.755 23.0708 108.754 24.0712C107.754 25.0715 106.397 25.6335 104.983 25.6335C103.568 25.6335 102.211 25.0715 101.211 24.0712C100.21 23.0708 99.6484 21.7141 99.6484 20.2994V17.2988ZM104.983 29.3008C107.37 29.3008 109.66 28.3525 111.348 26.6644C113.036 24.9763 113.984 22.6867 113.984 20.2994V17.2988C113.984 14.9114 113.036 12.6219 111.348 10.9338C109.66 9.24565 107.37 8.29731 104.983 8.29731C102.595 8.29731 100.306 9.24565 98.6176 10.9338C96.9295 12.6219 95.9811 14.9114 95.9811 17.2988V20.2994C95.9811 22.6867 96.9295 24.9763 98.6176 26.6644C100.306 28.3525 102.595 29.3008 104.983 29.3008Z" fill="white"/>
<path d="M56.9746 17.2988C56.9746 16.5983 57.1126 15.9047 57.3807 15.2575C57.6487 14.6103 58.0416 14.0223 58.537 13.527C59.0323 13.0316 59.6204 12.6387 60.2676 12.3707C60.9148 12.1026 61.6084 11.9646 62.3089 11.9646C63.7236 11.9646 65.0804 12.5266 66.0808 13.527C67.0811 14.5273 67.6431 15.884 67.6431 17.2988V20.2994C67.6431 21.7141 67.0811 23.0708 66.0808 24.0712C65.0804 25.0715 63.7236 25.6335 62.3089 25.6335C61.6084 25.6335 60.9148 25.4955 60.2676 25.2275C59.6204 24.9594 59.0323 24.5665 58.537 24.0712C58.0416 23.5758 57.6487 22.9878 57.3807 22.3406C57.1126 21.6934 56.9746 20.9999 56.9746 20.2994V17.2988ZM62.3089 29.3008C64.6962 29.3008 66.9858 28.3525 68.6739 26.6644C70.362 24.9763 71.3104 22.6867 71.3104 20.2994V17.2988C71.3104 14.9114 70.362 12.6219 68.6739 10.9338C66.9858 9.24565 64.6962 8.29731 62.3089 8.29731C59.9215 8.29731 57.632 9.24565 55.9439 10.9338C54.2557 12.6219 53.3074 14.9114 53.3074 17.2988V20.2994C53.3074 22.6867 54.2557 24.9763 55.9439 26.6644C57.632 28.3525 59.9215 29.3008 62.3089 29.3008Z" fill="white"/>
<path d="M14.6341 17.2988C14.6341 16.5983 14.7721 15.9047 15.0401 15.2575C15.3082 14.6103 15.7011 14.0223 16.1965 13.527C16.6918 13.0316 17.2798 12.6387 17.927 12.3707C18.5742 12.1026 19.2678 11.9646 19.9683 11.9646C20.6688 11.9646 21.3624 12.1026 22.0096 12.3707C22.6568 12.6387 23.2448 13.0316 23.7401 13.527C24.2355 14.0223 24.6284 14.6103 24.8964 15.2575C25.1645 15.9047 25.3025 16.5983 25.3025 17.2988V20.2994C25.3025 20.9999 25.1645 21.6934 24.8964 22.3406C24.6284 22.9878 24.2355 23.5758 23.7401 24.0712C23.2448 24.5665 22.6568 24.9594 22.0096 25.2275C21.3624 25.4955 20.6688 25.6335 19.9683 25.6335C19.2678 25.6335 18.5742 25.4955 17.927 25.2275C17.2798 24.9594 16.6918 24.5665 16.1965 24.0712C15.7011 23.5758 15.3082 22.9878 15.0401 22.3406C14.7721 21.6934 14.6341 20.9999 14.6341 20.2994V17.2988ZM19.9683 29.3008C22.3557 29.3008 24.6452 28.3525 26.3334 26.6644C28.0215 24.9763 28.9698 22.6867 28.9698 20.2994V17.2988C28.9698 14.9114 28.0215 12.6219 26.3334 10.9338C24.6452 9.24565 22.3557 8.29731 19.9683 8.29731C17.581 8.29731 15.2914 9.24565 13.6032 10.9338C11.9151 12.6219 10.9668 14.9114 10.9668 17.2988V20.2994C10.9668 22.6867 11.9151 24.9763 13.6032 26.6644C15.2914 28.3525 17.581 29.3008 19.9683 29.3008Z" fill="white"/>
<path d="M89.3141 12.2981C89.3141 13.7128 88.7521 15.0696 87.7517 16.07C86.7514 17.0703 85.3946 17.6323 83.9798 17.6323C82.5651 17.6323 81.2083 17.0703 80.2079 16.07C79.2076 15.0696 78.6456 13.7128 78.6456 12.2981V9.2976C78.6456 7.88287 79.2076 6.52607 80.2079 5.5257C81.2083 4.52534 82.5651 3.96335 83.9798 3.96335C85.3946 3.96335 86.7514 4.52534 87.7517 5.5257C88.7521 6.52607 89.3141 7.88287 89.3141 9.2976V12.2981ZM93.3148 12.2981V9.2976C93.3148 6.91025 92.3663 4.62071 90.6782 2.93259C88.9901 1.24448 86.7006 0.296143 84.3132 0.296143C81.9259 0.296143 79.6363 1.24448 77.9482 2.93259C76.2601 4.62071 75.3117 6.91025 75.3117 9.2976V12.2981C75.3117 14.6854 76.2601 16.9751 77.9482 18.6632C79.6363 20.3513 81.9259 21.2996 84.3132 21.2996C86.7006 21.2996 88.9901 20.3513 90.6782 18.6632C92.3663 16.9751 93.3148 14.6854 93.3148 12.2981Z" fill="white"/>
<path d="M46.6404 12.2981C46.6404 12.9986 46.5024 13.6923 46.2343 14.3394C45.9662 14.9866 45.5733 15.5747 45.078 16.07C44.5827 16.5653 43.9945 16.9582 43.3474 17.2263C42.7002 17.4944 42.0066 17.6323 41.3061 17.6323C39.8914 17.6323 38.5346 17.0703 37.5342 16.07C36.5338 15.0696 35.9719 13.7128 35.9719 12.2981V9.2976C35.9719 7.88287 36.5338 6.52607 37.5342 5.5257C38.5346 4.52534 39.8914 3.96335 41.3061 3.96335C42.0066 3.96335 42.7002 4.10133 43.3474 4.3694C43.9945 4.63747 44.5827 5.03037 45.078 5.5257C45.5733 6.02103 45.9662 6.60916 46.2343 7.25634C46.5024 7.90352 46.6404 8.5971 46.6404 9.2976V12.2981ZM50.641 12.2981V9.2976C50.641 6.91025 49.6926 4.62071 48.0045 2.93259C46.3164 1.24448 44.0269 0.296143 41.6395 0.296143C39.2522 0.296143 36.9625 1.24448 35.2744 2.93259C33.5863 4.62071 32.638 6.91025 32.638 9.2976V12.2981C32.638 14.6854 33.5863 16.9751 35.2744 18.6632C36.9625 20.3513 39.2522 21.2996 41.6395 21.2996C44.0269 21.2996 46.3164 20.3513 48.0045 18.6632C49.6926 16.9751 50.641 14.6854 50.641 12.2981Z" fill="white"/>
<path d="M153.258 47.948V43.0012L172.293 33.9843L153.258 24.9048V19.958L181.06 33.9843L153.258 47.948Z" fill="white"/>
<path d="M191.861 48.0419V41.4671H212.024C213.777 41.4671 215.009 40.9244 215.719 39.839C216.428 38.7537 216.783 37.063 216.783 34.767C216.783 32.7215 216.428 31.2187 215.719 30.2586C215.051 29.2567 213.819 28.7558 212.024 28.7558H199.751C197.079 28.7558 195.055 28.2131 193.677 27.1277C192.3 26.0423 191.611 23.976 191.611 20.9286V9.8453C191.611 8.09201 192.091 6.71443 193.051 5.71254C194.053 4.71067 195.514 4.20973 197.434 4.20973H223.859V10.7846H201.943C201.525 10.7846 201.17 10.8263 200.878 10.9098C200.628 10.9933 200.398 11.202 200.189 11.536C199.981 11.8699 199.876 12.3709 199.876 13.0388V18.4865C199.876 19.8223 200.085 20.7825 200.503 21.3669C200.962 21.9096 201.838 22.1809 203.132 22.1809H215.593C219.183 22.1809 221.688 23.2663 223.107 25.437C224.568 27.566 225.299 30.5717 225.299 34.4539C225.299 35.9985 225.236 37.3761 225.111 38.5867C224.986 39.7973 224.715 41.0288 224.297 42.2811C223.88 43.4917 223.316 44.5145 222.606 45.3494C221.939 46.1425 220.999 46.7896 219.789 47.2905C218.62 47.7915 217.221 48.0419 215.593 48.0419H191.861Z" fill="white"/>
<path d="M232.166 48.0419L254.145 13.2266C254.604 12.517 254.833 11.9743 254.833 11.5986C254.833 11.0559 254.395 10.7846 253.518 10.7846H230.162V4.20973H259.029C260.907 4.20973 262.181 4.62718 262.848 5.46208C263.516 6.29698 263.85 7.40322 263.85 8.7808C263.85 10.4923 263.349 12.183 262.348 13.8528L241.371 48.0419H232.166Z" fill="white"/>
<path d="M280.935 48.0419V28.5053H272.074V26.1258H292.707V28.5053H283.846V48.0419H280.935Z" fill="white"/>
<path d="M317.916 48.0419V26.1258H320.827V48.0419H317.916ZM300.007 26.1258V35.4871H310.464C311.445 35.4871 312.249 35.6437 312.875 35.9568C313.501 36.2698 313.992 36.7082 314.347 37.2717C314.722 37.8144 314.983 38.4719 315.129 39.2442C315.275 39.9956 315.348 40.82 315.348 41.7176C315.348 42.6151 315.275 43.45 315.129 44.2223C315.004 44.9945 314.754 45.6625 314.378 46.226C314.023 46.7896 313.533 47.2383 312.906 47.5723C312.28 47.8854 311.487 48.0419 310.527 48.0419H300.164C299.245 48.0419 298.504 47.8332 297.941 47.4157C297.377 46.9774 297.095 46.2051 297.095 45.0989V26.1258H300.007ZM300.007 37.8666V44.1596C300.007 44.7023 300.091 45.0885 300.258 45.3181C300.446 45.5477 300.842 45.6625 301.447 45.6625H309.149C309.796 45.6625 310.318 45.579 310.715 45.412C311.132 45.2241 311.456 44.9632 311.685 44.6293C311.936 44.2953 312.103 43.8883 312.186 43.4082C312.27 42.9073 312.312 42.3437 312.312 41.7176C312.312 41.0914 312.27 40.5383 312.186 40.0582C312.103 39.5781 311.946 39.1816 311.717 38.8685C311.487 38.5345 311.164 38.284 310.746 38.1171C310.35 37.9501 309.817 37.8666 309.149 37.8666H300.007Z" fill="white"/>
<path d="M335.752 48.0419C333.915 48.0419 332.402 47.7601 331.212 47.1966C330.044 46.6122 329.115 45.8294 328.426 44.8484C327.737 43.8465 327.257 42.6777 326.986 41.3419C326.735 40.006 326.61 38.5763 326.61 37.0526C326.61 35.5289 326.735 34.1095 326.986 32.7946C327.257 31.4587 327.737 30.3003 328.426 29.3193C329.136 28.3174 330.085 27.5347 331.275 26.9712C332.486 26.4076 334.03 26.1258 335.909 26.1258H344.393V28.5053H336.879C335.502 28.5053 334.354 28.6723 333.435 29.0062C332.517 29.3402 331.776 29.862 331.212 30.5717C330.649 31.2605 330.242 32.1475 329.991 33.2329C329.762 34.2974 329.647 35.5706 329.647 37.0526C329.647 38.5345 329.762 39.8182 329.991 40.9035C330.221 41.9889 330.607 42.8864 331.15 43.5961C331.713 44.3057 332.444 44.8276 333.341 45.1615C334.239 45.4955 335.366 45.6625 336.723 45.6625H344.706V48.0419H335.752Z" fill="white"/>
<path d="M349.573 48.0419V44.6606H352.422V48.0419H349.573Z" fill="white"/>
<path d="M198.87 80.9161L193.308 76.2839C192.963 75.9969 192.74 75.7272 192.636 75.4746C192.533 75.2106 192.481 74.958 192.481 74.7169C192.481 74.5218 192.539 74.3094 192.653 74.0798C192.768 73.8502 192.958 73.6206 193.222 73.391L198.319 68.8622H200.402L194.72 73.8387C194.559 73.9765 194.404 74.1085 194.255 74.2348C194.117 74.3611 194.048 74.5218 194.048 74.7169C194.048 74.9351 194.134 75.1302 194.307 75.3024C194.479 75.4746 194.662 75.6411 194.858 75.8018L201.039 80.9161H198.87ZM190.225 68.8622H191.827V80.9161H190.225V68.8622Z" fill="white"/>
<path d="M206.743 69.8265C206.904 69.4592 207.088 69.1836 207.294 69C207.512 68.8163 207.839 68.7244 208.276 68.7244C208.723 68.7244 209.051 68.8163 209.257 69C209.464 69.1836 209.648 69.4592 209.808 69.8265L214.475 80.9161H212.77L208.603 70.6186C208.568 70.5383 208.534 70.4579 208.5 70.3775C208.465 70.2972 208.39 70.257 208.276 70.257C208.161 70.257 208.081 70.3029 208.035 70.3948C208 70.4751 207.971 70.5498 207.949 70.6186L203.781 80.9161H202.077L206.743 69.8265Z" fill="white"/>
<path d="M225.403 80.9161L225.455 70.9114C225.455 70.831 225.449 70.7506 225.438 70.6703C225.426 70.5784 225.386 70.5325 225.317 70.5325C225.26 70.5325 225.185 70.5899 225.093 70.7047C225.002 70.808 224.91 70.9286 224.818 71.0663L219.239 79.969C219.147 80.1182 219.049 80.2617 218.946 80.3995C218.854 80.5257 218.745 80.6405 218.619 80.7439C218.504 80.8357 218.366 80.9103 218.205 80.9677C218.045 81.0251 217.844 81.0538 217.603 81.0538C217.258 81.0538 216.994 80.9907 216.811 80.8644C216.627 80.7381 216.489 80.5889 216.397 80.4167C216.306 80.233 216.248 80.0436 216.225 79.8484C216.214 79.6418 216.208 79.4696 216.208 79.3318V68.8622H217.809L217.775 78.7119C217.775 78.8726 217.781 79.0047 217.792 79.108C217.804 79.1998 217.855 79.2457 217.947 79.2457C218.016 79.2457 218.079 79.2113 218.137 79.1424C218.194 79.0621 218.251 78.976 218.309 78.8841L223.802 70.0332C224.089 69.5625 224.359 69.2296 224.611 69.0344C224.864 68.8278 225.179 68.7244 225.558 68.7244C225.914 68.7244 226.19 68.7991 226.385 68.9483C226.58 69.0975 226.724 69.2755 226.815 69.4821C226.907 69.6773 226.959 69.8782 226.97 70.0848C226.993 70.2915 227.005 70.4522 227.005 70.567V80.9161H225.403Z" fill="white"/>
<path d="M231.711 80.9161C231.183 80.9161 230.769 80.784 230.471 80.52C230.173 80.256 230.023 79.8197 230.023 79.2113V70.567C230.023 69.9241 230.173 69.4821 230.471 69.241C230.769 68.9885 231.183 68.8622 231.711 68.8622H239.167V70.1709H232.417C232.084 70.1709 231.866 70.2341 231.762 70.3603C231.671 70.4751 231.625 70.6818 231.625 70.9802V74.097H238.995V75.4057H231.625V78.7808C231.625 79.0793 231.671 79.2917 231.762 79.4179C231.866 79.5442 232.084 79.6074 232.417 79.6074H239.236V80.9161H231.711Z" fill="white"/>
<path d="M251.982 80.9161H250.381V75.4057H243.338V80.9161H241.737V68.8622H243.338V74.097H250.381V68.8622H251.982V80.9161Z" fill="white"/>
<path d="M258.751 80.9161V70.1709H253.878V68.8622H265.225V70.1709H260.352V80.9161H258.751Z" fill="white"/>
<path d="M270.957 80.9161C269.946 80.9161 269.114 80.7611 268.46 80.4511C267.817 80.1297 267.306 79.6992 266.927 79.1596C266.548 78.6086 266.284 77.9657 266.135 77.231C265.997 76.4963 265.928 75.7099 265.928 74.8719C265.928 74.0339 265.997 73.2533 266.135 72.53C266.284 71.7953 266.548 71.1582 266.927 70.6186C267.318 70.0676 267.84 69.6371 268.494 69.3271C269.16 69.0172 270.01 68.8622 271.043 68.8622H275.709V70.1709H271.577C270.819 70.1709 270.188 70.2627 269.682 70.4464C269.177 70.6301 268.77 70.9171 268.46 71.3074C268.15 71.6863 267.926 72.1741 267.788 72.7711C267.662 73.3566 267.599 74.0568 267.599 74.8719C267.599 75.687 267.662 76.393 267.788 76.99C267.914 77.5869 268.127 78.0805 268.425 78.4708C268.735 78.8612 269.137 79.1482 269.631 79.3318C270.124 79.5155 270.744 79.6074 271.49 79.6074H275.882V80.9161H270.957Z" fill="white"/>
<path d="M286.866 80.9161L281.304 76.2839C280.959 75.9969 280.736 75.7272 280.632 75.4746C280.529 75.2106 280.477 74.958 280.477 74.7169C280.477 74.5218 280.535 74.3094 280.65 74.0798C280.764 73.8502 280.954 73.6206 281.218 73.391L286.315 68.8622H288.398L282.716 73.8387C282.555 73.9765 282.4 74.1085 282.251 74.2348C282.113 74.3611 282.044 74.5218 282.044 74.7169C282.044 74.9351 282.13 75.1302 282.303 75.3024C282.475 75.4746 282.659 75.6411 282.854 75.8018L289.036 80.9161H286.866ZM278.222 68.8622H279.823V80.9161H278.222V68.8622Z" fill="white"/>
<path d="M294.653 70.0504C294.837 69.6256 295.043 69.2984 295.273 69.0688C295.503 68.8392 295.847 68.7244 296.306 68.7244C296.742 68.7244 297.087 68.845 297.339 69.0861C297.592 69.3157 297.804 69.6371 297.977 70.0504L302.54 80.9161H300.852L299.492 77.6443H293.103L291.76 80.9161H290.073L294.653 70.0504ZM293.586 76.3356H299.01L296.737 70.808C296.679 70.6818 296.616 70.5555 296.547 70.4292C296.49 70.2915 296.41 70.2226 296.306 70.2226C296.203 70.2226 296.123 70.2915 296.065 70.4292C296.008 70.5555 295.95 70.6818 295.893 70.808L293.586 76.3356Z" fill="white"/>
<path d="M314.328 80.9161H312.726V70.9975C312.726 70.6646 312.652 70.4464 312.502 70.3431C312.353 70.2283 312.141 70.1709 311.865 70.1709H307.578C307.176 70.1709 306.849 70.2226 306.596 70.3259C306.355 70.4292 306.166 70.5842 306.028 70.7908C305.901 70.986 305.815 71.2271 305.77 71.5141C305.735 71.801 305.718 72.134 305.718 72.5128C305.718 72.8802 305.729 73.2188 305.752 73.5288C305.787 73.8387 305.856 74.1085 305.959 74.3381C306.074 74.5562 306.234 74.7284 306.441 74.8547C306.659 74.981 306.952 75.0441 307.319 75.0441H310.264C310.746 75.0441 310.987 75.245 310.987 75.6468V75.9223C310.987 76.0601 310.935 76.1978 310.832 76.3356C310.74 76.4619 310.643 76.5709 310.539 76.6628L305.924 80.9161H303.789L308.731 76.4389V76.3528H306.785C306.269 76.3528 305.833 76.261 305.477 76.0773C305.132 75.8936 304.851 75.6353 304.633 75.3024C304.426 74.9695 304.277 74.5677 304.185 74.097C304.093 73.6149 304.048 73.0868 304.048 72.5128C304.048 71.9503 304.093 71.4452 304.185 70.9975C304.289 70.5498 304.449 70.1709 304.667 69.861C304.897 69.5395 305.201 69.2927 305.58 69.1205C305.959 68.9483 306.424 68.8622 306.975 68.8622H312.554C313.128 68.8622 313.564 69.0057 313.863 69.2927C314.173 69.5682 314.328 70.0331 314.328 70.6875V80.9161Z" fill="white"/>
<path d="M199.834 94.4352H192.619C192.286 94.4352 192.068 94.4983 191.965 94.6246C191.873 94.7394 191.827 94.946 191.827 95.2445V98.3613H197.75C198.29 98.3613 198.732 98.4474 199.076 98.6196C199.421 98.7803 199.691 99.0099 199.886 99.3084C200.092 99.6068 200.236 99.9627 200.316 100.376C200.397 100.789 200.437 101.243 200.437 101.736C200.437 102.23 200.397 102.689 200.316 103.114C200.247 103.527 200.11 103.889 199.903 104.199C199.708 104.509 199.438 104.75 199.094 104.922C198.749 105.094 198.313 105.18 197.785 105.18H191.913C191.385 105.18 190.972 105.06 190.673 104.819C190.375 104.566 190.225 104.118 190.225 103.476V94.8312C190.225 94.1883 190.375 93.7464 190.673 93.5053C190.972 93.2527 191.385 93.1265 191.913 93.1265H199.834V94.4352ZM191.827 99.67V103.045C191.827 103.344 191.873 103.556 191.965 103.682C192.068 103.808 192.286 103.872 192.619 103.872H197.027C197.383 103.872 197.67 103.826 197.888 103.734C198.118 103.642 198.296 103.504 198.422 103.321C198.56 103.137 198.652 102.913 198.698 102.649C198.743 102.385 198.766 102.081 198.766 101.736C198.766 101.392 198.743 101.093 198.698 100.841C198.652 100.577 198.566 100.359 198.439 100.187C198.313 100.014 198.135 99.8881 197.905 99.8077C197.687 99.7159 197.395 99.67 197.027 99.67H191.827Z" fill="white"/>
<path d="M206.405 94.3146C206.588 93.8899 206.795 93.5627 207.025 93.3331C207.254 93.1035 207.599 92.9887 208.058 92.9887C208.494 92.9887 208.839 93.1092 209.091 93.3503C209.344 93.5799 209.556 93.9013 209.728 94.3146L214.291 105.18H212.604L211.244 101.909H204.855L203.512 105.18H201.824L206.405 94.3146ZM205.337 100.6H210.761L208.488 95.0723C208.431 94.946 208.368 94.8197 208.299 94.6935C208.242 94.5557 208.161 94.4868 208.058 94.4868C207.955 94.4868 207.874 94.5557 207.817 94.6935C207.759 94.8197 207.702 94.946 207.645 95.0723L205.337 100.6Z" fill="white"/>
<path d="M223.255 99.1017C223.91 99.1936 224.386 99.4576 224.685 99.8938C224.995 100.33 225.15 100.996 225.15 101.891C225.15 102.339 225.109 102.764 225.029 103.166C224.949 103.556 224.805 103.9 224.598 104.199C224.392 104.497 224.105 104.738 223.737 104.922C223.37 105.094 222.899 105.18 222.325 105.18H215.679V103.872H221.533C222.28 103.872 222.79 103.711 223.066 103.389C223.341 103.057 223.479 102.534 223.479 101.822C223.479 101.512 223.45 101.231 223.393 100.979C223.347 100.726 223.261 100.508 223.135 100.324C223.009 100.141 222.831 100.003 222.601 99.911C222.383 99.8077 222.102 99.7561 221.757 99.7561H215.92V98.4474H221.533C222.188 98.4474 222.635 98.2867 222.876 97.9652C223.118 97.6323 223.238 97.1042 223.238 96.381C223.238 95.7496 223.135 95.2674 222.928 94.9345C222.722 94.6016 222.291 94.4352 221.637 94.4352H215.747V93.1265H222.239C223.204 93.1265 223.887 93.3962 224.289 93.9358C224.702 94.4639 224.908 95.256 224.908 96.3121C224.908 96.6221 224.885 96.9263 224.84 97.2248C224.805 97.5232 224.725 97.793 224.598 98.0341C224.484 98.2752 224.317 98.4875 224.099 98.6712C223.881 98.8434 223.6 98.964 223.255 99.0328V99.1017Z" fill="white"/>
<path d="M231.193 94.3146C231.377 93.8899 231.584 93.5627 231.813 93.3331C232.043 93.1035 232.387 92.9887 232.846 92.9887C233.283 92.9887 233.627 93.1092 233.88 93.3503C234.132 93.5799 234.345 93.9013 234.517 94.3146L239.08 105.18H237.393L236.032 101.909H229.644L228.3 105.18H226.613L231.193 94.3146ZM230.126 100.6H235.55L233.277 95.0723C233.22 94.946 233.156 94.8197 233.088 94.6935C233.03 94.5557 232.95 94.4868 232.846 94.4868C232.743 94.4868 232.663 94.5557 232.605 94.6935C232.548 94.8197 232.491 94.946 232.433 95.0723L230.126 100.6Z" fill="white"/>
</g>
</svg>
