<svg width="321" height="172" viewBox="0 0 321 172" fill="none" xmlns="http://www.w3.org/2000/svg">
<g id="image_infogr_05">
<g id="logo17mil">
<g id="Group">
<path id="Vector" d="M114.821 130.269H65.8737V100.835H85.3864V107.78C85.3864 108.482 85.6651 109.155 86.1613 109.651C86.6575 110.147 87.3306 110.426 88.0323 110.426H92.3317C93.0334 110.426 93.7063 110.147 94.2025 109.651C94.6987 109.155 94.9775 108.482 94.9775 107.78V100.835H114.49L114.821 130.269ZM91.6702 107.119H88.6936V100.835H91.6702V107.119ZM34.7855 97.8583H31.8091V91.5745H34.7855V97.8583ZM12.6269 63.1322H23.2101V70.0774C23.2101 70.7791 23.4889 71.4521 23.9851 71.9483C24.4813 72.4445 25.1542 72.7232 25.8559 72.7232H30.1555C30.8572 72.7232 31.5301 72.4445 32.0263 71.9483C32.5225 71.4521 32.8012 70.7791 32.8012 70.0774V63.1322H43.3845V88.2673H12.6269V63.1322ZM26.5174 63.1322H29.494V69.416H26.5174V63.1322ZM72.8189 53.5412H69.8425V47.2574H72.8189V53.5412ZM42.723 26.091H39.7464V19.8072H42.723V26.091ZM115.152 97.1969H99.2768V71.0696C99.2768 70.631 99.1027 70.2104 98.7926 69.9003C98.4825 69.5902 98.0618 69.416 97.6232 69.416C97.3802 69.3663 97.1292 69.3719 96.8887 69.4325C96.6481 69.493 96.4242 69.607 96.2336 69.7658C96.0431 69.9246 95.8907 70.1242 95.7877 70.3499C95.6848 70.5756 95.6339 70.8216 95.639 71.0696V97.5276H65.8737V89.9209C65.8737 89.4823 65.6994 89.0617 65.3893 88.7516C65.0792 88.4415 64.6587 88.2673 64.2201 88.2673H47.0224V47.2574H66.5352V54.2026C66.5352 54.9043 66.814 55.5773 67.3102 56.0735C67.8063 56.5697 68.4793 56.8484 69.181 56.8484H73.4804C74.1821 56.8484 74.855 56.5697 75.3512 56.0735C75.8474 55.5773 76.1261 54.9043 76.1261 54.2026V47.2574H95.639V74.3768C95.639 74.8154 95.8131 75.236 96.1232 75.5461C96.4333 75.8562 96.854 76.0305 97.2926 76.0305C97.5356 76.0801 97.7866 76.0745 98.0271 76.0139C98.2677 75.9534 98.4916 75.8395 98.6822 75.6807C98.8727 75.5219 99.0251 75.3222 99.1281 75.0965C99.231 74.8708 99.2819 74.6249 99.2768 74.3768V46.596C99.2768 45.8065 98.9632 45.0494 98.405 44.4912C97.8468 43.933 97.0899 43.6194 96.3004 43.6194H59.9207V19.4765C59.9207 18.6871 59.6071 17.93 59.0489 17.3718C58.4907 16.8136 57.7335 16.5 56.9441 16.5H25.1946C24.4052 16.5 23.648 16.8136 23.0898 17.3718C22.5316 17.93 22.218 18.6871 22.218 19.4765V40.3122C22.218 40.7507 22.3922 41.1713 22.7023 41.4815C23.0124 41.7916 23.4331 41.9658 23.8716 41.9658C24.1147 42.0155 24.3658 42.0098 24.6064 41.9493C24.847 41.8887 25.0707 41.7748 25.2612 41.616C25.4518 41.4572 25.6042 41.2575 25.7071 41.0319C25.8101 40.8062 25.8609 40.5602 25.8559 40.3122V19.8072H36.4391V26.7525C36.4391 27.4542 36.7179 28.1272 37.2141 28.6233C37.7103 29.1195 38.3832 29.3983 39.0849 29.3983H43.3845C44.0862 29.3983 44.7591 29.1195 45.2553 28.6233C45.7515 28.1272 46.0302 27.4542 46.0302 26.7525V19.8072H56.6135V43.6194H45.0381C44.5995 43.6194 44.1789 43.7936 43.8687 44.1038C43.5586 44.4139 43.3845 44.8345 43.3845 45.273V59.8249H25.8559V37.3356C25.8559 36.8971 25.6818 36.4765 25.3716 36.1664C25.0615 35.8562 24.6409 35.682 24.2023 35.682C23.9592 35.6324 23.7083 35.638 23.4677 35.6986C23.2272 35.7591 23.0033 35.873 22.8127 36.0318C22.6221 36.1906 22.4697 36.3903 22.3668 36.616C22.2638 36.8417 22.213 37.0876 22.218 37.3356V59.8249H11.9656C11.1762 59.8249 10.4191 60.1385 9.86085 60.6967C9.30264 61.2549 8.98902 62.012 8.98902 62.8015V88.2673H3.36666C2.57724 88.2673 1.82009 88.5809 1.26188 89.1391C0.703677 89.6973 0.390259 90.4544 0.390259 91.2438V131.923C0.390259 132.362 0.564402 132.782 0.874517 133.092C1.18463 133.402 1.60531 133.577 2.04388 133.577H28.171C28.6096 133.577 29.0303 133.402 29.3404 133.092C29.6505 132.782 29.8246 132.362 29.8246 131.923C29.8743 131.68 29.8686 131.429 29.8081 131.188C29.7475 130.948 29.6336 130.724 29.4748 130.533C29.316 130.343 29.1163 130.19 28.8906 130.087C28.6649 129.984 28.419 129.934 28.171 129.939H4.02815V91.5745H28.171V98.5197C28.171 99.2214 28.4498 99.8944 28.946 100.391C29.4421 100.887 30.1151 101.166 30.8168 101.166H35.1164C35.8181 101.166 36.491 100.887 36.9872 100.391C37.4834 99.8944 37.7621 99.2214 37.7621 98.5197V91.5745H61.905V130.269H27.5095C27.071 130.269 26.6505 130.444 26.3404 130.754C26.0303 131.064 25.8559 131.484 25.8559 131.923C25.8062 132.166 25.8119 132.417 25.8725 132.658C25.933 132.898 26.0469 133.122 26.2057 133.313C26.3645 133.503 26.5642 133.656 26.7899 133.759C27.0156 133.861 27.2615 133.912 27.5095 133.907H116.475C116.913 133.907 117.334 133.733 117.644 133.423C117.954 133.113 118.128 132.692 118.128 132.254V100.504C118.128 99.7147 117.815 98.9576 117.256 98.3994C116.698 97.8412 115.941 97.5276 115.152 97.5276" fill="white"/>
</g>
</g>
<g id="descr">
<g id="number">
<g id="Vector_2">
<path d="M148.668 51.5544V16.3476C148.668 15.5752 148.625 15.0174 148.539 14.6742C148.497 14.288 148.304 13.9662 147.962 13.7087C147.662 13.4083 147.192 13.2582 146.55 13.2582H141.61V6.5H151.298C155.191 6.5 157.137 8.38799 157.137 12.164V51.5544H148.668Z" fill="white"/>
<path d="M165.431 51.5544L187.952 15.7683C188.423 15.0389 188.658 14.4811 188.658 14.0949C188.658 13.5371 188.209 13.2582 187.311 13.2582H163.378V6.5H192.957C194.882 6.5 196.187 6.92909 196.871 7.78727C197.555 8.64545 197.898 9.78254 197.898 11.1985C197.898 12.9578 197.384 14.6956 196.358 16.412L174.863 51.5544H165.431Z" fill="white"/>
<path d="M220.74 54.0244C220.307 55.096 219.845 55.9505 219.354 56.5877C218.863 57.1959 218.098 57.5 217.058 57.5C216.019 57.5 215.239 57.1959 214.72 56.5877C214.229 55.9505 213.767 55.096 213.334 54.0244L204.325 31.4763C204.238 31.2446 204.123 31.0273 203.979 30.8246C203.834 30.6218 203.69 30.5205 203.546 30.5205C203.372 30.5205 203.228 30.6074 203.112 30.7811C203.026 30.9549 202.982 31.1577 202.982 31.3894L203.069 57.1524H199.041V29.8253C199.041 28.7247 199.373 27.8848 200.037 27.3055C200.73 26.6973 201.683 26.3932 202.896 26.3932C203.531 26.3932 204.08 26.4801 204.542 26.6538C205.004 26.8276 205.393 27.0738 205.711 27.3924C206.058 27.682 206.346 28.0441 206.577 28.4785C206.808 28.913 207.025 29.3764 207.227 29.8688L216.279 52.3735C216.394 52.6631 216.495 52.9093 216.582 53.112C216.697 53.3148 216.856 53.4161 217.058 53.4161C217.232 53.4161 217.376 53.3148 217.491 53.112C217.607 52.9093 217.722 52.6631 217.838 52.3735L226.89 29.8688C227.265 28.884 227.742 28.0586 228.319 27.3924C228.925 26.7262 229.878 26.3932 231.178 26.3932C232.39 26.3932 233.343 26.6973 234.036 27.3055C234.729 27.8848 235.075 28.7247 235.075 29.8253V57.1524H231.048L231.134 31.3894C231.134 30.9839 231.062 30.7377 230.918 30.6508C230.773 30.5639 230.658 30.5205 230.571 30.5205C230.427 30.5205 230.282 30.6218 230.138 30.8246C229.994 31.0273 229.878 31.2446 229.792 31.4763L220.74 54.0244Z" fill="white"/>
<path d="M251.597 29.1737C252.001 28.2468 252.463 27.5517 252.983 27.0883C253.532 26.6249 254.354 26.3932 255.452 26.3932C256.578 26.3932 257.401 26.6249 257.92 27.0883C258.44 27.5517 258.902 28.2468 259.306 29.1737L271.043 57.1524H266.756L256.275 31.1721C256.188 30.9694 256.101 30.7667 256.015 30.5639C255.928 30.3612 255.74 30.2598 255.452 30.2598C255.163 30.2598 254.961 30.3757 254.845 30.6074C254.759 30.8101 254.687 30.9984 254.629 31.1721L244.148 57.1524H239.86L251.597 29.1737Z" fill="white"/>
<path d="M301.61 57.1524H297.582V43.2499H279.868V57.1524H275.84V26.7407H279.868V39.9481H297.582V26.7407H301.61V57.1524Z" fill="white"/>
</g>
</g>
<g id="txt">
<path d="M143.647 89.6485C143.118 89.6485 142.703 89.5169 142.404 89.2538C142.105 88.9907 141.955 88.556 141.955 87.9497V79.336C141.955 78.6954 142.105 78.255 142.404 78.0148C142.703 77.7631 143.118 77.6373 143.647 77.6373H151.123V78.9413H144.355C144.021 78.9413 143.803 79.0043 143.699 79.1301C143.607 79.2445 143.561 79.4504 143.561 79.7478V82.8536H150.951V84.1576H143.561V87.5208C143.561 87.8182 143.607 88.0298 143.699 88.1556C143.803 88.2815 144.021 88.3444 144.355 88.3444H151.193V89.6485H143.647Z" fill="white"/>
<path d="M154.883 89.6485C154.584 89.6485 154.388 89.7114 154.296 89.8372C154.216 89.963 154.175 90.1689 154.175 90.4549V91.9649H152.57V90.026C152.57 89.3854 152.702 88.9449 152.967 88.7047C153.243 88.4645 153.646 88.3444 154.175 88.3444H154.555L158.837 78.7354C159.033 78.2893 159.257 77.9747 159.511 77.7917C159.775 77.5972 160.092 77.5 160.46 77.5C160.863 77.5 161.185 77.5972 161.427 77.7917C161.669 77.9747 161.888 78.2893 162.083 78.7354L166.348 88.3444H166.745C167.275 88.3444 167.672 88.4645 167.937 88.7047C168.213 88.9449 168.351 89.3854 168.351 90.026V91.9649H166.745V90.4549C166.745 90.1689 166.699 89.963 166.607 89.8372C166.515 89.7114 166.319 89.6485 166.02 89.6485H154.883ZM156.213 88.3444H164.69L160.806 79.4904C160.748 79.376 160.696 79.2731 160.65 79.1816C160.604 79.0901 160.535 79.0443 160.443 79.0443C160.362 79.0443 160.293 79.0958 160.236 79.1987C160.19 79.2902 160.144 79.3875 160.098 79.4904L156.213 88.3444Z" fill="white"/>
<path d="M179.133 89.6485L179.185 79.6792C179.185 79.5991 179.179 79.519 179.168 79.4389C179.156 79.3474 179.116 79.3017 179.047 79.3017C178.989 79.3017 178.915 79.3589 178.823 79.4733C178.73 79.5762 178.638 79.6963 178.546 79.8336L172.952 88.7047C172.86 88.8534 172.762 88.9964 172.658 89.1337C172.566 89.2595 172.457 89.3739 172.33 89.4769C172.215 89.5684 172.077 89.6427 171.916 89.6999C171.755 89.7571 171.553 89.7857 171.312 89.7857C170.966 89.7857 170.702 89.7228 170.517 89.597C170.333 89.4712 170.195 89.3224 170.103 89.1509C170.011 88.9678 169.953 88.7791 169.93 88.5846C169.919 88.3787 169.913 88.2071 169.913 88.0698V77.6373H171.519L171.484 87.4521C171.484 87.6123 171.49 87.7438 171.502 87.8468C171.513 87.9383 171.565 87.9841 171.657 87.9841C171.726 87.9841 171.789 87.9497 171.847 87.8811C171.904 87.801 171.962 87.7152 172.02 87.6237L177.528 78.8041C177.815 78.3351 178.086 78.0033 178.339 77.8089C178.592 77.603 178.909 77.5 179.289 77.5C179.646 77.5 179.922 77.5744 180.117 77.7231C180.313 77.8718 180.457 78.0491 180.549 78.255C180.641 78.4495 180.693 78.6496 180.705 78.8555C180.728 79.0615 180.739 79.2216 180.739 79.336V89.6485H179.133Z" fill="white"/>
<path d="M194.039 89.6485H192.433V84.1576H185.371V89.6485H183.766V77.6373H185.371V82.8536H192.433V77.6373H194.039V89.6485Z" fill="white"/>
<path d="M206.282 89.6485L206.334 79.6792C206.334 79.5991 206.328 79.519 206.317 79.4389C206.305 79.3474 206.265 79.3017 206.196 79.3017C206.138 79.3017 206.063 79.3589 205.971 79.4733C205.879 79.5762 205.787 79.6963 205.695 79.8336L200.101 88.7047C200.009 88.8534 199.911 88.9964 199.807 89.1337C199.715 89.2595 199.606 89.3739 199.479 89.4769C199.364 89.5684 199.226 89.6427 199.065 89.6999C198.904 89.7571 198.702 89.7857 198.46 89.7857C198.115 89.7857 197.85 89.7228 197.666 89.597C197.482 89.4712 197.344 89.3224 197.252 89.1509C197.16 88.9678 197.102 88.7791 197.079 88.5846C197.068 88.3787 197.062 88.2071 197.062 88.0698V77.6373H198.668L198.633 87.4521C198.633 87.6123 198.639 87.7438 198.65 87.8468C198.662 87.9383 198.714 87.9841 198.806 87.9841C198.875 87.9841 198.938 87.9497 198.996 87.8811C199.053 87.801 199.111 87.7152 199.168 87.6237L204.676 78.8041C204.964 78.3351 205.235 78.0033 205.488 77.8089C205.741 77.603 206.058 77.5 206.437 77.5C206.794 77.5 207.07 77.5744 207.266 77.7231C207.462 77.8718 207.606 78.0491 207.698 78.255C207.79 78.4495 207.842 78.6496 207.853 78.8555C207.876 79.0615 207.888 79.2216 207.888 79.336V89.6485H206.282Z" fill="white"/>
<path d="M212.589 89.6485C212.048 89.6485 211.634 89.5398 211.346 89.3224C211.058 89.1051 210.914 88.6818 210.914 88.0527V77.6373H212.52V87.6237C212.52 87.9097 212.572 88.1042 212.676 88.2071C212.779 88.2986 212.981 88.3444 213.28 88.3444H219.461V77.6373H221.067V88.3444H221.43C221.959 88.3444 222.356 88.4645 222.621 88.7047C222.897 88.9449 223.035 89.3854 223.035 90.026V91.9649H221.43V90.4549C221.43 90.1575 221.383 89.9459 221.291 89.82C221.199 89.7057 220.986 89.6485 220.653 89.6485H212.589Z" fill="white"/>
<path d="M150.623 113.827L145.046 109.211C144.7 108.925 144.476 108.656 144.372 108.405C144.269 108.142 144.217 107.89 144.217 107.65C144.217 107.455 144.275 107.244 144.39 107.015C144.505 106.786 144.695 106.557 144.959 106.328L150.07 101.816H152.159L146.462 106.775C146.3 106.912 146.145 107.043 145.995 107.169C145.857 107.295 145.788 107.455 145.788 107.65C145.788 107.867 145.875 108.061 146.047 108.233C146.22 108.405 146.404 108.57 146.6 108.731L152.798 113.827H150.623ZM141.955 101.816H143.561V113.827H141.955V101.816Z" fill="white"/>
<path d="M158.517 102.777C158.679 102.41 158.863 102.136 159.07 101.953C159.289 101.77 159.617 101.678 160.054 101.678C160.503 101.678 160.831 101.77 161.038 101.953C161.245 102.136 161.43 102.41 161.591 102.777L166.27 113.827H164.561L160.382 103.566C160.348 103.486 160.313 103.406 160.279 103.326C160.244 103.246 160.169 103.206 160.054 103.206C159.939 103.206 159.858 103.251 159.812 103.343C159.778 103.423 159.749 103.497 159.726 103.566L155.548 113.827H153.838L158.517 102.777Z" fill="white"/>
<path d="M177.228 113.827L177.28 103.858C177.28 103.777 177.274 103.697 177.262 103.617C177.251 103.526 177.211 103.48 177.142 103.48C177.084 103.48 177.009 103.537 176.917 103.652C176.825 103.755 176.733 103.875 176.641 104.012L171.047 112.883C170.955 113.032 170.857 113.175 170.753 113.312C170.661 113.438 170.552 113.552 170.425 113.655C170.31 113.747 170.172 113.821 170.011 113.878C169.849 113.935 169.648 113.964 169.406 113.964C169.061 113.964 168.796 113.901 168.612 113.775C168.428 113.65 168.29 113.501 168.198 113.329C168.106 113.146 168.048 112.957 168.025 112.763C168.014 112.557 168.008 112.385 168.008 112.248V101.816H169.614L169.579 111.63C169.579 111.791 169.585 111.922 169.596 112.025C169.608 112.117 169.66 112.162 169.752 112.162C169.821 112.162 169.884 112.128 169.942 112.059C169.999 111.979 170.057 111.894 170.114 111.802L175.622 102.982C175.91 102.513 176.18 102.182 176.434 101.987C176.687 101.781 177.003 101.678 177.383 101.678C177.74 101.678 178.016 101.753 178.212 101.901C178.408 102.05 178.552 102.227 178.644 102.433C178.736 102.628 178.788 102.828 178.799 103.034C178.822 103.24 178.834 103.4 178.834 103.514V113.827H177.228Z" fill="white"/>
<path d="M190.511 112.591C190.338 113.015 190.154 113.352 189.958 113.604C189.763 113.844 189.457 113.964 189.043 113.964C188.629 113.964 188.318 113.844 188.111 113.604C187.915 113.352 187.731 113.015 187.558 112.591L183.967 103.686C183.932 103.594 183.886 103.509 183.829 103.429C183.771 103.348 183.714 103.308 183.656 103.308C183.587 103.308 183.529 103.343 183.483 103.411C183.449 103.48 183.432 103.56 183.432 103.652L183.466 113.827H181.86V103.034C181.86 102.599 181.993 102.267 182.257 102.039C182.534 101.798 182.914 101.678 183.397 101.678C183.65 101.678 183.869 101.713 184.053 101.781C184.237 101.85 184.393 101.947 184.519 102.073C184.657 102.187 184.773 102.33 184.865 102.502C184.957 102.674 185.043 102.857 185.124 103.051L188.732 111.939C188.778 112.054 188.819 112.151 188.853 112.231C188.899 112.311 188.963 112.351 189.043 112.351C189.112 112.351 189.17 112.311 189.216 112.231C189.262 112.151 189.308 112.054 189.354 111.939L192.963 103.051C193.112 102.662 193.302 102.336 193.532 102.073C193.774 101.81 194.154 101.678 194.672 101.678C195.155 101.678 195.535 101.798 195.811 102.039C196.088 102.267 196.226 102.599 196.226 103.034V113.827H194.62L194.655 103.652C194.655 103.491 194.626 103.394 194.568 103.36C194.511 103.326 194.465 103.308 194.43 103.308C194.373 103.308 194.315 103.348 194.258 103.429C194.2 103.509 194.154 103.594 194.119 103.686L190.511 112.591Z" fill="white"/>
<path d="M202.552 103C202.736 102.576 202.943 102.25 203.173 102.022C203.403 101.793 203.749 101.678 204.209 101.678C204.647 101.678 204.992 101.798 205.245 102.039C205.498 102.267 205.711 102.588 205.884 103L210.46 113.827H208.768L207.403 110.567H200.998L199.651 113.827H197.959L202.552 103ZM201.481 109.263H206.92L204.641 103.755C204.583 103.629 204.52 103.503 204.451 103.377C204.393 103.24 204.313 103.171 204.209 103.171C204.106 103.171 204.025 103.24 203.968 103.377C203.91 103.503 203.852 103.629 203.795 103.755L201.481 109.263Z" fill="white"/>
<path d="M214.24 113.827V103.12H209.354V101.816H220.732V103.12H215.846V113.827H214.24Z" fill="white"/>
<path d="M231.863 113.827L231.914 103.858C231.914 103.777 231.909 103.697 231.897 103.617C231.886 103.526 231.845 103.48 231.776 103.48C231.719 103.48 231.644 103.537 231.552 103.652C231.46 103.755 231.368 103.875 231.276 104.012L225.681 112.883C225.589 113.032 225.491 113.175 225.388 113.312C225.296 113.438 225.186 113.552 225.06 113.655C224.945 113.747 224.806 113.821 224.645 113.878C224.484 113.935 224.283 113.964 224.041 113.964C223.696 113.964 223.431 113.901 223.247 113.775C223.063 113.65 222.924 113.501 222.832 113.329C222.74 113.146 222.683 112.957 222.66 112.763C222.648 112.557 222.642 112.385 222.642 112.248V101.816H224.248L224.214 111.63C224.214 111.791 224.219 111.922 224.231 112.025C224.242 112.117 224.294 112.162 224.386 112.162C224.455 112.162 224.519 112.128 224.576 112.059C224.634 111.979 224.691 111.894 224.749 111.802L230.257 102.982C230.545 102.513 230.815 102.182 231.068 101.987C231.322 101.781 231.638 101.678 232.018 101.678C232.375 101.678 232.651 101.753 232.847 101.901C233.042 102.05 233.186 102.227 233.278 102.433C233.37 102.628 233.422 102.828 233.434 103.034C233.457 103.24 233.468 103.4 233.468 103.514V113.827H231.863Z" fill="white"/>
<path d="M244.386 113.827V108.576H238.826C237.997 108.576 237.358 108.336 236.909 107.856C236.46 107.375 236.236 106.723 236.236 105.899V101.816H237.842V105.625C237.842 106.208 237.963 106.632 238.204 106.895C238.446 107.146 238.86 107.272 239.447 107.272H244.386V101.816H245.991V113.827H244.386Z" fill="white"/>
<path d="M250.708 113.827C250.178 113.827 249.764 113.695 249.464 113.432C249.165 113.169 249.015 112.734 249.015 112.128V103.514C249.015 102.874 249.165 102.433 249.464 102.193C249.764 101.941 250.178 101.816 250.708 101.816H258.184V103.12H251.415C251.082 103.12 250.863 103.183 250.759 103.308C250.667 103.423 250.621 103.629 250.621 103.926V107.032H258.011V108.336H250.621V111.699C250.621 111.997 250.667 112.208 250.759 112.334C250.863 112.46 251.082 112.523 251.415 112.523H258.253V113.827H250.708Z" fill="white"/>
<path d="M265.457 113.827C264.444 113.827 263.609 113.672 262.953 113.364C262.309 113.043 261.796 112.614 261.416 112.077C261.037 111.528 260.772 110.887 260.622 110.155C260.484 109.423 260.415 108.639 260.415 107.804C260.415 106.969 260.484 106.191 260.622 105.47C260.772 104.738 261.037 104.103 261.416 103.566C261.808 103.017 262.332 102.588 262.988 102.279C263.655 101.97 264.507 101.816 265.543 101.816H270.222V103.12H266.078C265.319 103.12 264.686 103.211 264.179 103.394C263.673 103.577 263.264 103.863 262.953 104.252C262.642 104.63 262.418 105.116 262.28 105.711C262.153 106.294 262.09 106.992 262.09 107.804C262.09 108.616 262.153 109.32 262.28 109.915C262.406 110.509 262.619 111.001 262.919 111.39C263.229 111.779 263.632 112.065 264.127 112.248C264.622 112.431 265.244 112.523 265.992 112.523H270.395V113.827H265.457Z" fill="white"/>
<path d="M281.409 113.827L275.832 109.211C275.487 108.925 275.262 108.656 275.159 108.405C275.055 108.142 275.003 107.89 275.003 107.65C275.003 107.455 275.061 107.244 275.176 107.015C275.291 106.786 275.481 106.557 275.746 106.328L280.856 101.816H282.946L277.248 106.775C277.087 106.912 276.931 107.043 276.782 107.169C276.643 107.295 276.574 107.455 276.574 107.65C276.574 107.867 276.661 108.061 276.833 108.233C277.006 108.405 277.19 108.57 277.386 108.731L283.584 113.827H281.409ZM272.741 101.816H274.347V113.827H272.741V101.816Z" fill="white"/>
<path d="M290.049 101.678C291.165 101.678 292.103 101.787 292.863 102.004C293.634 102.21 294.256 102.553 294.728 103.034C295.2 103.514 295.539 104.149 295.747 104.939C295.965 105.716 296.075 106.677 296.075 107.821C296.075 108.977 295.965 109.949 295.747 110.738C295.539 111.516 295.2 112.145 294.728 112.626C294.256 113.106 293.634 113.449 292.863 113.655C292.103 113.861 291.165 113.964 290.049 113.964C288.944 113.964 288.005 113.861 287.234 113.655C286.475 113.449 285.853 113.106 285.37 112.626C284.898 112.145 284.552 111.516 284.334 110.738C284.126 109.949 284.023 108.977 284.023 107.821C284.023 106.677 284.126 105.716 284.334 104.939C284.552 104.149 284.898 103.514 285.37 103.034C285.853 102.553 286.475 102.21 287.234 102.004C288.005 101.787 288.944 101.678 290.049 101.678ZM285.698 107.821C285.698 108.736 285.761 109.503 285.887 110.121C286.026 110.738 286.256 111.236 286.578 111.613C286.912 111.991 287.355 112.26 287.908 112.42C288.472 112.58 289.185 112.66 290.049 112.66C290.912 112.66 291.62 112.58 292.172 112.42C292.736 112.26 293.18 111.991 293.502 111.613C293.836 111.236 294.066 110.738 294.193 110.121C294.331 109.503 294.4 108.736 294.4 107.821C294.4 106.918 294.331 106.157 294.193 105.539C294.066 104.921 293.836 104.424 293.502 104.046C293.18 103.669 292.736 103.4 292.172 103.24C291.62 103.068 290.912 102.982 290.049 102.982C289.185 102.982 288.472 103.068 287.908 103.24C287.355 103.4 286.912 103.669 286.578 104.046C286.256 104.424 286.026 104.921 285.887 105.539C285.761 106.157 285.698 106.918 285.698 107.821Z" fill="white"/>
<path d="M298.76 113.827V103.514C298.76 102.874 298.91 102.433 299.209 102.193C299.508 101.941 299.923 101.816 300.452 101.816H307.86V103.12H301.16C300.826 103.12 300.608 103.183 300.504 103.308C300.412 103.423 300.366 103.629 300.366 103.926V113.827H298.76Z" fill="white"/>
<path d="M314.584 101.678C315.7 101.678 316.639 101.787 317.398 102.004C318.169 102.21 318.791 102.553 319.263 103.034C319.735 103.514 320.074 104.149 320.282 104.939C320.5 105.716 320.61 106.677 320.61 107.821C320.61 108.977 320.5 109.949 320.282 110.738C320.074 111.516 319.735 112.145 319.263 112.626C318.791 113.106 318.169 113.449 317.398 113.655C316.639 113.861 315.7 113.964 314.584 113.964C313.479 113.964 312.541 113.861 311.769 113.655C311.01 113.449 310.388 113.106 309.905 112.626C309.433 112.145 309.087 111.516 308.869 110.738C308.661 109.949 308.558 108.977 308.558 107.821C308.558 106.677 308.661 105.716 308.869 104.939C309.087 104.149 309.433 103.514 309.905 103.034C310.388 102.553 311.01 102.21 311.769 102.004C312.541 101.787 313.479 101.678 314.584 101.678ZM310.233 107.821C310.233 108.736 310.296 109.503 310.423 110.121C310.561 110.738 310.791 111.236 311.113 111.613C311.447 111.991 311.89 112.26 312.443 112.42C313.007 112.58 313.72 112.66 314.584 112.66C315.447 112.66 316.155 112.58 316.708 112.42C317.272 112.26 317.715 111.991 318.037 111.613C318.371 111.236 318.601 110.738 318.728 110.121C318.866 109.503 318.935 108.736 318.935 107.821C318.935 106.918 318.866 106.157 318.728 105.539C318.601 104.921 318.371 104.424 318.037 104.046C317.715 103.669 317.272 103.4 316.708 103.24C316.155 103.068 315.447 102.982 314.584 102.982C313.72 102.982 313.007 103.068 312.443 103.24C311.89 103.4 311.447 103.669 311.113 104.046C310.791 104.424 310.561 104.921 310.423 105.539C310.296 106.157 310.233 106.918 310.233 107.821Z" fill="white"/>
<path d="M147.636 125.857C148.752 125.857 149.69 125.965 150.45 126.183C151.221 126.389 151.843 126.732 152.315 127.212C152.787 127.693 153.126 128.328 153.334 129.117C153.552 129.895 153.662 130.856 153.662 132C153.662 133.155 153.552 134.127 153.334 134.917C153.126 135.694 152.787 136.324 152.315 136.804C151.843 137.285 151.221 137.628 150.45 137.834C149.69 138.04 148.752 138.142 147.636 138.142C146.531 138.142 145.592 138.04 144.821 137.834C144.062 137.628 143.44 137.285 142.957 136.804C142.485 136.324 142.139 135.694 141.921 134.917C141.713 134.127 141.61 133.155 141.61 132C141.61 130.856 141.713 129.895 141.921 129.117C142.139 128.328 142.485 127.693 142.957 127.212C143.44 126.732 144.062 126.389 144.821 126.183C145.592 125.965 146.531 125.857 147.636 125.857ZM143.285 132C143.285 132.915 143.348 133.681 143.474 134.299C143.613 134.917 143.843 135.414 144.165 135.792C144.499 136.169 144.942 136.438 145.495 136.598C146.059 136.758 146.772 136.838 147.636 136.838C148.499 136.838 149.207 136.758 149.759 136.598C150.323 136.438 150.767 136.169 151.089 135.792C151.423 135.414 151.653 134.917 151.78 134.299C151.918 133.681 151.987 132.915 151.987 132C151.987 131.096 151.918 130.335 151.78 129.717C151.653 129.1 151.423 128.602 151.089 128.225C150.767 127.847 150.323 127.578 149.759 127.418C149.207 127.247 148.499 127.161 147.636 127.161C146.772 127.161 146.059 127.247 145.495 127.418C144.942 127.578 144.499 127.847 144.165 128.225C143.843 128.602 143.613 129.1 143.474 129.717C143.348 130.335 143.285 131.096 143.285 132Z" fill="white"/>
<path d="M165.982 127.298H158.747C158.413 127.298 158.195 127.361 158.091 127.487C157.999 127.601 157.953 127.807 157.953 128.105V131.21H163.893C164.434 131.21 164.877 131.296 165.222 131.468C165.567 131.628 165.838 131.857 166.034 132.154C166.241 132.451 166.385 132.806 166.465 133.218C166.546 133.63 166.586 134.082 166.586 134.573C166.586 135.065 166.546 135.523 166.465 135.946C166.396 136.358 166.258 136.718 166.051 137.027C165.855 137.336 165.585 137.576 165.239 137.748C164.894 137.919 164.457 138.005 163.927 138.005H158.039C157.51 138.005 157.095 137.885 156.796 137.645C156.497 137.393 156.347 136.947 156.347 136.306V127.693C156.347 127.052 156.497 126.612 156.796 126.371C157.095 126.12 157.51 125.994 158.039 125.994H165.982V127.298ZM157.953 132.514V135.877C157.953 136.175 157.999 136.387 158.091 136.512C158.195 136.638 158.413 136.701 158.747 136.701H163.167C163.524 136.701 163.812 136.655 164.031 136.564C164.261 136.472 164.439 136.335 164.566 136.152C164.704 135.969 164.796 135.746 164.842 135.483C164.888 135.22 164.911 134.917 164.911 134.573C164.911 134.23 164.888 133.933 164.842 133.681C164.796 133.418 164.71 133.201 164.583 133.029C164.457 132.858 164.278 132.732 164.048 132.652C163.829 132.56 163.536 132.514 163.167 132.514H157.953Z" fill="white"/>
<path d="M174.953 125.857C176.07 125.857 177.008 125.965 177.767 126.183C178.539 126.389 179.16 126.732 179.632 127.212C180.104 127.693 180.444 128.328 180.651 129.117C180.87 129.895 180.979 130.856 180.979 132C180.979 133.155 180.87 134.127 180.651 134.917C180.444 135.694 180.104 136.324 179.632 136.804C179.16 137.285 178.539 137.628 177.767 137.834C177.008 138.04 176.07 138.142 174.953 138.142C173.848 138.142 172.91 138.04 172.139 137.834C171.379 137.628 170.757 137.285 170.274 136.804C169.802 136.324 169.457 135.694 169.238 134.917C169.031 134.127 168.927 133.155 168.927 132C168.927 130.856 169.031 129.895 169.238 129.117C169.457 128.328 169.802 127.693 170.274 127.212C170.757 126.732 171.379 126.389 172.139 126.183C172.91 125.965 173.848 125.857 174.953 125.857ZM170.602 132C170.602 132.915 170.665 133.681 170.792 134.299C170.93 134.917 171.16 135.414 171.482 135.792C171.816 136.169 172.259 136.438 172.812 136.598C173.376 136.758 174.09 136.838 174.953 136.838C175.816 136.838 176.524 136.758 177.077 136.598C177.641 136.438 178.084 136.169 178.406 135.792C178.74 135.414 178.97 134.917 179.097 134.299C179.235 133.681 179.304 132.915 179.304 132C179.304 131.096 179.235 130.335 179.097 129.717C178.97 129.1 178.74 128.602 178.406 128.225C178.084 127.847 177.641 127.578 177.077 127.418C176.524 127.247 175.816 127.161 174.953 127.161C174.09 127.161 173.376 127.247 172.812 127.418C172.259 127.578 171.816 127.847 171.482 128.225C171.16 128.602 170.93 129.1 170.792 129.717C170.665 130.335 170.602 131.096 170.602 132Z" fill="white"/>
<path d="M183.665 138.005V127.607C183.665 126.989 183.803 126.566 184.079 126.337C184.367 126.108 184.77 125.994 185.288 125.994H190.83C191.44 125.994 191.941 126.08 192.332 126.251C192.735 126.423 193.052 126.669 193.282 126.989C193.524 127.298 193.69 127.681 193.783 128.139C193.875 128.596 193.921 129.105 193.921 129.666C193.921 130.261 193.875 130.793 193.783 131.262C193.69 131.719 193.524 132.108 193.282 132.429C193.052 132.749 192.735 132.995 192.332 133.166C191.941 133.338 191.44 133.424 190.83 133.424H185.27V138.005H183.665ZM190.26 132.12C190.686 132.12 191.026 132.068 191.279 131.965C191.544 131.851 191.745 131.691 191.883 131.485C192.033 131.279 192.131 131.027 192.177 130.73C192.223 130.421 192.246 130.066 192.246 129.666C192.246 129.277 192.217 128.94 192.16 128.654C192.113 128.356 192.016 128.11 191.866 127.916C191.728 127.71 191.526 127.555 191.262 127.453C191.008 127.35 190.675 127.298 190.26 127.298H186.047C185.702 127.298 185.483 127.361 185.391 127.487C185.311 127.613 185.27 127.813 185.27 128.087V132.12H190.26Z" fill="white"/>
<path d="M199.166 138.005L200.444 135.654L195.143 125.994H196.921L201.272 134.162L205.416 125.994H207.178L200.91 138.005H199.166Z" fill="white"/>
<path d="M208.034 138.005C207.735 138.005 207.539 138.068 207.447 138.194C207.366 138.32 207.326 138.526 207.326 138.812V140.322H205.72V138.383C205.72 137.742 205.853 137.302 206.117 137.061C206.394 136.821 206.797 136.701 207.326 136.701H207.706L211.988 127.092C212.184 126.646 212.408 126.331 212.661 126.148C212.926 125.954 213.243 125.857 213.611 125.857C214.014 125.857 214.336 125.954 214.578 126.148C214.82 126.331 215.038 126.646 215.234 127.092L219.499 136.701H219.896C220.425 136.701 220.823 136.821 221.087 137.061C221.364 137.302 221.502 137.742 221.502 138.383V140.322H219.896V138.812C219.896 138.526 219.85 138.32 219.758 138.194C219.666 138.068 219.47 138.005 219.171 138.005H208.034ZM209.364 136.701H217.841L213.956 127.847C213.899 127.733 213.847 127.63 213.801 127.538C213.755 127.447 213.686 127.401 213.594 127.401C213.513 127.401 213.444 127.453 213.387 127.555C213.341 127.647 213.294 127.744 213.248 127.847L209.364 136.701Z" fill="white"/>
<path d="M227.885 125.857C229.001 125.857 229.939 125.965 230.699 126.183C231.47 126.389 232.092 126.732 232.564 127.212C233.036 127.693 233.375 128.328 233.582 129.117C233.801 129.895 233.911 130.856 233.911 132C233.911 133.155 233.801 134.127 233.582 134.917C233.375 135.694 233.036 136.324 232.564 136.804C232.092 137.285 231.47 137.628 230.699 137.834C229.939 138.04 229.001 138.142 227.885 138.142C226.78 138.142 225.841 138.04 225.07 137.834C224.31 137.628 223.689 137.285 223.205 136.804C222.733 136.324 222.388 135.694 222.169 134.917C221.962 134.127 221.859 133.155 221.859 132C221.859 130.856 221.962 129.895 222.169 129.117C222.388 128.328 222.733 127.693 223.205 127.212C223.689 126.732 224.31 126.389 225.07 126.183C225.841 125.965 226.78 125.857 227.885 125.857ZM223.533 132C223.533 132.915 223.597 133.681 223.723 134.299C223.862 134.917 224.092 135.414 224.414 135.792C224.748 136.169 225.191 136.438 225.744 136.598C226.308 136.758 227.021 136.838 227.885 136.838C228.748 136.838 229.456 136.758 230.008 136.598C230.572 136.438 231.016 136.169 231.338 135.792C231.672 135.414 231.902 134.917 232.028 134.299C232.167 133.681 232.236 132.915 232.236 132C232.236 131.096 232.167 130.335 232.028 129.717C231.902 129.1 231.672 128.602 231.338 128.225C231.016 127.847 230.572 127.578 230.008 127.418C229.456 127.247 228.748 127.161 227.885 127.161C227.021 127.161 226.308 127.247 225.744 127.418C225.191 127.578 224.748 127.847 224.414 128.225C224.092 128.602 223.862 129.1 223.723 129.717C223.597 130.335 223.533 131.096 223.533 132Z" fill="white"/>
<path d="M238.202 135.809C238.202 136.141 238.248 136.375 238.34 136.512C238.432 136.638 238.651 136.701 238.996 136.701H243.382C244.061 136.701 244.521 136.541 244.763 136.221C245.016 135.9 245.143 135.38 245.143 134.659C245.143 134.35 245.12 134.07 245.074 133.818C245.028 133.567 244.941 133.349 244.815 133.166C244.7 132.983 244.533 132.846 244.314 132.755C244.107 132.652 243.842 132.6 243.52 132.6H238.202V135.809ZM238.202 131.296H243.33C243.664 131.296 243.934 131.256 244.141 131.176C244.36 131.096 244.527 130.976 244.642 130.816C244.769 130.644 244.855 130.432 244.901 130.181C244.947 129.918 244.97 129.603 244.97 129.237C244.97 128.654 244.867 128.185 244.659 127.83C244.464 127.475 244.061 127.298 243.451 127.298H238.979C238.691 127.298 238.49 127.355 238.375 127.47C238.259 127.573 238.202 127.773 238.202 128.07V131.296ZM244.988 131.948C245.644 132.04 246.11 132.303 246.386 132.737C246.662 133.172 246.8 133.836 246.8 134.728C246.8 135.174 246.76 135.597 246.68 135.998C246.611 136.387 246.478 136.73 246.282 137.027C246.098 137.325 245.834 137.565 245.488 137.748C245.143 137.919 244.706 138.005 244.176 138.005H238.305C238.064 138.005 237.834 137.982 237.615 137.937C237.408 137.891 237.229 137.805 237.08 137.679C236.93 137.553 236.809 137.382 236.717 137.164C236.636 136.947 236.596 136.673 236.596 136.341V127.693C236.596 126.56 237.126 125.994 238.185 125.994H244.055C244.976 125.994 245.638 126.274 246.041 126.835C246.444 127.395 246.645 128.202 246.645 129.254C246.645 129.586 246.616 129.9 246.559 130.198C246.513 130.495 246.426 130.764 246.3 131.004C246.185 131.233 246.018 131.428 245.799 131.588C245.58 131.736 245.31 131.834 244.988 131.879V131.948Z" fill="white"/>
<path d="M252.87 127.178C253.054 126.755 253.261 126.429 253.491 126.2C253.722 125.971 254.067 125.857 254.527 125.857C254.965 125.857 255.31 125.977 255.563 126.217C255.817 126.446 256.029 126.766 256.202 127.178L260.778 138.005H259.086L257.722 134.745H251.316L249.969 138.005H248.277L252.87 127.178ZM251.799 133.441H257.238L254.959 127.933C254.901 127.807 254.838 127.681 254.769 127.555C254.711 127.418 254.631 127.35 254.527 127.35C254.424 127.35 254.343 127.418 254.286 127.555C254.228 127.681 254.17 127.807 254.113 127.933L251.799 133.441Z" fill="white"/>
<path d="M272.787 138.005H271.182V132.514H264.12V138.005H262.514V125.994H264.12V131.21H271.182V125.994H272.787V138.005Z" fill="white"/>
<path d="M285.03 138.005L285.082 128.036C285.082 127.956 285.076 127.876 285.065 127.796C285.053 127.704 285.013 127.658 284.944 127.658C284.886 127.658 284.812 127.716 284.719 127.83C284.627 127.933 284.535 128.053 284.443 128.19L278.849 137.061C278.757 137.21 278.659 137.353 278.555 137.49C278.463 137.616 278.354 137.731 278.227 137.834C278.112 137.925 277.974 137.999 277.813 138.057C277.652 138.114 277.45 138.142 277.209 138.142C276.863 138.142 276.599 138.08 276.414 137.954C276.23 137.828 276.092 137.679 276 137.508C275.908 137.325 275.85 137.136 275.827 136.941C275.816 136.735 275.81 136.564 275.81 136.427V125.994H277.416L277.381 135.809C277.381 135.969 277.387 136.101 277.399 136.204C277.41 136.295 277.462 136.341 277.554 136.341C277.623 136.341 277.686 136.306 277.744 136.238C277.801 136.158 277.859 136.072 277.917 135.98L283.424 127.161C283.712 126.692 283.983 126.36 284.236 126.166C284.489 125.96 284.806 125.857 285.186 125.857C285.542 125.857 285.819 125.931 286.014 126.08C286.21 126.229 286.354 126.406 286.446 126.612C286.538 126.806 286.59 127.006 286.601 127.212C286.624 127.418 286.636 127.578 286.636 127.693V138.005H285.03Z" fill="white"/>
<path d="M299.746 138.005H298.14V128.122C298.14 127.79 298.066 127.573 297.916 127.47C297.766 127.355 297.553 127.298 297.277 127.298H292.978C292.575 127.298 292.247 127.35 291.994 127.453C291.752 127.555 291.562 127.71 291.424 127.916C291.297 128.11 291.211 128.35 291.165 128.636C291.13 128.922 291.113 129.254 291.113 129.632C291.113 129.998 291.124 130.335 291.147 130.644C291.182 130.953 291.251 131.222 291.355 131.451C291.47 131.668 291.631 131.839 291.838 131.965C292.057 132.091 292.35 132.154 292.719 132.154H295.671C296.155 132.154 296.396 132.354 296.396 132.755V133.029C296.396 133.166 296.345 133.304 296.241 133.441C296.149 133.567 296.051 133.675 295.948 133.767L291.32 138.005H289.179L294.135 133.544V133.458H292.183C291.665 133.458 291.228 133.367 290.871 133.184C290.526 133.001 290.244 132.743 290.025 132.411C289.818 132.08 289.668 131.679 289.576 131.21C289.484 130.73 289.438 130.204 289.438 129.632C289.438 129.071 289.484 128.568 289.576 128.122C289.68 127.676 289.841 127.298 290.06 126.989C290.29 126.669 290.595 126.423 290.975 126.251C291.355 126.08 291.821 125.994 292.373 125.994H297.968C298.543 125.994 298.981 126.137 299.28 126.423C299.591 126.698 299.746 127.161 299.746 127.813V138.005Z" fill="white"/>
<path d="M143.561 159.987C143.561 160.319 143.607 160.553 143.699 160.691C143.791 160.817 144.01 160.879 144.355 160.879H148.741C149.42 160.879 149.88 160.719 150.122 160.399C150.375 160.079 150.502 159.558 150.502 158.838C150.502 158.529 150.479 158.248 150.433 157.997C150.387 157.745 150.3 157.528 150.174 157.345C150.059 157.162 149.892 157.024 149.673 156.933C149.466 156.83 149.201 156.779 148.879 156.779H143.561V159.987ZM143.561 155.474H148.689C149.023 155.474 149.293 155.434 149.5 155.354C149.719 155.274 149.886 155.154 150.001 154.994C150.128 154.822 150.214 154.611 150.26 154.359C150.306 154.096 150.329 153.781 150.329 153.415C150.329 152.832 150.226 152.363 150.018 152.008C149.823 151.654 149.42 151.476 148.81 151.476H144.338C144.05 151.476 143.849 151.534 143.733 151.648C143.618 151.751 143.561 151.951 143.561 152.249V155.474ZM150.346 156.126C151.003 156.218 151.469 156.481 151.745 156.916C152.021 157.35 152.159 158.014 152.159 158.906C152.159 159.352 152.119 159.776 152.039 160.176C151.97 160.565 151.837 160.908 151.641 161.206C151.457 161.503 151.193 161.743 150.847 161.926C150.502 162.098 150.064 162.184 149.535 162.184H143.664C143.423 162.184 143.192 162.161 142.974 162.115C142.767 162.069 142.588 161.983 142.439 161.858C142.289 161.732 142.168 161.56 142.076 161.343C141.995 161.125 141.955 160.851 141.955 160.519V151.871C141.955 150.739 142.485 150.172 143.544 150.172H149.414C150.335 150.172 150.997 150.453 151.4 151.013C151.803 151.574 152.004 152.38 152.004 153.433C152.004 153.764 151.975 154.079 151.918 154.376C151.872 154.674 151.785 154.943 151.659 155.183C151.544 155.412 151.377 155.606 151.158 155.766C150.939 155.915 150.669 156.012 150.346 156.058V156.126Z" fill="white"/>
<path d="M159.746 162.184V151.871C159.746 151.23 159.895 150.79 160.195 150.55C160.494 150.298 160.908 150.172 161.438 150.172H168.845V151.476H162.146C161.812 151.476 161.593 151.539 161.489 151.665C161.397 151.78 161.351 151.985 161.351 152.283V162.184H159.746Z" fill="white"/>
<path d="M175.569 150.035C176.686 150.035 177.624 150.144 178.384 150.361C179.155 150.567 179.776 150.91 180.248 151.391C180.72 151.871 181.06 152.506 181.267 153.295C181.486 154.073 181.595 155.034 181.595 156.178C181.595 157.333 181.486 158.306 181.267 159.095C181.06 159.873 180.72 160.502 180.248 160.982C179.776 161.463 179.155 161.806 178.384 162.012C177.624 162.218 176.686 162.321 175.569 162.321C174.464 162.321 173.526 162.218 172.755 162.012C171.995 161.806 171.373 161.463 170.89 160.982C170.418 160.502 170.073 159.873 169.854 159.095C169.647 158.306 169.543 157.333 169.543 156.178C169.543 155.034 169.647 154.073 169.854 153.295C170.073 152.506 170.418 151.871 170.89 151.391C171.373 150.91 171.995 150.567 172.755 150.361C173.526 150.144 174.464 150.035 175.569 150.035ZM171.218 156.178C171.218 157.093 171.281 157.86 171.408 158.477C171.546 159.095 171.776 159.593 172.099 159.97C172.432 160.348 172.876 160.616 173.428 160.777C173.992 160.937 174.706 161.017 175.569 161.017C176.433 161.017 177.14 160.937 177.693 160.777C178.257 160.616 178.7 160.348 179.022 159.97C179.356 159.593 179.586 159.095 179.713 158.477C179.851 157.86 179.92 157.093 179.92 156.178C179.92 155.274 179.851 154.514 179.713 153.896C179.586 153.278 179.356 152.781 179.022 152.403C178.7 152.026 178.257 151.757 177.693 151.597C177.14 151.425 176.433 151.339 175.569 151.339C174.706 151.339 173.992 151.425 173.428 151.597C172.876 151.757 172.432 152.026 172.099 152.403C171.776 152.781 171.546 153.278 171.408 153.896C171.281 154.514 171.218 155.274 171.218 156.178Z" fill="white"/>
<path d="M184.267 162.184C183.968 162.184 183.772 162.246 183.68 162.372C183.599 162.498 183.559 162.704 183.559 162.99V164.5H181.953V162.561C181.953 161.92 182.086 161.48 182.35 161.24C182.627 161 183.029 160.879 183.559 160.879H183.939L188.221 151.271C188.416 150.824 188.641 150.51 188.894 150.327C189.159 150.132 189.475 150.035 189.844 150.035C190.247 150.035 190.569 150.132 190.811 150.327C191.052 150.51 191.271 150.824 191.467 151.271L195.732 160.879H196.129C196.658 160.879 197.055 161 197.32 161.24C197.596 161.48 197.735 161.92 197.735 162.561V164.5H196.129V162.99C196.129 162.704 196.083 162.498 195.991 162.372C195.899 162.246 195.703 162.184 195.404 162.184H184.267ZM185.596 160.879H194.074L190.189 152.026C190.132 151.911 190.08 151.808 190.034 151.717C189.988 151.625 189.919 151.579 189.827 151.579C189.746 151.579 189.677 151.631 189.619 151.734C189.573 151.825 189.527 151.923 189.481 152.026L185.596 160.879Z" fill="white"/>
</g>
</g>
</g>
</svg>
