<svg width="579" height="139" viewBox="0 0 579 139" fill="none" xmlns="http://www.w3.org/2000/svg">
<g id="image__title">
<path d="M196.452 56.64H185.892V9.04H164.052V0.639997H218.372V9.04H196.452V56.64Z" fill="white"/>
<path d="M238.709 32.56V44.24C238.709 45.84 238.975 46.9067 239.509 47.44C240.042 47.9733 241.109 48.24 242.709 48.24H259.429C262.202 48.24 264.149 47.6533 265.269 46.48C266.442 45.3067 267.029 43.3333 267.029 40.56C267.029 37.7867 266.469 35.76 265.349 34.48C264.282 33.2 262.549 32.56 260.149 32.56H238.709ZM238.709 13.04V24.16H259.989C262.335 24.16 263.935 23.6 264.789 22.48C265.695 21.3067 266.149 19.3067 266.149 16.48C266.149 13.9733 265.669 12.1067 264.709 10.88C263.802 9.65333 262.202 9.04 259.909 9.04H242.709C241.109 9.04 240.042 9.30666 239.509 9.84C238.975 10.3733 238.709 11.44 238.709 13.04ZM269.109 28.32C274.975 28.8 277.909 33.12 277.909 41.28C277.909 46.1333 276.975 49.92 275.109 52.64C273.295 55.3067 269.909 56.64 264.949 56.64H236.309C230.869 56.64 228.149 53.84 228.149 48.24V9.04C228.149 3.44 230.869 0.639997 236.309 0.639997H264.949C273.002 0.639997 277.029 5.76 277.029 16C277.029 23.2533 274.389 27.2533 269.109 28V28.32Z" fill="white"/>
<path d="M318.862 0C324.302 0 328.756 0.426666 332.223 1.28C335.689 2.13333 338.622 3.65333 341.022 5.84C343.422 8.02666 345.129 10.96 346.142 14.64C347.156 18.2667 347.663 22.9333 347.663 28.64C347.663 34.3467 347.156 39.04 346.142 42.72C345.129 46.3467 343.422 49.2533 341.022 51.44C338.622 53.6267 335.689 55.1467 332.223 56C328.756 56.8533 324.302 57.28 318.862 57.28C313.476 57.28 309.049 56.8533 305.582 56C302.116 55.1467 299.182 53.6267 296.783 51.44C294.383 49.2533 292.676 46.3467 291.663 42.72C290.649 39.04 290.142 34.3467 290.142 28.64C290.142 22.9333 290.649 18.2667 291.663 14.64C292.676 10.96 294.383 8.02666 296.783 5.84C299.182 3.65333 302.116 2.13333 305.582 1.28C309.049 0.426666 313.476 0 318.862 0ZM304.703 12.56C302.249 15.3333 301.022 20.6933 301.022 28.64C301.022 36.5867 302.249 41.9467 304.703 44.72C307.209 47.4933 311.929 48.88 318.862 48.88C325.796 48.88 330.516 47.4933 333.022 44.72C335.529 41.9467 336.783 36.5867 336.783 28.64C336.783 20.6933 335.529 15.3333 333.022 12.56C330.516 9.78666 325.796 8.4 318.862 8.4C311.929 8.4 307.209 9.78666 304.703 12.56Z" fill="white"/>
<path d="M410.089 56.64H399.529V13.04C399.529 11.44 399.262 10.3733 398.729 9.84C398.195 9.30666 397.129 9.04 395.529 9.04H378.489C375.289 9.04 373.155 9.73333 372.089 11.12C371.075 12.5067 370.569 14.9067 370.569 18.32C370.569 21.8933 370.995 24.5067 371.849 26.16C372.755 27.8133 374.569 28.64 377.289 28.64H388.169C389.715 28.64 390.889 28.9867 391.689 29.68C392.489 30.32 392.889 31.2267 392.889 32.4V33.68C392.889 34.96 392.009 36.5333 390.249 38.4L372.169 56.64H358.569L378.249 37.44V37.04H372.649C364.009 37.04 359.689 30.8 359.689 18.32C359.689 12.4533 360.755 8.05333 362.889 5.12C365.075 2.13333 368.675 0.639997 373.689 0.639997H401.929C407.369 0.639997 410.089 3.44 410.089 9.04V56.64Z" fill="white"/>
<path d="M0 131.64V102.552C0 100.824 0.384 99.64 1.152 99C1.952 98.36 3.072 98.04 4.512 98.04H19.92C21.616 98.04 23.008 98.28 24.096 98.76C25.216 99.24 26.096 99.928 26.736 100.824C27.408 101.688 27.872 102.76 28.128 104.04C28.384 105.32 28.512 106.744 28.512 108.312C28.512 109.976 28.384 111.464 28.128 112.776C27.872 114.056 27.408 115.144 26.736 116.04C26.096 116.936 25.216 117.624 24.096 118.104C23.008 118.584 21.616 118.824 19.92 118.824H4.464V131.64H0ZM18.336 115.176C19.52 115.176 20.464 115.032 21.168 114.744C21.904 114.424 22.464 113.976 22.848 113.4C23.264 112.824 23.536 112.12 23.664 111.288C23.792 110.424 23.856 109.432 23.856 108.312C23.856 107.224 23.776 106.28 23.616 105.48C23.488 104.648 23.216 103.96 22.8 103.416C22.416 102.84 21.856 102.408 21.12 102.12C20.416 101.832 19.488 101.688 18.336 101.688H6.624C5.664 101.688 5.056 101.864 4.8 102.216C4.576 102.568 4.464 103.128 4.464 103.896V115.176H18.336Z" fill="white"/>
<path d="M45.9121 131.64L49.4641 125.064L34.7281 98.04H39.6721L51.7681 120.888L63.2881 98.04H68.1841L50.7601 131.64H45.9121Z" fill="white"/>
<path d="M88.3997 131.64C85.5837 131.64 83.2637 131.208 81.4398 130.344C79.6478 129.448 78.2237 128.248 77.1677 126.744C76.1117 125.208 75.3757 123.416 74.9597 121.368C74.5757 119.32 74.3838 117.128 74.3838 114.792C74.3838 112.456 74.5757 110.28 74.9597 108.264C75.3757 106.216 76.1117 104.44 77.1677 102.936C78.2557 101.4 79.7118 100.2 81.5358 99.336C83.3918 98.472 85.7598 98.04 88.6397 98.04H101.648V101.688H90.1278C88.0158 101.688 86.2557 101.944 84.8477 102.456C83.4398 102.968 82.3037 103.768 81.4398 104.856C80.5758 105.912 79.9518 107.272 79.5677 108.936C79.2158 110.568 79.0397 112.52 79.0397 114.792C79.0397 117.064 79.2158 119.032 79.5677 120.696C79.9197 122.36 80.5117 123.736 81.3438 124.824C82.2077 125.912 83.3278 126.712 84.7038 127.224C86.0798 127.736 87.8077 127.992 89.8877 127.992H102.128V131.64H88.3997Z" fill="white"/>
<path d="M135.565 131.64L120.061 118.728C119.101 117.928 118.477 117.176 118.189 116.472C117.901 115.736 117.757 115.032 117.757 114.36C117.757 113.816 117.917 113.224 118.237 112.584C118.557 111.944 119.085 111.304 119.821 110.664L134.029 98.04H139.837L123.997 111.912C123.549 112.296 123.117 112.664 122.701 113.016C122.317 113.368 122.125 113.816 122.125 114.36C122.125 114.968 122.365 115.512 122.845 115.992C123.325 116.472 123.837 116.936 124.381 117.384L141.613 131.64H135.565ZM111.469 98.04H115.933V131.64H111.469V98.04Z" fill="white"/>
<path d="M160.33 100.728C160.778 99.704 161.29 98.936 161.866 98.424C162.474 97.912 163.386 97.656 164.602 97.656C165.85 97.656 166.762 97.912 167.338 98.424C167.914 98.936 168.426 99.704 168.874 100.728L181.882 131.64H177.13L165.514 102.936C165.418 102.712 165.322 102.488 165.226 102.264C165.13 102.04 164.922 101.928 164.602 101.928C164.282 101.928 164.058 102.056 163.93 102.312C163.834 102.536 163.754 102.744 163.69 102.936L152.074 131.64H147.322L160.33 100.728Z" fill="white"/>
<path d="M215.163 131.64L215.307 103.752C215.307 103.528 215.291 103.304 215.259 103.08C215.227 102.824 215.115 102.696 214.923 102.696C214.763 102.696 214.555 102.856 214.299 103.176C214.043 103.464 213.787 103.8 213.531 104.184L197.979 129C197.723 129.416 197.451 129.816 197.163 130.2C196.907 130.552 196.603 130.872 196.251 131.16C195.931 131.416 195.547 131.624 195.099 131.784C194.651 131.944 194.091 132.024 193.419 132.024C192.459 132.024 191.723 131.848 191.211 131.496C190.699 131.144 190.315 130.728 190.059 130.248C189.803 129.736 189.643 129.208 189.579 128.664C189.547 128.088 189.531 127.608 189.531 127.224V98.04H193.995L193.899 125.496C193.899 125.944 193.915 126.312 193.947 126.6C193.979 126.856 194.123 126.984 194.379 126.984C194.571 126.984 194.747 126.888 194.907 126.696C195.067 126.472 195.227 126.232 195.387 125.976L210.699 101.304C211.499 99.992 212.251 99.064 212.955 98.52C213.659 97.944 214.539 97.656 215.595 97.656C216.587 97.656 217.355 97.864 217.899 98.28C218.443 98.696 218.843 99.192 219.099 99.768C219.355 100.312 219.499 100.872 219.531 101.448C219.595 102.024 219.627 102.472 219.627 102.792V131.64H215.163Z" fill="white"/>
<path d="M254.907 128.184C254.427 129.368 253.915 130.312 253.371 131.016C252.827 131.688 251.979 132.024 250.827 132.024C249.675 132.024 248.811 131.688 248.235 131.016C247.691 130.312 247.179 129.368 246.699 128.184L236.715 103.272C236.619 103.016 236.491 102.776 236.331 102.552C236.171 102.328 236.011 102.216 235.851 102.216C235.659 102.216 235.499 102.312 235.371 102.504C235.275 102.696 235.227 102.92 235.227 103.176L235.323 131.64H230.859V101.448C230.859 100.232 231.227 99.304 231.963 98.664C232.731 97.992 233.787 97.656 235.131 97.656C235.835 97.656 236.443 97.752 236.955 97.944C237.467 98.136 237.899 98.408 238.251 98.76C238.635 99.08 238.955 99.48 239.211 99.96C239.467 100.44 239.707 100.952 239.931 101.496L249.963 126.36C250.091 126.68 250.203 126.952 250.299 127.176C250.427 127.4 250.603 127.512 250.827 127.512C251.019 127.512 251.179 127.4 251.307 127.176C251.435 126.952 251.563 126.68 251.691 126.36L261.723 101.496C262.139 100.408 262.667 99.496 263.307 98.76C263.979 98.024 265.035 97.656 266.475 97.656C267.819 97.656 268.875 97.992 269.643 98.664C270.411 99.304 270.795 100.232 270.795 101.448V131.64H266.331L266.427 103.176C266.427 102.728 266.347 102.456 266.187 102.36C266.027 102.264 265.899 102.216 265.803 102.216C265.643 102.216 265.483 102.328 265.323 102.552C265.163 102.776 265.035 103.016 264.939 103.272L254.907 128.184Z" fill="white"/>
<path d="M291.199 101.352C291.711 100.168 292.287 99.256 292.927 98.616C293.567 97.976 294.527 97.656 295.807 97.656C297.023 97.656 297.983 97.992 298.687 98.664C299.391 99.304 299.983 100.2 300.463 101.352L313.183 131.64H308.479L304.687 122.52H286.879L283.135 131.64H278.431L291.199 101.352ZM288.223 118.872H303.343L297.007 103.464C296.847 103.112 296.671 102.76 296.479 102.408C296.319 102.024 296.095 101.832 295.807 101.832C295.519 101.832 295.295 102.024 295.135 102.408C294.975 102.76 294.815 103.112 294.655 103.464L288.223 118.872Z" fill="white"/>
<path d="M326.511 131.64V101.688H312.927V98.04H344.559V101.688H330.975V131.64H326.511Z" fill="white"/>
<path d="M378.319 131.64L378.464 103.752C378.464 103.528 378.448 103.304 378.415 103.08C378.383 102.824 378.271 102.696 378.079 102.696C377.919 102.696 377.712 102.856 377.456 103.176C377.199 103.464 376.944 103.8 376.688 104.184L361.135 129C360.879 129.416 360.607 129.816 360.319 130.2C360.063 130.552 359.759 130.872 359.408 131.16C359.087 131.416 358.703 131.624 358.255 131.784C357.807 131.944 357.247 132.024 356.576 132.024C355.616 132.024 354.879 131.848 354.367 131.496C353.855 131.144 353.472 130.728 353.216 130.248C352.96 129.736 352.799 129.208 352.736 128.664C352.703 128.088 352.688 127.608 352.688 127.224V98.04H357.151L357.056 125.496C357.056 125.944 357.071 126.312 357.103 126.6C357.135 126.856 357.279 126.984 357.535 126.984C357.727 126.984 357.904 126.888 358.064 126.696C358.224 126.472 358.383 126.232 358.543 125.976L373.855 101.304C374.655 99.992 375.408 99.064 376.112 98.52C376.816 97.944 377.695 97.656 378.751 97.656C379.743 97.656 380.512 97.864 381.056 98.28C381.6 98.696 381.999 99.192 382.255 99.768C382.512 100.312 382.655 100.872 382.688 101.448C382.751 102.024 382.784 102.472 382.784 102.792V131.64H378.319Z" fill="white"/>
<path d="M414.176 114.696C416 114.952 417.328 115.688 418.16 116.904C419.024 118.12 419.456 119.976 419.456 122.472C419.456 123.72 419.344 124.904 419.12 126.024C418.896 127.112 418.496 128.072 417.92 128.904C417.344 129.736 416.544 130.408 415.52 130.92C414.496 131.4 413.184 131.64 411.584 131.64H393.056V127.992H409.376C411.456 127.992 412.88 127.544 413.648 126.648C414.416 125.72 414.8 124.264 414.8 122.28C414.8 121.416 414.72 120.632 414.56 119.928C414.432 119.224 414.192 118.616 413.84 118.104C413.488 117.592 412.992 117.208 412.352 116.952C411.744 116.664 410.96 116.52 410 116.52H393.728V112.872H409.376C411.2 112.872 412.448 112.424 413.12 111.528C413.792 110.6 414.128 109.128 414.128 107.112C414.128 105.352 413.84 104.008 413.264 103.08C412.688 102.152 411.488 101.688 409.664 101.688H393.248V98.04H411.344C414.032 98.04 415.936 98.792 417.056 100.296C418.208 101.768 418.784 103.976 418.784 106.92C418.784 107.784 418.72 108.632 418.592 109.464C418.496 110.296 418.272 111.048 417.92 111.72C417.6 112.392 417.136 112.984 416.528 113.496C415.92 113.976 415.136 114.312 414.176 114.504V114.696Z" fill="white"/>
<path d="M439.121 101.352C439.633 100.168 440.209 99.256 440.849 98.616C441.489 97.976 442.449 97.656 443.729 97.656C444.945 97.656 445.905 97.992 446.609 98.664C447.313 99.304 447.905 100.2 448.385 101.352L461.105 131.64H456.401L452.609 122.52H434.801L431.057 131.64H426.353L439.121 101.352ZM436.145 118.872H451.265L444.929 103.464C444.769 103.112 444.593 102.76 444.401 102.408C444.241 102.024 444.017 101.832 443.729 101.832C443.441 101.832 443.217 102.024 443.057 102.408C442.897 102.76 442.737 103.112 442.577 103.464L436.145 118.872Z" fill="white"/>
<path d="M473.406 131.64C471.902 131.64 470.75 131.336 469.95 130.728C469.15 130.12 468.75 128.936 468.75 127.176V98.04H473.214V125.976C473.214 126.776 473.358 127.32 473.646 127.608C473.934 127.864 474.494 127.992 475.326 127.992H492.51V98.04H496.974V127.992H497.982C499.454 127.992 500.558 128.328 501.294 129C502.062 129.672 502.446 130.904 502.446 132.696V138.12H497.982V133.896C497.982 133.064 497.854 132.472 497.598 132.12C497.342 131.8 496.75 131.64 495.822 131.64H473.406Z" fill="white"/>
<path d="M535.241 131.64L535.385 103.752C535.385 103.528 535.369 103.304 535.337 103.08C535.305 102.824 535.193 102.696 535.001 102.696C534.841 102.696 534.633 102.856 534.377 103.176C534.121 103.464 533.865 103.8 533.609 104.184L518.057 129C517.801 129.416 517.529 129.816 517.241 130.2C516.985 130.552 516.681 130.872 516.329 131.16C516.009 131.416 515.625 131.624 515.177 131.784C514.729 131.944 514.169 132.024 513.497 132.024C512.537 132.024 511.801 131.848 511.289 131.496C510.777 131.144 510.393 130.728 510.137 130.248C509.881 129.736 509.721 129.208 509.657 128.664C509.625 128.088 509.609 127.608 509.609 127.224V98.04H514.073L513.977 125.496C513.977 125.944 513.993 126.312 514.025 126.6C514.057 126.856 514.201 126.984 514.457 126.984C514.649 126.984 514.825 126.888 514.985 126.696C515.145 126.472 515.305 126.232 515.465 125.976L530.777 101.304C531.577 99.992 532.329 99.064 533.033 98.52C533.737 97.944 534.617 97.656 535.673 97.656C536.665 97.656 537.433 97.864 537.977 98.28C538.521 98.696 538.921 99.192 539.177 99.768C539.433 100.312 539.577 100.872 539.609 101.448C539.673 102.024 539.705 102.472 539.705 102.792V131.64H535.241Z" fill="white"/>
<path d="M578.969 131.64H574.505V103.992C574.505 103.064 574.298 102.456 573.882 102.168C573.466 101.848 572.874 101.688 572.106 101.688H560.154C559.034 101.688 558.121 101.832 557.417 102.12C556.745 102.408 556.217 102.84 555.833 103.416C555.482 103.96 555.242 104.632 555.114 105.432C555.018 106.232 554.969 107.16 554.969 108.216C554.969 109.24 555.001 110.184 555.065 111.048C555.161 111.912 555.353 112.664 555.641 113.304C555.961 113.912 556.409 114.392 556.985 114.744C557.593 115.096 558.409 115.272 559.433 115.272H567.641C568.985 115.272 569.657 115.832 569.657 116.952V117.72C569.657 118.104 569.514 118.488 569.226 118.872C568.97 119.224 568.698 119.528 568.409 119.784L555.545 131.64H549.594L563.37 119.16V118.92H557.945C556.505 118.92 555.289 118.664 554.297 118.152C553.337 117.64 552.553 116.92 551.945 115.992C551.37 115.064 550.953 113.944 550.698 112.632C550.442 111.288 550.313 109.816 550.313 108.216C550.313 106.648 550.442 105.24 550.698 103.992C550.986 102.744 551.434 101.688 552.042 100.824C552.682 99.928 553.529 99.24 554.586 98.76C555.642 98.28 556.938 98.04 558.474 98.04H574.026C575.625 98.04 576.842 98.44 577.674 99.24C578.538 100.008 578.969 101.304 578.969 103.128V131.64Z" fill="white"/>
</g>
</svg>
