<svg width="535" height="47" viewBox="0 0 535 47" fill="none" xmlns="http://www.w3.org/2000/svg">
<g id="&#208;&#146; &#194;&#171;&#208;&#160;&#208;&#163;&#208;&#161;&#208;&#154;&#208;&#155;&#208;&#152;&#208;&#156;&#208;&#144;&#208;&#162;&#194;&#187;">
<path d="M6.11216 37.8085C6.11216 39.0458 6.28282 39.9205 6.62416 40.4325C6.96549 40.9018 7.77616 41.1365 9.05616 41.1365H25.3122C27.8295 41.1365 29.5362 40.5391 30.4322 39.3445C31.3708 38.1498 31.8402 36.2085 31.8402 33.5205C31.8402 32.3685 31.7548 31.3231 31.5842 30.3845C31.4135 29.4458 31.0935 28.6351 30.6242 27.9525C30.1975 27.2698 29.5788 26.7578 28.7682 26.4165C28.0002 26.0325 27.0188 25.8405 25.8242 25.8405H6.11216V37.8085ZM6.11216 20.9765H25.1202C26.3575 20.9765 27.3602 20.8271 28.1282 20.5285C28.9388 20.2298 29.5575 19.7818 29.9842 19.1845C30.4535 18.5445 30.7735 17.7551 30.9442 16.8165C31.1148 15.8351 31.2002 14.6618 31.2002 13.2965C31.2002 11.1205 30.8162 9.37114 30.0482 8.04847C29.3228 6.72581 27.8295 6.06447 25.5682 6.06447H8.99216C7.92549 6.06447 7.17882 6.27781 6.75216 6.70447C6.32549 7.08847 6.11216 7.83514 6.11216 8.94447V20.9765ZM31.2642 23.4085C33.6962 23.7498 35.4242 24.7311 36.4482 26.3525C37.4722 27.9738 37.9842 30.4485 37.9842 33.7765C37.9842 35.4405 37.8348 37.0191 37.5362 38.5125C37.2802 39.9631 36.7895 41.2431 36.0642 42.3525C35.3815 43.4618 34.4002 44.3578 33.1202 45.0405C31.8402 45.6805 30.2188 46.0005 28.2562 46.0005H6.49616C5.60016 46.0005 4.74682 45.9151 3.93616 45.7445C3.16816 45.5738 2.50682 45.2538 1.95216 44.7845C1.39749 44.3151 0.94949 43.6751 0.608156 42.8645C0.30949 42.0538 0.160156 41.0298 0.160156 39.7925V7.53647C0.160156 3.31247 2.12282 1.20047 6.04816 1.20047H27.8082C31.2215 1.20047 33.6748 2.24581 35.1682 4.33648C36.6615 6.42714 37.4082 9.43514 37.4082 13.3605C37.4082 14.5978 37.3015 15.7711 37.0882 16.8805C36.9175 17.9898 36.5975 18.9925 36.1282 19.8885C35.7015 20.7418 35.0828 21.4671 34.2722 22.0645C33.4615 22.6191 32.4588 22.9818 31.2642 23.1525V23.4085Z" fill="#047DD7"/>
<path d="M67.7201 25.9685C67.5068 26.3098 67.3148 26.6511 67.1441 26.9925C66.9734 27.2911 66.8881 27.6325 66.8881 28.0165C66.8881 28.3578 66.9734 28.6991 67.1441 29.0405C67.3148 29.3818 67.5068 29.7231 67.7201 30.0645L75.1441 40.8165L71.2401 43.6325L62.8561 31.7285C62.5148 31.2591 62.2161 30.7471 61.9601 30.1925C61.7468 29.5951 61.6401 28.8698 61.6401 28.0165C61.6401 27.1631 61.7468 26.4591 61.9601 25.9045C62.2161 25.3498 62.5148 24.8378 62.8561 24.3685L71.2401 12.4005L75.1441 15.2805L67.7201 25.9685ZM79.1121 26.2245C78.5148 26.9925 78.2161 27.5898 78.2161 28.0165C78.2161 28.2725 78.3014 28.5498 78.4721 28.8485C78.6428 29.1045 78.8561 29.4245 79.1121 29.8085L84.3601 37.3605L80.4561 40.1765L74.0561 31.0885C73.7574 30.7045 73.4588 30.2565 73.1601 29.7445C72.9041 29.1898 72.7761 28.6138 72.7761 28.0165C72.7761 27.4618 72.9041 26.9498 73.1601 26.4805C73.4161 25.9685 73.7148 25.4778 74.0561 25.0085L80.4561 16.2405L84.3601 19.0565L79.1121 26.2245Z" fill="#047DD7"/>
<path d="M93.0276 46.0005V7.21647C93.0276 4.91247 93.5396 3.33381 94.5636 2.48048C95.6303 1.62714 97.1236 1.20047 99.0436 1.20047H119.588C121.849 1.20047 123.705 1.52047 125.156 2.16047C126.649 2.80047 127.822 3.71781 128.676 4.91248C129.572 6.06448 130.19 7.49381 130.532 9.20047C130.873 10.9071 131.044 12.8058 131.044 14.8965C131.044 17.1151 130.873 19.0991 130.532 20.8485C130.19 22.5551 129.572 24.0058 128.676 25.2005C127.822 26.3951 126.649 27.3125 125.156 27.9525C123.705 28.5925 121.849 28.9125 119.588 28.9125H98.9796V46.0005H93.0276ZM117.476 24.0485C119.054 24.0485 120.313 23.8565 121.252 23.4725C122.233 23.0458 122.98 22.4485 123.492 21.6805C124.046 20.9125 124.409 19.9738 124.58 18.8645C124.75 17.7125 124.836 16.3898 124.836 14.8965C124.836 13.4458 124.729 12.1871 124.516 11.1205C124.345 10.0111 123.982 9.09381 123.428 8.36847C122.916 7.60047 122.169 7.02447 121.188 6.64047C120.249 6.25647 119.012 6.06447 117.476 6.06447H101.86C100.58 6.06447 99.7689 6.29914 99.4276 6.76847C99.1289 7.2378 98.9796 7.98447 98.9796 9.00847V24.0485H117.476Z" fill="#047DD7"/>
<path d="M148.575 46.0005L153.311 37.2325L133.663 1.20047H140.255L156.383 31.6645L171.743 1.20047H178.271L155.039 46.0005H148.575Z" fill="#047DD7"/>
<path d="M199.556 46.0005C195.801 46.0005 192.708 45.4245 190.276 44.2725C187.886 43.0778 185.988 41.4778 184.58 39.4725C183.172 37.4245 182.19 35.0351 181.636 32.3045C181.124 29.5738 180.868 26.6511 180.868 23.5365C180.868 20.4218 181.124 17.5205 181.636 14.8325C182.19 12.1018 183.172 9.73381 184.58 7.72847C186.03 5.68047 187.972 4.08047 190.404 2.92847C192.878 1.77647 196.036 1.20047 199.876 1.20047H217.22V6.06447H201.86C199.044 6.06447 196.697 6.40581 194.82 7.08847C192.942 7.77114 191.428 8.83781 190.276 10.2885C189.124 11.6965 188.292 13.5098 187.78 15.7285C187.31 17.9045 187.076 20.5071 187.076 23.5365C187.076 26.5658 187.31 29.1898 187.78 31.4085C188.249 33.6271 189.038 35.4618 190.148 36.9125C191.3 38.3631 192.793 39.4298 194.628 40.1125C196.462 40.7951 198.766 41.1365 201.54 41.1365H217.86V46.0005H199.556Z" fill="#047DD7"/>
<path d="M256.773 46.0005L236.101 28.7845C234.821 27.7178 233.989 26.7151 233.605 25.7765C233.221 24.7951 233.029 23.8565 233.029 22.9605C233.029 22.2351 233.242 21.4458 233.669 20.5925C234.096 19.7391 234.8 18.8858 235.781 18.0325L254.725 1.20047H262.469L241.349 19.6965C240.752 20.2085 240.176 20.6991 239.621 21.1685C239.109 21.6378 238.853 22.2351 238.853 22.9605C238.853 23.7711 239.173 24.4965 239.813 25.1365C240.453 25.7765 241.136 26.3951 241.861 26.9925L264.837 46.0005H256.773ZM224.645 1.20047H230.597V46.0005H224.645V1.20047Z" fill="#047DD7"/>
<path d="M284.124 4.78447C284.721 3.41914 285.404 2.39514 286.172 1.71247C286.983 1.02981 288.199 0.688477 289.82 0.688477C291.484 0.688477 292.7 1.02981 293.468 1.71247C294.236 2.39514 294.919 3.41914 295.516 4.78447L312.86 46.0005H306.524L291.036 7.72847C290.908 7.42981 290.78 7.13114 290.652 6.83247C290.524 6.53381 290.247 6.38447 289.82 6.38447C289.393 6.38447 289.095 6.55514 288.924 6.89647C288.796 7.19514 288.689 7.47247 288.604 7.72847L273.116 46.0005H266.78L284.124 4.78447Z" fill="#047DD7"/>
<path d="M351.566 46.0005L351.758 8.81647C351.758 8.51781 351.737 8.21914 351.694 7.92047C351.651 7.57914 351.502 7.40847 351.246 7.40847C351.033 7.40847 350.755 7.62181 350.414 8.04847C350.073 8.43247 349.731 8.88047 349.39 9.39247L328.654 42.4805C328.313 43.0351 327.95 43.5685 327.566 44.0805C327.225 44.5498 326.819 44.9765 326.35 45.3605C325.923 45.7018 325.411 45.9791 324.814 46.1925C324.217 46.4058 323.47 46.5125 322.574 46.5125C321.294 46.5125 320.313 46.2778 319.63 45.8085C318.947 45.3391 318.435 44.7845 318.094 44.1445C317.753 43.4618 317.539 42.7578 317.454 42.0325C317.411 41.2645 317.39 40.6245 317.39 40.1125V1.20047H323.342L323.214 37.8085C323.214 38.4058 323.235 38.8965 323.278 39.2805C323.321 39.6218 323.513 39.7925 323.854 39.7925C324.11 39.7925 324.345 39.6645 324.558 39.4085C324.771 39.1098 324.985 38.7898 325.198 38.4485L345.614 5.55247C346.681 3.80314 347.683 2.56581 348.622 1.84047C349.561 1.07248 350.734 0.688477 352.142 0.688477C353.465 0.688477 354.489 0.965809 355.214 1.52047C355.939 2.07514 356.473 2.73647 356.814 3.50447C357.155 4.22981 357.347 4.97648 357.39 5.74448C357.475 6.51248 357.518 7.10981 357.518 7.53647V46.0005H351.566Z" fill="#047DD7"/>
<path d="M398.889 41.3925C398.249 42.9711 397.566 44.2298 396.841 45.1685C396.116 46.0645 394.985 46.5125 393.449 46.5125C391.913 46.5125 390.761 46.0645 389.993 45.1685C389.268 44.2298 388.585 42.9711 387.945 41.3925L374.633 8.17647C374.505 7.83514 374.334 7.51514 374.121 7.21647C373.908 6.91781 373.694 6.76847 373.481 6.76847C373.225 6.76847 373.012 6.89647 372.841 7.15247C372.713 7.40847 372.649 7.70714 372.649 8.04847L372.777 46.0005H366.825V5.74448C366.825 4.12314 367.316 2.88581 368.297 2.03247C369.321 1.13648 370.729 0.688477 372.521 0.688477C373.46 0.688477 374.27 0.816476 374.953 1.07248C375.636 1.32847 376.212 1.69114 376.681 2.16047C377.193 2.58714 377.62 3.12048 377.961 3.76048C378.302 4.40047 378.622 5.08314 378.921 5.80848L392.297 38.9605C392.468 39.3871 392.617 39.7498 392.745 40.0485C392.916 40.3471 393.15 40.4965 393.449 40.4965C393.705 40.4965 393.918 40.3471 394.089 40.0485C394.26 39.7498 394.43 39.3871 394.601 38.9605L407.977 5.80848C408.532 4.35781 409.236 3.14181 410.089 2.16047C410.985 1.17914 412.393 0.688477 414.313 0.688477C416.105 0.688477 417.513 1.13648 418.537 2.03247C419.561 2.88581 420.073 4.12314 420.073 5.74448V46.0005H414.121L414.249 8.04847C414.249 7.45114 414.142 7.08847 413.929 6.96047C413.716 6.83247 413.545 6.76847 413.417 6.76847C413.204 6.76847 412.99 6.91781 412.777 7.21647C412.564 7.51514 412.393 7.83514 412.265 8.17647L398.889 41.3925Z" fill="#047DD7"/>
<path d="M441.609 5.61647C442.292 4.03781 443.06 2.82181 443.913 1.96848C444.766 1.11514 446.046 0.688477 447.753 0.688477C449.374 0.688477 450.654 1.13648 451.593 2.03247C452.532 2.88581 453.321 4.08047 453.961 5.61647L470.921 46.0005H464.649L459.593 33.8405H435.849L430.857 46.0005H424.585L441.609 5.61647ZM437.641 28.9765H457.801L449.353 8.43247C449.14 7.96314 448.905 7.49381 448.649 7.02447C448.436 6.51247 448.137 6.25647 447.753 6.25647C447.369 6.25647 447.07 6.51247 446.857 7.02447C446.644 7.49381 446.43 7.96314 446.217 8.43247L437.641 28.9765Z" fill="#047DD7"/>
<path d="M483.022 46.0005V6.06447H464.91V1.20047H507.086V6.06447H488.974V46.0005H483.022Z" fill="#047DD7"/>
<path d="M520.831 15.2805L524.735 12.4005L533.119 24.3685C533.46 24.8378 533.738 25.3498 533.951 25.9045C534.207 26.4591 534.335 27.1631 534.335 28.0165C534.335 28.8698 534.207 29.5951 533.951 30.1925C533.738 30.7471 533.46 31.2591 533.119 31.7285L524.735 43.6325L520.831 40.8165L528.255 30.0645C528.468 29.7231 528.66 29.3818 528.831 29.0405C529.002 28.6991 529.087 28.3578 529.087 28.0165C529.087 27.6325 529.002 27.2911 528.831 26.9925C528.66 26.6511 528.468 26.3098 528.255 25.9685L520.831 15.2805ZM511.615 19.0565L515.519 16.2405L521.919 25.0085C522.26 25.4778 522.559 25.9685 522.815 26.4805C523.071 26.9498 523.199 27.4618 523.199 28.0165C523.199 28.6138 523.05 29.1898 522.751 29.7445C522.495 30.2565 522.218 30.7045 521.919 31.0885L515.519 40.1765L511.615 37.3605L516.863 29.8085C517.119 29.4245 517.332 29.1045 517.503 28.8485C517.674 28.5498 517.759 28.2725 517.759 28.0165C517.759 27.5898 517.46 26.9925 516.863 26.2245L511.615 19.0565Z" fill="#047DD7"/>
</g>
</svg>
