<svg width="478" height="47" viewBox="0 0 478 47" fill="none" xmlns="http://www.w3.org/2000/svg">
<g id="&#208;&#191;&#209;&#128;&#208;&#181;&#209;&#129;&#209;&#130;&#208;&#184;&#208;&#182;&#208;&#189;&#208;&#190;!">
<path d="M12.0395 45.9995H0.519531V8.1115C0.519531 3.5035 2.78087 1.1995 7.30353 1.1995H36.1035C40.6262 1.1995 42.8875 3.5035 42.8875 8.1115V45.9995H31.3675V13.1675C31.3675 12.0582 31.1329 11.2902 30.6635 10.8635C30.2369 10.3942 29.4689 10.1595 28.3595 10.1595H15.0475C13.9382 10.1595 13.1489 10.3942 12.6795 10.8635C12.2529 11.2902 12.0395 12.0582 12.0395 13.1675V45.9995Z" fill="#D84427"/>
<path d="M62.4745 45.9995H50.9545V8.1115C50.9545 3.5035 53.2158 1.1995 57.7385 1.1995H81.5465C83.9785 1.1995 86.0052 1.56216 87.6265 2.2875C89.2478 2.97016 90.4852 4.03683 91.3385 5.4875C92.1918 6.8955 92.7892 8.47416 93.1305 10.2235C93.4718 11.9302 93.6425 13.9782 93.6425 16.3675C93.6425 21.3595 92.7678 25.1568 91.0185 27.7595C89.3118 30.3622 86.1545 31.6635 81.5465 31.6635H62.4745V45.9995ZM62.4745 22.7035H75.5945C77.9412 22.7035 79.5625 22.2342 80.4585 21.2955C81.3972 20.3142 81.8665 18.6715 81.8665 16.3675C81.8665 14.1062 81.3972 12.5062 80.4585 11.5675C79.5625 10.6288 77.9412 10.1595 75.5945 10.1595H65.4825C64.3732 10.1595 63.5838 10.3942 63.1145 10.8635C62.6878 11.2902 62.4745 12.0582 62.4745 13.1675V22.7035Z" fill="#D84427"/>
<path d="M137.645 1.1995V9.9035H114.605C113.496 9.9035 112.706 10.1382 112.237 10.6075C111.81 11.0342 111.597 11.8022 111.597 12.9115V19.1195H137.069V27.4395H111.597V34.2875C111.597 35.3968 111.81 36.1862 112.237 36.6555C112.706 37.0822 113.496 37.2955 114.605 37.2955H137.901V45.9995H106.861C102.338 45.9995 100.077 43.7168 100.077 39.1515V8.1115C100.077 3.5035 102.338 1.1995 106.861 1.1995H137.645Z" fill="#D84427"/>
<path d="M181.757 45.9995H162.621C155.453 45.9995 150.44 44.1435 147.581 40.4315C144.765 36.7195 143.357 31.1088 143.357 23.5995C143.357 16.0902 144.765 10.4795 147.581 6.7675C150.44 3.0555 155.453 1.1995 162.621 1.1995H181.117V10.1595H168.317C163.154 10.1595 159.656 11.0555 157.821 12.8475C156.029 14.6395 155.133 18.2235 155.133 23.5995C155.133 28.9755 156.029 32.5595 157.821 34.3515C159.656 36.1435 163.154 37.0395 168.317 37.0395H181.757V45.9995Z" fill="#D84427"/>
<path d="M213.649 45.9995H202.129V10.1595H185.489V1.1995H230.289V10.1595H213.649V45.9995Z" fill="#D84427"/>
<path d="M280.515 45.9995H268.867L269.379 15.8555C269.379 14.7888 269.166 14.2555 268.739 14.2555C268.654 14.2555 268.569 14.2768 268.483 14.3195C268.441 14.3195 268.377 14.3622 268.291 14.4475C268.249 14.5328 268.185 14.6182 268.099 14.7035C268.057 14.7462 267.993 14.8528 267.907 15.0235C267.822 15.1515 267.737 15.2795 267.651 15.4075C267.609 15.4928 267.523 15.6422 267.395 15.8555C267.267 16.0688 267.161 16.2395 267.075 16.3675L251.459 42.1595C250.947 43.0128 250.435 43.7168 249.923 44.2715C249.411 44.7835 248.558 45.2955 247.363 45.8075C246.169 46.2768 244.739 46.5115 243.075 46.5115C241.283 46.5115 239.79 46.2342 238.595 45.6795C237.401 45.1248 236.547 44.3568 236.035 43.3755C235.566 42.3515 235.246 41.3915 235.075 40.4955C234.905 39.5995 234.819 38.5328 234.819 37.2955V1.1995H246.467L245.955 30.7675C245.955 32.1755 246.211 32.8795 246.723 32.8795C246.809 32.8795 246.894 32.8582 246.979 32.8155C247.065 32.7728 247.15 32.7088 247.235 32.6235C247.321 32.4955 247.385 32.3888 247.427 32.3035C247.513 32.2182 247.619 32.0688 247.747 31.8555C247.875 31.6422 247.961 31.4928 248.003 31.4075L263.171 5.8075C265.219 2.39417 268.078 0.6875 271.747 0.6875C277.593 0.6875 280.515 3.8875 280.515 10.2875V45.9995Z" fill="#D84427"/>
<path d="M283.767 45.9995L300.087 27.0555C301.666 25.2208 302.455 23.8555 302.455 22.9595C302.455 22.1915 301.815 21.0822 300.535 19.6315L286.071 1.1995H299.511L311.543 17.9035C312.951 19.9088 313.655 21.5942 313.655 22.9595C313.655 25.1355 312.93 27.1408 311.479 28.9755L297.847 45.9995H283.767ZM358.903 45.9995H344.823L331.191 28.9755C329.74 27.1835 329.015 25.1782 329.015 22.9595C329.015 21.5088 329.719 19.8235 331.127 17.9035C336.503 10.4795 340.556 4.9115 343.287 1.1995H356.727L342.071 19.6315C341.986 19.7595 341.772 20.0155 341.431 20.3995C341.132 20.7835 340.919 21.0822 340.791 21.2955C340.663 21.4662 340.514 21.7222 340.343 22.0635C340.215 22.3622 340.151 22.6608 340.151 22.9595C340.151 23.8128 340.962 25.1782 342.583 27.0555L358.903 45.9995ZM315.575 45.9995V1.1995H327.095V45.9995H315.575Z" fill="#D84427"/>
<path d="M404.815 1.1995V45.9995H393.295V27.3115H373.647V45.9995H362.127V1.1995H373.647V18.3515H393.295V1.1995H404.815Z" fill="#D84427"/>
<path d="M424.202 1.6475C427.061 1.0075 430.794 0.6875 435.402 0.6875C440.01 0.6875 443.744 1.0075 446.602 1.6475C449.461 2.2875 451.872 3.46083 453.834 5.1675C455.84 6.87416 457.226 9.1995 457.994 12.1435C458.805 15.0875 459.21 18.9062 459.21 23.5995C459.21 28.2928 458.805 32.1115 457.994 35.0555C457.226 37.9995 455.84 40.3462 453.834 42.0955C451.872 43.8022 449.461 44.9755 446.602 45.6155C443.744 46.2128 440.01 46.5115 435.402 46.5115C430.794 46.5115 427.061 46.2128 424.202 45.6155C421.344 44.9755 418.912 43.8022 416.906 42.0955C414.944 40.3462 413.557 37.9995 412.746 35.0555C411.978 32.1115 411.594 28.2928 411.594 23.5995C411.594 18.9062 411.978 15.0875 412.746 12.1435C413.557 9.1995 414.944 6.87416 416.906 5.1675C418.912 3.46083 421.344 2.2875 424.202 1.6475ZM425.866 12.6555C424.202 14.6182 423.37 18.2662 423.37 23.5995C423.37 28.9328 424.202 32.6022 425.866 34.6075C427.573 36.5702 430.752 37.5515 435.402 37.5515C440.053 37.5515 443.21 36.5702 444.874 34.6075C446.581 32.6022 447.434 28.9328 447.434 23.5995C447.434 18.2662 446.581 14.6182 444.874 12.6555C443.21 10.6502 440.053 9.6475 435.402 9.6475C430.752 9.6475 427.573 10.6502 425.866 12.6555Z" fill="#D84427"/>
<path d="M466.765 45.9995V36.2075H476.941V45.9995H466.765ZM476.749 32.0475H466.893L465.997 1.1995H477.709L476.749 32.0475Z" fill="#D84427"/>
</g>
</svg>
