<svg width="340" height="47" viewBox="0 0 340 47" fill="none" xmlns="http://www.w3.org/2000/svg">
<g id="&#208;&#160;&#208;&#144;&#208;&#145;&#208;&#158;&#208;&#162;&#208;&#144;&#208;&#162;&#208;&#172;">
<path d="M0.160156 45.9995V7.2155C0.160156 4.9115 0.672156 3.33283 1.69616 2.4795C2.76282 1.62616 4.25616 1.1995 6.17616 1.1995H26.7202C28.9815 1.1995 30.8375 1.5195 32.2882 2.1595C33.7815 2.7995 34.9548 3.71683 35.8082 4.9115C36.7042 6.0635 37.3228 7.49283 37.6642 9.1995C38.0055 10.9062 38.1762 12.8048 38.1762 14.8955C38.1762 17.1142 38.0055 19.0982 37.6642 20.8475C37.3228 22.5542 36.7042 24.0048 35.8082 25.1995C34.9548 26.3942 33.7815 27.3115 32.2882 27.9515C30.8375 28.5915 28.9815 28.9115 26.7202 28.9115H6.11216V45.9995H0.160156ZM24.6082 24.0475C26.1868 24.0475 27.4455 23.8555 28.3842 23.4715C29.3655 23.0448 30.1122 22.4475 30.6242 21.6795C31.1788 20.9115 31.5415 19.9728 31.7122 18.8635C31.8828 17.7115 31.9682 16.3888 31.9682 14.8955C31.9682 13.4448 31.8615 12.1862 31.6482 11.1195C31.4775 10.0102 31.1148 9.09283 30.5602 8.3675C30.0482 7.5995 29.3015 7.0235 28.3202 6.6395C27.3815 6.2555 26.1442 6.0635 24.6082 6.0635H8.99216C7.71216 6.0635 6.90149 6.29816 6.56016 6.7675C6.26149 7.23683 6.11216 7.9835 6.11216 9.0075V24.0475H24.6082Z" fill="#D84427"/>
<path d="M53.3191 5.6155C54.0018 4.03683 54.7698 2.82083 55.6231 1.9675C56.4765 1.11417 57.7565 0.6875 59.4631 0.6875C61.0845 0.6875 62.3645 1.1355 63.3031 2.0315C64.2418 2.88483 65.0311 4.0795 65.6711 5.6155L82.6311 45.9995H76.3591L71.3031 33.8395H47.5591L42.5671 45.9995H36.2951L53.3191 5.6155ZM49.3511 28.9755H69.5111L61.0631 8.4315C60.8498 7.96216 60.6151 7.49283 60.3591 7.0235C60.1458 6.5115 59.8471 6.2555 59.4631 6.2555C59.0791 6.2555 58.7805 6.5115 58.5671 7.0235C58.3538 7.49283 58.1405 7.96216 57.9271 8.4315L49.3511 28.9755Z" fill="#D84427"/>
<path d="M122.867 6.0635H96.0511C94.8138 6.0635 94.0031 6.29816 93.6191 6.7675C93.2778 7.19416 93.1071 7.96216 93.1071 9.0715V20.6555H115.123C117.128 20.6555 118.771 20.9755 120.051 21.6155C121.331 22.2128 122.334 23.0662 123.059 24.1755C123.827 25.2848 124.36 26.6075 124.659 28.1435C124.958 29.6795 125.107 31.3648 125.107 33.1995C125.107 35.0342 124.958 36.7408 124.659 38.3195C124.403 39.8555 123.891 41.1995 123.123 42.3515C122.398 43.5035 121.395 44.3995 120.115 45.0395C118.835 45.6795 117.214 45.9995 115.251 45.9995H93.4271C91.4644 45.9995 89.9284 45.5515 88.8191 44.6555C87.7098 43.7168 87.1551 42.0528 87.1551 39.6635V7.5355C87.1551 5.14616 87.7098 3.5035 88.8191 2.6075C89.9284 1.66883 91.4644 1.1995 93.4271 1.1995H122.867V6.0635ZM93.1071 25.5195V38.0635C93.1071 39.1728 93.2778 39.9622 93.6191 40.4315C94.0031 40.9008 94.8138 41.1355 96.0511 41.1355H112.435C113.758 41.1355 114.824 40.9648 115.635 40.6235C116.488 40.2822 117.15 39.7702 117.619 39.0875C118.131 38.4048 118.472 37.5728 118.643 36.5915C118.814 35.6102 118.899 34.4795 118.899 33.1995C118.899 31.9195 118.814 30.8102 118.643 29.8715C118.472 28.8902 118.152 28.0795 117.683 27.4395C117.214 26.7995 116.552 26.3302 115.699 26.0315C114.888 25.6902 113.8 25.5195 112.435 25.5195H93.1071Z" fill="#D84427"/>
<path d="M154.209 0.6875C158.347 0.6875 161.825 1.09283 164.641 1.9035C167.499 2.6715 169.803 3.9515 171.553 5.7435C173.302 7.5355 174.561 9.9035 175.329 12.8475C176.139 15.7488 176.545 19.3328 176.545 23.5995C176.545 27.9088 176.139 31.5355 175.329 34.4795C174.561 37.3808 173.302 39.7275 171.553 41.5195C169.803 43.3115 167.499 44.5915 164.641 45.3595C161.825 46.1275 158.347 46.5115 154.209 46.5115C150.113 46.5115 146.635 46.1275 143.777 45.3595C140.961 44.5915 138.657 43.3115 136.865 41.5195C135.115 39.7275 133.835 37.3808 133.025 34.4795C132.257 31.5355 131.873 27.9088 131.873 23.5995C131.873 19.3328 132.257 15.7488 133.025 12.8475C133.835 9.9035 135.115 7.5355 136.865 5.7435C138.657 3.9515 140.961 2.6715 143.777 1.9035C146.635 1.09283 150.113 0.6875 154.209 0.6875ZM138.081 23.5995C138.081 27.0128 138.315 29.8715 138.785 32.1755C139.297 34.4795 140.15 36.3355 141.345 37.7435C142.582 39.1515 144.225 40.1542 146.273 40.7515C148.363 41.3488 151.009 41.6475 154.209 41.6475C157.409 41.6475 160.033 41.3488 162.081 40.7515C164.171 40.1542 165.814 39.1515 167.009 37.7435C168.246 36.3355 169.099 34.4795 169.569 32.1755C170.081 29.8715 170.337 27.0128 170.337 23.5995C170.337 20.2288 170.081 17.3915 169.569 15.0875C169.099 12.7835 168.246 10.9275 167.009 9.5195C165.814 8.1115 164.171 7.10883 162.081 6.5115C160.033 5.8715 157.409 5.5515 154.209 5.5515C151.009 5.5515 148.363 5.8715 146.273 6.5115C144.225 7.10883 142.582 8.1115 141.345 9.5195C140.15 10.9275 139.297 12.7835 138.785 15.0875C138.315 17.3915 138.081 20.2288 138.081 23.5995Z" fill="#D84427"/>
<path d="M195.352 45.9995V6.0635H177.24V1.1995H219.416V6.0635H201.304V45.9995H195.352Z" fill="#D84427"/>
<path d="M230.434 5.6155C231.117 4.03683 231.885 2.82083 232.738 1.9675C233.591 1.11417 234.871 0.6875 236.578 0.6875C238.199 0.6875 239.479 1.1355 240.418 2.0315C241.357 2.88483 242.146 4.0795 242.786 5.6155L259.746 45.9995H253.474L248.418 33.8395H224.674L219.682 45.9995H213.41L230.434 5.6155ZM226.466 28.9755H246.626L238.178 8.4315C237.965 7.96216 237.73 7.49283 237.474 7.0235C237.261 6.5115 236.962 6.2555 236.578 6.2555C236.194 6.2555 235.895 6.5115 235.682 7.0235C235.469 7.49283 235.255 7.96216 235.042 8.4315L226.466 28.9755Z" fill="#D84427"/>
<path d="M271.847 45.9995V6.0635H253.735V1.1995H295.911V6.0635H277.799V45.9995H271.847Z" fill="#D84427"/>
<path d="M307.032 1.1995V20.3355H329.048C331.053 20.3355 332.696 20.6555 333.976 21.2955C335.256 21.9355 336.259 22.8315 336.984 23.9835C337.752 25.0928 338.285 26.4368 338.584 28.0155C338.883 29.5515 339.032 31.2368 339.032 33.0715C339.032 34.9062 338.883 36.6128 338.584 38.1915C338.328 39.7702 337.816 41.1355 337.048 42.2875C336.323 43.4395 335.32 44.3568 334.04 45.0395C332.76 45.6795 331.139 45.9995 329.176 45.9995H307.352C305.475 45.9995 303.96 45.5728 302.808 44.7195C301.656 43.8235 301.08 42.2448 301.08 39.9835V1.1995H307.032ZM307.032 25.1995V38.0635C307.032 39.1728 307.203 39.9622 307.544 40.4315C307.928 40.9008 308.739 41.1355 309.976 41.1355H326.36C327.683 41.1355 328.749 40.9648 329.56 40.6235C330.413 40.2395 331.075 39.7062 331.544 39.0235C332.056 38.3408 332.397 37.5088 332.568 36.5275C332.739 35.5035 332.824 34.3515 332.824 33.0715C332.824 31.7915 332.739 30.6608 332.568 29.6795C332.397 28.6982 332.077 27.8875 331.608 27.2475C331.139 26.5648 330.477 26.0528 329.624 25.7115C328.813 25.3702 327.725 25.1995 326.36 25.1995H307.032Z" fill="#D84427"/>
</g>
</svg>
