<svg width="57" height="61" viewBox="0 0 57 61" fill="none" xmlns="http://www.w3.org/2000/svg">
<g id="Vector">
<path fill-rule="evenodd" clip-rule="evenodd" d="M24.9809 32.8171C24.7739 32.6409 24.5386 32.4059 24.2564 32.1415C22.6287 30.5747 18.7147 27.079 14.0951 27.079C12.8412 27.1331 11.5974 27.3368 10.3881 27.6861C9.0241 28.126 7.69631 28.6794 6.41762 29.3409C7.49722 28.0025 8.67358 26.752 9.93643 25.6004C12.2562 23.6135 15.1305 22.4595 18.1314 22.3103C16.9961 18.1377 17.2697 13.6862 18.9065 9.69815C20.5434 5.71014 23.4445 2.42675 27.126 0.395624C26.8918 0.263581 26.6302 0.192989 26.3639 0.189985H7.40552C5.66335 0.20533 3.99678 0.932426 2.76484 2.21457C1.5329 3.49672 0.834231 5.23126 0.819487 7.04442V54.957C0.821957 55.4132 0.99725 55.8501 1.30726 56.1727C1.61727 56.4954 2.037 56.6778 2.47541 56.6804H26.4015C26.8407 56.6804 27.2619 56.4988 27.5724 56.1756C27.883 55.8524 28.0574 55.414 28.0574 54.957V35.1476C26.9988 34.4419 25.9867 33.6633 25.0279 32.8171" fill="url(#paint0_linear_31_1130)" fill-opacity="0.2"/>
<path fill-rule="evenodd" clip-rule="evenodd" d="M29.9391 27.0212C33.5144 29.7042 36.4217 31.0849 38.8773 31.3101C40.0698 31.396 41.2676 31.3567 42.4526 31.1926C42.9797 31.1224 43.4995 31.0011 44.005 30.8303C44.4626 30.6842 44.9118 30.5109 45.3504 30.3113C45.7854 30.0888 46.2093 29.8437 46.6206 29.5769C46.9192 29.3811 47.2052 29.1652 47.4768 28.9306C47.6273 28.8033 48.2201 28.2452 48.4176 28.0298C48.7274 27.6701 49.0195 27.2942 49.2926 26.9037C51.2388 24.0662 52.2639 20.6563 52.2187 17.1704C52.2187 12.6165 50.4805 8.24915 47.3866 5.02908C44.2926 1.80901 40.0963 0 35.7207 0C31.3452 0 27.1489 1.80901 24.0549 5.02908C20.9609 8.24915 19.2228 12.6165 19.2228 17.1704C19.2222 18.9249 19.4824 20.6689 19.9942 22.3406C22.9203 22.6441 26.3639 24.299 29.9391 27.0212Z" fill="url(#paint1_linear_31_1130)" fill-opacity="0.2"/>
<path fill-rule="evenodd" clip-rule="evenodd" d="M18.9499 23.9462C15.6136 24.074 12.3686 25.1143 9.54133 26.9622H9.48488C9.40961 26.9622 9.43782 27.0503 9.53191 27.0111C11.2599 26.3093 13.0964 25.9409 14.9513 25.9242C20.9822 25.9242 24.5574 30.2425 25.9875 31.4959C28.9353 34.174 32.7566 35.5755 36.6663 35.4127C39.1825 35.3317 41.6306 34.5434 43.751 33.1312C44.987 32.2909 46.1103 31.2833 47.0911 30.1348C47.1381 30.0075 47.2792 29.8508 47.0911 30.1348C45.4596 31.4723 43.5072 32.3189 41.4459 32.5828C40.2905 32.7626 39.1184 32.7954 37.9553 32.6807C34.9351 32.4359 32.837 31.4959 29.0171 28.3428C24.9056 25.1506 21.4244 23.9364 19.0628 23.9364L18.9499 23.9462Z" fill="url(#paint2_linear_31_1130)" fill-opacity="0.2"/>
<path fill-rule="evenodd" clip-rule="evenodd" d="M56.4717 0.827796V53.891C56.4668 55.7765 55.7443 57.5832 54.4623 58.9155C53.1804 60.2479 51.4434 60.9974 49.6317 61H1.08333C0.928619 61 0.780237 60.9361 0.670841 60.8222C0.561445 60.7083 0.5 60.5539 0.5 60.3929V60.3341C0.5 60.1731 0.561445 60.0187 0.670841 59.9048C0.780237 59.791 0.928619 59.727 1.08333 59.727H49.6317C51.1289 59.727 52.5648 59.108 53.6234 58.0062C54.6821 56.9044 55.2768 55.41 55.2768 53.8518V0.827796C55.2768 0.666781 55.3383 0.512352 55.4477 0.398497C55.5571 0.284642 55.7055 0.220693 55.8602 0.220693H55.9167C56.0706 0.223217 56.2176 0.287979 56.3265 0.401291C56.4353 0.514603 56.4976 0.667568 56.5 0.827796" fill="url(#paint3_linear_31_1130)" fill-opacity="0.2"/>
</g>
<defs>
<linearGradient id="paint0_linear_31_1130" x1="28.5" y1="0" x2="28.5" y2="61" gradientUnits="userSpaceOnUse">
<stop stop-color="white"/>
<stop offset="1" stop-color="white"/>
<stop offset="1" stop-color="white"/>
<stop offset="1" stop-color="white" stop-opacity="0.11"/>
</linearGradient>
<linearGradient id="paint1_linear_31_1130" x1="28.5" y1="0" x2="28.5" y2="61" gradientUnits="userSpaceOnUse">
<stop stop-color="white"/>
<stop offset="1" stop-color="white"/>
<stop offset="1" stop-color="white"/>
<stop offset="1" stop-color="white" stop-opacity="0.11"/>
</linearGradient>
<linearGradient id="paint2_linear_31_1130" x1="28.5" y1="0" x2="28.5" y2="61" gradientUnits="userSpaceOnUse">
<stop stop-color="white"/>
<stop offset="1" stop-color="white"/>
<stop offset="1" stop-color="white"/>
<stop offset="1" stop-color="white" stop-opacity="0.11"/>
</linearGradient>
<linearGradient id="paint3_linear_31_1130" x1="28.5" y1="0" x2="28.5" y2="61" gradientUnits="userSpaceOnUse">
<stop stop-color="white"/>
<stop offset="1" stop-color="white"/>
<stop offset="1" stop-color="white"/>
<stop offset="1" stop-color="white" stop-opacity="0.11"/>
</linearGradient>
</defs>
</svg>
