<svg width="360" height="118" viewBox="0 0 360 118" fill="none" xmlns="http://www.w3.org/2000/svg">
<g id="Vector">
<path d="M29.8754 33.984L30.0194 6.096C30.0194 5.872 30.0034 5.648 29.9714 5.424C29.9394 5.168 29.8274 5.04 29.6354 5.04C29.4754 5.04 29.2674 5.2 29.0114 5.52C28.7554 5.808 28.4994 6.144 28.2434 6.528L12.6914 31.344C12.4354 31.76 12.1634 32.16 11.8754 32.544C11.6194 32.896 11.3154 33.216 10.9634 33.504C10.6434 33.76 10.2594 33.968 9.81144 34.128C9.36344 34.288 8.80344 34.368 8.13144 34.368C7.17144 34.368 6.43544 34.192 5.92344 33.84C5.41144 33.488 5.02744 33.072 4.77144 32.592C4.51544 32.08 4.35544 31.552 4.29144 31.008C4.25944 30.432 4.24344 29.952 4.24344 29.568V0.383998H8.70744L8.61144 27.84C8.61144 28.288 8.62744 28.656 8.65944 28.944C8.69144 29.2 8.83544 29.328 9.09144 29.328C9.28344 29.328 9.45944 29.232 9.61944 29.04C9.77944 28.816 9.93944 28.576 10.0994 28.32L25.4114 3.648C26.2114 2.336 26.9634 1.408 27.6674 0.863997C28.3714 0.287999 29.2514 0 30.3074 0C31.2994 0 32.0674 0.207999 32.6114 0.623998C33.1554 1.04 33.5554 1.536 33.8114 2.112C34.0674 2.656 34.2114 3.216 34.2434 3.792C34.3074 4.368 34.3394 4.816 34.3394 5.136V33.984H29.8754Z" fill="white"/>
<path d="M58.6276 33.984C55.8116 33.984 53.4916 33.552 51.6676 32.688C49.8756 31.792 48.4516 30.592 47.3956 29.088C46.3396 27.552 45.6036 25.76 45.1876 23.712C44.8036 21.664 44.6116 19.472 44.6116 17.136C44.6116 14.8 44.8036 12.624 45.1876 10.608C45.6036 8.56 46.3396 6.784 47.3956 5.28C48.4836 3.744 49.9396 2.544 51.7636 1.68C53.6196 0.815998 55.9876 0.383998 58.8676 0.383998H71.8756V4.032H60.3556C58.2436 4.032 56.4836 4.288 55.0756 4.8C53.6676 5.312 52.5316 6.112 51.6676 7.2C50.8036 8.256 50.1796 9.616 49.7956 11.28C49.4436 12.912 49.2676 14.864 49.2676 17.136C49.2676 19.408 49.4436 21.376 49.7956 23.04C50.1476 24.704 50.7396 26.08 51.5716 27.168C52.4356 28.256 53.5556 29.056 54.9316 29.568C56.3076 30.08 58.0356 30.336 60.1156 30.336H72.3556V33.984H58.6276Z" fill="white"/>
<path d="M92.6293 33.984V4.032H79.0453V0.383998H110.677V4.032H97.0933V33.984H92.6293Z" fill="white"/>
<path d="M132.207 0C135.311 0 137.919 0.304 140.031 0.912C142.175 1.488 143.903 2.448 145.215 3.792C146.527 5.136 147.471 6.912 148.047 9.12C148.655 11.296 148.959 13.984 148.959 17.184C148.959 20.416 148.655 23.136 148.047 25.344C147.471 27.52 146.527 29.28 145.215 30.624C143.903 31.968 142.175 32.928 140.031 33.504C137.919 34.08 135.311 34.368 132.207 34.368C129.135 34.368 126.527 34.08 124.383 33.504C122.271 32.928 120.543 31.968 119.199 30.624C117.887 29.28 116.927 27.52 116.319 25.344C115.743 23.136 115.455 20.416 115.455 17.184C115.455 13.984 115.743 11.296 116.319 9.12C116.927 6.912 117.887 5.136 119.199 3.792C120.543 2.448 122.271 1.488 124.383 0.912C126.527 0.304 129.135 0 132.207 0ZM120.111 17.184C120.111 19.744 120.287 21.888 120.639 23.616C121.023 25.344 121.663 26.736 122.559 27.792C123.487 28.848 124.719 29.6 126.255 30.048C127.823 30.496 129.807 30.72 132.207 30.72C134.607 30.72 136.575 30.496 138.111 30.048C139.679 29.6 140.911 28.848 141.807 27.792C142.735 26.736 143.375 25.344 143.727 23.616C144.111 21.888 144.303 19.744 144.303 17.184C144.303 14.656 144.111 12.528 143.727 10.8C143.375 9.072 142.735 7.68 141.807 6.624C140.911 5.568 139.679 4.816 138.111 4.368C136.575 3.888 134.607 3.648 132.207 3.648C129.807 3.648 127.823 3.888 126.255 4.368C124.719 4.816 123.487 5.568 122.559 6.624C121.663 7.68 121.023 9.072 120.639 10.8C120.287 12.528 120.111 14.656 120.111 17.184Z" fill="white"/>
<path d="M159.243 33.984V4.896C159.243 3.168 159.627 1.984 160.395 1.344C161.195 0.703999 162.315 0.383998 163.755 0.383998H179.163C180.859 0.383998 182.251 0.623998 183.339 1.104C184.459 1.584 185.339 2.272 185.979 3.168C186.651 4.032 187.115 5.104 187.371 6.384C187.627 7.664 187.755 9.088 187.755 10.656C187.755 12.32 187.627 13.808 187.371 15.12C187.115 16.4 186.651 17.488 185.979 18.384C185.339 19.28 184.459 19.968 183.339 20.448C182.251 20.928 180.859 21.168 179.163 21.168H163.707V33.984H159.243ZM177.579 17.52C178.763 17.52 179.707 17.376 180.411 17.088C181.147 16.768 181.707 16.32 182.091 15.744C182.507 15.168 182.779 14.464 182.907 13.632C183.035 12.768 183.099 11.776 183.099 10.656C183.099 9.568 183.019 8.624 182.859 7.824C182.731 6.992 182.459 6.304 182.043 5.76C181.659 5.184 181.099 4.752 180.363 4.464C179.659 4.176 178.731 4.032 177.579 4.032H165.867C164.907 4.032 164.299 4.208 164.043 4.56C163.819 4.912 163.707 5.472 163.707 6.24V17.52H177.579Z" fill="white"/>
<path d="M223.204 33.984L223.348 6.096C223.348 5.872 223.332 5.648 223.3 5.424C223.268 5.168 223.156 5.04 222.964 5.04C222.804 5.04 222.596 5.2 222.34 5.52C222.084 5.808 221.828 6.144 221.572 6.528L206.02 31.344C205.764 31.76 205.492 32.16 205.204 32.544C204.948 32.896 204.644 33.216 204.292 33.504C203.972 33.76 203.588 33.968 203.14 34.128C202.692 34.288 202.132 34.368 201.46 34.368C200.5 34.368 199.764 34.192 199.252 33.84C198.74 33.488 198.356 33.072 198.1 32.592C197.844 32.08 197.684 31.552 197.62 31.008C197.588 30.432 197.572 29.952 197.572 29.568V0.383998H202.036L201.94 27.84C201.94 28.288 201.956 28.656 201.988 28.944C202.02 29.2 202.164 29.328 202.42 29.328C202.612 29.328 202.788 29.232 202.948 29.04C203.108 28.816 203.268 28.576 203.428 28.32L218.74 3.648C219.54 2.336 220.292 1.408 220.996 0.863997C221.7 0.287999 222.58 0 223.636 0C224.628 0 225.396 0.207999 225.94 0.623998C226.484 1.04 226.884 1.536 227.14 2.112C227.396 2.656 227.54 3.216 227.572 3.792C227.636 4.368 227.668 4.816 227.668 5.136V33.984H223.204Z" fill="white"/>
<path d="M264.532 33.984L264.676 6.096C264.676 5.872 264.66 5.648 264.628 5.424C264.596 5.168 264.484 5.04 264.292 5.04C264.132 5.04 263.924 5.2 263.668 5.52C263.412 5.808 263.156 6.144 262.9 6.528L247.348 31.344C247.092 31.76 246.82 32.16 246.532 32.544C246.276 32.896 245.972 33.216 245.62 33.504C245.3 33.76 244.916 33.968 244.468 34.128C244.02 34.288 243.46 34.368 242.788 34.368C241.828 34.368 241.092 34.192 240.58 33.84C240.068 33.488 239.684 33.072 239.428 32.592C239.172 32.08 239.012 31.552 238.948 31.008C238.916 30.432 238.9 29.952 238.9 29.568V0.383998H243.364L243.268 27.84C243.268 28.288 243.284 28.656 243.316 28.944C243.348 29.2 243.492 29.328 243.748 29.328C243.94 29.328 244.116 29.232 244.276 29.04C244.436 28.816 244.596 28.576 244.756 28.32L260.068 3.648C260.868 2.336 261.62 1.408 262.324 0.863997C263.028 0.287999 263.908 0 264.964 0C265.956 0 266.724 0.207999 267.268 0.623998C267.812 1.04 268.212 1.536 268.468 2.112C268.724 2.656 268.868 3.216 268.9 3.792C268.964 4.368 268.996 4.816 268.996 5.136V33.984H264.532Z" fill="white"/>
<path d="M28.56 117.984H17.12L23.92 105.584L0 61.984H11.68L29.36 95.904L46.4 61.984H57.92L28.56 117.984Z" fill="white"/>
<path d="M110.826 117.984H87.4662C82.8262 117.984 78.9062 117.317 75.7063 115.984C72.5063 114.597 70.0529 112.597 68.3463 109.984C66.6396 107.317 65.4396 104.384 64.7463 101.184C64.0529 97.984 63.7062 94.2507 63.7062 89.984C63.7062 85.7173 64.0529 81.984 64.7463 78.784C65.4396 75.584 66.6396 72.6773 68.3463 70.064C70.0529 67.3973 72.5063 65.3973 75.7063 64.064C78.9062 62.6773 82.8262 61.984 87.4662 61.984H109.946V70.384H92.4263C85.5996 70.384 80.9062 71.7707 78.3463 74.544C75.8396 77.264 74.5863 82.4107 74.5863 89.984C74.5863 97.5573 75.8396 102.731 78.3463 105.504C80.9062 108.224 85.5996 109.584 92.4263 109.584H110.826V117.984Z" fill="white"/>
<path d="M133.601 117.984H123.041V70.384C123.041 64.784 125.761 61.984 131.201 61.984H164.641C170.081 61.984 172.801 64.784 172.801 70.384V117.984H162.241V74.384C162.241 72.784 161.974 71.7173 161.441 71.184C160.907 70.6507 159.841 70.384 158.241 70.384H137.601C136.001 70.384 134.934 70.6507 134.401 71.184C133.867 71.7173 133.601 72.784 133.601 74.384V117.984Z" fill="white"/>
<path d="M232.296 109.584V117.984H195.576C190.136 117.984 187.416 115.184 187.416 109.584V70.384C187.416 64.784 190.136 61.984 195.576 61.984H231.976V70.384H201.976C200.376 70.384 199.309 70.6507 198.776 71.184C198.242 71.7173 197.976 72.784 197.976 74.384V85.184H231.176V93.584H197.976V105.584C197.976 107.184 198.242 108.251 198.776 108.784C199.309 109.317 200.376 109.584 201.976 109.584H232.296Z" fill="white"/>
<path d="M293.946 117.984H281.386L266.426 97.024L251.466 117.984H238.906L260.426 89.584L239.546 61.984H252.106L266.426 82.144L280.746 61.984H293.306L272.426 89.584L293.946 117.984Z" fill="white"/>
<path d="M299.304 117.984L320.424 67.664C321.438 65.264 322.584 63.6107 323.864 62.704C325.198 61.7973 327.118 61.344 329.624 61.344C332.024 61.344 333.891 61.824 335.224 62.784C336.611 63.6907 337.811 65.3173 338.824 67.664L359.944 117.984H348.824L343.064 103.824H316.104L310.424 117.984H299.304ZM328.024 73.504L318.824 96.304H340.344L331.224 73.504C330.638 71.9573 330.104 71.184 329.624 71.184C329.144 71.184 328.611 71.9573 328.024 73.504Z" fill="white"/>
</g>
</svg>
