<svg width="297" height="118" viewBox="0 0 297 118" fill="none" xmlns="http://www.w3.org/2000/svg">
<g id="image_infogr_06">
<path d="M42.0249 101.416H37.9529V105.624H42.0249V101.416Z" fill="white"/>
<path d="M42.0249 84.4494H37.9529V88.657H42.0249V84.4494Z" fill="white"/>
<path d="M42.0249 67.8225H37.9529V72.0301H42.0249V67.8225Z" fill="white"/>
<path d="M100.729 59.3392H71.5466V63.411H96.657V67.8224H63.4029V63.411H67.4749V59.3392H58.9917V71.8943H100.729V59.3392Z" fill="white"/>
<path d="M42.0249 50.8564H37.9529V55.0641H42.0249V50.8564Z" fill="white"/>
<path d="M100.729 42.7122H92.585V46.7842H96.657V50.8562H63.4029V46.7842H88.5131V42.7122H58.9917V54.9281H100.729V42.7122Z" fill="white"/>
<path d="M96.9964 113.971H63.4028V97.3441H96.9964V113.971ZM30.1487 42.7123H52.8837V38.6403H31.506L51.1871 24.0492V110.239H55.259V4.70743H105.48V17.2626H54.2411V21.3346H105.48V113.632H101.068V92.5935H59.331V113.632H55.259V109.221H51.1871V113.632H30.1487V42.7123ZM5.03848 95.6475C4.90519 94.3915 5.16442 93.125 5.78076 92.0225C6.3971 90.92 7.34005 90.0356 8.47981 89.4913C9.61958 88.9469 10.9001 88.7693 12.145 88.9829C13.3899 89.1965 14.5381 89.7908 15.4312 90.6839C16.3244 91.577 16.9186 92.7251 17.1322 93.97C17.3458 95.2149 17.1681 96.4955 16.6238 97.6352C16.0794 98.775 15.1952 99.718 14.0927 100.334C12.9902 100.951 11.7237 101.21 10.4676 101.077C9.07818 100.929 7.78134 100.31 6.79332 99.3218C5.8053 98.3338 5.18593 97.037 5.03848 95.6475ZM118.374 95.6475C118.241 94.3915 118.5 93.125 119.117 92.0225C119.733 90.92 120.676 90.0356 121.816 89.4913C122.955 88.9469 124.236 88.7693 125.481 88.9829C126.726 89.1965 127.874 89.7908 128.767 90.6839C129.66 91.577 130.254 92.7251 130.468 93.97C130.681 95.2149 130.504 96.4955 129.96 97.6352C129.415 98.775 128.531 99.718 127.428 100.334C126.326 100.951 125.059 101.21 123.803 101.077C122.414 100.929 121.117 100.31 120.129 99.3218C119.141 98.3338 118.521 97.037 118.374 95.6475ZM126.518 113.971V105.149C129.081 104.643 131.365 103.201 132.924 101.105C134.483 99.0079 135.205 96.406 134.951 93.8056C134.697 91.2052 133.485 88.7923 131.549 87.0369C129.614 85.2815 127.095 84.3092 124.482 84.3092C121.869 84.3092 119.35 85.2815 117.415 87.0369C115.479 88.7923 114.267 91.2052 114.013 93.8056C113.759 96.406 114.481 99.0079 116.04 101.105C117.599 103.201 119.883 104.643 122.446 105.149V113.971H109.891V0.296204H50.8478V18.2806L25.7374 36.9436V113.632H12.843V104.809C15.4064 104.304 17.6898 102.862 19.2487 100.765C20.8076 98.6685 21.5303 96.0666 21.2763 93.4662C21.0222 90.8658 19.8096 88.4531 17.8743 86.6977C15.939 84.9423 13.4197 83.9698 10.8069 83.9698C8.19411 83.9698 5.67495 84.9423 3.73969 86.6977C1.80444 88.4531 0.591766 90.8658 0.337713 93.4662C0.0836588 96.0666 0.80641 98.6685 2.36532 100.765C3.92422 102.862 6.20763 104.304 8.77101 104.809V117.704H126.179V113.632L126.518 113.971Z" fill="white"/>
<path d="M165.371 48.042V13.7903C165.371 13.0388 165.329 12.4962 165.245 12.1622C165.204 11.7865 165.016 11.4734 164.682 11.2229C164.39 10.9307 163.93 10.7846 163.304 10.7846H158.483V4.20979H167.938C171.737 4.20979 173.636 6.04657 173.636 9.72012V48.042H165.371Z" fill="white"/>
<path d="M181.73 48.042L203.709 13.2267C204.168 12.517 204.397 11.9743 204.397 11.5986C204.397 11.056 203.959 10.7846 203.082 10.7846H179.726V4.20979H208.593C210.471 4.20979 211.744 4.62724 212.412 5.46214C213.08 6.29704 213.414 7.40328 213.414 8.78086C213.414 10.4924 212.913 12.1831 211.911 13.8529L190.935 48.042H181.73Z" fill="white"/>
<path d="M220.419 48.042V41.4671H240.581C242.335 41.4671 243.566 40.9245 244.276 39.8391C244.986 38.7537 245.34 37.0631 245.34 34.7671C245.34 32.7216 244.986 31.2188 244.276 30.2586C243.608 29.2568 242.376 28.7558 240.581 28.7558H228.308C225.637 28.7558 223.612 28.2131 222.235 27.1278C220.857 26.0424 220.168 23.976 220.168 20.9286V9.84536C220.168 8.09207 220.648 6.71449 221.608 5.71261C222.61 4.71073 224.071 4.20979 225.992 4.20979H252.416V10.7846H230.5C230.083 10.7846 229.728 10.8264 229.436 10.9099C229.185 10.9933 228.955 11.2021 228.747 11.536C228.538 11.87 228.434 12.3709 228.434 13.0388V18.4866C228.434 19.8224 228.642 20.7825 229.06 21.367C229.519 21.9096 230.396 22.181 231.69 22.181H244.151C247.741 22.181 250.245 23.2664 251.665 25.4371C253.126 27.5661 253.856 30.5717 253.856 34.454C253.856 35.9986 253.794 37.3761 253.668 38.5867C253.543 39.7973 253.272 41.0288 252.854 42.2812C252.437 43.4918 251.873 44.5145 251.164 45.3494C250.496 46.1426 249.557 46.7896 248.346 47.2906C247.177 47.7915 245.779 48.042 244.151 48.042H220.419Z" fill="white"/>
<path d="M159.602 80.9161V70.567C159.602 69.9242 159.751 69.4822 160.05 69.2411C160.348 68.9885 160.761 68.8623 161.29 68.8623H168.677V70.171H161.996C161.663 70.171 161.444 70.2341 161.341 70.3604C161.249 70.4752 161.203 70.6818 161.203 70.9803V80.9161H159.602Z" fill="white"/>
<path d="M175.383 68.7245C176.497 68.7245 177.432 68.8336 178.19 69.0517C178.959 69.2583 179.579 69.6027 180.05 70.0849C180.52 70.567 180.859 71.2042 181.066 71.9963C181.284 72.7769 181.393 73.7412 181.393 74.8892C181.393 76.0487 181.284 77.0244 181.066 77.8166C180.859 78.5972 180.52 79.2286 180.05 79.7107C179.579 80.1929 178.959 80.5373 178.19 80.7439C177.432 80.9506 176.497 81.0539 175.383 81.0539C174.281 81.0539 173.345 80.9506 172.576 80.7439C171.818 80.5373 171.199 80.1929 170.716 79.7107C170.246 79.2286 169.901 78.5972 169.683 77.8166C169.477 77.0244 169.373 76.0487 169.373 74.8892C169.373 73.7412 169.477 72.7769 169.683 71.9963C169.901 71.2042 170.246 70.567 170.716 70.0849C171.199 69.6027 171.818 69.2583 172.576 69.0517C173.345 68.8336 174.281 68.7245 175.383 68.7245ZM171.044 74.8892C171.044 75.8076 171.107 76.5767 171.233 77.1966C171.371 77.8166 171.6 78.3159 171.922 78.6948C172.255 79.0736 172.697 79.3434 173.248 79.5041C173.81 79.6648 174.522 79.7452 175.383 79.7452C176.244 79.7452 176.95 79.6648 177.501 79.5041C178.064 79.3434 178.506 79.0736 178.827 78.6948C179.16 78.3159 179.389 77.8166 179.516 77.1966C179.653 76.5767 179.722 75.8076 179.722 74.8892C179.722 73.9823 179.653 73.2189 179.516 72.599C179.389 71.979 179.16 71.4797 178.827 71.1008C178.506 70.722 178.064 70.4522 177.501 70.2915C176.95 70.1193 176.244 70.0332 175.383 70.0332C174.522 70.0332 173.81 70.1193 173.248 70.2915C172.697 70.4522 172.255 70.722 171.922 71.1008C171.6 71.4797 171.371 71.979 171.233 72.599C171.107 73.2189 171.044 73.9823 171.044 74.8892Z" fill="white"/>
<path d="M184.071 80.9161V70.4809C184.071 69.861 184.209 69.4363 184.484 69.2067C184.771 68.9771 185.173 68.8623 185.69 68.8623H191.217C191.826 68.8623 192.325 68.9484 192.715 69.1206C193.117 69.2928 193.433 69.5396 193.662 69.861C193.904 70.171 194.07 70.5555 194.162 71.0147C194.254 71.4739 194.3 71.9848 194.3 72.5473C194.3 73.1443 194.254 73.6781 194.162 74.1487C194.07 74.6079 193.904 74.9982 193.662 75.3197C193.433 75.6411 193.117 75.8879 192.715 76.0601C192.325 76.2323 191.826 76.3184 191.217 76.3184H185.673V80.9161H184.071ZM190.649 75.0097C191.074 75.0097 191.412 74.9581 191.665 74.8547C191.929 74.7399 192.13 74.5792 192.268 74.3726C192.417 74.166 192.514 73.9134 192.56 73.6149C192.606 73.305 192.629 72.9491 192.629 72.5473C192.629 72.157 192.601 71.8183 192.543 71.5313C192.497 71.2329 192.4 70.986 192.25 70.7909C192.113 70.5842 191.912 70.4293 191.648 70.3259C191.395 70.2226 191.062 70.171 190.649 70.171H186.447C186.103 70.171 185.885 70.2341 185.793 70.3604C185.713 70.4867 185.673 70.6876 185.673 70.9631V75.0097H190.649Z" fill="white"/>
<path d="M202.475 68.7245C203.589 68.7245 204.525 68.8336 205.282 69.0517C206.051 69.2583 206.671 69.6027 207.142 70.0849C207.613 70.567 207.951 71.2042 208.158 71.9963C208.376 72.7769 208.485 73.7412 208.485 74.8892C208.485 76.0487 208.376 77.0244 208.158 77.8166C207.951 78.5972 207.613 79.2286 207.142 79.7107C206.671 80.1929 206.051 80.5373 205.282 80.7439C204.525 80.9506 203.589 81.0539 202.475 81.0539C201.373 81.0539 200.438 80.9506 199.669 80.7439C198.911 80.5373 198.291 80.1929 197.809 79.7107C197.338 79.2286 196.994 78.5972 196.776 77.8166C196.569 77.0244 196.466 76.0487 196.466 74.8892C196.466 73.7412 196.569 72.7769 196.776 71.9963C196.994 71.2042 197.338 70.567 197.809 70.0849C198.291 69.6027 198.911 69.2583 199.669 69.0517C200.438 68.8336 201.373 68.7245 202.475 68.7245ZM198.136 74.8892C198.136 75.8076 198.199 76.5767 198.325 77.1966C198.463 77.8166 198.693 78.3159 199.014 78.6948C199.347 79.0736 199.789 79.3434 200.34 79.5041C200.903 79.6648 201.614 79.7452 202.475 79.7452C203.336 79.7452 204.042 79.6648 204.593 79.5041C205.156 79.3434 205.598 79.0736 205.919 78.6948C206.252 78.3159 206.482 77.8166 206.608 77.1966C206.746 76.5767 206.815 75.8076 206.815 74.8892C206.815 73.9823 206.746 73.2189 206.608 72.599C206.482 71.979 206.252 71.4797 205.919 71.1008C205.598 70.722 205.156 70.4522 204.593 70.2915C204.042 70.1193 203.336 70.0332 202.475 70.0332C201.614 70.0332 200.903 70.1193 200.34 70.2915C199.789 70.4522 199.347 70.722 199.014 71.1008C198.693 71.4797 198.463 71.979 198.325 72.599C198.199 73.2189 198.136 73.9823 198.136 74.8892Z" fill="white"/>
<path d="M211.15 80.9161C210.851 80.9161 210.656 80.9793 210.564 81.1055C210.484 81.2318 210.444 81.4384 210.444 81.7254V83.2408H208.842V81.295C208.842 80.6521 208.974 80.2101 209.238 79.969C209.514 79.728 209.916 79.6074 210.444 79.6074H210.822L215.093 69.9643C215.288 69.5166 215.512 69.2009 215.765 69.0172C216.029 68.8221 216.344 68.7245 216.712 68.7245C217.113 68.7245 217.435 68.8221 217.676 69.0172C217.917 69.2009 218.135 69.5166 218.33 69.9643L222.584 79.6074H222.98C223.508 79.6074 223.904 79.728 224.168 79.969C224.443 80.2101 224.581 80.6521 224.581 81.295V83.2408H222.98V81.7254C222.98 81.4384 222.934 81.2318 222.842 81.1055C222.75 80.9793 222.555 80.9161 222.256 80.9161H211.15ZM212.476 79.6074H220.93L217.056 70.722C216.999 70.6072 216.947 70.5039 216.901 70.412C216.855 70.3202 216.786 70.2743 216.694 70.2743C216.614 70.2743 216.545 70.3259 216.488 70.4293C216.442 70.5211 216.396 70.6187 216.35 70.722L212.476 79.6074Z" fill="white"/>
<path d="M230.947 68.7245C232.06 68.7245 232.996 68.8336 233.754 69.0517C234.523 69.2583 235.143 69.6027 235.613 70.0849C236.084 70.567 236.423 71.2042 236.629 71.9963C236.847 72.7769 236.956 73.7412 236.956 74.8892C236.956 76.0487 236.847 77.0244 236.629 77.8166C236.423 78.5972 236.084 79.2286 235.613 79.7107C235.143 80.1929 234.523 80.5373 233.754 80.7439C232.996 80.9506 232.06 81.0539 230.947 81.0539C229.845 81.0539 228.909 80.9506 228.14 80.7439C227.382 80.5373 226.762 80.1929 226.28 79.7107C225.81 79.2286 225.465 78.5972 225.247 77.8166C225.04 77.0244 224.937 76.0487 224.937 74.8892C224.937 73.7412 225.04 72.7769 225.247 71.9963C225.465 71.2042 225.81 70.567 226.28 70.0849C226.762 69.6027 227.382 69.2583 228.14 69.0517C228.909 68.8336 229.845 68.7245 230.947 68.7245ZM226.607 74.8892C226.607 75.8076 226.671 76.5767 226.797 77.1966C226.935 77.8166 227.164 78.3159 227.486 78.6948C227.818 79.0736 228.26 79.3434 228.811 79.5041C229.374 79.6648 230.086 79.7452 230.947 79.7452C231.808 79.7452 232.514 79.6648 233.065 79.5041C233.627 79.3434 234.069 79.0736 234.391 78.6948C234.724 78.3159 234.953 77.8166 235.08 77.1966C235.217 76.5767 235.286 75.8076 235.286 74.8892C235.286 73.9823 235.217 73.2189 235.08 72.599C234.953 71.979 234.724 71.4797 234.391 71.1008C234.069 70.722 233.627 70.4522 233.065 70.2915C232.514 70.1193 231.808 70.0332 230.947 70.0332C230.086 70.0332 229.374 70.1193 228.811 70.2915C228.26 70.4522 227.818 70.722 227.486 71.1008C227.164 71.4797 226.935 71.979 226.797 72.599C226.671 73.2189 226.607 73.9823 226.607 74.8892Z" fill="white"/>
<path d="M241.236 78.712C241.236 79.0449 241.282 79.2802 241.374 79.418C241.466 79.5443 241.684 79.6074 242.028 79.6074H246.402C247.08 79.6074 247.539 79.4467 247.78 79.1253C248.032 78.8038 248.159 78.2815 248.159 77.5583C248.159 77.2483 248.136 76.967 248.09 76.7145C248.044 76.4619 247.958 76.2438 247.831 76.0601C247.717 75.8765 247.55 75.7387 247.332 75.6469C247.125 75.5435 246.861 75.4919 246.54 75.4919H241.236V78.712ZM241.236 74.1832H246.351C246.683 74.1832 246.953 74.143 247.16 74.0626C247.378 73.9823 247.544 73.8617 247.659 73.701C247.786 73.5288 247.872 73.3165 247.918 73.0639C247.963 72.7999 247.986 72.4842 247.986 72.1168C247.986 71.5313 247.883 71.0607 247.676 70.7048C247.481 70.3489 247.08 70.171 246.471 70.171H242.011C241.724 70.171 241.523 70.2284 241.408 70.3432C241.294 70.4465 241.236 70.6474 241.236 70.9459V74.1832ZM248.004 74.8375C248.658 74.9294 249.123 75.1934 249.398 75.6296C249.674 76.0659 249.812 76.7317 249.812 77.6271C249.812 78.0748 249.772 78.4996 249.691 78.9014C249.622 79.2917 249.49 79.6361 249.295 79.9346C249.111 80.2331 248.847 80.4741 248.503 80.6578C248.159 80.83 247.722 80.9161 247.194 80.9161H241.34C241.099 80.9161 240.869 80.8932 240.651 80.8472C240.444 80.8013 240.266 80.7152 240.117 80.5889C239.968 80.4627 239.847 80.2905 239.755 80.0723C239.675 79.8542 239.635 79.5787 239.635 79.2458V70.567C239.635 69.4305 240.163 68.8623 241.219 68.8623H247.074C247.992 68.8623 248.652 69.1435 249.054 69.706C249.456 70.2685 249.657 71.0779 249.657 72.134C249.657 72.4669 249.628 72.7826 249.571 73.0811C249.525 73.3796 249.439 73.6494 249.312 73.8904C249.198 74.12 249.031 74.3152 248.813 74.4759C248.595 74.6252 248.325 74.7227 248.004 74.7686V74.8375Z" fill="white"/>
<path d="M159.602 105.18V94.8313C159.602 94.1884 159.751 93.7464 160.05 93.5053C160.348 93.2528 160.761 93.1265 161.29 93.1265H168.022C168.551 93.1265 168.964 93.2528 169.262 93.5053C169.572 93.7464 169.727 94.1884 169.727 94.8313V105.18H168.126V95.2445C168.126 94.9461 168.074 94.7394 167.971 94.6246C167.867 94.4984 167.649 94.4352 167.316 94.4352H161.996C161.663 94.4352 161.444 94.4984 161.341 94.6246C161.249 94.7394 161.203 94.9461 161.203 95.2445V105.18H159.602Z" fill="white"/>
<path d="M172.745 105.18V94.7452C172.745 94.1253 172.882 93.7005 173.158 93.4709C173.445 93.2413 173.847 93.1265 174.363 93.1265H179.891C180.499 93.1265 180.999 93.2126 181.389 93.3848C181.791 93.557 182.106 93.8038 182.336 94.1253C182.577 94.4352 182.744 94.8198 182.835 95.279C182.927 95.7382 182.973 96.249 182.973 96.8115C182.973 97.4085 182.927 97.9423 182.835 98.413C182.744 98.8722 182.577 99.2625 182.336 99.5839C182.106 99.9054 181.791 100.152 181.389 100.324C180.999 100.497 180.499 100.583 179.891 100.583H174.346V105.18H172.745ZM179.323 99.274C179.747 99.274 180.086 99.2223 180.339 99.119C180.603 99.0042 180.803 98.8435 180.941 98.6368C181.09 98.4302 181.188 98.1776 181.234 97.8792C181.28 97.5692 181.303 97.2133 181.303 96.8115C181.303 96.4212 181.274 96.0826 181.217 95.7956C181.171 95.4971 181.073 95.2503 180.924 95.0551C180.786 94.8485 180.585 94.6935 180.321 94.5902C180.069 94.4869 179.736 94.4352 179.323 94.4352H175.121C174.777 94.4352 174.558 94.4984 174.467 94.6246C174.386 94.7509 174.346 94.9518 174.346 95.2273V99.274H179.323Z" fill="white"/>
<path d="M194.679 105.18L194.731 95.1757C194.731 95.0953 194.725 95.0149 194.713 94.9346C194.702 94.8427 194.662 94.7968 194.593 94.7968C194.535 94.7968 194.461 94.8542 194.369 94.969C194.277 95.0723 194.185 95.1929 194.094 95.3306L188.514 104.233C188.422 104.383 188.325 104.526 188.222 104.664C188.13 104.79 188.021 104.905 187.894 105.008C187.78 105.1 187.642 105.175 187.481 105.232C187.32 105.289 187.12 105.318 186.878 105.318C186.534 105.318 186.27 105.255 186.086 105.129C185.903 105.002 185.765 104.853 185.673 104.681C185.581 104.497 185.524 104.308 185.501 104.113C185.489 103.906 185.484 103.734 185.484 103.596V93.1265H187.085L187.051 102.976C187.051 103.137 187.056 103.269 187.068 103.372C187.079 103.464 187.131 103.51 187.223 103.51C187.292 103.51 187.355 103.476 187.412 103.407C187.47 103.326 187.527 103.24 187.584 103.148L193.078 94.2975C193.365 93.8268 193.634 93.4939 193.887 93.2987C194.139 93.0921 194.455 92.9888 194.834 92.9888C195.19 92.9888 195.465 93.0634 195.661 93.2126C195.856 93.3618 195.999 93.5398 196.091 93.7464C196.183 93.9416 196.235 94.1425 196.246 94.3491C196.269 94.5558 196.28 94.7165 196.28 94.8313V105.18H194.679Z" fill="white"/>
<path d="M203.983 105.18C202.972 105.18 202.14 105.025 201.486 104.715C200.843 104.394 200.332 103.963 199.953 103.424C199.574 102.873 199.31 102.23 199.161 101.495C199.023 100.761 198.955 99.9742 198.955 99.1362C198.955 98.2982 199.023 97.5176 199.161 96.7943C199.31 96.0596 199.574 95.4225 199.953 94.8829C200.344 94.3319 200.866 93.9014 201.52 93.5914C202.186 93.2815 203.036 93.1265 204.069 93.1265H208.735V94.4352H204.603C203.845 94.4352 203.214 94.5271 202.708 94.7107C202.203 94.8944 201.796 95.1814 201.486 95.5717C201.176 95.9506 200.952 96.4384 200.814 97.0354C200.688 97.6209 200.625 98.3211 200.625 99.1362C200.625 99.9513 200.688 100.657 200.814 101.254C200.941 101.851 201.153 102.345 201.451 102.735C201.761 103.125 202.163 103.412 202.657 103.596C203.15 103.78 203.77 103.872 204.516 103.872H208.908V105.18H203.983Z" fill="white"/>
<path d="M213.968 105.18L215.243 102.821L209.956 93.1265H211.73L216.069 101.323L220.202 93.1265H221.958L215.707 105.18H213.968Z" fill="white"/>
<path d="M228.127 105.18V94.4352H223.254V93.1265H234.602V94.4352H229.729V105.18H228.127Z" fill="white"/>
<path d="M240.333 105.18C239.323 105.18 238.491 105.025 237.836 104.715C237.193 104.394 236.683 103.963 236.304 103.424C235.925 102.873 235.661 102.23 235.512 101.495C235.374 100.761 235.305 99.9742 235.305 99.1362C235.305 98.2982 235.374 97.5176 235.512 96.7943C235.661 96.0596 235.925 95.4225 236.304 94.8829C236.694 94.3319 237.216 93.9014 237.871 93.5914C238.537 93.2815 239.386 93.1265 240.419 93.1265H245.086V94.4352H240.953C240.195 94.4352 239.564 94.5271 239.059 94.7107C238.554 94.8944 238.146 95.1814 237.836 95.5717C237.526 95.9506 237.303 96.4384 237.165 97.0354C237.038 97.6209 236.975 98.3211 236.975 99.1362C236.975 99.9513 237.038 100.657 237.165 101.254C237.291 101.851 237.503 102.345 237.802 102.735C238.112 103.125 238.514 103.412 239.007 103.596C239.501 103.78 240.121 103.872 240.867 103.872H245.258V105.18H240.333Z" fill="white"/>
<path d="M251.52 105.18V94.4352H246.647V93.1265H257.995V94.4352H253.122V105.18H251.52Z" fill="white"/>
<path d="M261.501 102.976C261.501 103.309 261.547 103.544 261.639 103.682C261.731 103.809 261.949 103.872 262.293 103.872H266.667C267.345 103.872 267.804 103.711 268.045 103.39C268.297 103.068 268.424 102.546 268.424 101.823C268.424 101.513 268.401 101.231 268.355 100.979C268.309 100.726 268.223 100.508 268.096 100.324C267.982 100.141 267.815 100.003 267.597 99.9111C267.39 99.8078 267.126 99.7561 266.805 99.7561H261.501V102.976ZM261.501 98.4474H266.616C266.949 98.4474 267.218 98.4072 267.425 98.3269C267.643 98.2465 267.81 98.126 267.924 97.9653C268.051 97.7931 268.137 97.5807 268.183 97.3281C268.229 97.0641 268.251 96.7484 268.251 96.381C268.251 95.7956 268.148 95.3249 267.942 94.969C267.746 94.6132 267.345 94.4352 266.736 94.4352H262.276C261.989 94.4352 261.788 94.4926 261.674 94.6074C261.559 94.7107 261.501 94.9116 261.501 95.2101V98.4474ZM268.269 99.1018C268.923 99.1936 269.388 99.4577 269.664 99.8939C269.939 100.33 270.077 100.996 270.077 101.891C270.077 102.339 270.037 102.764 269.956 103.166C269.887 103.556 269.755 103.9 269.56 104.199C269.376 104.497 269.112 104.738 268.768 104.922C268.424 105.094 267.987 105.18 267.459 105.18H261.605C261.364 105.18 261.134 105.157 260.916 105.111C260.709 105.066 260.531 104.979 260.382 104.853C260.233 104.727 260.112 104.555 260.02 104.337C259.94 104.118 259.9 103.843 259.9 103.51V94.8313C259.9 93.6948 260.428 93.1265 261.484 93.1265H267.339C268.257 93.1265 268.917 93.4078 269.319 93.9703C269.721 94.5328 269.922 95.3421 269.922 96.3983C269.922 96.7312 269.893 97.0469 269.836 97.3454C269.79 97.6438 269.704 97.9136 269.577 98.1547C269.463 98.3843 269.296 98.5794 269.078 98.7402C268.86 98.8894 268.59 98.987 268.269 99.0329V99.1018Z" fill="white"/>
<path d="M282.036 105.18L282.088 95.1757C282.088 95.0953 282.082 95.0149 282.071 94.9346C282.059 94.8427 282.019 94.7968 281.95 94.7968C281.893 94.7968 281.818 94.8542 281.726 94.969C281.634 95.0723 281.542 95.1929 281.451 95.3306L275.871 104.233C275.78 104.383 275.682 104.526 275.579 104.664C275.487 104.79 275.378 104.905 275.251 105.008C275.137 105.1 274.999 105.175 274.838 105.232C274.677 105.289 274.477 105.318 274.236 105.318C273.891 105.318 273.627 105.255 273.443 105.129C273.26 105.002 273.122 104.853 273.03 104.681C272.938 104.497 272.881 104.308 272.858 104.113C272.846 103.906 272.841 103.734 272.841 103.596V93.1265H274.442L274.408 102.976C274.408 103.137 274.413 103.269 274.425 103.372C274.436 103.464 274.488 103.51 274.58 103.51C274.649 103.51 274.712 103.476 274.769 103.407C274.827 103.326 274.884 103.24 274.942 103.148L280.435 94.2975C280.722 93.8268 280.991 93.4939 281.244 93.2987C281.497 93.0921 281.812 92.9888 282.191 92.9888C282.547 92.9888 282.822 93.0634 283.018 93.2126C283.213 93.3618 283.356 93.5398 283.448 93.7464C283.54 93.9416 283.592 94.1425 283.603 94.3491C283.626 94.5558 283.638 94.7165 283.638 94.8313V105.18H282.036Z" fill="white"/>
<path d="M296.712 105.18H295.111V95.2618C295.111 94.9288 295.036 94.7107 294.887 94.6074C294.738 94.4926 294.525 94.4352 294.25 94.4352H289.962C289.56 94.4352 289.233 94.4869 288.981 94.5902C288.74 94.6935 288.55 94.8485 288.412 95.0551C288.286 95.2503 288.2 95.4914 288.154 95.7784C288.12 96.0654 288.102 96.3983 288.102 96.7771C288.102 97.1445 288.114 97.4831 288.137 97.7931C288.171 98.103 288.24 98.3728 288.344 98.6024C288.458 98.8205 288.619 98.9927 288.826 99.119C289.044 99.2453 289.337 99.3084 289.704 99.3084H292.648C293.131 99.3084 293.372 99.5093 293.372 99.9111V100.187C293.372 100.324 293.32 100.462 293.217 100.6C293.125 100.726 293.027 100.835 292.924 100.927L288.309 105.18H286.174L291.116 100.703V100.617H289.17C288.653 100.617 288.217 100.525 287.861 100.342C287.517 100.158 287.236 99.8996 287.018 99.5667C286.811 99.2338 286.662 98.832 286.57 98.3613C286.478 97.8792 286.432 97.3511 286.432 96.7771C286.432 96.2146 286.478 95.7095 286.57 95.2618C286.673 94.8141 286.834 94.4352 287.052 94.1253C287.282 93.8038 287.586 93.557 287.965 93.3848C288.344 93.2126 288.808 93.1265 289.359 93.1265H294.939C295.513 93.1265 295.949 93.27 296.247 93.557C296.557 93.8325 296.712 94.2975 296.712 94.9518V105.18Z" fill="white"/>
</g>
</svg>
