<svg width="350" height="116" viewBox="0 0 350 116" fill="none" xmlns="http://www.w3.org/2000/svg">
<g id="image_infogr_07">
<path fill-rule="evenodd" clip-rule="evenodd" d="M62.0295 111.592V88.5505H77.4392V94.2741C77.4392 95.3014 78.3198 96.1819 79.3471 96.1819C80.3744 96.1819 81.255 95.3014 81.255 94.2741V88.5505H85.0707V94.2741C85.0707 95.3014 85.9513 96.1819 86.9786 96.1819C88.0059 96.1819 88.8865 95.3014 88.8865 94.2741V88.5505H92.7022V94.2741C92.7022 95.3014 93.5828 96.1819 94.6101 96.1819C95.6374 96.1819 96.518 95.3014 96.518 94.2741V88.5505H100.334V94.2741C100.334 95.3014 101.214 96.1819 102.242 96.1819C103.269 96.1819 104.149 95.3014 104.149 94.2741V88.5505H111.781V103.96H86.8318C85.8045 103.96 84.924 104.841 84.924 105.868C84.924 106.895 85.8045 107.776 86.8318 107.776H111.781V111.592H62.0295ZM90.9411 11.6484C92.9957 11.6484 94.7569 13.4096 94.7569 15.4642C94.7569 17.5188 92.9957 19.2799 90.9411 19.2799C88.8865 19.2799 87.1254 17.5188 87.1254 15.4642C87.1254 13.4096 88.7397 11.6484 90.9411 11.6484ZM90.9411 23.2425C95.1971 23.2425 98.5726 19.867 98.5726 15.611C98.5726 11.3549 95.1971 7.97946 90.9411 7.97946C86.6851 7.97946 83.1629 11.2082 83.1629 15.4642C83.1629 19.7202 86.6851 23.2425 90.9411 23.2425ZM4.35298 107.776V103.96H58.2137V107.776H4.35298ZM4.35298 96.3287H58.2137V100.144H4.35298V96.3287ZM77.4392 13.5563V84.7347H104.296V13.5563C104.296 8.27298 100.04 3.87019 94.6101 3.87019H86.9786C81.6953 4.01695 77.4392 8.27298 77.4392 13.5563ZM42.804 28.9661V17.3721H73.6235V28.9661H42.804ZM38.9882 36.5976H23.5785V13.5563C23.5785 12.529 24.459 11.6484 25.4864 11.6484H37.0804C38.1077 11.6484 38.9882 12.529 38.9882 13.5563V36.5976ZM33.2646 46.2837H29.4489V40.5601H33.2646V46.2837ZM40.8961 55.8231H21.6706V50.0995H40.8961V55.8231ZM40.8961 76.0759L37.0804 79.0111V65.5092C37.0804 64.4819 36.1998 63.6013 35.1725 63.6013H27.3942C26.3669 63.6013 25.4864 64.4819 25.4864 65.5092V79.0111L21.6706 76.0759V59.7856H40.8961V76.0759ZM113.982 84.7347H108.259V13.5563C108.259 6.07158 102.242 0.0544434 94.7569 0.0544434H87.1254C79.6406 0.0544434 73.6235 6.07158 73.6235 13.5563H42.804C42.804 10.3276 40.1623 7.8327 37.0804 7.8327H25.4864C22.2576 7.8327 19.7627 10.4744 19.7627 13.5563V38.5054C19.7627 39.5328 20.6433 40.4133 21.6706 40.4133H25.4864V46.1369H19.7627C18.7354 46.1369 17.8549 47.0175 17.8549 48.0448V76.8097C17.8549 77.3967 18.1484 77.9838 18.5887 78.2773L26.2202 84.0009C26.8072 84.4412 27.541 84.4412 28.2748 84.1477C28.8618 83.8541 29.3021 83.1204 29.3021 82.3866V67.4171H33.2646V82.8268C33.2646 83.5606 33.7049 84.2944 34.2919 84.588C34.879 84.8815 35.7595 84.8815 36.3466 84.4412L43.9781 78.7176C44.4183 78.2773 44.7119 77.837 44.7119 77.25V48.1916C44.7119 47.1643 43.8313 46.2837 42.804 46.2837H37.0804V40.5601H40.8961C41.9234 40.5601 42.804 39.6795 42.804 38.6522V32.9286H73.6235V84.8815H60.1216C59.0943 84.8815 58.2137 85.762 58.2137 86.7893V92.3662H2.44511C1.41779 92.3662 0.537231 93.2468 0.537231 94.2741V109.684C0.537231 110.711 1.41779 111.592 2.44511 111.592H58.2137V113.5C58.2137 114.527 59.0943 115.407 60.1216 115.407H113.982C115.01 115.407 115.89 114.527 115.89 113.5V86.6426C115.89 85.6153 115.01 84.7347 113.982 84.7347Z" fill="white"/>
<path d="M141.376 47.8002L163.354 12.9849C163.813 12.2753 164.043 11.7326 164.043 11.3569C164.043 10.8142 163.605 10.5429 162.728 10.5429H139.372V3.96803H168.238C170.117 3.96803 171.39 4.38548 172.058 5.22038C172.726 6.05528 173.06 7.16152 173.06 8.5391C173.06 10.2506 172.559 11.9413 171.557 13.6111L150.58 47.8002H141.376Z" fill="white"/>
<path d="M140.491 80.6744V70.3253C140.491 69.6824 140.64 69.2404 140.939 68.9993C141.237 68.7468 141.651 68.6205 142.179 68.6205H148.912C149.44 68.6205 149.853 68.7468 150.151 68.9993C150.461 69.2404 150.616 69.6824 150.616 70.3253V80.6744H149.015V70.7385C149.015 70.4401 148.963 70.2334 148.86 70.1186C148.757 69.9923 148.538 69.9292 148.206 69.9292H142.885C142.552 69.9292 142.334 69.9923 142.23 70.1186C142.138 70.2334 142.092 70.4401 142.092 70.7385V80.6744H140.491Z" fill="white"/>
<path d="M153.634 80.6744V70.2392C153.634 69.6192 153.771 69.1945 154.047 68.9649C154.334 68.7353 154.736 68.6205 155.252 68.6205H160.78C161.388 68.6205 161.888 68.7066 162.278 68.8788C162.68 69.051 162.996 69.2978 163.225 69.6192C163.466 69.9292 163.633 70.3138 163.724 70.773C163.816 71.2322 163.862 71.743 163.862 72.3055C163.862 72.9025 163.816 73.4363 163.724 73.907C163.633 74.3662 163.466 74.7565 163.225 75.0779C162.996 75.3994 162.68 75.6462 162.278 75.8184C161.888 75.9906 161.388 76.0767 160.78 76.0767H155.235V80.6744H153.634ZM160.212 74.768C160.636 74.768 160.975 74.7163 161.228 74.613C161.492 74.4982 161.693 74.3375 161.83 74.1308C161.98 73.9242 162.077 73.6716 162.123 73.3732C162.169 73.0632 162.192 72.7073 162.192 72.3055C162.192 71.9152 162.163 71.5766 162.106 71.2896C162.06 70.9911 161.962 70.7443 161.813 70.5491C161.675 70.3425 161.474 70.1875 161.21 70.0842C160.958 69.9809 160.625 69.9292 160.212 69.9292H156.01C155.666 69.9292 155.448 69.9923 155.356 70.1186C155.275 70.2449 155.235 70.4458 155.235 70.7213V74.768H160.212Z" fill="white"/>
<path d="M172.038 68.4827C173.152 68.4827 174.087 68.5918 174.845 68.8099C175.614 69.0166 176.234 69.361 176.705 69.8431C177.175 70.3253 177.514 70.9624 177.721 71.7545C177.939 72.5351 178.048 73.4994 178.048 74.6474C178.048 75.8069 177.939 76.7827 177.721 77.5748C177.514 78.3554 177.175 78.9868 176.705 79.469C176.234 79.9511 175.614 80.2955 174.845 80.5022C174.087 80.7088 173.152 80.8121 172.038 80.8121C170.936 80.8121 170 80.7088 169.231 80.5022C168.474 80.2955 167.854 79.9511 167.371 79.469C166.901 78.9868 166.556 78.3554 166.338 77.5748C166.132 76.7827 166.028 75.8069 166.028 74.6474C166.028 73.4994 166.132 72.5351 166.338 71.7545C166.556 70.9624 166.901 70.3253 167.371 69.8431C167.854 69.361 168.474 69.0166 169.231 68.8099C170 68.5918 170.936 68.4827 172.038 68.4827ZM167.699 74.6474C167.699 75.5658 167.762 76.335 167.888 76.9549C168.026 77.5748 168.255 78.0742 168.577 78.453C168.91 78.8318 169.352 79.1016 169.903 79.2623C170.465 79.423 171.177 79.5034 172.038 79.5034C172.899 79.5034 173.605 79.423 174.156 79.2623C174.719 79.1016 175.161 78.8318 175.482 78.453C175.815 78.0742 176.044 77.5748 176.171 76.9549C176.309 76.335 176.377 75.5658 176.377 74.6474C176.377 73.7405 176.309 72.9771 176.171 72.3572C176.044 71.7373 175.815 71.2379 175.482 70.8591C175.161 70.4802 174.719 70.2105 174.156 70.0498C173.605 69.8775 172.899 69.7915 172.038 69.7915C171.177 69.7915 170.465 69.8775 169.903 70.0498C169.352 70.2105 168.91 70.4802 168.577 70.8591C168.255 71.2379 168.026 71.7373 167.888 72.3572C167.762 72.9771 167.699 73.7405 167.699 74.6474Z" fill="white"/>
<path d="M189.921 80.6744L189.973 70.6697C189.973 70.5893 189.967 70.5089 189.956 70.4286C189.944 70.3367 189.904 70.2908 189.835 70.2908C189.778 70.2908 189.703 70.3482 189.612 70.463C189.52 70.5663 189.428 70.6869 189.336 70.8246L183.757 79.7273C183.665 79.8765 183.567 80.02 183.464 80.1578C183.372 80.284 183.263 80.3988 183.137 80.5022C183.022 80.594 182.884 80.6686 182.724 80.726C182.563 80.7834 182.362 80.8121 182.121 80.8121C181.777 80.8121 181.512 80.749 181.329 80.6227C181.145 80.4964 181.007 80.3472 180.916 80.175C180.824 79.9913 180.766 79.8019 180.743 79.6067C180.732 79.4001 180.726 79.2279 180.726 79.0901V68.6205H182.328L182.293 78.4702C182.293 78.6309 182.299 78.763 182.31 78.8663C182.322 78.9581 182.373 79.004 182.465 79.004C182.534 79.004 182.597 78.9696 182.655 78.9007C182.712 78.8204 182.77 78.7343 182.827 78.6424L188.32 69.7915C188.607 69.3208 188.877 68.9879 189.129 68.7927C189.382 68.5861 189.698 68.4827 190.076 68.4827C190.432 68.4827 190.708 68.5574 190.903 68.7066C191.098 68.8558 191.242 69.0338 191.333 69.2404C191.425 69.4356 191.477 69.6365 191.488 69.8431C191.511 70.0498 191.523 70.2105 191.523 70.3253V80.6744H189.921Z" fill="white"/>
<path d="M201.774 74.5958C202.428 74.6876 202.904 74.9516 203.203 75.3879C203.513 75.8241 203.668 76.4899 203.668 77.3854C203.668 77.8331 203.628 78.2578 203.547 78.6596C203.467 79.05 203.323 79.3944 203.117 79.6928C202.91 79.9913 202.623 80.2324 202.256 80.4161C201.888 80.5883 201.418 80.6744 200.844 80.6744H194.197V79.3657H200.052C200.798 79.3657 201.309 79.2049 201.584 78.8835C201.86 78.5506 201.998 78.0282 201.998 77.3165C201.998 77.0065 201.969 76.7253 201.911 76.4727C201.866 76.2202 201.779 76.0021 201.653 75.8184C201.527 75.6347 201.349 75.4969 201.119 75.4051C200.901 75.3018 200.62 75.2501 200.276 75.2501H194.438V73.9414H200.052C200.706 73.9414 201.154 73.7807 201.395 73.4593C201.636 73.1263 201.756 72.5983 201.756 71.875C201.756 71.2436 201.653 70.7615 201.447 70.4286C201.24 70.0957 200.809 69.9292 200.155 69.9292H194.266V68.6205H200.758C201.722 68.6205 202.405 68.8903 202.807 69.4298C203.22 69.9579 203.427 70.75 203.427 71.8062C203.427 72.1161 203.404 72.4203 203.358 72.7188C203.323 73.0173 203.243 73.2871 203.117 73.5281C203.002 73.7692 202.836 73.9816 202.617 74.1653C202.399 74.3375 202.118 74.458 201.774 74.5269V74.5958Z" fill="white"/>
<path d="M208.024 78.4702C208.024 78.8031 208.07 79.0385 208.162 79.1762C208.254 79.3025 208.472 79.3657 208.816 79.3657H213.19C213.867 79.3657 214.327 79.2049 214.568 78.8835C214.82 78.5621 214.947 78.0397 214.947 77.3165C214.947 77.0065 214.924 76.7253 214.878 76.4727C214.832 76.2202 214.746 76.0021 214.619 75.8184C214.505 75.6347 214.338 75.4969 214.12 75.4051C213.913 75.3018 213.649 75.2501 213.328 75.2501H208.024V78.4702ZM208.024 73.9414H213.139C213.471 73.9414 213.741 73.9012 213.948 73.8209C214.166 73.7405 214.332 73.62 214.447 73.4593C214.573 73.2871 214.66 73.0747 214.706 72.8221C214.751 72.5581 214.774 72.2424 214.774 71.875C214.774 71.2896 214.671 70.8189 214.464 70.463C214.269 70.1071 213.867 69.9292 213.259 69.9292H208.799C208.512 69.9292 208.311 69.9866 208.196 70.1014C208.082 70.2047 208.024 70.4056 208.024 70.7041V73.9414ZM214.792 74.5958C215.446 74.6876 215.911 74.9516 216.186 75.3879C216.462 75.8241 216.6 76.4899 216.6 77.3854C216.6 77.8331 216.56 78.2578 216.479 78.6596C216.41 79.05 216.278 79.3944 216.083 79.6928C215.899 79.9913 215.635 80.2324 215.291 80.4161C214.947 80.5883 214.51 80.6744 213.982 80.6744H208.128C207.886 80.6744 207.657 80.6514 207.439 80.6055C207.232 80.5596 207.054 80.4735 206.905 80.3472C206.756 80.2209 206.635 80.0487 206.543 79.8306C206.463 79.6125 206.423 79.337 206.423 79.004V70.3253C206.423 69.1888 206.951 68.6205 208.007 68.6205H213.862C214.78 68.6205 215.44 68.9018 215.842 69.4643C216.244 70.0268 216.445 70.8361 216.445 71.8923C216.445 72.2252 216.416 72.5409 216.359 72.8393C216.313 73.1378 216.227 73.4076 216.1 73.6487C215.986 73.8783 215.819 74.0734 215.601 74.2342C215.383 74.3834 215.113 74.481 214.792 74.5269V74.5958Z" fill="white"/>
<path d="M225.029 68.4827C226.142 68.4827 227.078 68.5918 227.836 68.8099C228.605 69.0166 229.225 69.361 229.695 69.8431C230.166 70.3253 230.505 70.9624 230.711 71.7545C230.93 72.5351 231.039 73.4994 231.039 74.6474C231.039 75.8069 230.93 76.7827 230.711 77.5748C230.505 78.3554 230.166 78.9868 229.695 79.469C229.225 79.9511 228.605 80.2955 227.836 80.5022C227.078 80.7088 226.142 80.8121 225.029 80.8121C223.927 80.8121 222.991 80.7088 222.222 80.5022C221.464 80.2955 220.845 79.9511 220.362 79.469C219.892 78.9868 219.547 78.3554 219.329 77.5748C219.123 76.7827 219.019 75.8069 219.019 74.6474C219.019 73.4994 219.123 72.5351 219.329 71.7545C219.547 70.9624 219.892 70.3253 220.362 69.8431C220.845 69.361 221.464 69.0166 222.222 68.8099C222.991 68.5918 223.927 68.4827 225.029 68.4827ZM220.69 74.6474C220.69 75.5658 220.753 76.335 220.879 76.9549C221.017 77.5748 221.246 78.0742 221.568 78.453C221.901 78.8318 222.343 79.1016 222.894 79.2623C223.456 79.423 224.168 79.5034 225.029 79.5034C225.89 79.5034 226.596 79.423 227.147 79.2623C227.709 79.1016 228.151 78.8318 228.473 78.453C228.806 78.0742 229.035 77.5748 229.162 76.9549C229.299 76.335 229.368 75.5658 229.368 74.6474C229.368 73.7405 229.299 72.9771 229.162 72.3572C229.035 71.7373 228.806 71.2379 228.473 70.8591C228.151 70.4802 227.709 70.2105 227.147 70.0498C226.596 69.8775 225.89 69.7915 225.029 69.7915C224.168 69.7915 223.456 69.8775 222.894 70.0498C222.343 70.2105 221.901 70.4802 221.568 70.8591C221.246 71.2379 221.017 71.7373 220.879 72.3572C220.753 72.9771 220.69 73.7405 220.69 74.6474Z" fill="white"/>
<path d="M233.703 80.6744C233.405 80.6744 233.21 80.7375 233.118 80.8638C233.037 80.9901 232.997 81.1967 232.997 81.4837V82.999H231.396V81.0532C231.396 80.4103 231.528 79.9683 231.792 79.7273C232.067 79.4862 232.469 79.3657 232.997 79.3657H233.376L237.646 69.7226C237.842 69.2748 238.066 68.9592 238.318 68.7755C238.582 68.5803 238.898 68.4827 239.265 68.4827C239.667 68.4827 239.988 68.5803 240.229 68.7755C240.471 68.9592 240.689 69.2748 240.884 69.7226L245.137 79.3657H245.533C246.061 79.3657 246.457 79.4862 246.721 79.7273C246.997 79.9683 247.135 80.4103 247.135 81.0532V82.999H245.533V81.4837C245.533 81.1967 245.487 80.9901 245.395 80.8638C245.304 80.7375 245.108 80.6744 244.81 80.6744H233.703ZM235.029 79.3657H243.484L239.61 70.4802C239.552 70.3654 239.5 70.2621 239.455 70.1703C239.409 70.0784 239.34 70.0325 239.248 70.0325C239.168 70.0325 239.099 70.0842 239.041 70.1875C238.995 70.2793 238.949 70.3769 238.904 70.4802L235.029 79.3657Z" fill="white"/>
<path d="M252.519 80.6744C251.509 80.6744 250.676 80.5194 250.022 80.2094C249.379 79.888 248.868 79.4575 248.489 78.9179C248.11 78.3669 247.846 77.724 247.697 76.9893C247.559 76.2546 247.491 75.4682 247.491 74.6302C247.491 73.7922 247.559 73.0116 247.697 72.2883C247.846 71.5536 248.11 70.9165 248.489 70.3769C248.88 69.8259 249.402 69.3954 250.056 69.0854C250.722 68.7755 251.572 68.6205 252.605 68.6205H257.271V69.9292H253.139C252.381 69.9292 251.75 70.021 251.244 70.2047C250.739 70.3884 250.332 70.6754 250.022 71.0657C249.712 71.4445 249.488 71.9324 249.35 72.5294C249.224 73.1149 249.161 73.8151 249.161 74.6302C249.161 75.4453 249.224 76.1513 249.35 76.7482C249.477 77.3452 249.689 77.8388 249.987 78.2291C250.297 78.6195 250.699 78.9065 251.193 79.0901C251.686 79.2738 252.306 79.3657 253.053 79.3657H257.444V80.6744H252.519Z" fill="white"/>
<path d="M263.706 80.6744V69.9292H258.833V68.6205H270.18V69.9292H265.307V80.6744H263.706Z" fill="white"/>
<path d="M273.687 78.4702C273.687 78.8031 273.733 79.0385 273.825 79.1762C273.916 79.3025 274.135 79.3657 274.479 79.3657H278.853C279.53 79.3657 279.989 79.2049 280.23 78.8835C280.483 78.5621 280.609 78.0397 280.609 77.3165C280.609 77.0065 280.586 76.7253 280.54 76.4727C280.494 76.2202 280.408 76.0021 280.282 75.8184C280.167 75.6347 280.001 75.4969 279.783 75.4051C279.576 75.3018 279.312 75.2501 278.991 75.2501H273.687V78.4702ZM273.687 73.9414H278.801C279.134 73.9414 279.404 73.9012 279.611 73.8209C279.829 73.7405 279.995 73.62 280.11 73.4593C280.236 73.2871 280.322 73.0747 280.368 72.8221C280.414 72.5581 280.437 72.2424 280.437 71.875C280.437 71.2896 280.334 70.8189 280.127 70.463C279.932 70.1071 279.53 69.9292 278.922 69.9292H274.462C274.175 69.9292 273.974 69.9866 273.859 70.1014C273.744 70.2047 273.687 70.4056 273.687 70.7041V73.9414ZM280.454 74.5958C281.109 74.6876 281.574 74.9516 281.849 75.3879C282.125 75.8241 282.262 76.4899 282.262 77.3854C282.262 77.8331 282.222 78.2578 282.142 78.6596C282.073 79.05 281.941 79.3944 281.746 79.6928C281.562 79.9913 281.298 80.2324 280.954 80.4161C280.609 80.5883 280.173 80.6744 279.645 80.6744H273.79C273.549 80.6744 273.32 80.6514 273.101 80.6055C272.895 80.5596 272.717 80.4735 272.568 80.3472C272.418 80.2209 272.298 80.0487 272.206 79.8306C272.126 79.6125 272.085 79.337 272.085 79.004V70.3253C272.085 69.1888 272.614 68.6205 273.67 68.6205H279.524C280.443 68.6205 281.103 68.9018 281.505 69.4643C281.906 70.0268 282.107 70.8361 282.107 71.8923C282.107 72.2252 282.079 72.5409 282.021 72.8393C281.975 73.1378 281.889 73.4076 281.763 73.6487C281.648 73.8783 281.482 74.0734 281.264 74.2342C281.045 74.3834 280.776 74.481 280.454 74.5269V74.5958Z" fill="white"/>
<path d="M286.714 80.6744C286.186 80.6744 285.772 80.5423 285.474 80.2783C285.176 80.0143 285.026 79.578 285.026 78.9696V70.3253C285.026 69.6824 285.176 69.2404 285.474 68.9993C285.772 68.7468 286.186 68.6205 286.714 68.6205H294.17V69.9292H287.42C287.087 69.9292 286.869 69.9923 286.765 70.1186C286.674 70.2334 286.628 70.4401 286.628 70.7385V73.8553H293.998V75.164H286.628V78.5391C286.628 78.8376 286.674 79.05 286.765 79.1762C286.869 79.3025 287.087 79.3657 287.42 79.3657H294.239V80.6744H286.714Z" fill="white"/>
<path d="M306.985 80.6744H305.384V75.164H298.341V80.6744H296.74V68.6205H298.341V73.8553H305.384V68.6205H306.985V80.6744Z" fill="white"/>
<path d="M320.246 80.6744H318.644V75.164H311.601V80.6744H310V68.6205H311.601V73.8553H318.644V68.6205H320.246V80.6744Z" fill="white"/>
<path d="M334.711 80.6744V68.6205H336.313V80.6744H334.711ZM324.862 68.6205V73.7692H330.613C331.153 73.7692 331.595 73.8553 331.939 74.0275C332.283 74.1997 332.553 74.4408 332.748 74.7507C332.955 75.0492 333.098 75.4108 333.179 75.8356C333.259 76.2489 333.299 76.7023 333.299 77.196C333.299 77.6896 333.259 78.1488 333.179 78.5735C333.11 78.9983 332.972 79.3656 332.766 79.6756C332.57 79.9856 332.301 80.2324 331.956 80.4161C331.612 80.5883 331.176 80.6744 330.647 80.6744H324.948C324.443 80.6744 324.035 80.5596 323.725 80.33C323.415 80.0889 323.26 79.6641 323.26 79.0557V68.6205H324.862ZM324.862 75.0779V78.5391C324.862 78.8376 324.908 79.05 324.999 79.1762C325.103 79.3025 325.321 79.3657 325.654 79.3657H329.89C330.246 79.3657 330.533 79.3197 330.751 79.2279C330.98 79.1246 331.158 78.9811 331.285 78.7974C331.422 78.6137 331.514 78.3899 331.56 78.1258C331.606 77.8503 331.629 77.5404 331.629 77.196C331.629 76.8516 331.606 76.5473 331.56 76.2833C331.514 76.0193 331.428 75.8012 331.302 75.629C331.176 75.4453 330.998 75.3075 330.768 75.2157C330.55 75.1238 330.257 75.0779 329.89 75.0779H324.862Z" fill="white"/>
<path d="M347.233 80.6744L343.599 75.6978L339.932 80.6744H338.037L342.687 74.5613L338.175 68.6205H340.069L343.582 73.4248L347.078 68.6205H348.989L344.478 74.5613L349.127 80.6744H347.233Z" fill="white"/>
<path d="M140.491 104.939V94.5895C140.491 93.9466 140.64 93.5047 140.939 93.2636C141.237 93.011 141.651 92.8848 142.179 92.8848H148.912C149.44 92.8848 149.853 93.011 150.151 93.2636C150.461 93.5047 150.616 93.9466 150.616 94.5895V104.939H149.015V95.0028C149.015 94.7043 148.963 94.4977 148.86 94.3829C148.757 94.2566 148.538 94.1935 148.206 94.1935H142.885C142.552 94.1935 142.334 94.2566 142.23 94.3829C142.138 94.4977 142.092 94.7043 142.092 95.0028V104.939H140.491Z" fill="white"/>
<path d="M153.634 104.939V94.5034C153.634 93.8835 153.771 93.4587 154.047 93.2291C154.334 92.9995 154.736 92.8848 155.252 92.8848H160.78C161.388 92.8848 161.888 92.9708 162.278 93.143C162.68 93.3152 162.996 93.5621 163.225 93.8835C163.466 94.1935 163.633 94.578 163.724 95.0372C163.816 95.4964 163.862 96.0073 163.862 96.5698C163.862 97.1667 163.816 97.7005 163.724 98.1712C163.633 98.6304 163.466 99.0207 163.225 99.3422C162.996 99.6636 162.68 99.9104 162.278 100.083C161.888 100.255 161.388 100.341 160.78 100.341H155.235V104.939H153.634ZM160.212 99.0322C160.636 99.0322 160.975 98.9806 161.228 98.8772C161.492 98.7624 161.693 98.6017 161.83 98.3951C161.98 98.1884 162.077 97.9359 162.123 97.6374C162.169 97.3275 162.192 96.9716 162.192 96.5698C162.192 96.1795 162.163 95.8408 162.106 95.5538C162.06 95.2553 161.962 95.0085 161.813 94.8134C161.675 94.6067 161.474 94.4518 161.21 94.3484C160.958 94.2451 160.625 94.1935 160.212 94.1935H156.01C155.666 94.1935 155.448 94.2566 155.356 94.3829C155.275 94.5091 155.235 94.71 155.235 94.9856V99.0322H160.212Z" fill="white"/>
<path d="M168.06 104.939C167.532 104.939 167.119 104.807 166.82 104.543C166.522 104.279 166.373 103.842 166.373 103.234V94.5895C166.373 93.9466 166.522 93.5047 166.82 93.2636C167.119 93.011 167.532 92.8848 168.06 92.8848H175.516V94.1935H168.766C168.433 94.1935 168.215 94.2566 168.112 94.3829C168.02 94.4977 167.974 94.7043 167.974 95.0028V98.1196H175.344V99.4283H167.974V102.803C167.974 103.102 168.02 103.314 168.112 103.44C168.215 103.567 168.433 103.63 168.766 103.63H175.585V104.939H168.06Z" fill="white"/>
<path d="M179.266 104.939C178.968 104.939 178.772 105.002 178.681 105.128C178.6 105.254 178.56 105.461 178.56 105.748V107.263H176.959V105.317C176.959 104.675 177.091 104.233 177.355 103.992C177.63 103.75 178.032 103.63 178.56 103.63H178.939L183.209 93.9868C183.405 93.5391 183.628 93.2234 183.881 93.0397C184.145 92.8446 184.461 92.747 184.828 92.747C185.23 92.747 185.551 92.8446 185.792 93.0397C186.033 93.2234 186.252 93.5391 186.447 93.9868L190.7 103.63H191.096C191.624 103.63 192.02 103.75 192.284 103.992C192.56 104.233 192.697 104.675 192.697 105.317V107.263H191.096V105.748C191.096 105.461 191.05 105.254 190.958 105.128C190.866 105.002 190.671 104.939 190.373 104.939H179.266ZM180.592 103.63H189.047L185.172 94.7445C185.115 94.6297 185.063 94.5264 185.017 94.4345C184.972 94.3427 184.903 94.2968 184.811 94.2968C184.73 94.2968 184.662 94.3484 184.604 94.4517C184.558 94.5436 184.512 94.6412 184.466 94.7445L180.592 103.63Z" fill="white"/>
<path d="M194.255 104.939V94.5895C194.255 93.9466 194.405 93.5047 194.703 93.2636C195.002 93.011 195.415 92.8848 195.943 92.8848H202.676C203.204 92.8848 203.617 93.011 203.916 93.2636C204.226 93.5047 204.381 93.9466 204.381 94.5895V104.939H202.779V95.0028C202.779 94.7043 202.728 94.4977 202.624 94.3829C202.521 94.2566 202.303 94.1935 201.97 94.1935H196.649C196.316 94.1935 196.098 94.2566 195.995 94.3829C195.903 94.4977 195.857 94.7043 195.857 95.0028V104.939H194.255Z" fill="white"/>
<path d="M207.398 104.939V94.5034C207.398 93.8835 207.536 93.4587 207.811 93.2291C208.098 92.9995 208.5 92.8848 209.017 92.8848H214.544C215.153 92.8848 215.652 92.9708 216.042 93.143C216.444 93.3152 216.76 93.5621 216.99 93.8835C217.231 94.1935 217.397 94.578 217.489 95.0372C217.581 95.4964 217.627 96.0073 217.627 96.5698C217.627 97.1667 217.581 97.7005 217.489 98.1712C217.397 98.6304 217.231 99.0207 216.99 99.3422C216.76 99.6636 216.444 99.9104 216.042 100.083C215.652 100.255 215.153 100.341 214.544 100.341H209V104.939H207.398ZM213.976 99.0322C214.401 99.0322 214.74 98.9806 214.992 98.8772C215.256 98.7624 215.457 98.6017 215.595 98.3951C215.744 98.1884 215.842 97.9359 215.887 97.6374C215.933 97.3275 215.956 96.9716 215.956 96.5698C215.956 96.1795 215.928 95.8408 215.87 95.5538C215.824 95.2553 215.727 95.0085 215.578 94.8134C215.44 94.6067 215.239 94.4518 214.975 94.3484C214.722 94.2451 214.389 94.1935 213.976 94.1935H209.774C209.43 94.1935 209.212 94.2566 209.12 94.3829C209.04 94.5091 209 94.71 209 94.9856V99.0322H213.976Z" fill="white"/>
<path d="M229.333 104.939L229.384 94.9339C229.384 94.8535 229.378 94.7732 229.367 94.6928C229.355 94.601 229.315 94.5551 229.246 94.5551C229.189 94.5551 229.114 94.6125 229.023 94.7273C228.931 94.8306 228.839 94.9511 228.747 95.0889L223.168 103.992C223.076 104.141 222.978 104.284 222.875 104.422C222.783 104.548 222.674 104.663 222.548 104.766C222.433 104.858 222.295 104.933 222.135 104.99C221.974 105.048 221.773 105.076 221.532 105.076C221.188 105.076 220.924 105.013 220.74 104.887C220.556 104.761 220.418 104.611 220.327 104.439C220.235 104.256 220.177 104.066 220.154 103.871C220.143 103.664 220.137 103.492 220.137 103.354V92.8848H221.739L221.704 102.734C221.704 102.895 221.71 103.027 221.721 103.131C221.733 103.222 221.785 103.268 221.876 103.268C221.945 103.268 222.008 103.234 222.066 103.165C222.123 103.085 222.181 102.999 222.238 102.907L227.731 94.0557C228.018 93.585 228.288 93.2521 228.54 93.0569C228.793 92.8503 229.109 92.747 229.488 92.747C229.843 92.747 230.119 92.8216 230.314 92.9708C230.509 93.1201 230.653 93.298 230.745 93.5047C230.836 93.6998 230.888 93.9007 230.9 94.1074C230.923 94.314 230.934 94.4747 230.934 94.5895V104.939H229.333Z" fill="white"/>
<path d="M244.009 104.939H242.407V95.02C242.407 94.6871 242.333 94.469 242.183 94.3656C242.034 94.2508 241.822 94.1935 241.546 94.1935H237.259C236.857 94.1935 236.53 94.2451 236.277 94.3484C236.036 94.4518 235.847 94.6067 235.709 94.8134C235.583 95.0085 235.496 95.2496 235.451 95.5366C235.416 95.8236 235.399 96.1565 235.399 96.5353C235.399 96.9027 235.41 97.2414 235.433 97.5513C235.468 97.8613 235.537 98.131 235.64 98.3606C235.755 98.5788 235.915 98.751 236.122 98.8772C236.34 99.0035 236.633 99.0667 237 99.0667H239.945C240.427 99.0667 240.668 99.2675 240.668 99.6693V99.9449C240.668 100.083 240.616 100.22 240.513 100.358C240.421 100.484 240.324 100.593 240.22 100.685L235.606 104.939H233.47L238.412 100.461V100.375H236.467C235.95 100.375 235.514 100.284 235.158 100.1C234.813 99.9162 234.532 99.6579 234.314 99.325C234.107 98.992 233.958 98.5902 233.866 98.1196C233.774 97.6374 233.729 97.1093 233.729 96.5353C233.729 95.9728 233.774 95.4677 233.866 95.02C233.97 94.5723 234.13 94.1935 234.348 93.8835C234.578 93.5621 234.882 93.3152 235.261 93.143C235.64 92.9708 236.105 92.8848 236.656 92.8848H242.235C242.809 92.8848 243.245 93.0283 243.544 93.3152C243.854 93.5908 244.009 94.0557 244.009 94.71V104.939Z" fill="white"/>
<path d="M250.782 104.939V94.1935H245.908V92.8848H257.256V94.1935H252.383V104.939H250.782Z" fill="white"/>
<path d="M268.357 104.939L268.408 94.9339C268.408 94.8535 268.403 94.7732 268.391 94.6928C268.38 94.601 268.34 94.5551 268.271 94.5551C268.213 94.5551 268.139 94.6125 268.047 94.7273C267.955 94.8306 267.863 94.9511 267.771 95.0889L262.192 103.992C262.1 104.141 262.003 104.284 261.899 104.422C261.808 104.548 261.698 104.663 261.572 104.766C261.457 104.858 261.32 104.933 261.159 104.99C260.998 105.048 260.797 105.076 260.556 105.076C260.212 105.076 259.948 105.013 259.764 104.887C259.58 104.761 259.443 104.611 259.351 104.439C259.259 104.256 259.202 104.066 259.179 103.871C259.167 103.664 259.161 103.492 259.161 103.354V92.8848H260.763L260.728 102.734C260.728 102.895 260.734 103.027 260.746 103.131C260.757 103.222 260.809 103.268 260.901 103.268C260.97 103.268 261.033 103.234 261.09 103.165C261.147 103.085 261.205 102.999 261.262 102.907L266.755 94.0557C267.042 93.585 267.312 93.2521 267.565 93.0569C267.817 92.8503 268.133 92.747 268.512 92.747C268.868 92.747 269.143 92.8216 269.338 92.9708C269.533 93.1201 269.677 93.298 269.769 93.5047C269.861 93.6998 269.912 93.9007 269.924 94.1074C269.947 94.314 269.958 94.4747 269.958 94.5895V104.939H268.357Z" fill="white"/>
<path d="M282.172 104.939L282.224 94.9339C282.224 94.8535 282.218 94.7732 282.207 94.6928C282.195 94.601 282.155 94.5551 282.086 94.5551C282.029 94.5551 281.954 94.6125 281.862 94.7273C281.77 94.8306 281.678 94.9511 281.587 95.0889L276.007 103.992C275.916 104.141 275.818 104.284 275.715 104.422C275.623 104.548 275.514 104.663 275.387 104.766C275.273 104.858 275.135 104.933 274.974 104.99C274.814 105.048 274.613 105.076 274.372 105.076C274.027 105.076 273.763 105.013 273.579 104.887C273.396 104.761 273.258 104.611 273.166 104.439C273.074 104.256 273.017 104.066 272.994 103.871C272.982 103.664 272.977 103.492 272.977 103.354V92.8848H274.578L274.544 102.734C274.544 102.895 274.549 103.027 274.561 103.131C274.572 103.222 274.624 103.268 274.716 103.268C274.785 103.268 274.848 103.234 274.905 103.165C274.963 103.085 275.02 102.999 275.078 102.907L280.571 94.0557C280.858 93.585 281.127 93.2521 281.38 93.0569C281.633 92.8503 281.948 92.747 282.327 92.747C282.683 92.747 282.958 92.8216 283.154 92.9708C283.349 93.1201 283.492 93.298 283.584 93.5047C283.676 93.6998 283.728 93.9007 283.739 94.1074C283.762 94.314 283.774 94.4747 283.774 94.5895V104.939H282.172ZM278.349 91.335C278.763 91.335 279.124 91.2546 279.434 91.0939C279.756 90.9332 279.974 90.6577 280.089 90.2673H281.432C281.259 90.9906 280.921 91.5244 280.416 91.8688C279.922 92.2132 279.233 92.3854 278.349 92.3854C277.465 92.3854 276.771 92.2132 276.266 91.8688C275.761 91.5244 275.428 90.9906 275.267 90.2673H276.61C276.713 90.6577 276.926 90.9332 277.247 91.0939C277.569 91.2546 277.936 91.335 278.349 91.335Z" fill="white"/>
</g>
</svg>
