<svg width="318" height="118" viewBox="0 0 318 118" fill="none" xmlns="http://www.w3.org/2000/svg">
<g id="image_infogr_000000000000008">
<g id="logo70">
<path id="Vector" d="M29.5564 113.589C27.7082 113.601 25.8903 113.119 24.2899 112.195C22.6896 111.27 21.3646 109.936 20.4515 108.329C19.5385 106.722 19.0703 104.9 19.0953 103.052C19.1202 101.204 19.6373 99.396 20.5933 97.8142C21.3275 96.4442 22.4501 95.3217 23.8201 94.5876C25.4019 93.6315 27.2098 93.1144 29.0579 93.0895C30.906 93.0646 32.7274 93.5328 34.3344 94.4459C35.9414 95.3589 37.2759 96.6838 38.2006 98.2842C39.1253 99.8845 39.6065 101.702 39.595 103.551C39.595 106.308 38.4996 108.953 36.5498 110.902C34.5999 112.852 31.9554 113.948 29.1979 113.948L29.5564 113.589ZM121.338 101.758H43.8973C43.4811 98.7308 42.109 95.9156 39.9807 93.7229C37.8525 91.5302 35.0796 90.0746 32.0661 89.5683V14.2786C32.0661 10.5703 30.593 7.01379 27.9708 4.39158C25.3486 1.76938 21.792 0.296173 18.0836 0.296173H1.95013C-0.201002 2.08878 1.23304 4.23994 3.02565 4.23994H18.4423C21.1047 4.23994 23.6579 5.29757 25.5405 7.18017C27.4231 9.06278 28.4809 11.6162 28.4809 14.2786V88.8512C26.0002 89.1347 23.6366 90.061 21.6238 91.5385C19.611 93.0159 18.0187 94.9933 17.0046 97.2749C15.9905 99.5566 15.5899 102.063 15.842 104.547C16.0941 107.032 16.9904 109.407 18.4423 111.438C19.7687 113.681 21.779 115.441 24.1785 116.457C26.2343 117.363 28.4703 117.785 30.7146 117.691C32.9589 117.597 35.1518 116.991 37.1251 115.918C39.0984 114.844 40.7996 113.333 42.0979 111.5C43.3961 109.667 44.257 107.561 44.6143 105.343H123.489C124.923 103.551 123.489 101.399 121.697 101.399L121.338 101.758Z" fill="white"/>
<path id="Vector_2" d="M50.3536 49.7722H117.756V88.8511C117.756 89.1364 117.643 89.4099 117.441 89.6116C117.239 89.8134 116.965 89.9266 116.68 89.9266H51.0707C50.7854 89.9266 50.5117 89.8134 50.31 89.6116C50.1083 89.4099 49.9951 89.1364 49.9951 88.8511L50.3536 49.7722ZM62.9019 28.6195H81.9035V45.8285H51.7878L62.9019 28.6195ZM85.8474 28.2609H104.849L115.963 45.4699H85.8474V28.2609ZM51.0707 94.229H116.68C118.011 94.229 119.288 93.7001 120.229 92.7588C121.171 91.8175 121.7 90.5409 121.7 89.2097V47.9796H121.341L108.434 27.5438C107.955 26.8537 107.309 26.2952 106.558 25.9194C105.806 25.5435 104.972 25.3624 104.132 25.3927H63.6189C62.7791 25.3624 61.945 25.5435 61.1933 25.9194C60.4416 26.2952 59.7963 26.8537 59.3166 27.5438L46.4099 47.9796H46.0513V89.2097C46.0513 90.5409 46.5802 91.8175 47.5216 92.7588C48.4629 93.7001 49.7395 94.229 51.0707 94.229Z" fill="white"/>
<path id="Vector_3" d="M73.6569 66.2645H93.3756V71.6423H73.6569V66.2645ZM71.8643 74.869H95.1682C95.6436 74.869 96.0997 74.6801 96.4359 74.3439C96.772 74.0077 96.9608 73.5518 96.9608 73.0763V64.4718C96.9608 63.9964 96.772 63.5404 96.4359 63.2042C96.0997 62.868 95.6436 62.6792 95.1682 62.6792H71.8643C71.3888 62.6792 70.933 62.868 70.5968 63.2042C70.2607 63.5404 70.0717 63.9964 70.0717 64.4718V73.0763C70.0717 73.5518 70.2607 74.0077 70.5968 74.3439C70.933 74.6801 71.3888 74.869 71.8643 74.869Z" fill="white"/>
</g>
<g id="descr">
<g id="number">
<g id="number_2">
<path d="M149.56 44.5667L171.538 9.7514C171.998 9.04174 172.227 8.49905 172.227 8.12335C172.227 7.58066 171.789 7.30932 170.912 7.30932H147.556V0.734493H176.423C178.301 0.734493 179.574 1.15194 180.242 1.98684C180.91 2.82174 181.244 3.92798 181.244 5.30556C181.244 7.01711 180.743 8.70778 179.741 10.3776L158.765 44.5667H149.56Z" fill="white"/>
<path d="M186.102 28.7245V16.1384C186.102 10.0436 187.417 5.88999 190.047 3.67751C192.719 1.42329 197.29 0.296173 203.761 0.296173C210.231 0.296173 214.781 1.42329 217.411 3.67751C220.083 5.88999 221.419 10.0436 221.419 16.1384V28.7245C221.419 34.861 220.083 39.0981 217.411 41.4358C214.739 43.7318 210.189 44.8798 203.761 44.8798C197.332 44.8798 192.782 43.7318 190.11 41.4358C187.438 39.0981 186.102 34.861 186.102 28.7245ZM194.368 16.5141V28.4114C194.368 32.1267 195.057 34.7149 196.434 36.1759C197.854 37.5953 200.296 38.3049 203.761 38.3049C207.392 38.3049 209.855 37.5953 211.149 36.1759C212.485 34.7566 213.153 32.1684 213.153 28.4114V16.5141C213.153 12.757 212.485 10.2106 211.149 8.87476C209.855 7.53892 207.392 6.871 203.761 6.871C200.296 6.871 197.854 7.55979 196.434 8.93738C195.057 10.315 194.368 12.8405 194.368 16.5141Z" fill="white"/>
</g>
</g>
<g id="txt">
<path d="M157.165 65.0175V66.3262H149.95C149.628 66.3262 149.416 66.3836 149.312 66.4984C149.209 66.6132 149.157 66.8256 149.157 67.1356V70.2523H155.081C156.091 70.2523 156.792 70.5451 157.182 71.1305C157.572 71.7045 157.767 72.5368 157.767 73.6274C157.767 74.7295 157.572 75.579 157.182 76.1759C156.803 76.7729 156.114 77.0714 155.116 77.0714H149.244C148.693 77.0714 148.274 76.9451 147.987 76.6925C147.7 76.4285 147.556 75.9865 147.556 75.3666V66.7223C147.556 66.1024 147.7 65.6661 147.987 65.4136C148.274 65.1495 148.693 65.0175 149.244 65.0175H157.165ZM154.358 71.561H149.157V74.9361C149.157 75.2461 149.209 75.4642 149.312 75.5905C149.416 75.7053 149.628 75.7627 149.95 75.7627H154.358C155.035 75.7627 155.494 75.5962 155.735 75.2633C155.977 74.9189 156.097 74.3736 156.097 73.6274C156.097 72.8812 155.977 72.3531 155.735 72.0432C155.506 71.7218 155.047 71.561 154.358 71.561Z" fill="white"/>
<path d="M162.048 77.0714H160.446V66.6362C160.446 66.0392 160.578 65.6202 160.842 65.3791C161.118 65.1381 161.526 65.0175 162.065 65.0175H167.593C168.741 65.0175 169.538 65.3275 169.986 65.9474C170.445 66.5558 170.675 67.4742 170.675 68.7026C170.675 69.9768 170.451 70.9239 170.003 71.5438C169.556 72.1637 168.752 72.4737 167.593 72.4737H162.048V77.0714ZM162.048 71.165H167.024C167.828 71.165 168.356 70.9756 168.609 70.5967C168.873 70.2064 169.005 69.575 169.005 68.7026C169.005 67.8645 168.873 67.2618 168.609 66.8945C168.345 66.5156 167.816 66.3262 167.024 66.3262H162.823C162.501 66.3262 162.289 66.3836 162.186 66.4984C162.094 66.6132 162.048 66.8199 162.048 67.1183V71.165Z" fill="white"/>
<path d="M182.398 77.0714H174.873C173.748 77.0714 173.185 76.5031 173.185 75.3666V66.7223C173.185 66.1024 173.329 65.6661 173.616 65.4136C173.903 65.1495 174.322 65.0175 174.873 65.0175H182.329V66.3262H175.579C175.258 66.3262 175.045 66.3836 174.942 66.4984C174.839 66.6132 174.787 66.8256 174.787 67.1356V70.2523H182.157V71.561H174.787V74.9361C174.787 75.2461 174.839 75.4642 174.942 75.5905C175.045 75.7053 175.258 75.7627 175.579 75.7627H182.398V77.0714Z" fill="white"/>
<path d="M195.144 65.0175V77.0714H193.543V71.561H186.5V77.0714H184.899V65.0175H186.5V70.2523H193.543V65.0175H195.144Z" fill="white"/>
<path d="M210.11 77.0714H199.003C198.716 77.0714 198.526 77.1288 198.435 77.2436C198.343 77.3698 198.297 77.5822 198.297 77.8807V79.396H196.695V77.4502C196.695 76.8303 196.822 76.3941 197.074 76.1415C197.338 75.8889 197.746 75.7627 198.297 75.7627H198.676L202.946 66.1196C203.141 65.6719 203.365 65.3562 203.618 65.1725C203.87 64.9773 204.186 64.8798 204.565 64.8798C204.955 64.8798 205.271 64.9773 205.512 65.1725C205.764 65.3562 205.988 65.6719 206.183 66.1196L210.437 75.7627H210.833C211.384 75.7627 211.786 75.8889 212.038 76.1415C212.302 76.3941 212.434 76.8303 212.434 77.4502V79.396H210.833V77.8807C210.833 77.5822 210.781 77.3698 210.678 77.2436C210.586 77.1288 210.397 77.0714 210.11 77.0714ZM204.203 66.8773L200.329 75.7627H208.784L204.909 66.8773C204.898 66.8543 204.88 66.8256 204.858 66.7912C204.846 66.7452 204.835 66.7108 204.823 66.6878C204.812 66.6649 204.794 66.6419 204.771 66.619C204.76 66.5845 204.748 66.5616 204.737 66.5501C204.726 66.5271 204.708 66.5042 204.685 66.4812C204.662 66.4582 204.639 66.4468 204.616 66.4468C204.593 66.4353 204.571 66.4295 204.548 66.4295C204.444 66.4295 204.329 66.5788 204.203 66.8773Z" fill="white"/>
<path d="M218.8 64.8798C221.027 64.8798 222.583 65.3332 223.466 66.2401C224.362 67.147 224.81 68.7485 224.81 71.0444C224.81 73.3404 224.362 74.9419 223.466 75.8488C222.583 76.7557 221.027 77.2091 218.8 77.2091C216.584 77.2091 215.029 76.7557 214.133 75.8488C213.238 74.9419 212.79 73.3404 212.79 71.0444C212.79 68.7485 213.238 67.147 214.133 66.2401C215.029 65.3332 216.584 64.8798 218.8 64.8798ZM215.356 67.2389C214.759 67.9277 214.461 69.1962 214.461 71.0444C214.461 72.8927 214.759 74.167 215.356 74.8672C215.964 75.556 217.112 75.9004 218.8 75.9004C220.487 75.9004 221.63 75.556 222.227 74.8672C222.835 74.167 223.139 72.8927 223.139 71.0444C223.139 69.1962 222.835 67.9277 222.227 67.2389C221.63 66.5386 220.487 66.1885 218.8 66.1885C217.112 66.1885 215.964 66.5386 215.356 67.2389Z" fill="white"/>
<path d="M229.089 71.6471V74.8672C229.089 75.2231 229.135 75.4642 229.227 75.5905C229.331 75.7053 229.549 75.7627 229.882 75.7627H234.255C234.91 75.7627 235.363 75.6077 235.616 75.2977C235.88 74.9763 236.012 74.4482 236.012 73.7135C236.012 73.0362 235.891 72.5253 235.65 72.181C235.421 71.8251 235.002 71.6471 234.393 71.6471H229.089ZM229.089 67.1011V70.3384H234.204C234.847 70.3384 235.277 70.1835 235.495 69.8735C235.725 69.5635 235.84 69.0297 235.84 68.2721C235.84 67.6292 235.731 67.147 235.512 66.8256C235.294 66.4927 234.898 66.3262 234.324 66.3262H229.864C229.577 66.3262 229.376 66.3836 229.262 66.4984C229.147 66.6017 229.089 66.8026 229.089 67.1011ZM235.857 70.9928C236.5 71.0731 236.959 71.3372 237.234 71.7849C237.521 72.2211 237.665 72.887 237.665 73.7824C237.665 74.7926 237.475 75.5962 237.097 76.1932C236.718 76.7786 236.035 77.0714 235.047 77.0714H229.193C228.653 77.0714 228.234 76.9508 227.936 76.7098C227.637 76.4687 227.488 76.0324 227.488 75.4011V66.7223C227.488 65.5858 228.016 65.0175 229.072 65.0175H234.927C236.649 65.0175 237.51 66.1081 237.51 68.2893C237.51 69.885 236.959 70.7632 235.857 70.9239V70.9928Z" fill="white"/>
<path d="M149.157 95.6471V98.8672C149.157 99.2231 149.203 99.4642 149.295 99.5905C149.399 99.7053 149.617 99.7627 149.95 99.7627H154.323C154.978 99.7627 155.431 99.6077 155.684 99.2977C155.948 98.9763 156.08 98.4482 156.08 97.7135C156.08 97.0362 155.959 96.5253 155.718 96.181C155.489 95.8251 155.07 95.6471 154.461 95.6471H149.157ZM149.157 91.1011V94.3384H154.272C154.915 94.3384 155.345 94.1835 155.563 93.8735C155.793 93.5635 155.908 93.0297 155.908 92.2721C155.908 91.6292 155.799 91.147 155.58 90.8256C155.362 90.4927 154.966 90.3262 154.392 90.3262H149.932C149.645 90.3262 149.444 90.3836 149.33 90.4984C149.215 90.6017 149.157 90.8026 149.157 91.1011ZM155.925 94.9928C156.568 95.0731 157.027 95.3372 157.302 95.7849C157.589 96.2211 157.733 96.887 157.733 97.7824C157.733 98.7926 157.544 99.5962 157.165 100.193C156.786 100.779 156.103 101.071 155.116 101.071H149.261C148.721 101.071 148.302 100.951 148.004 100.71C147.705 100.469 147.556 100.032 147.556 99.4011V90.7223C147.556 89.5858 148.084 89.0175 149.14 89.0175H154.995C156.717 89.0175 157.578 90.1081 157.578 92.2893C157.578 93.885 157.027 94.7632 155.925 94.9239V94.9928Z" fill="white"/>
<path d="M164.007 101.071L168.588 90.2057C168.783 89.7465 169.001 89.4136 169.242 89.2069C169.483 88.9888 169.816 88.8798 170.241 88.8798C170.654 88.8798 170.987 88.9888 171.239 89.2069C171.504 89.4251 171.727 89.758 171.911 90.2057L176.474 101.071H174.787L173.426 97.7996H167.038L165.695 101.071H164.007ZM169.827 90.9634L167.52 96.4909H172.944L170.671 90.9634C170.499 90.573 170.356 90.3779 170.241 90.3779C170.206 90.3779 170.172 90.3894 170.137 90.4123C170.114 90.4238 170.091 90.4468 170.069 90.4812C170.046 90.5042 170.017 90.5386 169.982 90.5845C169.959 90.6304 169.942 90.6706 169.931 90.7051C169.919 90.7395 169.902 90.7854 169.879 90.8428C169.856 90.9002 169.839 90.9404 169.827 90.9634Z" fill="white"/>
<path d="M187.814 101.071H182.89C182.109 101.071 181.42 100.968 180.823 100.761C180.226 100.555 179.744 100.274 179.377 99.9176C179.009 99.5618 178.705 99.1255 178.464 98.6089C178.235 98.0809 178.074 97.5298 177.982 96.9558C177.902 96.3818 177.861 95.739 177.861 95.0272C177.861 94.1203 177.936 93.3282 178.085 92.6509C178.235 91.9736 178.493 91.3479 178.86 90.7739C179.228 90.1999 179.756 89.7637 180.444 89.4652C181.133 89.1668 181.977 89.0175 182.976 89.0175H187.642V90.3262H183.51C182.029 90.3262 180.995 90.6936 180.41 91.4283C179.825 92.1515 179.532 93.3512 179.532 95.0272C179.532 96.7033 179.819 97.9144 180.393 98.6606C180.967 99.3953 181.977 99.7627 183.423 99.7627H187.814V101.071Z" fill="white"/>
<path d="M199.091 101.071H194.166C193.385 101.071 192.696 100.968 192.099 100.761C191.502 100.555 191.02 100.274 190.653 99.9176C190.285 99.5618 189.981 99.1255 189.74 98.6089C189.511 98.0809 189.35 97.5298 189.258 96.9558C189.178 96.3818 189.137 95.739 189.137 95.0272C189.137 94.1203 189.212 93.3282 189.361 92.6509C189.511 91.9736 189.769 91.3479 190.136 90.7739C190.504 90.1999 191.032 89.7637 191.72 89.4652C192.409 89.1668 193.253 89.0175 194.252 89.0175H198.918V90.3262H194.786C193.305 90.3262 192.271 90.6936 191.686 91.4283C191.101 92.1515 190.808 93.3512 190.808 95.0272C190.808 96.7033 191.095 97.9144 191.669 98.6606C192.243 99.3953 193.253 99.7627 194.699 99.7627H199.091V101.071Z" fill="white"/>
<path d="M206.423 88.8798C208.65 88.8798 210.206 89.3332 211.09 90.2401C211.985 91.147 212.433 92.7485 212.433 95.0444C212.433 97.3404 211.985 98.9419 211.09 99.8488C210.206 100.756 208.65 101.209 206.423 101.209C204.208 101.209 202.652 100.756 201.757 99.8488C200.861 98.9419 200.414 97.3404 200.414 95.0444C200.414 92.7485 200.861 91.147 201.757 90.2401C202.652 89.3332 204.208 88.8798 206.423 88.8798ZM202.979 91.2389C202.382 91.9277 202.084 93.1962 202.084 95.0444C202.084 96.8927 202.382 98.167 202.979 98.8672C203.588 99.556 204.736 99.9004 206.423 99.9004C208.111 99.9004 209.253 99.556 209.85 98.8672C210.458 98.167 210.763 96.8927 210.763 95.0444C210.763 93.1962 210.458 91.9277 209.85 91.2389C209.253 90.5386 208.111 90.1885 206.423 90.1885C204.736 90.1885 203.588 90.5386 202.979 91.2389Z" fill="white"/>
<path d="M216.713 101.071H215.111V90.6362C215.111 90.0392 215.243 89.6202 215.507 89.3791C215.783 89.1381 216.19 89.0175 216.73 89.0175H222.257C223.405 89.0175 224.203 89.3275 224.651 89.9474C225.11 90.5558 225.34 91.4742 225.34 92.7026C225.34 93.9768 225.116 94.9239 224.668 95.5438C224.221 96.1637 223.417 96.4737 222.257 96.4737H216.713V101.071ZM216.713 95.165H221.689C222.493 95.165 223.021 94.9756 223.273 94.5967C223.538 94.2064 223.67 93.575 223.67 92.7026C223.67 91.8645 223.538 91.2618 223.273 90.8945C223.009 90.5156 222.481 90.3262 221.689 90.3262H217.488C217.166 90.3262 216.954 90.3836 216.85 90.4984C216.759 90.6132 216.713 90.8199 216.713 91.1183V95.165Z" fill="white"/>
<path d="M233.206 101.071H231.604V90.3262H226.731V89.0175H238.079V90.3262H233.206V101.071Z" fill="white"/>
<path d="M250.781 101.071H249.179L249.231 91.0667C249.231 90.8141 249.185 90.6878 249.093 90.6878C248.978 90.6878 248.812 90.8658 248.594 91.2217L243.015 100.124C242.842 100.388 242.71 100.578 242.619 100.693C242.527 100.807 242.372 100.922 242.154 101.037C241.936 101.152 241.677 101.209 241.379 101.209C240.449 101.209 239.984 100.635 239.984 99.4871V89.0175H241.585L241.551 98.8672C241.551 99.2231 241.608 99.4011 241.723 99.4011C241.815 99.4011 241.936 99.2805 242.085 99.0394L247.578 90.1885C247.876 89.7063 248.152 89.3677 248.404 89.1725C248.657 88.9773 248.967 88.8798 249.334 88.8798C250.299 88.8798 250.781 89.4939 250.781 90.7223V101.071Z" fill="white"/>
<path d="M266.025 90.8945L262.426 99.8315C262.231 100.314 262.03 100.664 261.824 100.882C261.629 101.1 261.342 101.209 260.963 101.209C260.584 101.209 260.291 101.1 260.084 100.882C259.878 100.664 259.677 100.314 259.482 99.8315L255.9 90.8945C255.797 90.6419 255.693 90.5156 255.59 90.5156C255.441 90.5156 255.366 90.6304 255.366 90.86L255.401 101.071H253.799V90.2401C253.799 89.8039 253.931 89.471 254.195 89.2414C254.471 89.0003 254.85 88.8798 255.332 88.8798C255.802 88.8798 256.158 88.9946 256.399 89.2242C256.641 89.4538 256.859 89.7981 257.054 90.2573L260.653 99.1772C260.756 99.4527 260.859 99.5905 260.963 99.5905C261.066 99.5905 261.169 99.4527 261.273 99.1772L264.872 90.2573C265.055 89.7981 265.268 89.4538 265.509 89.2242C265.75 88.9946 266.106 88.8798 266.576 88.8798C267.058 88.8798 267.437 89.0003 267.713 89.2414C267.988 89.471 268.126 89.8039 268.126 90.2401V101.071H266.525L266.559 90.86C266.559 90.6304 266.484 90.5156 266.335 90.5156C266.232 90.5156 266.129 90.6419 266.025 90.8945Z" fill="white"/>
<path d="M280.359 101.071H272.833C271.708 101.071 271.146 100.503 271.146 99.3666V90.7223C271.146 90.1024 271.289 89.6661 271.576 89.4136C271.863 89.1495 272.282 89.0175 272.833 89.0175H280.29V90.3262H273.539C273.218 90.3262 273.006 90.3836 272.902 90.4984C272.799 90.6132 272.747 90.8256 272.747 91.1356V94.2523H280.117V95.561H272.747V98.9361C272.747 99.2461 272.799 99.4642 272.902 99.5905C273.006 99.7053 273.218 99.7627 273.539 99.7627H280.359V101.071Z" fill="white"/>
<path d="M293.105 89.0175V101.071H291.503V95.561H284.461V101.071H282.859V89.0175H284.461V94.2523H291.503V89.0175H293.105Z" fill="white"/>
<path d="M301.475 101.071H299.873V90.3262H295V89.0175H306.348V90.3262H301.475V101.071Z" fill="white"/>
<path d="M317.466 101.071H309.941C308.816 101.071 308.253 100.503 308.253 99.3666V90.7223C308.253 90.1024 308.397 89.6661 308.684 89.4136C308.971 89.1495 309.39 89.0175 309.941 89.0175H317.397V90.3262H310.647C310.325 90.3262 310.113 90.3836 310.01 90.4984C309.906 90.6132 309.855 90.8256 309.855 91.1356V94.2523H317.225V95.561H309.855V98.9361C309.855 99.2461 309.906 99.4642 310.01 99.5905C310.113 99.7053 310.325 99.7627 310.647 99.7627H317.466V101.071Z" fill="white"/>
</g>
</g>
</g>
</svg>
