<svg width="377" height="118" viewBox="0 0 377 118" fill="none" xmlns="http://www.w3.org/2000/svg">
<g id="image_infogr_09">
<path d="M100.035 38.9153H2.19525C1.74001 38.9153 1.30342 39.1031 0.981513 39.4374C0.659609 39.7717 0.47876 40.2251 0.47876 40.6979V89.1831C0.47876 89.6558 0.659609 90.1092 0.981513 90.4435C1.30342 90.7778 1.74001 90.9656 2.19525 90.9656H68.795C69.2502 90.9656 69.6868 90.7778 70.0087 90.4435C70.3306 90.1092 70.5115 89.6558 70.5115 89.1831C70.5115 88.7103 70.3306 88.2569 70.0087 87.9226C69.6868 87.5883 69.2502 87.4005 68.795 87.4005H3.91173V42.1239H98.3185V46.402C98.3185 46.8748 98.4994 47.3282 98.8213 47.6625C99.1432 47.9968 99.5798 48.1846 100.035 48.1846C100.49 48.1846 100.927 47.9968 101.249 47.6625C101.571 47.3282 101.752 46.8748 101.752 46.402V40.6979C101.752 40.2251 101.571 39.7717 101.249 39.4374C100.927 39.1031 100.49 38.9153 100.035 38.9153Z" fill="white"/>
<path d="M96.2587 64.9405C84.9299 64.9405 79.0938 62.0884 78.7505 61.0189C79.0938 59.9494 84.9299 57.0973 96.2587 57.0973C107.588 57.0973 113.424 59.9494 113.767 61.0189C114.11 62.0884 107.588 64.9405 96.2587 64.9405ZM113.767 68.8621C113.424 69.9316 107.588 72.7837 96.2587 72.7837C84.9299 72.7837 79.0938 69.9316 78.7505 68.8621V65.6535C84.3097 67.9704 90.2717 69.063 96.2587 68.8621C102.246 69.063 108.208 67.9704 113.767 65.6535V68.8621ZM113.767 77.0618C113.424 78.1313 107.588 80.9834 96.2587 80.9834C84.9299 80.9834 79.0938 78.1313 78.7505 77.0618V73.8532C84.3097 76.1701 90.2717 77.2627 96.2587 77.0618C102.246 77.2627 108.208 76.1701 113.767 73.8532V77.0618ZM113.767 85.2615C113.424 86.331 107.588 89.1831 96.2587 89.1831C84.9299 89.1831 79.0938 86.331 78.7505 85.2615V82.0529C84.3069 84.3799 90.2709 85.4729 96.2587 85.2615C102.246 85.4624 108.208 84.3698 113.767 82.0529V85.2615ZM113.767 93.4612C113.424 94.5307 107.588 97.3828 96.2587 97.3828C84.9299 97.3828 79.0938 94.5307 78.7505 93.4612V90.2526C84.3097 92.5695 90.2717 93.6621 96.2587 93.4612C102.246 93.6621 108.208 92.5695 113.767 90.2526V93.4612ZM113.767 101.661C113.424 102.73 107.588 105.582 96.2587 105.582C84.9299 105.582 79.0938 102.73 78.7505 101.661V98.4523C84.3097 100.769 90.2717 101.862 96.2587 101.661C102.246 101.862 108.208 100.769 113.767 98.4523V101.661ZM113.767 109.861C113.424 110.93 107.588 113.782 96.2587 113.782C84.9299 113.782 79.0938 110.93 78.7505 109.861V106.652C84.3097 108.969 90.2717 110.062 96.2587 109.861C102.246 110.062 108.208 108.969 113.767 106.652V109.861ZM96.2587 52.8192C85.9598 52.8192 74.631 55.3147 74.631 61.0189V109.504C74.631 115.208 85.6165 117.704 96.2587 117.704C106.901 117.704 117.886 115.208 117.886 109.504V61.0189C117.886 55.3147 106.901 52.8192 96.2587 52.8192Z" fill="white"/>
<path d="M80.4678 46.7584H65.0194C64.5642 46.7584 64.1276 46.9462 63.8057 47.2805C63.4838 47.6148 63.3029 48.0682 63.3029 48.541C63.3029 49.0137 63.4838 49.4671 63.8057 49.8014C64.1276 50.1357 64.5642 50.3235 65.0194 50.3235H80.4678C80.9231 50.3235 81.3597 50.1357 81.6816 49.8014C82.0035 49.4671 82.1843 49.0137 82.1843 48.541C82.1843 48.0682 82.0035 47.6148 81.6816 47.2805C81.3597 46.9462 80.9231 46.7584 80.4678 46.7584Z" fill="white"/>
<path d="M49.2259 79.5574C46.4421 79.5574 43.7208 78.7001 41.4061 77.094C39.0915 75.4879 37.2874 73.205 36.2221 70.5341C35.1568 67.8632 34.8781 64.9243 35.4212 62.0889C35.9643 59.2535 37.3048 56.649 39.2732 54.6048C41.2417 52.5606 43.7497 51.1685 46.48 50.6045C49.2103 50.0405 52.0403 50.3299 54.6122 51.4363C57.1842 52.5426 59.3824 54.4161 60.929 56.8198C62.4756 59.2235 63.3011 62.0495 63.3011 64.9405C63.3011 68.8171 61.8182 72.535 59.1786 75.2762C56.539 78.0174 52.9589 79.5574 49.2259 79.5574ZM49.2259 47.1151C45.831 47.1151 42.5124 48.1605 39.6896 50.1192C36.8669 52.0779 34.6668 54.8618 33.3676 58.119C32.0685 61.3761 31.7285 64.9603 32.3909 68.4181C33.0532 71.8758 34.688 75.052 37.0885 77.545C39.4891 80.0379 42.5475 81.7356 45.8772 82.4234C49.2069 83.1112 52.6582 82.7582 55.7946 81.409C58.9311 80.0599 61.6119 77.7751 63.498 74.8438C65.3841 71.9124 66.3908 68.466 66.3908 64.9405C66.3908 60.2129 64.5823 55.6789 61.3633 52.336C58.1443 48.9931 53.7783 47.1151 49.2259 47.1151Z" fill="white"/>
<path d="M33.7797 79.5572H18.6746L11.8086 71.714V58.1667L19.7045 50.3235H33.7797C34.2349 50.3235 34.6715 50.1357 34.9934 49.8014C35.3153 49.4671 35.4961 49.0137 35.4961 48.541C35.4961 48.0682 35.3153 47.6148 34.9934 47.2805C34.6715 46.9462 34.2349 46.7584 33.7797 46.7584H17.6447L9.06224 55.6711C8.78919 56.0894 8.66757 56.5946 8.71895 57.0971V71.714C8.71895 72.0997 8.8394 72.475 9.06224 72.7835L16.9581 81.6963L18.3313 82.4093H33.7797C34.2349 82.4093 34.6715 82.2215 34.9934 81.8872C35.3153 81.5529 35.4961 81.0995 35.4961 80.6267C35.4961 80.154 35.3153 79.7006 34.9934 79.3663C34.6715 79.032 34.2349 78.8442 33.7797 78.8442" fill="white"/>
<path d="M88.7072 30.7156L10.4354 12.5336H9.06219L8.3756 13.6032L4.59933 31.7851C4.55425 32.0192 4.55401 32.2602 4.59862 32.4944C4.64323 32.7286 4.73181 32.9513 4.85933 33.15C4.98684 33.3486 5.15078 33.5192 5.34178 33.6521C5.53278 33.7849 5.74711 33.8773 5.97252 33.9242C6.19793 33.971 6.43002 33.9712 6.65552 33.9249C6.88103 33.8786 7.09554 33.7866 7.28681 33.6542C7.47808 33.5218 7.64236 33.3515 7.77027 33.1531C7.89818 32.9548 7.98722 32.7322 8.03231 32.4981L11.4653 15.7422L88.0206 33.5676H88.3639C88.5893 33.5911 88.817 33.5681 89.0338 33.5002C89.2507 33.4322 89.4526 33.3206 89.6279 33.1716C89.8033 33.0226 89.9486 32.8392 90.0557 32.6319C90.1628 32.4246 90.2295 32.1975 90.2521 31.9634C90.2746 31.7293 90.2525 31.4929 90.1871 31.2676C90.1216 31.0424 90.0141 30.8328 89.8707 30.6507C89.7272 30.4686 89.5506 30.3177 89.351 30.2065C89.1514 30.0953 88.9326 30.026 88.7072 30.0026" fill="white"/>
<path d="M79.4377 20.7334L32.406 0.41236C32.0361 0.266481 31.6291 0.257763 31.2538 0.387691C30.8784 0.517619 30.5578 0.778204 30.3462 1.12537L26.5699 9.32508C26.3423 9.75057 26.2868 10.2525 26.4155 10.7205C26.5443 11.1885 26.8468 11.5843 27.2565 11.8206C27.6662 12.057 28.1496 12.1147 28.6003 11.981C29.0509 11.8473 29.432 11.5331 29.6596 11.1076L32.7493 4.33395L78.4079 23.9419C78.7996 24.0433 79.2131 23.998 79.5759 23.814C79.9386 23.6301 80.2274 23.3193 80.3913 22.9362C80.5553 22.5531 80.584 22.1223 80.4724 21.7194C80.3607 21.3165 80.116 20.9674 79.7811 20.7334" fill="white"/>
<path d="M145.438 47.9481V43.0013L164.474 33.9844L145.438 24.9049V19.9581L173.24 33.9844L145.438 47.9481Z" fill="white"/>
<path d="M197.818 4.2098H205.019C207.273 4.2098 209.11 4.35591 210.529 4.64813C211.99 4.8986 213.326 5.44128 214.536 6.27618C215.789 7.06933 216.686 8.30081 217.229 9.97061C217.813 11.5987 218.106 13.7068 218.106 16.295C218.106 21.8053 216.102 24.9153 212.094 25.625V25.8754C214.891 26.3346 216.749 27.42 217.667 29.1315C218.627 30.8431 219.107 33.2852 219.107 36.4578C219.107 40.507 218.126 43.45 216.164 45.2868C214.244 47.1236 211.239 48.042 207.148 48.042H195.751C191.66 48.042 188.634 47.1236 186.672 45.2868C184.751 43.45 183.791 40.507 183.791 36.4578C183.791 33.2852 184.25 30.8431 185.169 29.1315C186.129 27.42 188.007 26.3346 190.804 25.8754V25.625C188.801 25.3745 187.298 24.3726 186.296 22.6193C185.294 20.8243 184.793 18.7162 184.793 16.295C184.793 13.7068 185.064 11.5987 185.607 9.97061C186.192 8.30081 187.089 7.06933 188.3 6.27618C189.552 5.44128 190.888 4.8986 192.307 4.64813C193.727 4.35591 195.563 4.2098 197.818 4.2098ZM198.444 22.5567H204.455C206.334 22.5567 207.648 22.1393 208.4 21.3044C209.193 20.4277 209.59 18.904 209.59 16.7333C209.59 14.5208 209.151 12.9762 208.275 12.0996C207.44 11.223 205.937 10.7846 203.766 10.7846H199.07C196.899 10.7846 195.396 11.223 194.561 12.0996C193.727 12.9762 193.309 14.5208 193.309 16.7333C193.309 18.904 193.685 20.4277 194.436 21.3044C195.229 22.1393 196.565 22.5567 198.444 22.5567ZM197.818 41.4672H205.081C207.127 41.4672 208.546 40.9871 209.339 40.027C210.174 39.0251 210.591 37.397 210.591 35.1428C210.591 33.0138 210.111 31.4901 209.151 30.5717C208.191 29.6116 206.751 29.1315 204.831 29.1315H198.068C196.148 29.1315 194.708 29.6116 193.747 30.5717C192.787 31.4901 192.307 33.0138 192.307 35.1428C192.307 37.397 192.704 39.0251 193.497 40.027C194.332 40.9871 195.772 41.4672 197.818 41.4672Z" fill="white"/>
<path d="M226.437 32.1998V19.6137C226.437 13.5189 227.752 9.3653 230.382 7.15282C233.054 4.8986 237.625 3.77148 244.095 3.77148C250.566 3.77148 255.116 4.8986 257.746 7.15282C260.418 9.3653 261.753 13.5189 261.753 19.6137V32.1998C261.753 38.3363 260.418 42.5734 257.746 44.9111C255.074 47.2071 250.524 48.3551 244.095 48.3551C237.667 48.3551 233.116 47.2071 230.445 44.9111C227.773 42.5734 226.437 38.3363 226.437 32.1998ZM234.703 19.9894V31.8867C234.703 35.602 235.391 38.1902 236.769 39.6513C238.188 41.0706 240.63 41.7803 244.095 41.7803C247.727 41.7803 250.19 41.0706 251.484 39.6513C252.82 38.2319 253.488 35.6437 253.488 31.8867V19.9894C253.488 16.2323 252.82 13.6859 251.484 12.3501C250.19 11.0142 247.727 10.3463 244.095 10.3463C240.63 10.3463 238.188 11.0351 236.769 12.4127C235.391 13.7903 234.703 16.3158 234.703 19.9894Z" fill="white"/>
<path d="M289.803 45.7878C289.489 46.56 289.155 47.1758 288.801 47.635C288.446 48.0733 287.893 48.2925 287.141 48.2925C286.39 48.2925 285.826 48.0733 285.451 47.635C285.096 47.1758 284.762 46.56 284.449 45.7878L277.937 29.5385C277.874 29.3716 277.79 29.215 277.686 29.0689C277.582 28.9228 277.477 28.8498 277.373 28.8498C277.248 28.8498 277.143 28.9124 277.06 29.0376C276.997 29.1628 276.966 29.309 276.966 29.4759L277.029 48.042H274.117V28.3488C274.117 27.5557 274.357 26.9504 274.837 26.5329C275.338 26.0946 276.027 25.8754 276.903 25.8754C277.363 25.8754 277.759 25.938 278.093 26.0633C278.427 26.1885 278.709 26.3659 278.938 26.5955C279.189 26.8043 279.398 27.0652 279.565 27.3782C279.732 27.6913 279.888 28.0253 280.034 28.3801L286.578 44.598C286.661 44.8068 286.734 44.9842 286.797 45.1303C286.88 45.2764 286.995 45.3494 287.141 45.3494C287.267 45.3494 287.371 45.2764 287.454 45.1303C287.538 44.9842 287.621 44.8068 287.705 44.598L294.248 28.3801C294.52 27.6705 294.864 27.0756 295.282 26.5955C295.72 26.1155 296.409 25.8754 297.348 25.8754C298.225 25.8754 298.913 26.0946 299.414 26.5329C299.915 26.9504 300.166 27.5557 300.166 28.3488V48.042H297.254L297.317 29.4759C297.317 29.1837 297.264 29.0063 297.16 28.9437C297.056 28.8811 296.972 28.8498 296.91 28.8498C296.805 28.8498 296.701 28.9228 296.596 29.0689C296.492 29.215 296.409 29.3716 296.346 29.5385L289.803 45.7878Z" fill="white"/>
<path d="M312.718 27.8792C313.01 27.2113 313.344 26.7103 313.72 26.3764C314.116 26.0424 314.711 25.8754 315.504 25.8754C316.318 25.8754 316.913 26.0424 317.289 26.3764C317.665 26.7103 317.999 27.2113 318.291 27.8792L326.775 48.042H323.676L316.099 29.3194C316.037 29.1733 315.974 29.0272 315.911 28.8811C315.849 28.735 315.713 28.6619 315.504 28.6619C315.296 28.6619 315.149 28.7454 315.066 28.9124C315.003 29.0585 314.951 29.1942 314.909 29.3194L307.333 48.042H304.233L312.718 27.8792Z" fill="white"/>
<path d="M330.852 48.042V29.0689C330.852 27.9418 331.102 27.1695 331.603 26.7521C332.125 26.3346 332.855 26.1259 333.795 26.1259H343.845C344.951 26.1259 345.859 26.2824 346.569 26.5955C347.299 26.9086 347.873 27.3574 348.291 27.9418C348.729 28.5054 349.032 29.2046 349.199 30.0395C349.366 30.8744 349.449 31.8032 349.449 32.826C349.449 33.9113 349.366 34.8819 349.199 35.7377C349.032 36.5726 348.729 37.2822 348.291 37.8667C347.873 38.4511 347.299 38.8998 346.569 39.2129C345.859 39.526 344.951 39.6826 343.845 39.6826H333.763V48.042H330.852ZM342.812 37.3031C343.584 37.3031 344.2 37.2092 344.659 37.0213C345.139 36.8126 345.504 36.5204 345.755 36.1447C346.026 35.769 346.203 35.3098 346.287 34.7671C346.37 34.2035 346.412 33.5565 346.412 32.826C346.412 32.1163 346.36 31.5006 346.256 30.9787C346.172 30.4361 345.995 29.9873 345.723 29.6325C345.473 29.2568 345.108 28.975 344.627 28.7871C344.168 28.5993 343.563 28.5054 342.812 28.5054H335.172C334.546 28.5054 334.15 28.6202 333.983 28.8498C333.836 29.0794 333.763 29.4446 333.763 29.9456V37.3031H342.812Z" fill="white"/>
<path d="M352.1 48.042C351.558 48.042 351.203 48.1568 351.036 48.3864C350.89 48.616 350.817 48.9917 350.817 49.5135V52.2687H347.905V48.7308C347.905 47.5619 348.145 46.7583 348.625 46.32C349.126 45.8817 349.857 45.6625 350.817 45.6625H351.506L359.27 28.1297C359.625 27.3156 360.032 26.7416 360.491 26.4077C360.971 26.0528 361.545 25.8754 362.213 25.8754C362.944 25.8754 363.528 26.0528 363.966 26.4077C364.405 26.7416 364.801 27.3156 365.156 28.1297L372.889 45.6625H373.61C374.57 45.6625 375.29 45.8817 375.77 46.32C376.271 46.7583 376.521 47.5619 376.521 48.7308V52.2687H373.61V49.5135C373.61 48.9917 373.526 48.616 373.359 48.3864C373.192 48.1568 372.837 48.042 372.295 48.042H352.1ZM354.511 45.6625H369.884L362.839 29.5072C362.735 29.2985 362.641 29.1107 362.558 28.9437C362.474 28.7767 362.349 28.6932 362.182 28.6932C362.036 28.6932 361.911 28.7871 361.806 28.975C361.723 29.142 361.639 29.3194 361.556 29.5072L354.511 45.6625Z" fill="white"/>
<path d="M182.406 80.9161V70.567C182.406 69.9242 182.555 69.4822 182.854 69.2411C183.152 68.9886 183.565 68.8623 184.093 68.8623H191.481V70.171H184.799C184.466 70.171 184.248 70.2341 184.145 70.3604C184.053 70.4752 184.007 70.6818 184.007 70.9803V80.9161H182.406Z" fill="white"/>
<path d="M198.187 68.7245C199.3 68.7245 200.236 68.8336 200.994 69.0517C201.763 69.2583 202.383 69.6027 202.853 70.0849C203.324 70.567 203.663 71.2042 203.869 71.9963C204.088 72.7769 204.197 73.7412 204.197 74.8892C204.197 76.0487 204.088 77.0245 203.869 77.8166C203.663 78.5972 203.324 79.2286 202.853 79.7107C202.383 80.1929 201.763 80.5373 200.994 80.7439C200.236 80.9506 199.3 81.0539 198.187 81.0539C197.085 81.0539 196.149 80.9506 195.38 80.7439C194.622 80.5373 194.002 80.1929 193.52 79.7107C193.05 79.2286 192.705 78.5972 192.487 77.8166C192.28 77.0245 192.177 76.0487 192.177 74.8892C192.177 73.7412 192.28 72.7769 192.487 71.9963C192.705 71.2042 193.05 70.567 193.52 70.0849C194.002 69.6027 194.622 69.2583 195.38 69.0517C196.149 68.8336 197.085 68.7245 198.187 68.7245ZM193.847 74.8892C193.847 75.8076 193.911 76.5767 194.037 77.1967C194.175 77.8166 194.404 78.3159 194.726 78.6948C195.059 79.0736 195.501 79.3434 196.052 79.5041C196.614 79.6648 197.326 79.7452 198.187 79.7452C199.048 79.7452 199.754 79.6648 200.305 79.5041C200.867 79.3434 201.309 79.0736 201.631 78.6948C201.964 78.3159 202.193 77.8166 202.32 77.1967C202.457 76.5767 202.526 75.8076 202.526 74.8892C202.526 73.9823 202.457 73.2189 202.32 72.599C202.193 71.9791 201.964 71.4797 201.631 71.1009C201.309 70.722 200.867 70.4522 200.305 70.2915C199.754 70.1193 199.048 70.0332 198.187 70.0332C197.326 70.0332 196.614 70.1193 196.052 70.2915C195.501 70.4522 195.059 70.722 194.726 71.1009C194.404 71.4797 194.175 71.9791 194.037 72.599C193.911 73.2189 193.847 73.9823 193.847 74.8892Z" fill="white"/>
<path d="M206.861 80.9161C206.563 80.9161 206.367 80.9793 206.276 81.1055C206.195 81.2318 206.155 81.4385 206.155 81.7255V83.2408H204.554V81.295C204.554 80.6521 204.686 80.2101 204.95 79.969C205.225 79.728 205.627 79.6074 206.155 79.6074H206.534L210.804 69.9643C211 69.5166 211.223 69.2009 211.476 69.0173C211.74 68.8221 212.056 68.7245 212.423 68.7245C212.825 68.7245 213.146 68.8221 213.387 69.0173C213.628 69.2009 213.847 69.5166 214.042 69.9643L218.295 79.6074H218.691C219.219 79.6074 219.615 79.728 219.879 79.969C220.155 80.2101 220.293 80.6521 220.293 81.295V83.2408H218.691V81.7255C218.691 81.4385 218.645 81.2318 218.553 81.1055C218.461 80.9793 218.266 80.9161 217.968 80.9161H206.861ZM208.187 79.6074H216.642L212.767 70.722C212.71 70.6072 212.658 70.5039 212.612 70.4121C212.567 70.3202 212.498 70.2743 212.406 70.2743C212.326 70.2743 212.257 70.326 212.199 70.4293C212.153 70.5211 212.107 70.6187 212.061 70.722L208.187 79.6074Z" fill="white"/>
<path d="M226.658 68.7245C227.772 68.7245 228.707 68.8336 229.465 69.0517C230.234 69.2583 230.854 69.6027 231.325 70.0849C231.795 70.567 232.134 71.2042 232.341 71.9963C232.559 72.7769 232.668 73.7412 232.668 74.8892C232.668 76.0487 232.559 77.0245 232.341 77.8166C232.134 78.5972 231.795 79.2286 231.325 79.7107C230.854 80.1929 230.234 80.5373 229.465 80.7439C228.707 80.9506 227.772 81.0539 226.658 81.0539C225.556 81.0539 224.621 80.9506 223.851 80.7439C223.094 80.5373 222.474 80.1929 221.992 79.7107C221.521 79.2286 221.177 78.5972 220.958 77.8166C220.752 77.0245 220.648 76.0487 220.648 74.8892C220.648 73.7412 220.752 72.7769 220.958 71.9963C221.177 71.2042 221.521 70.567 221.992 70.0849C222.474 69.6027 223.094 69.2583 223.851 69.0517C224.621 68.8336 225.556 68.7245 226.658 68.7245ZM222.319 74.8892C222.319 75.8076 222.382 76.5767 222.508 77.1967C222.646 77.8166 222.876 78.3159 223.197 78.6948C223.53 79.0736 223.972 79.3434 224.523 79.5041C225.085 79.6648 225.797 79.7452 226.658 79.7452C227.519 79.7452 228.225 79.6648 228.776 79.5041C229.339 79.3434 229.781 79.0736 230.102 78.6948C230.435 78.3159 230.665 77.8166 230.791 77.1967C230.929 76.5767 230.998 75.8076 230.998 74.8892C230.998 73.9823 230.929 73.2189 230.791 72.599C230.665 71.9791 230.435 71.4797 230.102 71.1009C229.781 70.722 229.339 70.4522 228.776 70.2915C228.225 70.1193 227.519 70.0332 226.658 70.0332C225.797 70.0332 225.085 70.1193 224.523 70.2915C223.972 70.4522 223.53 70.722 223.197 71.1009C222.876 71.4797 222.646 71.9791 222.508 72.599C222.382 73.2189 222.319 73.9823 222.319 74.8892Z" fill="white"/>
<path d="M236.948 78.712C236.948 79.0449 236.994 79.2803 237.085 79.418C237.177 79.5443 237.395 79.6074 237.74 79.6074H242.114C242.791 79.6074 243.25 79.4467 243.491 79.1253C243.744 78.8038 243.87 78.2815 243.87 77.5583C243.87 77.2483 243.847 76.9671 243.801 76.7145C243.755 76.4619 243.669 76.2438 243.543 76.0602C243.428 75.8765 243.262 75.7387 243.044 75.6469C242.837 75.5436 242.573 75.4919 242.251 75.4919H236.948V78.712ZM236.948 74.1832H242.062C242.395 74.1832 242.665 74.143 242.871 74.0627C243.089 73.9823 243.256 73.8618 243.371 73.701C243.497 73.5288 243.583 73.3165 243.629 73.0639C243.675 72.7999 243.698 72.4842 243.698 72.1168C243.698 71.5313 243.595 71.0607 243.388 70.7048C243.193 70.3489 242.791 70.171 242.183 70.171H237.723C237.436 70.171 237.235 70.2284 237.12 70.3432C237.005 70.4465 236.948 70.6474 236.948 70.9459V74.1832ZM243.715 74.8375C244.369 74.9294 244.834 75.1934 245.11 75.6297C245.385 76.0659 245.523 76.7317 245.523 77.6272C245.523 78.0749 245.483 78.4996 245.403 78.9014C245.334 79.2917 245.202 79.6361 245.007 79.9346C244.823 80.2331 244.559 80.4742 244.214 80.6578C243.87 80.83 243.434 80.9161 242.906 80.9161H237.051C236.81 80.9161 236.58 80.8932 236.362 80.8473C236.156 80.8013 235.978 80.7152 235.828 80.589C235.679 80.4627 235.559 80.2905 235.467 80.0724C235.386 79.8542 235.346 79.5787 235.346 79.2458V70.567C235.346 69.4305 235.874 68.8623 236.931 68.8623H242.785C243.704 68.8623 244.364 69.1435 244.766 69.706C245.167 70.2686 245.368 71.0779 245.368 72.134C245.368 72.467 245.339 72.7826 245.282 73.0811C245.236 73.3796 245.15 73.6494 245.024 73.8905C244.909 74.1201 244.743 74.3152 244.524 74.4759C244.306 74.6252 244.037 74.7227 243.715 74.7687V74.8375Z" fill="white"/>
<path d="M253.952 68.7245C255.066 68.7245 256.002 68.8336 256.759 69.0517C257.528 69.2583 258.148 69.6027 258.619 70.0849C259.09 70.567 259.428 71.2042 259.635 71.9963C259.853 72.7769 259.962 73.7412 259.962 74.8892C259.962 76.0487 259.853 77.0245 259.635 77.8166C259.428 78.5972 259.09 79.2286 258.619 79.7107C258.148 80.1929 257.528 80.5373 256.759 80.7439C256.002 80.9506 255.066 81.0539 253.952 81.0539C252.85 81.0539 251.915 80.9506 251.146 80.7439C250.388 80.5373 249.768 80.1929 249.286 79.7107C248.815 79.2286 248.471 78.5972 248.253 77.8166C248.046 77.0245 247.943 76.0487 247.943 74.8892C247.943 73.7412 248.046 72.7769 248.253 71.9963C248.471 71.2042 248.815 70.567 249.286 70.0849C249.768 69.6027 250.388 69.2583 251.146 69.0517C251.915 68.8336 252.85 68.7245 253.952 68.7245ZM249.613 74.8892C249.613 75.8076 249.676 76.5767 249.802 77.1967C249.94 77.8166 250.17 78.3159 250.491 78.6948C250.824 79.0736 251.266 79.3434 251.817 79.5041C252.38 79.6648 253.091 79.7452 253.952 79.7452C254.813 79.7452 255.519 79.6648 256.07 79.5041C256.633 79.3434 257.075 79.0736 257.396 78.6948C257.729 78.3159 257.959 77.8166 258.085 77.1967C258.223 76.5767 258.292 75.8076 258.292 74.8892C258.292 73.9823 258.223 73.2189 258.085 72.599C257.959 71.9791 257.729 71.4797 257.396 71.1009C257.075 70.722 256.633 70.4522 256.07 70.2915C255.519 70.1193 254.813 70.0332 253.952 70.0332C253.091 70.0332 252.38 70.1193 251.817 70.2915C251.266 70.4522 250.824 70.722 250.491 71.1009C250.17 71.4797 249.94 71.9791 249.802 72.599C249.676 73.2189 249.613 73.9823 249.613 74.8892Z" fill="white"/>
<path d="M271.836 80.9161L271.888 70.9114C271.888 70.8311 271.882 70.7507 271.87 70.6704C271.859 70.5785 271.819 70.5326 271.75 70.5326C271.692 70.5326 271.618 70.59 271.526 70.7048C271.434 70.8081 271.342 70.9287 271.25 71.0664L265.671 79.969C265.579 80.1183 265.482 80.2618 265.378 80.3995C265.287 80.5258 265.178 80.6406 265.051 80.7439C264.936 80.8358 264.799 80.9104 264.638 80.9678C264.477 81.0252 264.276 81.0539 264.035 81.0539C263.691 81.0539 263.427 80.9907 263.243 80.8645C263.06 80.7382 262.922 80.589 262.83 80.4168C262.738 80.2331 262.681 80.0437 262.658 79.8485C262.646 79.6419 262.641 79.4697 262.641 79.3319V68.8623H264.242L264.208 78.712C264.208 78.8727 264.213 79.0047 264.225 79.1081C264.236 79.1999 264.288 79.2458 264.38 79.2458C264.449 79.2458 264.512 79.2114 264.569 79.1425C264.627 79.0621 264.684 78.976 264.741 78.8842L270.234 70.0332C270.521 69.5626 270.791 69.2296 271.044 69.0345C271.296 68.8278 271.612 68.7245 271.991 68.7245C272.347 68.7245 272.622 68.7991 272.817 68.9484C273.013 69.0976 273.156 69.2756 273.248 69.4822C273.34 69.6773 273.391 69.8783 273.403 70.0849C273.426 70.2915 273.437 70.4522 273.437 70.567V80.9161H271.836ZM268.013 67.3125C268.426 67.3125 268.788 67.2321 269.098 67.0714C269.419 66.9107 269.637 66.6352 269.752 66.2449H271.095C270.923 66.9681 270.585 67.5019 270.079 67.8463C269.586 68.1907 268.897 68.3629 268.013 68.3629C267.129 68.3629 266.435 68.1907 265.929 67.8463C265.424 67.5019 265.091 66.9681 264.931 66.2449H266.274C266.377 66.6352 266.59 66.9107 266.911 67.0714C267.232 67.2321 267.6 67.3125 268.013 67.3125Z" fill="white"/>
<path d="M286.923 68.7245C288.036 68.7245 288.972 68.8336 289.73 69.0517C290.499 69.2583 291.119 69.6027 291.589 70.0849C292.06 70.567 292.399 71.2042 292.605 71.9963C292.824 72.7769 292.933 73.7412 292.933 74.8892C292.933 76.0487 292.824 77.0245 292.605 77.8166C292.399 78.5972 292.06 79.2286 291.589 79.7107C291.119 80.1929 290.499 80.5373 289.73 80.7439C288.972 80.9506 288.036 81.0539 286.923 81.0539C285.821 81.0539 284.885 80.9506 284.116 80.7439C283.358 80.5373 282.738 80.1929 282.256 79.7107C281.786 79.2286 281.441 78.5972 281.223 77.8166C281.016 77.0245 280.913 76.0487 280.913 74.8892C280.913 73.7412 281.016 72.7769 281.223 71.9963C281.441 71.2042 281.786 70.567 282.256 70.0849C282.738 69.6027 283.358 69.2583 284.116 69.0517C284.885 68.8336 285.821 68.7245 286.923 68.7245ZM282.583 74.8892C282.583 75.8076 282.647 76.5767 282.773 77.1967C282.911 77.8166 283.14 78.3159 283.462 78.6948C283.795 79.0736 284.237 79.3434 284.788 79.5041C285.35 79.6648 286.062 79.7452 286.923 79.7452C287.784 79.7452 288.49 79.6648 289.041 79.5041C289.603 79.3434 290.045 79.0736 290.367 78.6948C290.7 78.3159 290.929 77.8166 291.056 77.1967C291.193 76.5767 291.262 75.8076 291.262 74.8892C291.262 73.9823 291.193 73.2189 291.056 72.599C290.929 71.9791 290.7 71.4797 290.367 71.1009C290.045 70.722 289.603 70.4522 289.041 70.2915C288.49 70.1193 287.784 70.0332 286.923 70.0332C286.062 70.0332 285.35 70.1193 284.788 70.2915C284.237 70.4522 283.795 70.722 283.462 71.1009C283.14 71.4797 282.911 71.9791 282.773 72.599C282.647 73.2189 282.583 73.9823 282.583 74.8892Z" fill="white"/>
<path d="M305.22 70.171H298.005C297.672 70.171 297.453 70.2341 297.35 70.3604C297.258 70.4752 297.212 70.6818 297.212 70.9803V74.0971H303.136C303.676 74.0971 304.118 74.1832 304.462 74.3554C304.806 74.5161 305.076 74.7457 305.271 75.0442C305.478 75.3427 305.621 75.6985 305.702 76.1118C305.782 76.5251 305.822 76.9785 305.822 77.4722C305.822 77.9658 305.782 78.425 305.702 78.8498C305.633 79.263 305.495 79.6246 305.288 79.9346C305.093 80.2446 304.824 80.4856 304.479 80.6578C304.135 80.83 303.699 80.9161 303.17 80.9161H297.298C296.77 80.9161 296.357 80.7956 296.059 80.5545C295.76 80.302 295.611 79.8542 295.611 79.2114V70.567C295.611 69.9242 295.76 69.4822 296.059 69.2411C296.357 68.9886 296.77 68.8623 297.298 68.8623H305.22V70.171ZM297.212 75.4058V78.7809C297.212 79.0794 297.258 79.2917 297.35 79.418C297.453 79.5443 297.672 79.6074 298.005 79.6074H302.413C302.769 79.6074 303.056 79.5615 303.274 79.4697C303.503 79.3778 303.681 79.2401 303.808 79.0564C303.945 78.8727 304.037 78.6489 304.083 78.3848C304.129 78.1208 304.152 77.8166 304.152 77.4722C304.152 77.1278 304.129 76.8293 304.083 76.5767C304.037 76.3127 303.951 76.0946 303.825 75.9224C303.699 75.7502 303.521 75.6239 303.291 75.5436C303.073 75.4517 302.78 75.4058 302.413 75.4058H297.212Z" fill="white"/>
<path d="M314.167 68.7245C315.28 68.7245 316.216 68.8336 316.973 69.0517C317.743 69.2583 318.363 69.6027 318.833 70.0849C319.304 70.567 319.643 71.2042 319.849 71.9963C320.067 72.7769 320.176 73.7412 320.176 74.8892C320.176 76.0487 320.067 77.0245 319.849 77.8166C319.643 78.5972 319.304 79.2286 318.833 79.7107C318.363 80.1929 317.743 80.5373 316.973 80.7439C316.216 80.9506 315.28 81.0539 314.167 81.0539C313.065 81.0539 312.129 80.9506 311.36 80.7439C310.602 80.5373 309.982 80.1929 309.5 79.7107C309.029 79.2286 308.685 78.5972 308.467 77.8166C308.26 77.0245 308.157 76.0487 308.157 74.8892C308.157 73.7412 308.26 72.7769 308.467 71.9963C308.685 71.2042 309.029 70.567 309.5 70.0849C309.982 69.6027 310.602 69.2583 311.36 69.0517C312.129 68.8336 313.065 68.7245 314.167 68.7245ZM309.827 74.8892C309.827 75.8076 309.89 76.5767 310.017 77.1967C310.154 77.8166 310.384 78.3159 310.705 78.6948C311.038 79.0736 311.48 79.3434 312.031 79.5041C312.594 79.6648 313.306 79.7452 314.167 79.7452C315.028 79.7452 315.734 79.6648 316.285 79.5041C316.847 79.3434 317.289 79.0736 317.611 78.6948C317.944 78.3159 318.173 77.8166 318.299 77.1967C318.437 76.5767 318.506 75.8076 318.506 74.8892C318.506 73.9823 318.437 73.2189 318.299 72.599C318.173 71.9791 317.944 71.4797 317.611 71.1009C317.289 70.722 316.847 70.4522 316.285 70.2915C315.734 70.1193 315.028 70.0332 314.167 70.0332C313.306 70.0332 312.594 70.1193 312.031 70.2915C311.48 70.4522 311.038 70.722 310.705 71.1009C310.384 71.4797 310.154 71.9791 310.017 72.599C309.89 73.2189 309.827 73.9823 309.827 74.8892Z" fill="white"/>
<path d="M322.855 80.9161V70.4809C322.855 69.861 322.992 69.4363 323.268 69.2067C323.555 68.9771 323.957 68.8623 324.473 68.8623H330.001C330.609 68.8623 331.109 68.9484 331.499 69.1206C331.901 69.2928 332.217 69.5396 332.446 69.861C332.687 70.171 332.854 70.5556 332.945 71.0148C333.037 71.4739 333.083 71.9848 333.083 72.5473C333.083 73.1443 333.037 73.6781 332.945 74.1488C332.854 74.6079 332.687 74.9983 332.446 75.3197C332.217 75.6411 331.901 75.8879 331.499 76.0602C331.109 76.2323 330.609 76.3184 330.001 76.3184H324.456V80.9161H322.855ZM329.433 75.0097C329.857 75.0097 330.196 74.9581 330.449 74.8548C330.713 74.74 330.914 74.5792 331.051 74.3726C331.201 74.166 331.298 73.9134 331.344 73.6149C331.39 73.305 331.413 72.9491 331.413 72.5473C331.413 72.157 331.384 71.8183 331.327 71.5313C331.281 71.2329 331.183 70.9861 331.034 70.7909C330.896 70.5843 330.695 70.4293 330.431 70.326C330.179 70.2226 329.846 70.171 329.433 70.171H325.231C324.887 70.171 324.669 70.2341 324.577 70.3604C324.496 70.4867 324.456 70.6876 324.456 70.9631V75.0097H329.433Z" fill="white"/>
<path d="M341.259 68.7245C342.373 68.7245 343.308 68.8336 344.066 69.0517C344.835 69.2583 345.455 69.6027 345.926 70.0849C346.396 70.567 346.735 71.2042 346.942 71.9963C347.16 72.7769 347.269 73.7412 347.269 74.8892C347.269 76.0487 347.16 77.0245 346.942 77.8166C346.735 78.5972 346.396 79.2286 345.926 79.7107C345.455 80.1929 344.835 80.5373 344.066 80.7439C343.308 80.9506 342.373 81.0539 341.259 81.0539C340.157 81.0539 339.221 80.9506 338.452 80.7439C337.695 80.5373 337.075 80.1929 336.592 79.7107C336.122 79.2286 335.777 78.5972 335.559 77.8166C335.353 77.0245 335.249 76.0487 335.249 74.8892C335.249 73.7412 335.353 72.7769 335.559 71.9963C335.777 71.2042 336.122 70.567 336.592 70.0849C337.075 69.6027 337.695 69.2583 338.452 69.0517C339.221 68.8336 340.157 68.7245 341.259 68.7245ZM336.92 74.8892C336.92 75.8076 336.983 76.5767 337.109 77.1967C337.247 77.8166 337.476 78.3159 337.798 78.6948C338.131 79.0736 338.573 79.3434 339.124 79.5041C339.686 79.6648 340.398 79.7452 341.259 79.7452C342.12 79.7452 342.826 79.6648 343.377 79.5041C343.94 79.3434 344.382 79.0736 344.703 78.6948C345.036 78.3159 345.266 77.8166 345.392 77.1967C345.53 76.5767 345.598 75.8076 345.598 74.8892C345.598 73.9823 345.53 73.2189 345.392 72.599C345.266 71.9791 345.036 71.4797 344.703 71.1009C344.382 70.722 343.94 70.4522 343.377 70.2915C342.826 70.1193 342.12 70.0332 341.259 70.0332C340.398 70.0332 339.686 70.1193 339.124 70.2915C338.573 70.4522 338.131 70.722 337.798 71.1009C337.476 71.4797 337.247 71.9791 337.109 72.599C336.983 73.2189 336.92 73.9823 336.92 74.8892Z" fill="white"/>
<path d="M352.843 80.9161V70.171H347.97V68.8623H359.318V70.171H354.445V80.9161H352.843Z" fill="white"/>
<path d="M190.31 105.18L186.676 100.204L183.009 105.18H181.114L185.764 99.0674L181.252 93.1265H183.146L186.659 97.9308L190.155 93.1265H192.066L187.555 99.0674L192.204 105.18H190.31Z" fill="white"/>
<path d="M199.599 92.9888C200.713 92.9888 201.649 93.0978 202.406 93.3159C203.175 93.5226 203.795 93.867 204.266 94.3491C204.737 94.8313 205.075 95.4684 205.282 96.2605C205.5 97.0412 205.609 98.0055 205.609 99.1535C205.609 100.313 205.5 101.289 205.282 102.081C205.075 102.861 204.737 103.493 204.266 103.975C203.795 104.457 203.175 104.802 202.406 105.008C201.649 105.215 200.713 105.318 199.599 105.318C198.497 105.318 197.562 105.215 196.793 105.008C196.035 104.802 195.415 104.457 194.933 103.975C194.462 103.493 194.118 102.861 193.9 102.081C193.693 101.289 193.59 100.313 193.59 99.1535C193.59 98.0055 193.693 97.0412 193.9 96.2605C194.118 95.4684 194.462 94.8313 194.933 94.3491C195.415 93.867 196.035 93.5226 196.793 93.3159C197.562 93.0978 198.497 92.9888 199.599 92.9888ZM195.26 99.1535C195.26 100.072 195.323 100.841 195.449 101.461C195.587 102.081 195.817 102.58 196.138 102.959C196.471 103.338 196.913 103.608 197.464 103.768C198.027 103.929 198.738 104.009 199.599 104.009C200.46 104.009 201.166 103.929 201.717 103.768C202.28 103.608 202.722 103.338 203.043 102.959C203.376 102.58 203.606 102.081 203.732 101.461C203.87 100.841 203.939 100.072 203.939 99.1535C203.939 98.2465 203.87 97.4831 203.732 96.8632C203.606 96.2433 203.376 95.7439 203.043 95.3651C202.722 94.9863 202.28 94.7165 201.717 94.5558C201.166 94.3836 200.46 94.2975 199.599 94.2975C198.738 94.2975 198.027 94.3836 197.464 94.5558C196.913 94.7165 196.471 94.9863 196.138 95.3651C195.817 95.7439 195.587 96.2433 195.449 96.8632C195.323 97.4831 195.26 98.2465 195.26 99.1535Z" fill="white"/>
<path d="M211.494 94.0908C211.655 93.7235 211.839 93.448 212.045 93.2643C212.264 93.0806 212.591 92.9888 213.027 92.9888C213.475 92.9888 213.802 93.0806 214.008 93.2643C214.215 93.448 214.399 93.7235 214.56 94.0908L219.226 105.18H217.521L213.354 94.8829C213.32 94.8026 213.285 94.7222 213.251 94.6419C213.216 94.5615 213.142 94.5213 213.027 94.5213C212.912 94.5213 212.832 94.5672 212.786 94.6591C212.751 94.7394 212.723 94.8141 212.7 94.8829L208.533 105.18H206.828L211.494 94.0908Z" fill="white"/>
<path d="M222.661 105.18C222.362 105.18 222.167 105.244 222.075 105.37C221.995 105.496 221.955 105.703 221.955 105.99V107.505H220.353V105.559C220.353 104.916 220.485 104.474 220.749 104.233C221.025 103.992 221.427 103.872 221.955 103.872H222.333L226.604 94.2286C226.799 93.7809 227.023 93.4652 227.276 93.2815C227.54 93.0863 227.855 92.9888 228.223 92.9888C228.624 92.9888 228.946 93.0863 229.187 93.2815C229.428 93.4652 229.646 93.7809 229.841 94.2286L234.095 103.872H234.491C235.019 103.872 235.415 103.992 235.679 104.233C235.954 104.474 236.092 104.916 236.092 105.559V107.505H234.491V105.99C234.491 105.703 234.445 105.496 234.353 105.37C234.261 105.244 234.066 105.18 233.767 105.18H222.661ZM223.987 103.872H232.441L228.567 94.9863C228.51 94.8715 228.458 94.7681 228.412 94.6763C228.366 94.5845 228.297 94.5385 228.205 94.5385C228.125 94.5385 228.056 94.5902 227.999 94.6935C227.953 94.7854 227.907 94.8829 227.861 94.9863L223.987 103.872Z" fill="white"/>
<path d="M246.845 105.18L246.897 95.1757C246.897 95.0953 246.891 95.015 246.88 94.9346C246.868 94.8428 246.828 94.7968 246.759 94.7968C246.702 94.7968 246.627 94.8542 246.536 94.969C246.444 95.0724 246.352 95.1929 246.26 95.3307L240.681 104.233C240.589 104.383 240.491 104.526 240.388 104.664C240.296 104.79 240.187 104.905 240.061 105.008C239.946 105.1 239.808 105.175 239.648 105.232C239.487 105.289 239.286 105.318 239.045 105.318C238.701 105.318 238.436 105.255 238.253 105.129C238.069 105.002 237.931 104.853 237.84 104.681C237.748 104.497 237.69 104.308 237.667 104.113C237.656 103.906 237.65 103.734 237.65 103.596V93.1265H239.252L239.217 102.976C239.217 103.137 239.223 103.269 239.234 103.372C239.246 103.464 239.297 103.51 239.389 103.51C239.458 103.51 239.521 103.476 239.579 103.407C239.636 103.326 239.694 103.24 239.751 103.148L245.244 94.2975C245.531 93.8268 245.801 93.4939 246.053 93.2987C246.306 93.0921 246.622 92.9888 247 92.9888C247.356 92.9888 247.632 93.0634 247.827 93.2126C248.022 93.3619 248.166 93.5398 248.257 93.7464C248.349 93.9416 248.401 94.1425 248.412 94.3491C248.435 94.5558 248.447 94.7165 248.447 94.8313V105.18H246.845Z" fill="white"/>
<path d="M261.711 105.18H260.11V99.67H253.067V105.18H251.465V93.1265H253.067V98.3613H260.11V93.1265H261.711V105.18Z" fill="white"/>
<path d="M264.726 105.18V94.8313C264.726 94.1884 264.875 93.7464 265.173 93.5054C265.472 93.2528 265.885 93.1265 266.413 93.1265H273.801V94.4352H267.119C266.786 94.4352 266.568 94.4984 266.465 94.6246C266.373 94.7394 266.327 94.9461 266.327 95.2446V105.18H264.726Z" fill="white"/>
<path d="M276.751 94.3147C276.935 93.8899 277.142 93.5628 277.371 93.3332C277.601 93.1036 277.945 92.9888 278.405 92.9888C278.841 92.9888 279.185 93.1093 279.438 93.3504C279.69 93.58 279.903 93.9014 280.075 94.3147L284.638 105.18H282.951L281.59 101.909H275.202L273.859 105.18H272.171L276.751 94.3147ZM275.684 100.6H281.108L278.835 95.0724C278.778 94.9461 278.715 94.8198 278.646 94.6935C278.588 94.5558 278.508 94.4869 278.405 94.4869C278.301 94.4869 278.221 94.5558 278.163 94.6935C278.106 94.8198 278.049 94.9461 277.991 95.0724L275.684 100.6Z" fill="white"/>
</g>
</svg>
