<svg width="333" height="156" viewBox="0 0 333 156" fill="none" xmlns="http://www.w3.org/2000/svg">
<g id="image_infogr_10">
<path d="M100.283 38.7505H2.44329C1.98805 38.7505 1.55146 38.9383 1.22956 39.2726C0.907656 39.6069 0.726807 40.0603 0.726807 40.533V89.0182C0.726807 89.491 0.907656 89.9444 1.22956 90.2787C1.55146 90.613 1.98805 90.8008 2.44329 90.8008H69.043C69.4983 90.8008 69.9349 90.613 70.2568 90.2787C70.5787 89.9444 70.7595 89.491 70.7595 89.0182C70.7595 88.5455 70.5787 88.0921 70.2568 87.7578C69.9349 87.4235 69.4983 87.2357 69.043 87.2357H4.15978V41.9591H98.5666V46.2372C98.5666 46.7099 98.7474 47.1633 99.0693 47.4976C99.3912 47.8319 99.8278 48.0197 100.283 48.0197C100.738 48.0197 101.175 47.8319 101.497 47.4976C101.819 47.1633 102 46.7099 102 46.2372V40.533C102 40.0603 101.819 39.6069 101.497 39.2726C101.175 38.9383 100.738 38.7505 100.283 38.7505Z" fill="white"/>
<path d="M96.5067 64.7756C85.1779 64.7756 79.3419 61.9235 78.9986 60.854C79.3419 59.7845 85.1779 56.9324 96.5067 56.9324C107.836 56.9324 113.672 59.7845 114.015 60.854C114.358 61.9235 107.836 64.7756 96.5067 64.7756ZM114.015 68.6972C113.672 69.7667 107.836 72.6188 96.5067 72.6188C85.1779 72.6188 79.3419 69.7667 78.9986 68.6972V65.4886C84.5577 67.8056 90.5197 68.8982 96.5067 68.6972C102.494 68.8982 108.456 67.8056 114.015 65.4886V68.6972ZM114.015 76.8969C113.672 77.9664 107.836 80.8185 96.5067 80.8185C85.1779 80.8185 79.3419 77.9664 78.9986 76.8969V73.6883C84.5577 76.0053 90.5197 77.0979 96.5067 76.8969C102.494 77.0979 108.456 76.0053 114.015 73.6883V76.8969ZM114.015 85.0966C113.672 86.1661 107.836 89.0182 96.5067 89.0182C85.1779 89.0182 79.3419 86.1661 78.9986 85.0966V81.888C84.5549 84.2151 90.519 85.308 96.5067 85.0966C102.494 85.2976 108.456 84.205 114.015 81.888V85.0966ZM114.015 93.2963C113.672 94.3658 107.836 97.2179 96.5067 97.2179C85.1779 97.2179 79.3419 94.3658 78.9986 93.2963V90.0877C84.5577 92.4047 90.5197 93.4973 96.5067 93.2963C102.494 93.4973 108.456 92.4047 114.015 90.0877V93.2963ZM114.015 101.496C113.672 102.566 107.836 105.418 96.5067 105.418C85.1779 105.418 79.3419 102.566 78.9986 101.496V98.2874C84.5577 100.604 90.5197 101.697 96.5067 101.496C102.494 101.697 108.456 100.604 114.015 98.2874V101.496ZM114.015 109.696C113.672 110.765 107.836 113.617 96.5067 113.617C85.1779 113.617 79.3419 110.765 78.9986 109.696V106.487C84.5577 108.804 90.5197 109.897 96.5067 109.696C102.494 109.897 108.456 108.804 114.015 106.487V109.696ZM96.5067 52.6543C86.2078 52.6543 74.879 55.1499 74.879 60.854V109.339C74.879 115.043 85.8645 117.539 96.5067 117.539C107.149 117.539 118.134 115.043 118.134 109.339V60.854C118.134 55.1499 107.149 52.6543 96.5067 52.6543Z" fill="white"/>
<path d="M80.7159 46.5935H65.2675C64.8122 46.5935 64.3756 46.7813 64.0537 47.1156C63.7318 47.4499 63.551 47.9033 63.551 48.3761C63.551 48.8488 63.7318 49.3022 64.0537 49.6365C64.3756 49.9708 64.8122 50.1586 65.2675 50.1586H80.7159C81.1711 50.1586 81.6077 49.9708 81.9296 49.6365C82.2515 49.3022 82.4324 48.8488 82.4324 48.3761C82.4324 47.9033 82.2515 47.4499 81.9296 47.1156C81.6077 46.7813 81.1711 46.5935 80.7159 46.5935Z" fill="white"/>
<path d="M49.474 79.3925C46.6901 79.3925 43.9688 78.5352 41.6542 76.9291C39.3395 75.323 37.5355 73.0401 36.4702 70.3692C35.4049 67.6984 35.1261 64.7594 35.6692 61.924C36.2123 59.0886 37.5528 56.4841 39.5213 54.4399C41.4897 52.3957 43.9977 51.0036 46.728 50.4396C49.4583 49.8756 52.2884 50.1651 54.8603 51.2714C57.4322 52.3777 59.6305 54.2512 61.1771 56.6549C62.7237 59.0587 63.5491 61.8847 63.5491 64.7756C63.5491 68.6523 62.0662 72.3701 59.4266 75.1113C56.787 77.8525 53.2069 79.3925 49.474 79.3925ZM49.474 46.9502C46.0791 46.9502 42.7604 47.9956 39.9377 49.9543C37.1149 51.913 34.9149 54.6969 33.6157 57.9541C32.3165 61.2113 31.9766 64.7954 32.6389 68.2532C33.3012 71.711 34.936 74.8872 37.3366 77.3801C39.7371 79.873 42.7956 81.5707 46.1253 82.2585C49.4549 82.9463 52.9062 82.5933 56.0427 81.2442C59.1791 79.895 61.8599 77.6103 63.746 74.6789C65.6321 71.7475 66.6388 68.3012 66.6388 64.7756C66.6388 60.048 64.8304 55.514 61.6114 52.1711C58.3923 48.8282 54.0264 46.9502 49.474 46.9502Z" fill="white"/>
<path d="M34.0277 79.3923H18.9226L12.0567 71.5492V58.0018L19.9525 50.1586H34.0277C34.4829 50.1586 34.9195 49.9708 35.2414 49.6365C35.5633 49.3022 35.7442 48.8488 35.7442 48.3761C35.7442 47.9033 35.5633 47.4499 35.2414 47.1156C34.9195 46.7813 34.4829 46.5935 34.0277 46.5935H17.8927L9.31028 55.5063C9.03723 55.9246 8.91562 56.4297 8.96699 56.9323V71.5492C8.96699 71.9349 9.08745 72.3101 9.31028 72.6187L17.2061 81.5314L18.5793 82.2444H34.0277C34.4829 82.2444 34.9195 82.0566 35.2414 81.7223C35.5633 81.388 35.7442 80.9346 35.7442 80.4619C35.7442 79.9891 35.5633 79.5357 35.2414 79.2014C34.9195 78.8671 34.4829 78.6793 34.0277 78.6793" fill="white"/>
<path d="M88.9553 30.5507L10.6834 12.3688H9.31024L8.62365 13.4383L4.84738 31.6202C4.80229 31.8543 4.80205 32.0953 4.84666 32.3295C4.89127 32.5637 4.97986 32.7865 5.10737 32.9851C5.23489 33.1837 5.39883 33.3543 5.58983 33.4872C5.78083 33.62 5.99515 33.7125 6.22057 33.7593C6.44598 33.8061 6.67806 33.8064 6.90357 33.76C7.12907 33.7137 7.34359 33.6217 7.53486 33.4893C7.72612 33.3569 7.89041 33.1866 8.01832 32.9883C8.14623 32.7899 8.23527 32.5674 8.28035 32.3333L11.7133 15.5773L88.2687 33.4028H88.612C88.8374 33.4262 89.065 33.4033 89.2819 33.3353C89.4988 33.2674 89.7006 33.1557 89.876 33.0067C90.0513 32.8578 90.1967 32.6744 90.3037 32.4671C90.4108 32.2598 90.4776 32.0326 90.5001 31.7985C90.5226 31.5644 90.5005 31.328 90.4351 31.1028C90.3697 30.8775 90.2622 30.6679 90.1187 30.4858C89.9753 30.3037 89.7987 30.1528 89.5991 30.0416C89.3994 29.9304 89.1807 29.8611 88.9553 29.8377" fill="white"/>
<path d="M79.6858 20.5685L32.654 0.247489C32.2842 0.10161 31.8771 0.0928913 31.5018 0.222819C31.1265 0.352747 30.8059 0.613333 30.5943 0.960496L26.818 9.16021C26.5904 9.58569 26.5348 10.0876 26.6636 10.5557C26.7924 11.0237 27.0949 11.4194 27.5046 11.6558C27.9143 11.8921 28.3976 11.9498 28.8483 11.8161C29.299 11.6824 29.68 11.3682 29.9077 10.9428L32.9973 4.16908L78.6559 23.7771C79.0476 23.8784 79.4612 23.8331 79.8239 23.6492C80.1867 23.4652 80.4754 23.1544 80.6394 22.7713C80.8033 22.3883 80.832 21.9574 80.7204 21.5545C80.6088 21.1517 80.364 20.8025 80.0291 20.5685" fill="white"/>
<path d="M145.686 47.7832V42.8364L164.722 33.8195L145.686 24.74V19.7932L173.488 33.8195L145.686 47.7832Z" fill="white"/>
<path d="M184.039 47.8771V41.3023H201.635C203.179 41.3023 204.306 41.2605 205.016 41.1771C205.768 41.0936 206.519 40.8848 207.27 40.5509C208.064 40.1752 208.585 39.5699 208.836 38.735C209.128 37.9001 209.274 36.773 209.274 35.3536C209.274 33.2246 208.878 31.6383 208.084 30.5947C207.333 29.5511 205.747 29.0293 203.325 29.0293H185.166V22.4545H202.825C205.079 22.4545 206.602 21.9953 207.396 21.0769C208.23 20.1585 208.648 18.6139 208.648 16.4432C208.648 14.5229 208.314 13.0827 207.646 12.1226C206.978 11.1207 205.601 10.6198 203.513 10.6198H184.791V4.04493H206.769C210.526 4.04493 213.198 4.98419 214.784 6.86272C216.371 8.6995 217.164 11.6008 217.164 15.5665C217.164 21.6196 214.972 24.9174 210.589 25.4601V25.7106C215.39 25.961 217.79 29.3215 217.79 35.792C217.79 39.6325 217.039 42.6173 215.536 44.7463C214.075 46.8335 211.382 47.8771 207.458 47.8771H184.039Z" fill="white"/>
<path d="M246.218 45.6229C245.905 46.3952 245.571 47.0109 245.217 47.4701C244.862 47.9084 244.309 48.1276 243.557 48.1276C242.806 48.1276 242.242 47.9084 241.866 47.4701C241.512 47.0109 241.178 46.3952 240.865 45.6229L234.352 29.3737C234.29 29.2067 234.206 29.0502 234.102 28.904C233.998 28.7579 233.893 28.6849 233.789 28.6849C233.664 28.6849 233.559 28.7475 233.476 28.8727C233.413 28.998 233.382 29.1441 233.382 29.3111L233.444 47.8771H230.533V28.1839C230.533 27.3908 230.773 26.7855 231.253 26.368C231.754 25.9297 232.443 25.7106 233.319 25.7106C233.778 25.7106 234.175 25.7732 234.509 25.8984C234.843 26.0236 235.125 26.2011 235.354 26.4307C235.605 26.6394 235.813 26.9003 235.98 27.2134C236.147 27.5265 236.304 27.8604 236.45 28.2153L242.994 44.4332C243.077 44.6419 243.15 44.8193 243.213 44.9654C243.296 45.1115 243.411 45.1846 243.557 45.1846C243.682 45.1846 243.787 45.1115 243.87 44.9654C243.954 44.8193 244.037 44.6419 244.121 44.4332L250.664 28.2153C250.936 27.5056 251.28 26.9107 251.697 26.4307C252.136 25.9506 252.825 25.7106 253.764 25.7106C254.64 25.7106 255.329 25.9297 255.83 26.368C256.331 26.7855 256.582 27.3908 256.582 28.1839V47.8771H253.67L253.732 29.3111C253.732 29.0188 253.68 28.8414 253.576 28.7788C253.472 28.7162 253.388 28.6849 253.325 28.6849C253.221 28.6849 253.117 28.7579 253.012 28.904C252.908 29.0502 252.825 29.2067 252.762 29.3737L246.218 45.6229Z" fill="white"/>
<path d="M269.134 27.7143C269.426 27.0464 269.76 26.5455 270.136 26.2115C270.532 25.8775 271.127 25.7106 271.92 25.7106C272.734 25.7106 273.329 25.8775 273.705 26.2115C274.08 26.5455 274.414 27.0464 274.707 27.7143L283.191 47.8771H280.092L272.515 29.1545C272.452 29.0084 272.39 28.8623 272.327 28.7162C272.265 28.5701 272.129 28.497 271.92 28.497C271.711 28.497 271.565 28.5805 271.482 28.7475C271.419 28.8936 271.367 29.0293 271.325 29.1545L263.749 47.8771H260.649L269.134 27.7143Z" fill="white"/>
<path d="M287.268 47.8771V28.904C287.268 27.7769 287.518 27.0047 288.019 26.5872C288.541 26.1698 289.271 25.961 290.211 25.961H300.261C301.367 25.961 302.275 26.1176 302.984 26.4307C303.715 26.7437 304.289 27.1925 304.706 27.7769C305.145 28.3405 305.447 29.0397 305.614 29.8746C305.781 30.7095 305.865 31.6383 305.865 32.6611C305.865 33.7465 305.781 34.717 305.614 35.5728C305.447 36.4077 305.145 37.1174 304.706 37.7018C304.289 38.2862 303.715 38.735 302.984 39.0481C302.275 39.3612 301.367 39.5177 300.261 39.5177H290.179V47.8771H287.268ZM299.227 37.1382C300 37.1382 300.615 37.0443 301.075 36.8565C301.555 36.6477 301.92 36.3555 302.17 35.9798C302.442 35.6041 302.619 35.1449 302.703 34.6022C302.786 34.0387 302.828 33.3916 302.828 32.6611C302.828 31.9514 302.776 31.3357 302.671 30.8139C302.588 30.2712 302.41 29.8224 302.139 29.4676C301.889 29.0919 301.523 28.8101 301.043 28.6223C300.584 28.4344 299.979 28.3405 299.227 28.3405H291.588C290.962 28.3405 290.565 28.4553 290.398 28.6849C290.252 28.9145 290.179 29.2798 290.179 29.7807V37.1382H299.227Z" fill="white"/>
<path d="M308.516 47.8771C307.974 47.8771 307.619 47.9919 307.452 48.2215C307.306 48.4511 307.233 48.8268 307.233 49.3486V52.1038H304.321V48.5659C304.321 47.3971 304.561 46.5935 305.041 46.1551C305.542 45.7168 306.273 45.4977 307.233 45.4977H307.921L315.686 27.9648C316.041 27.1508 316.448 26.5768 316.907 26.2428C317.387 25.888 317.961 25.7106 318.629 25.7106C319.36 25.7106 319.944 25.888 320.382 26.2428C320.821 26.5768 321.217 27.1508 321.572 27.9648L329.305 45.4977H330.025C330.986 45.4977 331.706 45.7168 332.186 46.1551C332.687 46.5935 332.937 47.3971 332.937 48.5659V52.1038H330.025V49.3486C330.025 48.8268 329.942 48.4511 329.775 48.2215C329.608 47.9919 329.253 47.8771 328.71 47.8771H308.516ZM310.927 45.4977H326.3L319.255 29.3424C319.151 29.1336 319.057 28.9458 318.973 28.7788C318.89 28.6118 318.765 28.5283 318.598 28.5283C318.452 28.5283 318.326 28.6223 318.222 28.8101C318.139 28.9771 318.055 29.1545 317.972 29.3424L310.927 45.4977Z" fill="white"/>
<path d="M188.319 68.5597C189.433 68.5597 190.368 68.6687 191.126 68.8868C191.895 69.0935 192.515 69.4379 192.986 69.92C193.456 70.4022 193.795 71.0393 194.002 71.8314C194.22 72.612 194.329 73.5763 194.329 74.7243C194.329 75.8838 194.22 76.8596 194.002 77.6517C193.795 78.4323 193.456 79.0637 192.986 79.5459C192.515 80.028 191.895 80.3724 191.126 80.5791C190.368 80.7857 189.433 80.889 188.319 80.889C187.217 80.889 186.282 80.7857 185.512 80.5791C184.755 80.3724 184.135 80.028 183.653 79.5459C183.182 79.0637 182.838 78.4323 182.619 77.6517C182.413 76.8596 182.309 75.8838 182.309 74.7243C182.309 73.5763 182.413 72.612 182.619 71.8314C182.838 71.0393 183.182 70.4022 183.653 69.92C184.135 69.4379 184.755 69.0935 185.512 68.8868C186.282 68.6687 187.217 68.5597 188.319 68.5597ZM183.98 74.7243C183.98 75.6427 184.043 76.4119 184.169 77.0318C184.307 77.6517 184.537 78.1511 184.858 78.5299C185.191 78.9087 185.633 79.1785 186.184 79.3392C186.746 79.5 187.458 79.5803 188.319 79.5803C189.18 79.5803 189.886 79.5 190.437 79.3392C191 79.1785 191.442 78.9087 191.763 78.5299C192.096 78.1511 192.326 77.6517 192.452 77.0318C192.59 76.4119 192.659 75.6427 192.659 74.7243C192.659 73.8174 192.59 73.054 192.452 72.4341C192.326 71.8142 192.096 71.3148 191.763 70.936C191.442 70.5571 191 70.2874 190.437 70.1267C189.886 69.9545 189.18 69.8684 188.319 69.8684C187.458 69.8684 186.746 69.9545 186.184 70.1267C185.633 70.2874 185.191 70.5571 184.858 70.936C184.537 71.3148 184.307 71.8142 184.169 72.4341C184.043 73.054 183.98 73.8174 183.98 74.7243Z" fill="white"/>
<path d="M206.616 70.0061H199.401C199.068 70.0061 198.85 70.0693 198.746 70.1955C198.655 70.3103 198.609 70.517 198.609 70.8154V73.9322H204.532C205.072 73.9322 205.514 74.0183 205.858 74.1905C206.203 74.3512 206.472 74.5808 206.668 74.8793C206.874 75.1778 207.018 75.5337 207.098 75.9469C207.178 76.3602 207.219 76.8137 207.219 77.3073C207.219 77.8009 207.178 78.2601 207.098 78.6849C207.029 79.0982 206.891 79.4598 206.685 79.7697C206.49 80.0797 206.22 80.3208 205.875 80.493C205.531 80.6652 205.095 80.7513 204.567 80.7513H198.695C198.167 80.7513 197.753 80.6307 197.455 80.3896C197.157 80.1371 197.007 79.6894 197.007 79.0465V70.4022C197.007 69.7593 197.157 69.3173 197.455 69.0762C197.753 68.8237 198.167 68.6974 198.695 68.6974H206.616V70.0061ZM198.609 75.2409V78.616C198.609 78.9145 198.655 79.1269 198.746 79.2531C198.85 79.3794 199.068 79.4426 199.401 79.4426H203.809C204.165 79.4426 204.452 79.3966 204.67 79.3048C204.9 79.213 205.078 79.0752 205.204 78.8915C205.342 78.7078 205.433 78.484 205.479 78.2199C205.525 77.9559 205.548 77.6517 205.548 77.3073C205.548 76.9629 205.525 76.6644 205.479 76.4119C205.433 76.1478 205.347 75.9297 205.221 75.7575C205.095 75.5853 204.917 75.459 204.687 75.3787C204.469 75.2868 204.176 75.2409 203.809 75.2409H198.609Z" fill="white"/>
<path d="M208.442 68.6974H210.629C211.157 68.6974 211.57 68.8237 211.869 69.0762C212.179 69.3173 212.334 69.7593 212.334 70.4022V73.8461H218.257C218.797 73.8461 219.239 73.9322 219.583 74.1044C219.928 74.2766 220.197 74.5177 220.393 74.8277C220.599 75.1261 220.743 75.4877 220.823 75.9125C220.903 76.3258 220.944 76.7792 220.944 77.2729C220.944 77.7665 220.903 78.2257 220.823 78.6504C220.754 79.0752 220.616 79.4426 220.41 79.7525C220.215 80.0625 219.945 80.3093 219.6 80.493C219.256 80.6652 218.82 80.7513 218.292 80.7513H212.42C211.892 80.7513 211.478 80.6307 211.18 80.3896C210.882 80.1371 210.732 79.6894 210.732 79.0465V70.8327C210.732 70.5342 210.681 70.3275 210.577 70.2127C210.474 70.0865 210.256 70.0233 209.923 70.0233H208.442V68.6974ZM212.334 75.1548V78.616C212.334 78.9145 212.38 79.1269 212.471 79.2531C212.575 79.3794 212.793 79.4426 213.126 79.4426H217.534C217.89 79.4426 218.177 79.3966 218.395 79.3048C218.625 79.2015 218.803 79.058 218.929 78.8743C219.067 78.6906 219.158 78.4668 219.204 78.2027C219.25 77.9272 219.273 77.6173 219.273 77.2729C219.273 76.9285 219.25 76.6243 219.204 76.3602C219.158 76.0962 219.072 75.8781 218.946 75.7059C218.82 75.5222 218.642 75.3844 218.412 75.2926C218.194 75.2007 217.901 75.1548 217.534 75.1548H212.334Z" fill="white"/>
<path d="M225.131 80.7513C224.603 80.7513 224.19 80.6192 223.892 80.3552C223.593 80.0912 223.444 79.6549 223.444 79.0465V70.4022C223.444 69.7593 223.593 69.3173 223.892 69.0762C224.19 68.8237 224.603 68.6974 225.131 68.6974H232.588V70.0061H225.837C225.505 70.0061 225.286 70.0693 225.183 70.1955C225.091 70.3103 225.045 70.517 225.045 70.8154V73.9322H232.415V75.2409H225.045V78.616C225.045 78.9145 225.091 79.1269 225.183 79.2531C225.286 79.3794 225.505 79.4426 225.837 79.4426H232.656V80.7513H225.131Z" fill="white"/>
<path d="M243.784 79.5114C243.612 79.9362 243.428 80.2748 243.233 80.5274C243.038 80.7685 242.734 80.889 242.321 80.889C241.907 80.889 241.597 80.7685 241.391 80.5274C241.196 80.2748 241.012 79.9362 240.84 79.5114L237.258 70.5744C237.223 70.4825 237.178 70.3964 237.12 70.3161C237.063 70.2357 237.005 70.1955 236.948 70.1955C236.879 70.1955 236.822 70.23 236.776 70.2988C236.741 70.3677 236.724 70.4481 236.724 70.5399L236.759 80.7513H235.157V69.92C235.157 69.4838 235.289 69.1509 235.553 68.9213C235.829 68.6802 236.208 68.5597 236.69 68.5597C236.942 68.5597 237.16 68.5941 237.344 68.663C237.528 68.7318 237.683 68.8294 237.809 68.9557C237.947 69.0705 238.062 69.214 238.153 69.3862C238.245 69.5584 238.331 69.7421 238.412 69.9372L242.011 78.8571C242.057 78.9719 242.097 79.0695 242.131 79.1498C242.177 79.2302 242.24 79.2704 242.321 79.2704C242.389 79.2704 242.447 79.2302 242.493 79.1498C242.539 79.0695 242.585 78.9719 242.63 78.8571L246.229 69.9372C246.379 69.5469 246.568 69.2197 246.798 68.9557C247.039 68.6917 247.418 68.5597 247.934 68.5597C248.416 68.5597 248.795 68.6802 249.071 68.9213C249.346 69.1509 249.484 69.4838 249.484 69.92V80.7513H247.883L247.917 70.5399C247.917 70.3792 247.888 70.2816 247.831 70.2472C247.773 70.2128 247.728 70.1955 247.693 70.1955C247.636 70.1955 247.578 70.2357 247.521 70.3161C247.464 70.3964 247.418 70.4825 247.383 70.5744L243.784 79.5114Z" fill="white"/>
<path d="M192.9 105.016H191.298V99.5052H184.255V105.016H182.654V92.9617H184.255V98.1965H191.298V92.9617H192.9V105.016Z" fill="white"/>
<path d="M199.203 94.1498C199.387 93.7251 199.594 93.3979 199.823 93.1683C200.053 92.9387 200.397 92.8239 200.856 92.8239C201.293 92.8239 201.637 92.9444 201.889 93.1855C202.142 93.4151 202.354 93.7365 202.527 94.1498L207.09 105.016H205.402L204.042 101.744H197.653L196.31 105.016H194.623L199.203 94.1498ZM198.136 100.435H203.56L201.287 94.9075C201.229 94.7812 201.166 94.6549 201.097 94.5286C201.04 94.3909 200.96 94.322 200.856 94.322C200.753 94.322 200.673 94.3909 200.615 94.5286C200.558 94.6549 200.5 94.7812 200.443 94.9075L198.136 100.435Z" fill="white"/>
<path d="M212.886 93.926C213.047 93.5586 213.23 93.2831 213.437 93.0994C213.655 92.9157 213.982 92.8239 214.419 92.8239C214.866 92.8239 215.193 92.9157 215.4 93.0994C215.607 93.2831 215.79 93.5586 215.951 93.926L220.618 105.016H218.913L214.746 94.7181C214.711 94.6377 214.677 94.5574 214.642 94.477C214.608 94.3966 214.533 94.3565 214.419 94.3565C214.304 94.3565 214.223 94.4024 214.177 94.4942C214.143 94.5746 214.114 94.6492 214.091 94.7181L209.924 105.016H208.219L212.886 93.926Z" fill="white"/>
<path d="M228.016 92.8239C229.13 92.8239 230.065 92.933 230.823 93.1511C231.592 93.3577 232.212 93.7021 232.683 94.1843C233.153 94.6664 233.492 95.3035 233.699 96.0956C233.917 96.8763 234.026 97.8406 234.026 98.9886C234.026 100.148 233.917 101.124 233.699 101.916C233.492 102.697 233.153 103.328 232.683 103.81C232.212 104.292 231.592 104.637 230.823 104.843C230.065 105.05 229.13 105.153 228.016 105.153C226.914 105.153 225.978 105.05 225.209 104.843C224.452 104.637 223.832 104.292 223.35 103.81C222.879 103.328 222.534 102.697 222.316 101.916C222.11 101.124 222.006 100.148 222.006 98.9886C222.006 97.8406 222.11 96.8763 222.316 96.0956C222.534 95.3035 222.879 94.6664 223.35 94.1843C223.832 93.7021 224.452 93.3577 225.209 93.1511C225.978 92.933 226.914 92.8239 228.016 92.8239ZM223.677 98.9886C223.677 99.907 223.74 100.676 223.866 101.296C224.004 101.916 224.234 102.415 224.555 102.794C224.888 103.173 225.33 103.443 225.881 103.603C226.443 103.764 227.155 103.845 228.016 103.845C228.877 103.845 229.583 103.764 230.134 103.603C230.697 103.443 231.139 103.173 231.46 102.794C231.793 102.415 232.023 101.916 232.149 101.296C232.287 100.676 232.356 99.907 232.356 98.9886C232.356 98.0817 232.287 97.3183 232.149 96.6983C232.023 96.0784 231.793 95.5791 231.46 95.2002C231.139 94.8214 230.697 94.5516 230.134 94.3909C229.583 94.2187 228.877 94.1326 228.016 94.1326C227.155 94.1326 226.443 94.2187 225.881 94.3909C225.33 94.5516 224.888 94.8214 224.555 95.2002C224.234 95.5791 224.004 96.0784 223.866 96.6983C223.74 97.3183 223.677 98.0817 223.677 98.9886Z" fill="white"/>
<path d="M236.704 105.016V94.6664C236.704 94.0235 236.853 93.5816 237.152 93.3405C237.45 93.0879 237.864 92.9617 238.392 92.9617H245.779V94.2704H239.098C238.765 94.2704 238.547 94.3335 238.443 94.4598C238.352 94.5746 238.306 94.7812 238.306 95.0797V105.016H236.704Z" fill="white"/>
<path d="M252.485 92.8239C253.599 92.8239 254.534 92.933 255.292 93.1511C256.061 93.3577 256.681 93.7021 257.152 94.1843C257.622 94.6664 257.961 95.3035 258.168 96.0956C258.386 96.8763 258.495 97.8406 258.495 98.9886C258.495 100.148 258.386 101.124 258.168 101.916C257.961 102.697 257.622 103.328 257.152 103.81C256.681 104.292 256.061 104.637 255.292 104.843C254.534 105.05 253.599 105.153 252.485 105.153C251.383 105.153 250.448 105.05 249.678 104.843C248.921 104.637 248.301 104.292 247.819 103.81C247.348 103.328 247.004 102.697 246.785 101.916C246.579 101.124 246.475 100.148 246.475 98.9886C246.475 97.8406 246.579 96.8763 246.785 96.0956C247.004 95.3035 247.348 94.6664 247.819 94.1843C248.301 93.7021 248.921 93.3577 249.678 93.1511C250.448 92.933 251.383 92.8239 252.485 92.8239ZM248.146 98.9886C248.146 99.907 248.209 100.676 248.335 101.296C248.473 101.916 248.703 102.415 249.024 102.794C249.357 103.173 249.799 103.443 250.35 103.603C250.912 103.764 251.624 103.845 252.485 103.845C253.346 103.845 254.052 103.764 254.603 103.603C255.166 103.443 255.608 103.173 255.929 102.794C256.262 102.415 256.492 101.916 256.618 101.296C256.756 100.676 256.825 99.907 256.825 98.9886C256.825 98.0817 256.756 97.3183 256.618 96.6983C256.492 96.0784 256.262 95.5791 255.929 95.2002C255.608 94.8214 255.166 94.5516 254.603 94.3909C254.052 94.2187 253.346 94.1326 252.485 94.1326C251.624 94.1326 250.912 94.2187 250.35 94.3909C249.799 94.5516 249.357 94.8214 249.024 95.2002C248.703 95.5791 248.473 96.0784 248.335 96.6983C248.209 97.3183 248.146 98.0817 248.146 98.9886Z" fill="white"/>
<path d="M262.775 102.811C262.775 103.144 262.821 103.38 262.913 103.517C263.004 103.644 263.222 103.707 263.567 103.707H267.941C268.618 103.707 269.077 103.546 269.318 103.225C269.571 102.903 269.697 102.381 269.697 101.658C269.697 101.348 269.674 101.066 269.628 100.814C269.582 100.561 269.496 100.343 269.37 100.16C269.255 99.9758 269.089 99.8381 268.871 99.7462C268.664 99.6429 268.4 99.5913 268.078 99.5913H262.775V102.811ZM262.775 98.2826H267.889C268.222 98.2826 268.492 98.2424 268.698 98.162C268.916 98.0817 269.083 97.9611 269.198 97.8004C269.324 97.6282 269.41 97.4158 269.456 97.1633C269.502 96.8992 269.525 96.5835 269.525 96.2162C269.525 95.6307 269.422 95.16 269.215 94.8042C269.02 94.4483 268.618 94.2704 268.01 94.2704H263.55C263.263 94.2704 263.062 94.3278 262.947 94.4426C262.832 94.5459 262.775 94.7468 262.775 95.0452V98.2826ZM269.542 98.9369C270.196 99.0288 270.661 99.2928 270.937 99.729C271.212 100.165 271.35 100.831 271.35 101.727C271.35 102.174 271.31 102.599 271.23 103.001C271.161 103.391 271.029 103.736 270.834 104.034C270.65 104.332 270.386 104.574 270.042 104.757C269.697 104.929 269.261 105.016 268.733 105.016H262.878C262.637 105.016 262.407 104.993 262.189 104.947C261.983 104.901 261.805 104.815 261.655 104.688C261.506 104.562 261.386 104.39 261.294 104.172C261.213 103.954 261.173 103.678 261.173 103.345V94.6664C261.173 93.5299 261.701 92.9617 262.758 92.9617H268.612C269.531 92.9617 270.191 93.2429 270.592 93.8054C270.994 94.3679 271.195 95.1773 271.195 96.2334C271.195 96.5663 271.167 96.882 271.109 97.1805C271.063 97.479 270.977 97.7488 270.851 97.9898C270.736 98.2194 270.57 98.4146 270.351 98.5753C270.133 98.7245 269.864 98.8221 269.542 98.868V98.9369Z" fill="white"/>
<path d="M285.565 105.016V92.9617H287.167V105.016H285.565ZM275.716 92.9617V98.1104H281.467C282.007 98.1104 282.449 98.1965 282.793 98.3687C283.137 98.5409 283.407 98.7819 283.602 99.0919C283.809 99.3904 283.952 99.752 284.033 100.177C284.113 100.59 284.153 101.043 284.153 101.537C284.153 102.031 284.113 102.49 284.033 102.915C283.964 103.339 283.826 103.707 283.619 104.017C283.424 104.327 283.155 104.574 282.81 104.757C282.466 104.929 282.029 105.016 281.501 105.016H275.802C275.297 105.016 274.889 104.901 274.579 104.671C274.269 104.43 274.114 104.005 274.114 103.397V92.9617H275.716ZM275.716 99.4191V102.88C275.716 103.179 275.761 103.391 275.853 103.517C275.957 103.644 276.175 103.707 276.508 103.707H280.744C281.1 103.707 281.387 103.661 281.605 103.569C281.834 103.466 282.012 103.322 282.139 103.139C282.276 102.955 282.368 102.731 282.414 102.467C282.46 102.191 282.483 101.882 282.483 101.537C282.483 101.193 282.46 100.888 282.414 100.624C282.368 100.36 282.282 100.142 282.156 99.9701C282.029 99.7864 281.852 99.6487 281.622 99.5568C281.404 99.465 281.111 99.4191 280.744 99.4191H275.716Z" fill="white"/>
<path d="M298.087 105.016L294.453 100.039L290.785 105.016H288.891L293.541 98.9025L289.029 92.9617H290.923L294.436 97.766L297.932 92.9617H299.843L295.331 98.9025L299.981 105.016H298.087Z" fill="white"/>
<path d="M188.319 117.088C189.433 117.088 190.368 117.197 191.126 117.415C191.895 117.622 192.515 117.966 192.986 118.449C193.456 118.931 193.795 119.568 194.002 120.36C194.22 121.141 194.329 122.105 194.329 123.253C194.329 124.412 194.22 125.388 194.002 126.18C193.795 126.961 193.456 127.592 192.986 128.074C192.515 128.557 191.895 128.901 191.126 129.108C190.368 129.314 189.433 129.418 188.319 129.418C187.217 129.418 186.282 129.314 185.512 129.108C184.755 128.901 184.135 128.557 183.653 128.074C183.182 127.592 182.838 126.961 182.619 126.18C182.413 125.388 182.309 124.412 182.309 123.253C182.309 122.105 182.413 121.141 182.619 120.36C182.838 119.568 183.182 118.931 183.653 118.449C184.135 117.966 184.755 117.622 185.512 117.415C186.282 117.197 187.217 117.088 188.319 117.088ZM183.98 123.253C183.98 124.171 184.043 124.94 184.169 125.56C184.307 126.18 184.537 126.68 184.858 127.058C185.191 127.437 185.633 127.707 186.184 127.868C186.746 128.028 187.458 128.109 188.319 128.109C189.18 128.109 189.886 128.028 190.437 127.868C191 127.707 191.442 127.437 191.763 127.058C192.096 126.68 192.326 126.18 192.452 125.56C192.59 124.94 192.659 124.171 192.659 123.253C192.659 122.346 192.59 121.582 192.452 120.963C192.326 120.343 192.096 119.843 191.763 119.464C191.442 119.086 191 118.816 190.437 118.655C189.886 118.483 189.18 118.397 188.319 118.397C187.458 118.397 186.746 118.483 186.184 118.655C185.633 118.816 185.191 119.086 184.858 119.464C184.537 119.843 184.307 120.343 184.169 120.963C184.043 121.582 183.98 122.346 183.98 123.253Z" fill="white"/>
<path d="M199.904 129.28V118.535H195.03V117.226H206.378V118.535H201.505V129.28H199.904Z" fill="white"/>
<path d="M216.153 129.28V124.01H210.608C209.781 124.01 209.144 123.769 208.697 123.287C208.249 122.805 208.025 122.151 208.025 121.324V117.226H209.626V121.049C209.626 121.634 209.747 122.059 209.988 122.323C210.229 122.576 210.642 122.702 211.228 122.702H216.153V117.226H217.754V129.28H216.153Z" fill="white"/>
<path d="M229.965 129.28L230.017 119.275C230.017 119.195 230.011 119.114 230 119.034C229.988 118.942 229.948 118.896 229.879 118.896C229.822 118.896 229.747 118.954 229.656 119.068C229.564 119.172 229.472 119.292 229.38 119.43L223.801 128.333C223.709 128.482 223.611 128.625 223.508 128.763C223.416 128.889 223.307 129.004 223.181 129.108C223.066 129.199 222.928 129.274 222.768 129.331C222.607 129.389 222.406 129.418 222.165 129.418C221.82 129.418 221.556 129.354 221.373 129.228C221.189 129.102 221.051 128.953 220.96 128.78C220.868 128.597 220.81 128.407 220.787 128.212C220.776 128.005 220.77 127.833 220.77 127.696V117.226H222.372L222.337 127.076C222.337 127.236 222.343 127.368 222.354 127.472C222.366 127.564 222.417 127.609 222.509 127.609C222.578 127.609 222.641 127.575 222.699 127.506C222.756 127.426 222.814 127.34 222.871 127.248L228.364 118.397C228.651 117.926 228.921 117.593 229.173 117.398C229.426 117.191 229.742 117.088 230.12 117.088C230.476 117.088 230.752 117.163 230.947 117.312C231.142 117.461 231.286 117.639 231.377 117.846C231.469 118.041 231.521 118.242 231.532 118.449C231.555 118.655 231.567 118.816 231.567 118.931V129.28H229.965Z" fill="white"/>
<path d="M239.269 129.28C238.259 129.28 237.427 129.125 236.772 128.815C236.129 128.493 235.619 128.063 235.24 127.523C234.861 126.972 234.597 126.329 234.448 125.595C234.31 124.86 234.241 124.074 234.241 123.236C234.241 122.398 234.31 121.617 234.448 120.894C234.597 120.159 234.861 119.522 235.24 118.982C235.63 118.431 236.152 118.001 236.807 117.691C237.473 117.381 238.322 117.226 239.355 117.226H244.022V118.535H239.889C239.131 118.535 238.5 118.626 237.995 118.81C237.49 118.994 237.082 119.281 236.772 119.671C236.462 120.05 236.238 120.538 236.101 121.135C235.974 121.72 235.911 122.421 235.911 123.236C235.911 124.051 235.974 124.757 236.101 125.354C236.227 125.951 236.439 126.444 236.738 126.835C237.048 127.225 237.45 127.512 237.943 127.696C238.437 127.879 239.057 127.971 239.803 127.971H244.194V129.28H239.269Z" fill="white"/>
<path d="M250.43 118.19C250.591 117.823 250.775 117.547 250.981 117.364C251.2 117.18 251.527 117.088 251.963 117.088C252.411 117.088 252.738 117.18 252.945 117.364C253.151 117.547 253.335 117.823 253.496 118.19L258.162 129.28H256.457L252.29 118.982C252.256 118.902 252.221 118.822 252.187 118.741C252.152 118.661 252.078 118.621 251.963 118.621C251.848 118.621 251.768 118.667 251.722 118.758C251.687 118.839 251.659 118.913 251.636 118.982L247.469 129.28H245.764L250.43 118.19Z" fill="white"/>
<path d="M261.583 129.28C261.055 129.28 260.641 129.148 260.343 128.884C260.045 128.62 259.895 128.183 259.895 127.575V118.931C259.895 118.288 260.045 117.846 260.343 117.605C260.641 117.352 261.055 117.226 261.583 117.226H269.039V118.535H262.289C261.956 118.535 261.738 118.598 261.634 118.724C261.543 118.839 261.497 119.045 261.497 119.344V122.461H268.867V123.769H261.497V127.145C261.497 127.443 261.543 127.655 261.634 127.782C261.738 127.908 261.956 127.971 262.289 127.971H269.108V129.28H261.583Z" fill="white"/>
<path d="M281.854 129.28H280.253V123.769H273.21V129.28H271.608V117.226H273.21V122.461H280.253V117.226H281.854V129.28Z" fill="white"/>
<path d="M294.064 129.28L294.116 119.275C294.116 119.195 294.11 119.114 294.099 119.034C294.087 118.942 294.047 118.896 293.978 118.896C293.921 118.896 293.846 118.954 293.754 119.068C293.662 119.172 293.571 119.292 293.479 119.43L287.9 128.333C287.808 128.482 287.71 128.625 287.607 128.763C287.515 128.889 287.406 129.004 287.28 129.108C287.165 129.199 287.027 129.274 286.866 129.331C286.706 129.389 286.505 129.418 286.264 129.418C285.919 129.418 285.655 129.354 285.472 129.228C285.288 129.102 285.15 128.953 285.058 128.78C284.966 128.597 284.909 128.407 284.886 128.212C284.875 128.005 284.869 127.833 284.869 127.696V117.226H286.47L286.436 127.076C286.436 127.236 286.442 127.368 286.453 127.472C286.465 127.564 286.516 127.609 286.608 127.609C286.677 127.609 286.74 127.575 286.797 127.506C286.855 127.426 286.912 127.34 286.97 127.248L292.463 118.397C292.75 117.926 293.02 117.593 293.272 117.398C293.525 117.191 293.84 117.088 294.219 117.088C294.575 117.088 294.851 117.163 295.046 117.312C295.241 117.461 295.384 117.639 295.476 117.846C295.568 118.041 295.62 118.242 295.631 118.449C295.654 118.655 295.666 118.816 295.666 118.931V129.28H294.064Z" fill="white"/>
<path d="M307.879 129.28L307.931 119.275C307.931 119.195 307.925 119.114 307.914 119.034C307.902 118.942 307.862 118.896 307.793 118.896C307.736 118.896 307.661 118.954 307.57 119.068C307.478 119.172 307.386 119.292 307.294 119.43L301.715 128.333C301.623 128.482 301.525 128.625 301.422 128.763C301.33 128.889 301.221 129.004 301.095 129.108C300.98 129.199 300.842 129.274 300.682 129.331C300.521 129.389 300.32 129.418 300.079 129.418C299.735 129.418 299.47 129.354 299.287 129.228C299.103 129.102 298.965 128.953 298.874 128.78C298.782 128.597 298.724 128.407 298.701 128.212C298.69 128.005 298.684 127.833 298.684 127.696V117.226H300.286L300.251 127.076C300.251 127.236 300.257 127.368 300.268 127.472C300.28 127.564 300.331 127.609 300.423 127.609C300.492 127.609 300.555 127.575 300.613 127.506C300.67 127.426 300.728 127.34 300.785 127.248L306.278 118.397C306.565 117.926 306.835 117.593 307.087 117.398C307.34 117.191 307.656 117.088 308.034 117.088C308.39 117.088 308.666 117.163 308.861 117.312C309.056 117.461 309.2 117.639 309.292 117.846C309.383 118.041 309.435 118.242 309.446 118.449C309.469 118.655 309.481 118.816 309.481 118.931V129.28H307.879ZM304.057 115.676C304.47 115.676 304.832 115.596 305.142 115.435C305.463 115.274 305.681 114.999 305.796 114.608H307.139C306.967 115.332 306.628 115.866 306.123 116.21C305.629 116.554 304.941 116.727 304.057 116.727C303.173 116.727 302.478 116.554 301.973 116.21C301.468 115.866 301.135 115.332 300.974 114.608H302.317C302.421 114.999 302.633 115.274 302.955 115.435C303.276 115.596 303.643 115.676 304.057 115.676Z" fill="white"/>
<path d="M184.255 151.34C184.255 151.673 184.301 151.908 184.393 152.046C184.485 152.172 184.703 152.235 185.047 152.235H189.421C190.099 152.235 190.558 152.075 190.799 151.753C191.051 151.432 191.178 150.909 191.178 150.186C191.178 149.876 191.155 149.595 191.109 149.342C191.063 149.09 190.977 148.872 190.85 148.688C190.736 148.504 190.569 148.367 190.351 148.275C190.144 148.171 189.88 148.12 189.559 148.12H184.255V151.34ZM184.255 146.811H189.37C189.703 146.811 189.972 146.771 190.179 146.691C190.397 146.61 190.564 146.49 190.678 146.329C190.805 146.157 190.891 145.944 190.937 145.692C190.983 145.428 191.005 145.112 191.005 144.745C191.005 144.159 190.902 143.689 190.696 143.333C190.5 142.977 190.099 142.799 189.49 142.799H185.03C184.743 142.799 184.542 142.856 184.428 142.971C184.313 143.074 184.255 143.275 184.255 143.574V146.811ZM191.023 147.465C191.677 147.557 192.142 147.821 192.418 148.258C192.693 148.694 192.831 149.36 192.831 150.255C192.831 150.703 192.791 151.127 192.71 151.529C192.641 151.92 192.509 152.264 192.314 152.562C192.131 152.861 191.866 153.102 191.522 153.286C191.178 153.458 190.741 153.544 190.213 153.544H184.359C184.118 153.544 183.888 153.521 183.67 153.475C183.463 153.429 183.285 153.343 183.136 153.217C182.987 153.091 182.866 152.918 182.774 152.7C182.694 152.482 182.654 152.207 182.654 151.874V143.195C182.654 142.058 183.182 141.49 184.238 141.49H190.093C191.011 141.49 191.671 141.771 192.073 142.334C192.475 142.896 192.676 143.706 192.676 144.762C192.676 145.095 192.647 145.411 192.59 145.709C192.544 146.007 192.458 146.277 192.331 146.518C192.217 146.748 192.05 146.943 191.832 147.104C191.614 147.253 191.344 147.351 191.023 147.397V147.465Z" fill="white"/>
<path d="M200.396 153.544V143.195C200.396 142.552 200.546 142.11 200.844 141.869C201.143 141.616 201.556 141.49 202.084 141.49H209.471V142.799H202.79C202.457 142.799 202.239 142.862 202.136 142.988C202.044 143.103 201.998 143.31 201.998 143.608V153.544H200.396Z" fill="white"/>
<path d="M216.178 141.352C217.291 141.352 218.227 141.461 218.984 141.68C219.753 141.886 220.373 142.231 220.844 142.713C221.315 143.195 221.653 143.832 221.86 144.624C222.078 145.405 222.187 146.369 222.187 147.517C222.187 148.677 222.078 149.652 221.86 150.444C221.653 151.225 221.315 151.856 220.844 152.339C220.373 152.821 219.753 153.165 218.984 153.372C218.227 153.578 217.291 153.682 216.178 153.682C215.075 153.682 214.14 153.578 213.371 153.372C212.613 153.165 211.993 152.821 211.511 152.339C211.04 151.856 210.696 151.225 210.478 150.444C210.271 149.652 210.168 148.677 210.168 147.517C210.168 146.369 210.271 145.405 210.478 144.624C210.696 143.832 211.04 143.195 211.511 142.713C211.993 142.231 212.613 141.886 213.371 141.68C214.14 141.461 215.075 141.352 216.178 141.352ZM211.838 147.517C211.838 148.435 211.901 149.205 212.028 149.825C212.165 150.444 212.395 150.944 212.716 151.323C213.049 151.701 213.491 151.971 214.042 152.132C214.605 152.293 215.317 152.373 216.178 152.373C217.038 152.373 217.745 152.293 218.296 152.132C218.858 151.971 219.3 151.701 219.621 151.323C219.954 150.944 220.184 150.444 220.31 149.825C220.448 149.205 220.517 148.435 220.517 147.517C220.517 146.61 220.448 145.847 220.31 145.227C220.184 144.607 219.954 144.108 219.621 143.729C219.3 143.35 218.858 143.08 218.296 142.919C217.745 142.747 217.038 142.661 216.178 142.661C215.317 142.661 214.605 142.747 214.042 142.919C213.491 143.08 213.049 143.35 212.716 143.729C212.395 144.108 212.165 144.607 212.028 145.227C211.901 145.847 211.838 146.61 211.838 147.517Z" fill="white"/>
<path d="M224.852 153.544C224.553 153.544 224.358 153.607 224.266 153.733C224.186 153.86 224.146 154.066 224.146 154.353V155.869H222.544V153.923C222.544 153.28 222.676 152.838 222.94 152.597C223.216 152.356 223.618 152.235 224.146 152.235H224.525L228.795 142.592C228.99 142.144 229.214 141.829 229.467 141.645C229.731 141.45 230.046 141.352 230.414 141.352C230.816 141.352 231.137 141.45 231.378 141.645C231.619 141.829 231.837 142.144 232.032 142.592L236.286 152.235H236.682C237.21 152.235 237.606 152.356 237.87 152.597C238.145 152.838 238.283 153.28 238.283 153.923V155.869H236.682V154.353C236.682 154.066 236.636 153.86 236.544 153.733C236.452 153.607 236.257 153.544 235.958 153.544H224.852ZM226.178 152.235H234.633L230.758 143.35C230.701 143.235 230.649 143.132 230.603 143.04C230.557 142.948 230.488 142.902 230.397 142.902C230.316 142.902 230.247 142.954 230.19 143.057C230.144 143.149 230.098 143.247 230.052 143.35L226.178 152.235Z" fill="white"/>
</g>
</svg>
