<svg width="347" height="130" viewBox="0 0 347 130" fill="none" xmlns="http://www.w3.org/2000/svg">
<g id="image_infogr_11">
<path d="M12.5507 11.8464C14.6456 11.8464 16.6547 12.6786 18.136 14.1599C19.6174 15.6413 20.4497 17.6504 20.4497 19.7454V89.041C18.3159 87.0208 15.4891 85.895 12.5507 85.895C9.61229 85.895 6.7855 87.0208 4.65167 89.041V19.7454C4.65167 17.6504 5.48383 15.6413 6.96517 14.1599C8.44652 12.6786 10.4558 11.8464 12.5507 11.8464ZM39.838 3.94737C41.3616 3.94737 42.8229 4.55261 43.9003 5.62995C44.9776 6.70729 45.5828 8.16851 45.5828 9.6921V15.4368H33.7342V9.6921C33.7342 8.16851 34.3394 6.70729 35.4168 5.62995C36.4941 4.55261 37.9555 3.94737 39.479 3.94737H39.838ZM39.479 86.1686L34.0934 72.5249C35.5917 71.2359 37.5026 70.5271 39.479 70.5271C41.4555 70.5271 43.3664 71.2359 44.8647 72.5249L39.479 86.1686ZM45.2237 68.2163L41.2743 66.7802V33.3891C41.2743 32.8653 41.0661 32.363 40.6957 31.9927C40.3254 31.6224 39.8233 31.4143 39.2996 31.4143C38.7758 31.4143 38.2735 31.6224 37.9032 31.9927C37.5328 32.363 37.3246 32.8653 37.3246 33.3891V66.7802L33.3752 68.2163V19.7454H45.2237V68.2163ZM11.8326 117.765H92.6176C95.76 117.765 98.7737 116.516 100.996 114.294C103.218 112.072 104.466 109.058 104.466 105.916C104.466 105.392 104.258 104.89 103.888 104.52C103.517 104.149 103.015 103.941 102.491 103.941C101.968 103.941 101.465 104.149 101.095 104.52C100.725 104.89 100.517 105.392 100.517 105.916C100.517 106.953 100.312 107.981 99.9153 108.939C99.5183 109.897 98.9366 110.768 98.2031 111.501C97.4697 112.235 96.5988 112.817 95.6405 113.214C94.6821 113.611 93.6549 113.815 92.6176 113.815H12.5507C10.4558 113.815 8.44652 112.983 6.96517 111.501C5.48383 110.02 4.65167 108.011 4.65167 105.916V98.0171C4.65167 95.9222 5.48383 93.913 6.96517 92.4317C8.44652 90.9503 10.4558 90.1181 12.5507 90.1181C14.6456 90.1181 16.6547 90.9503 18.136 92.4317C19.6174 93.913 20.4497 95.9222 20.4497 98.0171C20.4497 98.5408 20.6577 99.0432 21.028 99.4135C21.3984 99.7838 21.9007 99.9918 22.4244 99.9918C22.9482 99.9918 23.4505 99.7838 23.8208 99.4135C24.1911 99.0432 24.3991 98.5408 24.3991 98.0171V27.6443H30.1438V72.884L36.2476 87.9638C36.531 88.6904 37.0232 89.3169 37.6621 89.7642C38.3011 90.2114 39.0582 90.4596 39.838 90.4771H45.5828C46.1066 90.4771 46.6087 90.2691 46.979 89.8987C47.3493 89.5284 47.5576 89.0262 47.5576 88.5024C47.5576 87.9787 47.3493 87.4764 46.979 87.1061C46.6087 86.7357 46.1066 86.5276 45.5828 86.5276H43.7876L49.1733 73.243V10.0512C49.1733 7.4801 48.1519 5.01432 46.3339 3.19631C44.5158 1.37829 42.0501 0.356918 39.479 0.356918C36.908 0.356918 34.4423 1.37829 32.6242 3.19631C30.8062 5.01432 29.7848 7.4801 29.7848 10.0512V23.6948H24.0402V19.7454C24.3402 18.0416 24.2634 16.2929 23.8153 14.622C23.3673 12.9511 22.5587 11.3986 21.4466 10.0735C20.3345 8.74845 18.9459 7.68299 17.378 6.95199C15.8101 6.22098 14.1011 5.84213 12.3712 5.84213C10.6413 5.84213 8.93234 6.22098 7.36445 6.95199C5.79656 7.68299 4.40774 8.74845 3.29561 10.0735C2.18349 11.3986 1.37492 12.9511 0.926893 14.622C0.478861 16.2929 0.402273 18.0416 0.702271 19.7454V105.557C0.702271 108.699 1.95061 111.713 4.17263 113.935C6.39465 116.157 9.40829 117.406 12.5507 117.406" fill="white"/>
<path d="M37.6835 98.0171H47.3777C47.9015 98.0171 48.4036 97.809 48.7739 97.4387C49.1442 97.0684 49.3524 96.566 49.3524 96.0423C49.3524 95.5186 49.1442 95.0164 48.7739 94.646C48.4036 94.2757 47.9015 94.0676 47.3777 94.0676H37.6835C37.1598 94.0676 36.6574 94.2757 36.2871 94.646C35.9168 95.0164 35.7088 95.5186 35.7088 96.0423C35.7088 96.566 35.9168 97.0684 36.2871 97.4387C36.6574 97.809 37.1598 98.0171 37.6835 98.0171Z" fill="white"/>
<path d="M51.3273 87.9641C51.3273 88.4403 51.5164 88.897 51.8531 89.2336C52.1897 89.5703 52.6464 89.7594 53.1226 89.7594H66.7662C67.2899 89.7594 67.7923 89.5514 68.1626 89.1811C68.5329 88.8107 68.7409 88.3084 68.7409 87.7847C68.7409 87.2609 68.5329 86.7586 68.1626 86.3883C67.7923 86.0179 67.2899 85.81 66.7662 85.81H53.1226C52.6464 85.81 52.1897 85.999 51.8531 86.3357C51.5164 86.6724 51.3273 87.1291 51.3273 87.6052" fill="white"/>
<path d="M114.161 80.783L110.57 81.5011C109.927 81.6253 109.326 81.9072 108.819 82.3216C108.312 82.736 107.917 83.2699 107.667 83.8751C107.418 84.4804 107.323 85.1382 107.391 85.7892C107.459 86.4403 107.688 87.0642 108.057 87.6049L110.211 90.8363L106.98 94.0677L103.748 91.9134C103.208 91.5445 102.584 91.3158 101.933 91.2478C101.282 91.1798 100.624 91.2747 100.019 91.5239C99.4133 91.7731 98.8795 92.1689 98.4651 92.6756C98.0507 93.1823 97.7688 93.7841 97.6446 94.4268L96.9265 98.0172H92.259L91.5408 94.4268C91.4167 93.7841 91.1348 93.1823 90.7204 92.6756C90.306 92.1689 89.7721 91.7731 89.1669 91.5239C88.5616 91.2747 87.9037 91.1798 87.2526 91.2478C86.6016 91.3158 85.9777 91.5445 85.437 91.9134L82.2055 94.0677L78.9743 90.8363L81.1284 87.6049C81.4974 87.0642 81.7262 86.4403 81.7942 85.7892C81.8622 85.1382 81.7673 84.4804 81.5181 83.8751C81.2689 83.2699 80.873 82.736 80.3663 82.3216C79.8596 81.9072 79.2578 81.6253 78.6151 81.5011L75.0247 80.783V76.1155L78.6151 75.3973C79.2578 75.2732 79.8596 74.9913 80.3663 74.5769C80.873 74.1625 81.2689 73.6286 81.5181 73.0234C81.7673 72.4181 81.8622 71.7604 81.7942 71.1094C81.7262 70.4583 81.4974 69.8344 81.1284 69.2937L78.9743 66.0623L82.2055 62.8308L85.437 64.9851C85.9777 65.354 86.6016 65.5827 87.2526 65.6507C87.9037 65.7187 88.5616 65.6239 89.1669 65.3747C89.7721 65.1255 90.306 64.7297 90.7204 64.223C91.1348 63.7163 91.4167 63.1145 91.5408 62.4718L92.259 58.8814H96.9265L97.6446 62.4718C97.7688 63.1145 98.0507 63.7163 98.4651 64.223C98.8795 64.7297 99.4133 65.1255 100.019 65.3747C100.624 65.6239 101.282 65.7187 101.933 65.6507C102.584 65.5827 103.208 65.354 103.748 64.9851L106.98 62.8308L110.211 66.0623L108.057 69.2937C107.688 69.8344 107.459 70.4583 107.391 71.1094C107.323 71.7604 107.418 72.4181 107.667 73.0234C107.917 73.6286 108.312 74.1625 108.819 74.5769C109.326 74.9913 109.927 75.2732 110.57 75.3973L114.161 76.1155V80.783ZM114.879 72.166L111.288 71.4479L113.442 68.2165C113.977 67.468 114.234 66.5562 114.169 65.6385C114.103 64.7207 113.719 63.8547 113.084 63.1899L109.852 59.9585C109.187 59.3225 108.321 58.9386 107.404 58.8731C106.486 58.8075 105.574 59.0644 104.826 59.5994L101.594 61.7537L100.876 58.1632C100.706 57.2445 100.216 56.4156 99.4931 55.824C98.77 55.2324 97.8607 54.9163 96.9265 54.9319H92.259C91.3248 54.9163 90.4152 55.2324 89.6921 55.824C88.969 56.4156 88.4791 57.2445 88.3093 58.1632L87.5912 61.7537L84.3599 59.5994C83.6114 59.0644 82.6997 58.8075 81.7819 58.8731C80.8642 58.9386 79.9981 59.3225 79.3332 59.9585L76.102 63.1899C75.466 63.8547 75.0821 64.7207 75.0165 65.6385C74.951 66.5562 75.2078 67.468 75.7428 68.2165L77.8972 71.4479L74.3067 72.166C73.388 72.3357 72.559 72.8257 71.9674 73.5488C71.3757 74.2719 71.0597 75.1813 71.0752 76.1155V80.783C71.0597 81.7172 71.3757 82.6266 71.9674 83.3497C72.559 84.0728 73.388 84.5628 74.3067 84.7325L77.8972 85.4507L75.7428 88.682C75.2078 89.4305 74.951 90.3423 75.0165 91.26C75.0821 92.1778 75.466 93.0438 76.102 93.7086L79.3332 96.94C79.9981 97.576 80.8642 97.9599 81.7819 98.0254C82.6997 98.091 83.6114 97.8341 84.3599 97.2991L87.5912 95.1448L88.3093 98.7353C88.4791 99.654 88.969 100.483 89.6921 101.075C90.4152 101.666 91.3248 101.982 92.259 101.967H96.9265C97.8607 101.982 98.77 101.666 99.4931 101.075C100.216 100.483 100.706 99.654 100.876 98.7353L101.594 95.1448L104.826 97.2991C105.574 97.8341 106.486 98.091 107.404 98.0254C108.321 97.9599 109.187 97.576 109.852 96.94L113.084 93.7086C113.719 93.0438 114.103 92.1778 114.169 91.26C114.234 90.3423 113.977 89.4305 113.442 88.682L111.288 85.4507L114.879 84.7325C115.797 84.5628 116.626 84.0728 117.218 83.3497C117.81 82.6266 118.126 81.7172 118.11 80.783V76.1155C118.126 75.1813 117.81 74.2719 117.218 73.5488C116.626 72.8257 115.797 72.3357 114.879 72.166Z" fill="white"/>
<path d="M35.8886 103.762C35.8886 104.238 36.0777 104.695 36.4143 105.031C36.751 105.368 37.2077 105.557 37.6838 105.557H76.8196C77.3433 105.557 77.8456 105.349 78.216 104.979C78.5863 104.608 78.7945 104.106 78.7945 103.582C78.7945 103.059 78.5863 102.556 78.216 102.186C77.8456 101.816 77.3433 101.608 76.8196 101.608H37.6838C37.2077 101.608 36.751 101.797 36.4143 102.134C36.0777 102.47 35.8886 102.927 35.8886 103.403" fill="white"/>
<path d="M53.4817 95.8628C53.4817 96.339 53.6709 96.7956 54.0076 97.1322C54.3443 97.4689 54.8008 97.6581 55.2769 97.6581H71.0749C71.5987 97.6581 72.101 97.45 72.4713 97.0796C72.8417 96.7093 73.0496 96.2071 73.0496 95.6834C73.0496 95.1596 72.8417 94.6573 72.4713 94.287C72.101 93.9166 71.5987 93.7085 71.0749 93.7085H55.2769C54.8008 93.7085 54.3443 93.8977 54.0076 94.2344C53.6709 94.5711 53.4817 95.0276 53.4817 95.5038" fill="white"/>
<path d="M94.4129 86.1685C92.8506 86.1685 91.3235 85.7053 90.0245 84.8373C88.7255 83.9694 87.713 82.7357 87.1152 81.2923C86.5173 79.849 86.3609 78.2608 86.6657 76.7286C86.9705 75.1963 87.7227 73.7888 88.8273 72.6842C89.932 71.5795 91.3396 70.8271 92.8719 70.5223C94.4041 70.2175 95.9924 70.374 97.4357 70.9719C98.8791 71.5697 100.113 72.5821 100.981 73.8811C101.849 75.1801 102.312 76.7073 102.312 78.2696C102.312 80.3645 101.48 82.3736 99.9984 83.855C98.5171 85.3363 96.5078 86.1685 94.4129 86.1685ZM94.4129 66.7801C92.0695 66.7801 89.7787 67.475 87.8302 68.7769C85.8818 70.0789 84.363 71.9293 83.4662 74.0943C82.5694 76.2594 82.335 78.6418 82.7921 80.9402C83.2493 83.2385 84.3778 85.3497 86.0348 87.0067C87.6918 88.6637 89.803 89.7922 92.1014 90.2494C94.3997 90.7066 96.7822 90.472 98.9472 89.5752C101.112 88.6784 102.963 87.1597 104.264 85.2113C105.566 83.2628 106.261 80.972 106.261 78.6286C106.261 75.4862 105.013 72.4725 102.791 70.2505C100.569 68.0284 97.5553 66.7801 94.4129 66.7801Z" fill="white"/>
<path d="M57.4318 27.2853L61.0223 26.5673C61.665 26.4431 62.2667 26.1611 62.7735 25.7467C63.2802 25.3323 63.6758 24.7985 63.9251 24.1932C64.1743 23.5879 64.2692 22.9302 64.2012 22.2792C64.1332 21.6281 63.9046 21.0042 63.5356 20.4635L61.3812 17.2321L64.6127 14.0007L67.844 16.155C68.3847 16.5239 69.0088 16.7526 69.6598 16.8206C70.3109 16.8886 70.9685 16.7937 71.5738 16.5445C72.1791 16.2953 72.7129 15.8995 73.1273 15.3928C73.5417 14.8861 73.8236 14.2844 73.9478 13.6417L74.6659 10.0512H79.3335L80.0516 13.6417C80.1758 14.2844 80.4577 14.8861 80.8721 15.3928C81.2865 15.8995 81.8203 16.2953 82.4256 16.5445C83.0309 16.7937 83.6885 16.8886 84.3396 16.8206C84.9906 16.7526 85.6147 16.5239 86.1554 16.155L89.3867 14.0007L92.6182 17.2321L90.464 20.4635C90.0951 21.0042 89.8662 21.6281 89.7982 22.2792C89.7302 22.9302 89.8251 23.5879 90.0743 24.1932C90.3236 24.7985 90.7192 25.3323 91.2259 25.7467C91.7327 26.1611 92.3344 26.4431 92.9771 26.5673L96.5676 27.2853V31.9529L92.9771 32.671C92.3344 32.7952 91.7327 33.0772 91.2259 33.4916C90.7192 33.906 90.3236 34.4398 90.0743 35.0451C89.8251 35.6504 89.7302 36.3081 89.7982 36.9591C89.8662 37.6101 90.0951 38.2341 90.464 38.7748L92.6182 42.0062L89.3867 45.2376L86.1554 43.0833C85.6147 42.7144 84.9906 42.4856 84.3396 42.4176C83.6885 42.3496 83.0309 42.4445 82.4256 42.6938C81.8203 42.943 81.2865 43.3388 80.8721 43.8455C80.4577 44.3522 80.1758 44.9539 80.0516 45.5966L79.3335 49.1871H74.6659L73.9478 45.5966C73.8236 44.9539 73.5417 44.3522 73.1273 43.8455C72.7129 43.3388 72.1791 42.943 71.5738 42.6938C70.9685 42.4445 70.3109 42.3496 69.6598 42.4176C69.0088 42.4856 68.3847 42.7144 67.844 43.0833L64.6127 45.2376L61.3812 42.0062L63.5356 38.7748C63.9046 38.2341 64.1332 37.6101 64.2012 36.9591C64.2692 36.3081 64.1743 35.6504 63.9251 35.0451C63.6758 34.4398 63.2802 33.906 62.7735 33.4916C62.2667 33.0772 61.665 32.7952 61.0223 32.671L57.4318 31.9529V27.2853ZM53.4822 27.2853V31.9529C53.4667 32.8871 53.7829 33.7965 54.3746 34.5196C54.9662 35.2427 55.795 35.7326 56.7137 35.9024L60.3041 36.6205L58.15 39.8519C57.615 40.6004 57.3579 41.5122 57.4235 42.4299C57.4891 43.3476 57.873 44.2136 58.5089 44.8785L61.7404 48.11C62.4053 48.746 63.2712 49.1298 64.1889 49.1953C65.1066 49.2609 66.0184 49.004 66.7669 48.469L69.9984 46.3148L70.7165 49.9052C70.8863 50.824 71.3762 51.6527 72.0993 52.2444C72.8224 52.836 73.7318 53.1522 74.6659 53.1366H79.3335C80.2676 53.1522 81.1772 52.836 81.9003 52.2444C82.6234 51.6527 83.1133 50.824 83.2831 49.9052L84.001 46.3148L87.2325 48.469C87.981 49.004 88.8928 49.2609 89.8105 49.1953C90.7282 49.1298 91.5943 48.746 92.2592 48.11L95.4905 44.8785C96.1264 44.2136 96.5103 43.3476 96.5759 42.4299C96.6414 41.5122 96.3847 40.6004 95.8497 39.8519L93.6953 36.6205L97.2857 35.9024C98.2044 35.7326 99.0332 35.2427 99.6248 34.5196C100.216 33.7965 100.533 32.8871 100.517 31.9529V27.2853C100.533 26.3512 100.216 25.4418 99.6248 24.7187C99.0332 23.9956 98.2044 23.5056 97.2857 23.3359L93.6953 22.6178L95.8497 19.3864C96.3847 18.6379 96.6414 17.7261 96.5759 16.8084C96.5103 15.8907 96.1264 15.0246 95.4905 14.3598L92.2592 11.1283C91.5943 10.4924 90.7282 10.1085 89.8105 10.043C88.8928 9.97742 87.981 10.2343 87.2325 10.7693L84.001 12.9236L83.2831 9.33311C83.1133 8.41436 82.6234 7.58554 81.9003 6.99391C81.1772 6.40228 80.2676 6.08618 79.3335 6.10173H74.6659C73.7318 6.08618 72.8224 6.40228 72.0993 6.99391C71.3762 7.58554 70.8863 8.41436 70.7165 9.33311L69.9984 12.9236L66.7669 10.7693C66.0184 10.2343 65.1066 9.97742 64.1889 10.043C63.2712 10.1085 62.4053 10.4924 61.7404 11.1283L58.5089 14.3598C57.873 15.0246 57.4891 15.8907 57.4235 16.8084C57.3579 17.7261 57.615 18.6379 58.15 19.3864L60.3041 22.6178L56.7137 23.3359C55.795 23.5056 54.9662 23.9956 54.3746 24.7187C53.7829 25.4418 53.4667 26.3512 53.4822 27.2853Z" fill="white"/>
<path d="M76.8198 21.5404C78.3821 21.5404 79.9094 22.0036 81.2084 22.8716C82.5074 23.7396 83.5197 24.9732 84.1175 26.4166C84.7154 27.8599 84.872 29.4481 84.5672 30.9804C84.2624 32.5127 83.51 33.9201 82.4053 35.0248C81.3007 36.1295 79.8931 36.8818 78.3608 37.1865C76.8286 37.4913 75.2405 37.3349 73.7972 36.7371C72.3538 36.1392 71.12 35.1268 70.2521 33.8278C69.3841 32.5289 68.921 31.0017 68.921 29.4394C68.921 27.3444 69.7532 25.3353 71.2345 23.854C72.7159 22.3726 74.7249 21.5404 76.8198 21.5404ZM76.8198 40.9289C79.1632 40.9289 81.4542 40.2339 83.4027 38.932C85.3511 37.6301 86.8697 35.7795 87.7665 33.6145C88.6633 31.4495 88.8979 29.0672 88.4408 26.7688C87.9836 24.4704 86.8551 22.3592 85.1981 20.7022C83.5411 19.0452 81.4297 17.9167 79.1313 17.4595C76.833 17.0023 74.4508 17.237 72.2857 18.1338C70.1207 19.0306 68.2701 20.5492 66.9682 22.4977C65.6663 24.4462 64.9714 26.7369 64.9714 29.0803C64.9714 32.2227 66.2197 35.2365 68.4417 37.4585C70.6638 39.6805 73.6774 40.9289 76.8198 40.9289Z" fill="white"/>
<path d="M148.73 48.1027C148.355 48.1027 147.979 48.061 147.603 47.9775C147.269 47.894 146.789 47.727 146.163 47.4765C145.537 47.1843 145.036 46.6416 144.66 45.8485C144.285 45.0553 144.097 44.0534 144.097 42.8428C144.097 40.2964 144.994 38.3761 146.789 37.082L167.077 23.181C168.288 22.3461 169.06 21.4694 169.394 20.551C169.728 19.5909 169.895 18.3594 169.895 16.8566C169.895 14.6441 169.519 13.0996 168.768 12.2229C168.058 11.3045 166.639 10.8453 164.51 10.8453H147.04V4.2705H168.33C171.92 4.2705 174.466 5.20976 175.969 7.08829C177.514 8.92507 178.286 11.8681 178.286 15.9173C178.286 19.0482 177.91 21.4694 177.159 23.181C176.407 24.8508 174.863 26.4997 172.525 28.1277L154.867 40.4008C154.825 40.4425 154.742 40.5051 154.617 40.5886C154.491 40.6721 154.387 40.7765 154.303 40.9017C154.22 40.9852 154.178 41.0687 154.178 41.1522C154.178 41.4026 154.345 41.5279 154.679 41.5279H176.47V48.1027H148.73Z" fill="white"/>
<path d="M190.025 48.1027V13.851C190.025 13.0996 189.983 12.5569 189.9 12.2229C189.858 11.8472 189.67 11.5341 189.336 11.2837C189.044 10.9914 188.585 10.8453 187.959 10.8453H183.137V4.2705H192.592C196.391 4.2705 198.291 6.10728 198.291 9.78084V48.1027H190.025Z" fill="white"/>
<path d="M207.136 48.1027V41.5279H227.299C229.052 41.5279 230.283 40.9852 230.993 39.8998C231.703 38.8144 232.058 37.1238 232.058 34.8278C232.058 32.7823 231.703 31.2795 230.993 30.3193C230.325 29.3175 229.094 28.8165 227.299 28.8165H215.026C212.354 28.8165 210.329 28.2738 208.952 27.1885C207.574 26.1031 206.885 24.0367 206.885 20.9894V9.90607C206.885 8.15279 207.365 6.7752 208.326 5.77332C209.327 4.77144 210.789 4.2705 212.709 4.2705H239.133V10.8453H217.217C216.8 10.8453 216.445 10.8871 216.153 10.9706C215.902 11.0541 215.673 11.2628 215.464 11.5967C215.255 11.9307 215.151 12.4316 215.151 13.0996V18.5473C215.151 19.8831 215.36 20.8432 215.777 21.4277C216.236 21.9704 217.113 22.2417 218.407 22.2417H230.868C234.458 22.2417 236.963 23.3271 238.382 25.4978C239.843 27.6268 240.574 30.6324 240.574 34.5147C240.574 36.0593 240.511 37.4369 240.386 38.6475C240.26 39.8581 239.989 41.0895 239.572 42.3419C239.154 43.5525 238.591 44.5752 237.881 45.4101C237.213 46.2033 236.274 46.8503 235.063 47.3513C233.894 47.8522 232.496 48.1027 230.868 48.1027H207.136Z" fill="white"/>
<path d="M148.377 68.7852C149.49 68.7852 150.426 68.8943 151.184 69.1124C151.953 69.319 152.573 69.6634 153.043 70.1456C153.514 70.6277 153.853 71.2649 154.059 72.057C154.277 72.8376 154.386 73.8019 154.386 74.9499C154.386 76.1094 154.277 77.0852 154.059 77.8773C153.853 78.6579 153.514 79.2893 153.043 79.7714C152.573 80.2536 151.953 80.598 151.184 80.8046C150.426 81.0113 149.49 81.1146 148.377 81.1146C147.275 81.1146 146.339 81.0113 145.57 80.8046C144.812 80.598 144.192 80.2536 143.71 79.7714C143.239 79.2893 142.895 78.6579 142.677 77.8773C142.47 77.0852 142.367 76.1094 142.367 74.9499C142.367 73.8019 142.47 72.8376 142.677 72.057C142.895 71.2649 143.239 70.6277 143.71 70.1456C144.192 69.6634 144.812 69.319 145.57 69.1124C146.339 68.8943 147.275 68.7852 148.377 68.7852ZM144.037 74.9499C144.037 75.8683 144.1 76.6375 144.227 77.2574C144.364 77.8773 144.594 78.3766 144.915 78.7555C145.248 79.1343 145.69 79.4041 146.241 79.5648C146.804 79.7255 147.516 79.8059 148.377 79.8059C149.238 79.8059 149.944 79.7255 150.495 79.5648C151.057 79.4041 151.499 79.1343 151.821 78.7555C152.154 78.3766 152.383 77.8773 152.509 77.2574C152.647 76.6375 152.716 75.8683 152.716 74.9499C152.716 74.043 152.647 73.2796 152.509 72.6597C152.383 72.0398 152.154 71.5404 151.821 71.1616C151.499 70.7827 151.057 70.5129 150.495 70.3522C149.944 70.18 149.238 70.0939 148.377 70.0939C147.516 70.0939 146.804 70.18 146.241 70.3522C145.69 70.5129 145.248 70.7827 144.915 71.1616C144.594 71.5404 144.364 72.0398 144.227 72.6597C144.1 73.2796 144.037 74.043 144.037 74.9499Z" fill="white"/>
<path d="M166.673 70.2317H159.458C159.125 70.2317 158.907 70.2948 158.804 70.4211C158.712 70.5359 158.666 70.7425 158.666 71.041V74.1578H164.59C165.129 74.1578 165.571 74.2439 165.916 74.4161C166.26 74.5768 166.53 74.8064 166.725 75.1049C166.932 75.4034 167.075 75.7592 167.156 76.1725C167.236 76.5858 167.276 77.0392 167.276 77.5329C167.276 78.0265 167.236 78.4857 167.156 78.9105C167.087 79.3237 166.949 79.6854 166.742 79.9953C166.547 80.3053 166.277 80.5463 165.933 80.7185C165.589 80.8907 165.152 80.9768 164.624 80.9768H158.752C158.224 80.9768 157.811 80.8563 157.512 80.6152C157.214 80.3627 157.065 79.9149 157.065 79.2721V70.6277C157.065 69.9849 157.214 69.5429 157.512 69.3018C157.811 69.0493 158.224 68.923 158.752 68.923H166.673V70.2317ZM158.666 75.4665V78.8416C158.666 79.1401 158.712 79.3524 158.804 79.4787C158.907 79.605 159.125 79.6681 159.458 79.6681H163.867C164.222 79.6681 164.509 79.6222 164.728 79.5304C164.957 79.4385 165.135 79.3008 165.261 79.1171C165.399 78.9334 165.491 78.7096 165.537 78.4455C165.583 78.1815 165.606 77.8773 165.606 77.5329C165.606 77.1885 165.583 76.89 165.537 76.6375C165.491 76.3734 165.405 76.1553 165.279 75.9831C165.152 75.8109 164.974 75.6846 164.745 75.6043C164.527 75.5124 164.234 75.4665 163.867 75.4665H158.666Z" fill="white"/>
<path d="M168.5 68.923H170.686C171.215 68.923 171.628 69.0493 171.926 69.3018C172.236 69.5429 172.391 69.9849 172.391 70.6277V74.0717H178.315C178.854 74.0717 179.296 74.1578 179.641 74.33C179.985 74.5022 180.255 74.7433 180.45 75.0532C180.657 75.3517 180.8 75.7133 180.881 76.1381C180.961 76.5514 181.001 77.0048 181.001 77.4984C181.001 77.9921 180.961 78.4513 180.881 78.876C180.812 79.3008 180.674 79.6681 180.467 79.9781C180.272 80.288 180.002 80.5349 179.658 80.7185C179.314 80.8907 178.877 80.9768 178.349 80.9768H172.477C171.949 80.9768 171.536 80.8563 171.237 80.6152C170.939 80.3627 170.79 79.9149 170.79 79.2721V71.0582C170.79 70.7598 170.738 70.5531 170.635 70.4383C170.531 70.312 170.313 70.2489 169.98 70.2489H168.5V68.923ZM172.391 75.3804V78.8416C172.391 79.1401 172.437 79.3524 172.529 79.4787C172.632 79.605 172.85 79.6681 173.183 79.6681H177.592C177.947 79.6681 178.234 79.6222 178.453 79.5304C178.682 79.4271 178.86 79.2836 178.986 79.0999C179.124 78.9162 179.216 78.6923 179.262 78.4283C179.308 78.1528 179.331 77.8428 179.331 77.4984C179.331 77.154 179.308 76.8498 179.262 76.5858C179.216 76.3218 179.13 76.1036 179.004 75.9314C178.877 75.7478 178.699 75.61 178.47 75.5182C178.252 75.4263 177.959 75.3804 177.592 75.3804H172.391Z" fill="white"/>
<path d="M185.189 80.9768C184.661 80.9768 184.248 80.8448 183.949 80.5808C183.651 80.3167 183.501 79.8805 183.501 79.2721V70.6277C183.501 69.9849 183.651 69.5429 183.949 69.3018C184.248 69.0493 184.661 68.923 185.189 68.923H192.645V70.2317H185.895C185.562 70.2317 185.344 70.2948 185.241 70.4211C185.149 70.5359 185.103 70.7425 185.103 71.041V74.1578H192.473V75.4665H185.103V78.8416C185.103 79.1401 185.149 79.3524 185.241 79.4787C185.344 79.605 185.562 79.6681 185.895 79.6681H192.714V80.9768H185.189Z" fill="white"/>
<path d="M203.859 80.9768L198.297 76.3447C197.953 76.0577 197.729 75.7879 197.625 75.5354C197.522 75.2713 197.47 75.0188 197.47 74.7777C197.47 74.5826 197.528 74.3702 197.643 74.1406C197.757 73.911 197.947 73.6814 198.211 73.4518L203.308 68.923H205.391L199.709 73.8995C199.548 74.0373 199.393 74.1693 199.244 74.2956C199.106 74.4218 199.037 74.5826 199.037 74.7777C199.037 74.9958 199.123 75.191 199.296 75.3632C199.468 75.5354 199.652 75.7018 199.847 75.8626L206.029 80.9768H203.859ZM195.215 68.923H196.816V80.9768H195.215V68.923Z" fill="white"/>
<path d="M211.59 80.9768V70.2317H206.717V68.923H218.064V70.2317H213.191V80.9768H211.59Z" fill="white"/>
<path d="M224.777 68.7852C225.891 68.7852 226.826 68.8943 227.584 69.1124C228.353 69.319 228.973 69.6634 229.444 70.1456C229.914 70.6277 230.253 71.2649 230.46 72.057C230.678 72.8376 230.787 73.8019 230.787 74.9499C230.787 76.1094 230.678 77.0852 230.46 77.8773C230.253 78.6579 229.914 79.2893 229.444 79.7714C228.973 80.2536 228.353 80.598 227.584 80.8046C226.826 81.0113 225.891 81.1146 224.777 81.1146C223.675 81.1146 222.74 81.0113 221.97 80.8046C221.213 80.598 220.593 80.2536 220.111 79.7714C219.64 79.2893 219.296 78.6579 219.077 77.8773C218.871 77.0852 218.768 76.1094 218.768 74.9499C218.768 73.8019 218.871 72.8376 219.077 72.057C219.296 71.2649 219.64 70.6277 220.111 70.1456C220.593 69.6634 221.213 69.319 221.97 69.1124C222.74 68.8943 223.675 68.7852 224.777 68.7852ZM220.438 74.9499C220.438 75.8683 220.501 76.6375 220.627 77.2574C220.765 77.8773 220.995 78.3766 221.316 78.7555C221.649 79.1343 222.091 79.4041 222.642 79.5648C223.204 79.7255 223.916 79.8059 224.777 79.8059C225.638 79.8059 226.344 79.7255 226.895 79.5648C227.458 79.4041 227.9 79.1343 228.221 78.7555C228.554 78.3766 228.784 77.8773 228.91 77.2574C229.048 76.6375 229.117 75.8683 229.117 74.9499C229.117 74.043 229.048 73.2796 228.91 72.6597C228.784 72.0398 228.554 71.5404 228.221 71.1616C227.9 70.7827 227.458 70.5129 226.895 70.3522C226.344 70.18 225.638 70.0939 224.777 70.0939C223.916 70.0939 223.204 70.18 222.642 70.3522C222.091 70.5129 221.649 70.7827 221.316 71.1616C220.995 71.5404 220.765 72.0398 220.627 72.6597C220.501 73.2796 220.438 74.043 220.438 74.9499Z" fill="white"/>
<path d="M235.067 78.7727C235.067 79.1056 235.113 79.341 235.205 79.4787C235.296 79.605 235.514 79.6681 235.859 79.6681H240.233C240.91 79.6681 241.369 79.5074 241.61 79.186C241.863 78.8645 241.989 78.3422 241.989 77.619C241.989 77.309 241.966 77.0278 241.92 76.7752C241.874 76.5226 241.788 76.3045 241.662 76.1209C241.547 75.9372 241.381 75.7994 241.163 75.7076C240.956 75.6043 240.692 75.5526 240.37 75.5526H235.067V78.7727ZM235.067 74.2439H240.181C240.514 74.2439 240.784 74.2037 240.99 74.1234C241.208 74.043 241.375 73.9225 241.49 73.7617C241.616 73.5895 241.702 73.3772 241.748 73.1246C241.794 72.8606 241.817 72.5449 241.817 72.1775C241.817 71.592 241.714 71.1214 241.507 70.7655C241.312 70.4096 240.91 70.2317 240.302 70.2317H235.842C235.555 70.2317 235.354 70.2891 235.239 70.4039C235.124 70.5072 235.067 70.7081 235.067 71.0066V74.2439ZM241.834 74.8983C242.488 74.9901 242.953 75.2541 243.229 75.6904C243.504 76.1266 243.642 76.7924 243.642 77.6879C243.642 78.1356 243.602 78.5603 243.522 78.9621C243.453 79.3524 243.321 79.6968 243.126 79.9953C242.942 80.2938 242.678 80.5349 242.334 80.7185C241.989 80.8907 241.553 80.9768 241.025 80.9768H235.17C234.929 80.9768 234.699 80.9539 234.481 80.908C234.275 80.862 234.097 80.7759 233.947 80.6497C233.798 80.5234 233.678 80.3512 233.586 80.1331C233.506 79.9149 233.465 79.6394 233.465 79.3065V70.6277C233.465 69.4912 233.993 68.923 235.05 68.923H240.904C241.823 68.923 242.483 69.2042 242.885 69.7668C243.286 70.3293 243.487 71.1386 243.487 72.1947C243.487 72.5277 243.459 72.8434 243.401 73.1418C243.355 73.4403 243.269 73.7101 243.143 73.9512C243.028 74.1808 242.862 74.3759 242.643 74.5366C242.425 74.6859 242.156 74.7834 241.834 74.8294V74.8983Z" fill="white"/>
<path d="M151.907 105.241L151.958 95.2364C151.958 95.156 151.953 95.0757 151.941 94.9953C151.93 94.9035 151.89 94.8576 151.821 94.8576C151.763 94.8576 151.689 94.915 151.597 95.0297C151.505 95.1331 151.413 95.2536 151.321 95.3914L145.742 104.294C145.65 104.443 145.553 104.587 145.449 104.724C145.357 104.851 145.248 104.966 145.122 105.069C145.007 105.161 144.87 105.235 144.709 105.293C144.548 105.35 144.347 105.379 144.106 105.379C143.762 105.379 143.498 105.316 143.314 105.189C143.13 105.063 142.993 104.914 142.901 104.742C142.809 104.558 142.752 104.369 142.729 104.173C142.717 103.967 142.711 103.795 142.711 103.657V93.1872H144.313L144.278 103.037C144.278 103.198 144.284 103.33 144.296 103.433C144.307 103.525 144.359 103.571 144.451 103.571C144.519 103.571 144.583 103.536 144.64 103.467C144.697 103.387 144.755 103.301 144.812 103.209L150.305 94.3582C150.592 93.8875 150.862 93.5546 151.115 93.3594C151.367 93.1528 151.683 93.0495 152.062 93.0495C152.418 93.0495 152.693 93.1241 152.888 93.2733C153.083 93.4226 153.227 93.6005 153.319 93.8071C153.411 94.0023 153.462 94.2032 153.474 94.4098C153.497 94.6165 153.508 94.7772 153.508 94.892V105.241H151.907Z" fill="white"/>
<path d="M166.772 105.241H165.171V99.7308H158.128V105.241H156.527V93.1872H158.128V98.4221H165.171V93.1872H166.772V105.241Z" fill="white"/>
<path d="M173.541 105.241V94.4959H168.668V93.1872H180.016V94.4959H175.142V105.241H173.541Z" fill="white"/>
<path d="M183.608 105.241C183.08 105.241 182.667 105.109 182.368 104.845C182.07 104.581 181.921 104.145 181.921 103.536V94.892C181.921 94.2491 182.07 93.8071 182.368 93.5661C182.667 93.3135 183.08 93.1872 183.608 93.1872H191.064V94.4959H184.314C183.981 94.4959 183.763 94.5591 183.66 94.6854C183.568 94.8001 183.522 95.0068 183.522 95.3053V98.4221H190.892V99.7308H183.522V103.106C183.522 103.404 183.568 103.617 183.66 103.743C183.763 103.869 183.981 103.932 184.314 103.932H191.133V105.241H183.608Z" fill="white"/>
<path d="M197.009 94.1515C197.17 93.7842 197.353 93.5087 197.56 93.325C197.778 93.1413 198.105 93.0495 198.542 93.0495C198.989 93.0495 199.316 93.1413 199.523 93.325C199.73 93.5087 199.913 93.7842 200.074 94.1515L204.741 105.241H203.036L198.869 94.9436C198.834 94.8633 198.8 94.7829 198.765 94.7026C198.731 94.6222 198.656 94.582 198.542 94.582C198.427 94.582 198.346 94.628 198.3 94.7198C198.266 94.8001 198.237 94.8748 198.214 94.9436L194.047 105.241H192.342L197.009 94.1515Z" fill="white"/>
<path d="M210.538 94.1515C210.699 93.7842 210.883 93.5087 211.089 93.325C211.307 93.1413 211.635 93.0495 212.071 93.0495C212.519 93.0495 212.846 93.1413 213.052 93.325C213.259 93.5087 213.443 93.7842 213.603 94.1515L218.27 105.241H216.565L212.398 94.9436C212.364 94.8633 212.329 94.7829 212.295 94.7026C212.26 94.6222 212.186 94.582 212.071 94.582C211.956 94.582 211.876 94.628 211.83 94.7198C211.795 94.8001 211.767 94.8748 211.744 94.9436L207.577 105.241H205.872L210.538 94.1515Z" fill="white"/>
<path d="M221.691 105.241C221.163 105.241 220.749 105.109 220.451 104.845C220.152 104.581 220.003 104.145 220.003 103.536V94.892C220.003 94.2491 220.152 93.8071 220.451 93.5661C220.749 93.3135 221.163 93.1872 221.691 93.1872H229.147V94.4959H222.397C222.064 94.4959 221.846 94.5591 221.742 94.6854C221.651 94.8001 221.605 95.0068 221.605 95.3053V98.4221H228.975V99.7308H221.605V103.106C221.605 103.404 221.651 103.617 221.742 103.743C221.846 103.869 222.064 103.932 222.397 103.932H229.216V105.241H221.691Z" fill="white"/>
<path d="M240.361 105.241L234.799 100.609C234.454 100.322 234.231 100.052 234.127 99.7996C234.024 99.5356 233.972 99.283 233.972 99.042C233.972 98.8468 234.03 98.6344 234.144 98.4048C234.259 98.1752 234.449 97.9456 234.713 97.716L239.81 93.1872H241.893L236.211 98.1637C236.05 98.3015 235.895 98.4335 235.746 98.5598C235.608 98.6861 235.539 98.8468 235.539 99.042C235.539 99.2601 235.625 99.4552 235.798 99.6274C235.97 99.7996 236.153 99.9661 236.349 100.127L242.53 105.241H240.361ZM231.716 93.1872H233.318V105.241H231.716V93.1872Z" fill="white"/>
<path d="M248.092 105.241V94.4959H243.218V93.1872H254.566V94.4959H249.693V105.241H248.092Z" fill="white"/>
<path d="M259.882 105.241L261.156 102.882L255.869 93.1872H257.643L261.982 101.384L266.115 93.1872H267.872L261.621 105.241H259.882Z" fill="white"/>
<path d="M272.197 94.3754C272.38 93.9506 272.587 93.6235 272.817 93.3939C273.046 93.1643 273.391 93.0495 273.85 93.0495C274.286 93.0495 274.63 93.17 274.883 93.4111C275.136 93.6407 275.348 93.9621 275.52 94.3754L280.083 105.241H278.396L277.036 101.969H270.647L269.304 105.241H267.616L272.197 94.3754ZM271.129 100.661H276.553L274.28 95.1331C274.223 95.0068 274.16 94.8805 274.091 94.7542C274.034 94.6165 273.953 94.5476 273.85 94.5476C273.747 94.5476 273.666 94.6165 273.609 94.7542C273.551 94.8805 273.494 95.0068 273.437 95.1331L271.129 100.661Z" fill="white"/>
<path d="M285.879 94.1515C286.04 93.7842 286.224 93.5087 286.431 93.325C286.649 93.1413 286.976 93.0495 287.412 93.0495C287.86 93.0495 288.187 93.1413 288.394 93.325C288.6 93.5087 288.784 93.7842 288.945 94.1515L293.611 105.241H291.906L287.739 94.9436C287.705 94.8633 287.67 94.7829 287.636 94.7026C287.602 94.6222 287.527 94.582 287.412 94.582C287.297 94.582 287.217 94.628 287.171 94.7198C287.137 94.8001 287.108 94.8748 287.085 94.9436L282.918 105.241H281.213L285.879 94.1515Z" fill="white"/>
<path d="M296.946 93.1872V98.3359H302.869C303.409 98.3359 303.851 98.4221 304.195 98.5942C304.54 98.7664 304.809 99.0075 305.005 99.3175C305.211 99.616 305.355 99.9776 305.435 100.402C305.516 100.816 305.556 101.269 305.556 101.763C305.556 102.256 305.516 102.716 305.435 103.14C305.366 103.565 305.229 103.932 305.022 104.242C304.827 104.552 304.557 104.799 304.213 104.983C303.868 105.155 303.432 105.241 302.904 105.241H297.032C296.527 105.241 296.119 105.126 295.809 104.897C295.499 104.656 295.344 104.231 295.344 103.622V93.1872H296.946ZM296.946 99.6447V103.106C296.946 103.404 296.992 103.617 297.084 103.743C297.187 103.869 297.405 103.932 297.738 103.932H302.146C302.502 103.932 302.789 103.886 303.007 103.795C303.237 103.691 303.415 103.548 303.541 103.364C303.679 103.18 303.771 102.957 303.816 102.693C303.862 102.417 303.885 102.107 303.885 101.763C303.885 101.418 303.862 101.114 303.816 100.85C303.771 100.586 303.684 100.368 303.558 100.196C303.432 100.012 303.254 99.8743 303.024 99.7824C302.806 99.6906 302.514 99.6447 302.146 99.6447H296.946Z" fill="white"/>
<path d="M318.312 105.241H316.711V99.7308H309.668V105.241H308.067V93.1872H309.668V98.4221H316.711V93.1872H318.312V105.241Z" fill="white"/>
<path d="M326.992 93.0495C328.106 93.0495 329.041 93.1585 329.799 93.3766C330.568 93.5833 331.188 93.9277 331.659 94.4098C332.129 94.892 332.468 95.5291 332.675 96.3212C332.893 97.1019 333.002 98.0662 333.002 99.2142C333.002 100.374 332.893 101.349 332.675 102.142C332.468 102.922 332.129 103.554 331.659 104.036C331.188 104.518 330.568 104.862 329.799 105.069C329.041 105.276 328.106 105.379 326.992 105.379C325.89 105.379 324.955 105.276 324.185 105.069C323.428 104.862 322.808 104.518 322.326 104.036C321.855 103.554 321.511 102.922 321.292 102.142C321.086 101.349 320.983 100.374 320.983 99.2142C320.983 98.0662 321.086 97.1019 321.292 96.3212C321.511 95.5291 321.855 94.892 322.326 94.4098C322.808 93.9277 323.428 93.5833 324.185 93.3766C324.955 93.1585 325.89 93.0495 326.992 93.0495ZM322.653 99.2142C322.653 100.133 322.716 100.902 322.842 101.522C322.98 102.142 323.21 102.641 323.531 103.02C323.864 103.399 324.306 103.668 324.857 103.829C325.419 103.99 326.131 104.07 326.992 104.07C327.853 104.07 328.559 103.99 329.11 103.829C329.673 103.668 330.115 103.399 330.436 103.02C330.769 102.641 330.999 102.142 331.125 101.522C331.263 100.902 331.332 100.133 331.332 99.2142C331.332 98.3073 331.263 97.5438 331.125 96.9239C330.999 96.304 330.769 95.8046 330.436 95.4258C330.115 95.047 329.673 94.7772 329.11 94.6165C328.559 94.4443 327.853 94.3582 326.992 94.3582C326.131 94.3582 325.419 94.4443 324.857 94.6165C324.306 94.7772 323.864 95.047 323.531 95.4258C323.21 95.8046 322.98 96.304 322.842 96.9239C322.716 97.5438 322.653 98.3073 322.653 99.2142Z" fill="white"/>
<path d="M344.876 105.241L344.927 95.2364C344.927 95.156 344.922 95.0757 344.91 94.9953C344.899 94.9035 344.858 94.8576 344.79 94.8576C344.732 94.8576 344.658 94.915 344.566 95.0297C344.474 95.1331 344.382 95.2536 344.29 95.3914L338.711 104.294C338.619 104.443 338.522 104.587 338.418 104.724C338.326 104.851 338.217 104.966 338.091 105.069C337.976 105.161 337.839 105.235 337.678 105.293C337.517 105.35 337.316 105.379 337.075 105.379C336.731 105.379 336.467 105.316 336.283 105.189C336.099 105.063 335.962 104.914 335.87 104.742C335.778 104.558 335.72 104.369 335.698 104.173C335.686 103.967 335.68 103.795 335.68 103.657V93.1872H337.282L337.247 103.037C337.247 103.198 337.253 103.33 337.265 103.433C337.276 103.525 337.328 103.571 337.419 103.571C337.488 103.571 337.552 103.536 337.609 103.467C337.666 103.387 337.724 103.301 337.781 103.209L343.274 94.3582C343.561 93.8875 343.831 93.5546 344.084 93.3594C344.336 93.1528 344.652 93.0495 345.031 93.0495C345.387 93.0495 345.662 93.1241 345.857 93.2733C346.052 93.4226 346.196 93.6005 346.288 93.8071C346.38 94.0023 346.431 94.2032 346.443 94.4098C346.466 94.6165 346.477 94.7772 346.477 94.892V105.241H344.876ZM341.053 91.6375C341.466 91.6375 341.828 91.5571 342.138 91.3964C342.459 91.2356 342.677 90.9601 342.792 90.5698H344.135C343.963 91.2931 343.624 91.8269 343.119 92.1713C342.626 92.5157 341.937 92.6879 341.053 92.6879C340.169 92.6879 339.474 92.5157 338.969 92.1713C338.464 91.8269 338.131 91.2931 337.971 90.5698H339.314C339.417 90.9601 339.629 91.2356 339.951 91.3964C340.272 91.5571 340.64 91.6375 341.053 91.6375Z" fill="white"/>
<path d="M147.395 129.505C146.385 129.505 145.553 129.35 144.898 129.04C144.255 128.719 143.745 128.288 143.366 127.749C142.987 127.198 142.723 126.555 142.574 125.82C142.436 125.086 142.367 124.299 142.367 123.461C142.367 122.623 142.436 121.843 142.574 121.119C142.723 120.385 142.987 119.747 143.366 119.208C143.756 118.657 144.278 118.226 144.933 117.916C145.599 117.606 146.448 117.451 147.481 117.451H152.148V118.76H148.015C147.257 118.76 146.626 118.852 146.121 119.036C145.616 119.219 145.208 119.506 144.898 119.897C144.588 120.276 144.364 120.763 144.227 121.36C144.1 121.946 144.037 122.646 144.037 123.461C144.037 124.276 144.1 124.982 144.227 125.579C144.353 126.176 144.565 126.67 144.864 127.06C145.174 127.45 145.576 127.737 146.069 127.921C146.563 128.105 147.183 128.197 147.929 128.197H152.32V129.505H147.395Z" fill="white"/>
<path d="M159.636 117.314C160.749 117.314 161.685 117.423 162.443 117.641C163.212 117.848 163.832 118.192 164.302 118.674C164.773 119.156 165.112 119.793 165.318 120.585C165.537 121.366 165.646 122.33 165.646 123.478C165.646 124.638 165.537 125.614 165.318 126.406C165.112 127.186 164.773 127.818 164.302 128.3C163.832 128.782 163.212 129.126 162.443 129.333C161.685 129.54 160.749 129.643 159.636 129.643C158.534 129.643 157.598 129.54 156.829 129.333C156.071 129.126 155.451 128.782 154.969 128.3C154.499 127.818 154.154 127.186 153.936 126.406C153.73 125.614 153.626 124.638 153.626 123.478C153.626 122.33 153.73 121.366 153.936 120.585C154.154 119.793 154.499 119.156 154.969 118.674C155.451 118.192 156.071 117.848 156.829 117.641C157.598 117.423 158.534 117.314 159.636 117.314ZM155.296 123.478C155.296 124.397 155.36 125.166 155.486 125.786C155.624 126.406 155.853 126.905 156.175 127.284C156.508 127.663 156.95 127.933 157.501 128.093C158.063 128.254 158.775 128.334 159.636 128.334C160.497 128.334 161.203 128.254 161.754 128.093C162.316 127.933 162.758 127.663 163.08 127.284C163.413 126.905 163.642 126.406 163.769 125.786C163.906 125.166 163.975 124.397 163.975 123.478C163.975 122.571 163.906 121.808 163.769 121.188C163.642 120.568 163.413 120.069 163.08 119.69C162.758 119.311 162.316 119.041 161.754 118.881C161.203 118.709 160.497 118.622 159.636 118.622C158.775 118.622 158.063 118.709 157.501 118.881C156.95 119.041 156.508 119.311 156.175 119.69C155.853 120.069 155.624 120.568 155.486 121.188C155.36 121.808 155.296 122.571 155.296 123.478Z" fill="white"/>
<path d="M177.933 118.76H170.718C170.385 118.76 170.166 118.823 170.063 118.95C169.971 119.064 169.925 119.271 169.925 119.57V122.686H175.849C176.389 122.686 176.831 122.772 177.175 122.945C177.519 123.105 177.789 123.335 177.984 123.633C178.191 123.932 178.334 124.288 178.415 124.701C178.495 125.114 178.535 125.568 178.535 126.061C178.535 126.555 178.495 127.014 178.415 127.439C178.346 127.852 178.208 128.214 178.001 128.524C177.806 128.834 177.537 129.075 177.192 129.247C176.848 129.419 176.412 129.505 175.883 129.505H170.012C169.483 129.505 169.07 129.385 168.772 129.144C168.473 128.891 168.324 128.443 168.324 127.801V119.156C168.324 118.513 168.473 118.071 168.772 117.83C169.07 117.578 169.483 117.451 170.012 117.451H177.933V118.76ZM169.925 123.995V127.37C169.925 127.669 169.971 127.881 170.063 128.007C170.166 128.133 170.385 128.197 170.718 128.197H175.126C175.482 128.197 175.769 128.151 175.987 128.059C176.216 127.967 176.394 127.829 176.521 127.646C176.658 127.462 176.75 127.238 176.796 126.974C176.842 126.71 176.865 126.406 176.865 126.061C176.865 125.717 176.842 125.418 176.796 125.166C176.75 124.902 176.664 124.684 176.538 124.512C176.412 124.339 176.234 124.213 176.004 124.133C175.786 124.041 175.493 123.995 175.126 123.995H169.925Z" fill="white"/>
<path d="M185.898 129.505C184.888 129.505 184.056 129.35 183.401 129.04C182.758 128.719 182.248 128.288 181.869 127.749C181.49 127.198 181.226 126.555 181.077 125.82C180.939 125.086 180.87 124.299 180.87 123.461C180.87 122.623 180.939 121.843 181.077 121.119C181.226 120.385 181.49 119.747 181.869 119.208C182.259 118.657 182.781 118.226 183.436 117.916C184.102 117.606 184.951 117.451 185.984 117.451H190.651V118.76H186.518C185.76 118.76 185.129 118.852 184.624 119.036C184.119 119.219 183.711 119.506 183.401 119.897C183.091 120.276 182.867 120.763 182.73 121.36C182.603 121.946 182.54 122.646 182.54 123.461C182.54 124.276 182.603 124.982 182.73 125.579C182.856 126.176 183.068 126.67 183.367 127.06C183.677 127.45 184.079 127.737 184.572 127.921C185.066 128.105 185.686 128.197 186.432 128.197H190.823V129.505H185.898Z" fill="white"/>
<path d="M197.085 129.505V118.76H192.212V117.451H203.56V118.76H198.687V129.505H197.085Z" fill="white"/>
<path d="M207.066 127.301C207.066 127.634 207.112 127.869 207.204 128.007C207.296 128.133 207.514 128.197 207.858 128.197H212.232C212.91 128.197 213.369 128.036 213.61 127.714C213.862 127.393 213.989 126.871 213.989 126.147C213.989 125.838 213.966 125.556 213.92 125.304C213.874 125.051 213.788 124.833 213.661 124.649C213.547 124.466 213.38 124.328 213.162 124.236C212.955 124.133 212.691 124.081 212.37 124.081H207.066V127.301ZM207.066 122.772H212.181C212.513 122.772 212.783 122.732 212.99 122.652C213.208 122.571 213.374 122.451 213.489 122.29C213.616 122.118 213.702 121.906 213.748 121.653C213.793 121.389 213.816 121.073 213.816 120.706C213.816 120.121 213.713 119.65 213.506 119.294C213.311 118.938 212.91 118.76 212.301 118.76H207.841C207.554 118.76 207.353 118.818 207.238 118.932C207.124 119.036 207.066 119.237 207.066 119.535V122.772ZM213.834 123.427C214.488 123.519 214.953 123.783 215.228 124.219C215.504 124.655 215.642 125.321 215.642 126.216C215.642 126.664 215.602 127.089 215.521 127.491C215.452 127.881 215.32 128.225 215.125 128.524C214.941 128.822 214.677 129.063 214.333 129.247C213.989 129.419 213.552 129.505 213.024 129.505H207.17C206.929 129.505 206.699 129.482 206.481 129.436C206.274 129.391 206.096 129.304 205.947 129.178C205.798 129.052 205.677 128.88 205.585 128.662C205.505 128.443 205.465 128.168 205.465 127.835V119.156C205.465 118.02 205.993 117.451 207.049 117.451H212.904C213.822 117.451 214.482 117.733 214.884 118.295C215.286 118.858 215.487 119.667 215.487 120.723C215.487 121.056 215.458 121.372 215.401 121.67C215.355 121.969 215.269 122.239 215.142 122.48C215.028 122.709 214.861 122.904 214.643 123.065C214.425 123.214 214.155 123.312 213.834 123.358V123.427Z" fill="white"/>
<path d="M220.093 129.505C219.565 129.505 219.152 129.373 218.853 129.109C218.555 128.845 218.406 128.409 218.406 127.801V119.156C218.406 118.513 218.555 118.071 218.853 117.83C219.152 117.578 219.565 117.451 220.093 117.451H227.549V118.76H220.799C220.466 118.76 220.248 118.823 220.145 118.95C220.053 119.064 220.007 119.271 220.007 119.57V122.686H227.377V123.995H220.007V127.37C220.007 127.669 220.053 127.881 220.145 128.007C220.248 128.133 220.466 128.197 220.799 128.197H227.618V129.505H220.093Z" fill="white"/>
<path d="M240.365 129.505H238.763V123.995H231.72V129.505H230.119V117.451H231.72V122.686H238.763V117.451H240.365V129.505Z" fill="white"/>
<path d="M253.625 129.505H252.024V123.995H244.981V129.505H243.379V117.451H244.981V122.686H252.024V117.451H253.625V129.505Z" fill="white"/>
<path d="M262.305 117.314C263.418 117.314 264.354 117.423 265.112 117.641C265.881 117.848 266.501 118.192 266.971 118.674C267.442 119.156 267.781 119.793 267.987 120.585C268.206 121.366 268.315 122.33 268.315 123.478C268.315 124.638 268.206 125.614 267.987 126.406C267.781 127.186 267.442 127.818 266.971 128.3C266.501 128.782 265.881 129.126 265.112 129.333C264.354 129.54 263.418 129.643 262.305 129.643C261.203 129.643 260.267 129.54 259.498 129.333C258.74 129.126 258.12 128.782 257.638 128.3C257.168 127.818 256.823 127.186 256.605 126.406C256.399 125.614 256.295 124.638 256.295 123.478C256.295 122.33 256.399 121.366 256.605 120.585C256.823 119.793 257.168 119.156 257.638 118.674C258.12 118.192 258.74 117.848 259.498 117.641C260.267 117.423 261.203 117.314 262.305 117.314ZM257.966 123.478C257.966 124.397 258.029 125.166 258.155 125.786C258.293 126.406 258.522 126.905 258.844 127.284C259.177 127.663 259.619 127.933 260.17 128.093C260.732 128.254 261.444 128.334 262.305 128.334C263.166 128.334 263.872 128.254 264.423 128.093C264.985 127.933 265.427 127.663 265.749 127.284C266.082 126.905 266.311 126.406 266.438 125.786C266.575 125.166 266.644 124.397 266.644 123.478C266.644 122.571 266.575 121.808 266.438 121.188C266.311 120.568 266.082 120.069 265.749 119.69C265.427 119.311 264.985 119.041 264.423 118.881C263.872 118.709 263.166 118.622 262.305 118.622C261.444 118.622 260.732 118.709 260.17 118.881C259.619 119.041 259.177 119.311 258.844 119.69C258.522 120.069 258.293 120.568 258.155 121.188C258.029 121.808 257.966 122.571 257.966 123.478Z" fill="white"/>
<path d="M275.677 129.505C274.667 129.505 273.834 129.35 273.18 129.04C272.537 128.719 272.026 128.288 271.647 127.749C271.268 127.198 271.004 126.555 270.855 125.82C270.717 125.086 270.649 124.299 270.649 123.461C270.649 122.623 270.717 121.843 270.855 121.119C271.004 120.385 271.268 119.747 271.647 119.208C272.038 118.657 272.56 118.226 273.214 117.916C273.88 117.606 274.73 117.451 275.763 117.451H280.429V118.76H276.297C275.539 118.76 274.908 118.852 274.402 119.036C273.897 119.219 273.49 119.506 273.18 119.897C272.87 120.276 272.646 120.763 272.508 121.36C272.382 121.946 272.319 122.646 272.319 123.461C272.319 124.276 272.382 124.982 272.508 125.579C272.635 126.176 272.847 126.67 273.145 127.06C273.455 127.45 273.857 127.737 274.351 127.921C274.844 128.105 275.464 128.197 276.211 128.197H280.602V129.505H275.677Z" fill="white"/>
<path d="M286.864 129.505V118.76H281.991V117.451H293.338V118.76H288.465V129.505H286.864Z" fill="white"/>
<path d="M304.439 129.505L304.49 119.501C304.49 119.42 304.485 119.34 304.473 119.26C304.462 119.168 304.422 119.122 304.353 119.122C304.295 119.122 304.221 119.179 304.129 119.294C304.037 119.397 303.945 119.518 303.853 119.656L298.274 128.558C298.182 128.707 298.085 128.851 297.981 128.989C297.89 129.115 297.781 129.23 297.654 129.333C297.539 129.425 297.402 129.5 297.241 129.557C297.08 129.614 296.879 129.643 296.638 129.643C296.294 129.643 296.03 129.58 295.846 129.454C295.662 129.327 295.525 129.178 295.433 129.006C295.341 128.822 295.284 128.633 295.261 128.438C295.249 128.231 295.243 128.059 295.243 127.921V117.451H296.845L296.81 127.301C296.81 127.462 296.816 127.594 296.828 127.697C296.839 127.789 296.891 127.835 296.983 127.835C297.052 127.835 297.115 127.801 297.172 127.732C297.229 127.651 297.287 127.565 297.344 127.473L302.837 118.622C303.124 118.152 303.394 117.819 303.647 117.624C303.899 117.417 304.215 117.314 304.594 117.314C304.95 117.314 305.225 117.388 305.42 117.538C305.616 117.687 305.759 117.865 305.851 118.071C305.943 118.267 305.994 118.467 306.006 118.674C306.029 118.881 306.04 119.041 306.04 119.156V129.505H304.439Z" fill="white"/>
</g>
</svg>
