<svg width="359" height="132" viewBox="0 0 359 132" fill="none" xmlns="http://www.w3.org/2000/svg">
<g id="image_infogr_12">
<path d="M46.3562 113.757H77.691V86.7538H69.7581V96.5377C69.7581 97.0567 69.5492 97.5544 69.1773 97.9214C68.8054 98.2883 68.3008 98.4945 67.7749 98.4945H55.8755C55.3496 98.4945 54.8453 98.2883 54.4733 97.9214C54.1014 97.5544 53.8923 97.0567 53.8923 96.5377V86.7538H45.9594L46.3562 113.757ZM112.596 86.7538H104.663V96.5377C104.663 97.0567 104.454 97.5544 104.082 97.9214C103.71 98.2883 103.206 98.4945 102.68 98.4945H90.7804C90.2544 98.4945 89.7499 98.2883 89.378 97.9214C89.0061 97.5544 88.7972 97.0567 88.7972 96.5377V86.7538H80.8643V113.757H112.199L112.596 86.7538ZM100.697 86.7538H92.7636V94.5809H100.697V86.7538ZM112.596 55.8365H104.663V65.6204C104.663 66.1394 104.454 66.6371 104.082 67.0041C103.71 67.371 103.206 67.5772 102.68 67.5772H90.7804C90.2544 67.5772 89.7499 67.371 89.378 67.0041C89.0061 66.6371 88.7972 66.1394 88.7972 65.6204V55.8365H80.8643V82.8402H112.199L112.596 55.8365ZM100.697 55.8365H92.7636V63.6636H100.697V55.8365ZM65.3951 86.7538H57.4622V94.5809H65.3951V86.7538ZM43.9762 82.8402H77.2944V53.8797C77.2944 53.3607 77.5033 52.8629 77.8752 52.4959C78.2471 52.1289 78.7517 51.9229 79.2776 51.9229H114.976C115.502 51.9229 116.006 52.1289 116.378 52.4959C116.75 52.8629 116.959 53.3607 116.959 53.8797V115.714C116.959 116.233 116.75 116.731 116.378 117.098C116.006 117.465 115.502 117.671 114.976 117.671H44.373C43.847 117.671 43.3425 117.465 42.9706 117.098C42.5986 116.731 42.3898 116.233 42.3898 115.714V84.797C42.3898 84.278 42.5986 83.7803 42.9706 83.4133C43.3425 83.0464 43.847 82.8402 44.373 82.8402" fill="white"/>
<path d="M58.6532 7.69925L112.994 20.6142V16.7006L58.2567 3.78566L3.51982 16.7006V20.6142L57.8599 7.69925H58.6532ZM91.5746 40.5733H24.9385V44.4869H91.1781L91.5746 40.5733ZM2.32969 24.919H1.93315C1.62526 24.919 1.3215 24.8484 1.04612 24.7125C0.770739 24.5766 0.531204 24.3794 0.346472 24.1364V15.5264C0.337116 15.0686 0.490889 14.6221 0.780786 14.2646C1.07068 13.9071 1.47844 13.6611 1.93315 13.5696L58.6532 0.263458H59.4466L116.167 13.5696C116.621 13.6611 117.029 13.9071 117.319 14.2646C117.609 14.6221 117.763 15.0686 117.753 15.5264V23.3536C117.753 23.777 117.614 24.189 117.357 24.5277C117.136 24.8313 116.832 25.0663 116.481 25.205C116.129 25.3437 115.745 25.3802 115.373 25.3104L111.804 24.5277V53.8796H107.837V23.3536L59.05 11.6128L10.2626 23.3536V113.757H22.1619V38.6166C22.1619 38.0976 22.371 37.5999 22.7429 37.2329C23.1149 36.8659 23.6191 36.6598 24.1451 36.6598H94.3512C94.8772 36.6598 95.3817 36.8659 95.7536 37.2329C96.1256 37.5999 96.3344 38.0976 96.3344 38.6166V46.4437C96.3344 46.9627 96.1256 47.4605 95.7536 47.8275C95.3817 48.1944 94.8772 48.4005 94.3512 48.4005H24.9385V52.3141H73.7256V56.2277H24.9385V60.1413H73.7256V64.0549H24.9385V67.9684H73.7256V71.882H24.9385V113.757H45.1675V117.671H5.50304V24.1364L2.32969 24.919Z" fill="white"/>
<path d="M64.2056 24.919C64.2056 24.4 63.9965 23.9023 63.6246 23.5354C63.2526 23.1684 62.7484 22.9622 62.2224 22.9622H54.2895C53.7635 22.9622 53.259 23.1684 52.887 23.5354C52.5151 23.9023 52.3063 24.4 52.3063 24.919C52.3063 25.438 52.5151 25.9358 52.887 26.3028C53.259 26.6697 53.7635 26.8758 54.2895 26.8758H62.2224C62.7484 26.8758 63.2526 26.6697 63.6246 26.3028C63.9965 25.9358 64.2056 25.438 64.2056 24.919ZM54.2895 30.7894C52.7115 30.7894 51.1982 30.1709 50.0824 29.07C48.9666 27.9691 48.3398 26.4759 48.3398 24.919C48.3398 23.3621 48.9666 21.869 50.0824 20.7681C51.1982 19.6672 52.7115 19.0486 54.2895 19.0486H62.2224C63.8003 19.0486 65.3137 19.6672 66.4295 20.7681C67.5452 21.869 68.172 23.3621 68.172 24.919C68.172 26.4759 67.5452 27.9691 66.4295 29.07C65.3137 30.1709 63.8003 30.7894 62.2224 30.7894H54.2895Z" fill="white"/>
<path d="M169.225 31.0399H155.136C151.045 31.0399 148.123 30.0172 146.37 27.9717C144.617 25.8844 143.74 22.6909 143.74 18.3912C143.74 16.137 143.886 14.2376 144.178 12.693C144.47 11.1067 145.013 9.62476 145.806 8.24717C146.641 6.86959 147.852 5.84684 149.438 5.17892C151.024 4.511 153.028 4.17704 155.449 4.17704H166.407C173.796 4.17704 177.491 8.20543 177.491 16.2622V36.6129C177.491 40.2029 176.531 42.9998 174.61 45.0036C172.732 47.0073 169.872 48.0092 166.032 48.0092H145.932V41.4344H163.089C165.176 41.4344 166.721 40.9961 167.722 40.1194C168.724 39.201 169.225 37.74 169.225 35.7362V31.0399ZM169.225 24.4651V16.6379C169.225 14.5089 168.85 13.0061 168.098 12.1295C167.388 11.2111 165.865 10.7519 163.527 10.7519H158.205C155.992 10.7519 154.448 11.3572 153.571 12.5678C152.694 13.7366 152.256 15.5108 152.256 17.8903C152.256 20.1862 152.715 21.856 153.633 22.8996C154.594 23.9433 156.347 24.4651 158.893 24.4651H169.225Z" fill="white"/>
<path d="M191.799 48.0092V29.0362C191.799 27.909 192.049 27.1368 192.55 26.7193C193.072 26.3019 193.803 26.0931 194.742 26.0931H204.792C205.898 26.0931 206.806 26.2497 207.516 26.5628C208.246 26.8759 208.82 27.3246 209.238 27.909C209.676 28.4726 209.979 29.1718 210.146 30.0067C210.313 30.8416 210.396 31.7704 210.396 32.7932C210.396 33.8786 210.313 34.8491 210.146 35.7049C209.979 36.5398 209.676 37.2495 209.238 37.8339C208.82 38.4183 208.246 38.8671 207.516 39.1802C206.806 39.4933 205.898 39.6498 204.792 39.6498H194.711V48.0092H191.799ZM203.759 37.2703C204.531 37.2703 205.147 37.1764 205.606 36.9886C206.086 36.7798 206.451 36.4876 206.702 36.1119C206.973 35.7362 207.15 35.277 207.234 34.7343C207.317 34.1708 207.359 33.5237 207.359 32.7932C207.359 32.0835 207.307 31.4678 207.203 30.946C207.119 30.4033 206.942 29.9545 206.67 29.5997C206.42 29.224 206.055 28.9422 205.575 28.7544C205.115 28.5665 204.51 28.4726 203.759 28.4726H196.119C195.493 28.4726 195.097 28.5874 194.93 28.817C194.784 29.0466 194.711 29.4119 194.711 29.9128V37.2703H203.759Z" fill="white"/>
<path d="M215.886 48.0092V29.0362C215.886 27.909 216.136 27.1368 216.637 26.7193C217.159 26.3019 217.889 26.0931 218.829 26.0931H228.879C229.985 26.0931 230.893 26.2497 231.603 26.5628C232.333 26.8759 232.907 27.3246 233.325 27.909C233.763 28.4726 234.066 29.1718 234.233 30.0067C234.4 30.8416 234.483 31.7704 234.483 32.7932C234.483 33.8786 234.4 34.8491 234.233 35.7049C234.066 36.5398 233.763 37.2495 233.325 37.8339C232.907 38.4183 232.333 38.8671 231.603 39.1802C230.893 39.4933 229.985 39.6498 228.879 39.6498H218.797V48.0092H215.886ZM227.846 37.2703C228.618 37.2703 229.234 37.1764 229.693 36.9886C230.173 36.7798 230.538 36.4876 230.789 36.1119C231.06 35.7362 231.237 35.277 231.321 34.7343C231.404 34.1708 231.446 33.5237 231.446 32.7932C231.446 32.0835 231.394 31.4678 231.29 30.946C231.206 30.4033 231.029 29.9545 230.757 29.5997C230.507 29.224 230.142 28.9422 229.662 28.7544C229.202 28.5665 228.597 28.4726 227.846 28.4726H220.206C219.58 28.4726 219.184 28.5874 219.017 28.817C218.87 29.0466 218.797 29.4119 218.797 29.9128V37.2703H227.846Z" fill="white"/>
<path d="M243.01 48.0092C242.029 48.0092 241.277 47.8109 240.755 47.4144C240.234 47.0178 239.973 46.2455 239.973 45.0975V26.0931H242.884V44.3148C242.884 44.8366 242.978 45.1914 243.166 45.3793C243.354 45.5463 243.719 45.6298 244.262 45.6298H255.47V26.0931H258.382V45.6298H259.04C260 45.6298 260.72 45.8489 261.2 46.2872C261.701 46.7256 261.951 47.5292 261.951 48.698V52.2359H259.04V49.4807C259.04 48.9381 258.956 48.5519 258.789 48.3223C258.622 48.1136 258.236 48.0092 257.631 48.0092H243.01Z" fill="white"/>
<path d="M142.355 80.8834V70.4482C142.355 69.8283 142.492 69.4035 142.768 69.1739C143.055 68.9443 143.457 68.8295 143.973 68.8295H149.501C150.109 68.8295 150.609 68.9156 150.999 69.0878C151.401 69.26 151.716 69.5068 151.946 69.8283C152.187 70.1382 152.353 70.5228 152.445 70.982C152.537 71.4412 152.583 71.952 152.583 72.5145C152.583 73.1115 152.537 73.6453 152.445 74.116C152.353 74.5752 152.187 74.9655 151.946 75.2869C151.716 75.6084 151.401 75.8552 150.999 76.0274C150.609 76.1996 150.109 76.2857 149.501 76.2857H143.956V80.8834H142.355ZM148.932 74.977C149.357 74.977 149.696 74.9253 149.948 74.822C150.212 74.7072 150.413 74.5465 150.551 74.3398C150.7 74.1332 150.798 73.8806 150.844 73.5822C150.89 73.2722 150.913 72.9163 150.913 72.5145C150.913 72.1242 150.884 71.7856 150.827 71.4986C150.781 71.2001 150.683 70.9533 150.534 70.7581C150.396 70.5515 150.195 70.3965 149.931 70.2932C149.679 70.1899 149.346 70.1382 148.932 70.1382H144.731C144.386 70.1382 144.168 70.2014 144.077 70.3276C143.996 70.4539 143.956 70.6548 143.956 70.9303V74.977H148.932Z" fill="white"/>
<path d="M156.781 80.8834C156.253 80.8834 155.84 80.7514 155.541 80.4873C155.243 80.2233 155.094 79.787 155.094 79.1786V70.5343C155.094 69.8914 155.243 69.4494 155.541 69.2084C155.84 68.9558 156.253 68.8295 156.781 68.8295H164.237V70.1382H157.487C157.154 70.1382 156.936 70.2014 156.833 70.3276C156.741 70.4424 156.695 70.6491 156.695 70.9475V74.0643H164.065V75.373H156.695V78.7481C156.695 79.0466 156.741 79.259 156.833 79.3852C156.936 79.5115 157.154 79.5747 157.487 79.5747H164.306V80.8834H156.781Z" fill="white"/>
<path d="M166.807 80.8834V70.5343C166.807 69.8914 166.956 69.4494 167.255 69.2084C167.553 68.9558 167.966 68.8295 168.494 68.8295H175.882V70.1382H169.2C168.867 70.1382 168.649 70.2014 168.546 70.3276C168.454 70.4424 168.408 70.6491 168.408 70.9475V80.8834H166.807Z" fill="white"/>
<path d="M186.975 80.8834L187.027 70.8787C187.027 70.7983 187.021 70.7179 187.01 70.6376C186.998 70.5457 186.958 70.4998 186.889 70.4998C186.832 70.4998 186.757 70.5572 186.666 70.672C186.574 70.7754 186.482 70.8959 186.39 71.0336L180.811 79.9363C180.719 80.0855 180.621 80.229 180.518 80.3668C180.426 80.493 180.317 80.6078 180.191 80.7112C180.076 80.803 179.938 80.8776 179.778 80.935C179.617 80.9924 179.416 81.0211 179.175 81.0211C178.831 81.0211 178.566 80.958 178.383 80.8317C178.199 80.7054 178.061 80.5562 177.97 80.384C177.878 80.2003 177.82 80.0109 177.797 79.8157C177.786 79.6091 177.78 79.4369 177.78 79.2991V68.8295H179.382L179.347 78.6792C179.347 78.84 179.353 78.972 179.364 79.0753C179.376 79.1671 179.427 79.213 179.519 79.213C179.588 79.213 179.651 79.1786 179.709 79.1097C179.766 79.0294 179.824 78.9433 179.881 78.8514L185.374 70.0005C185.661 69.5298 185.931 69.1969 186.183 69.0017C186.436 68.7951 186.752 68.6918 187.13 68.6918C187.486 68.6918 187.762 68.7664 187.957 68.9156C188.152 69.0648 188.296 69.2428 188.388 69.4494C188.479 69.6446 188.531 69.8455 188.543 70.0521C188.565 70.2588 188.577 70.4195 188.577 70.5343V80.8834H186.975Z" fill="white"/>
<path d="M197.261 68.6918C198.374 68.6918 199.31 68.8008 200.068 69.0189C200.837 69.2256 201.457 69.57 201.927 70.0521C202.398 70.5343 202.737 71.1714 202.943 71.9635C203.161 72.7441 203.27 73.7085 203.27 74.8564C203.27 76.0159 203.161 76.9917 202.943 77.7838C202.737 78.5644 202.398 79.1958 201.927 79.678C201.457 80.1601 200.837 80.5045 200.068 80.7112C199.31 80.9178 198.374 81.0211 197.261 81.0211C196.159 81.0211 195.223 80.9178 194.454 80.7112C193.696 80.5045 193.076 80.1601 192.594 79.678C192.123 79.1958 191.779 78.5644 191.561 77.7838C191.354 76.9917 191.251 76.0159 191.251 74.8564C191.251 73.7085 191.354 72.7441 191.561 71.9635C191.779 71.1714 192.123 70.5343 192.594 70.0521C193.076 69.57 193.696 69.2256 194.454 69.0189C195.223 68.8008 196.159 68.6918 197.261 68.6918ZM192.921 74.8564C192.921 75.7748 192.984 76.544 193.111 77.1639C193.249 77.7838 193.478 78.2832 193.8 78.662C194.132 79.0408 194.574 79.3106 195.125 79.4713C195.688 79.6321 196.4 79.7124 197.261 79.7124C198.122 79.7124 198.828 79.6321 199.379 79.4713C199.941 79.3106 200.383 79.0408 200.705 78.662C201.038 78.2832 201.267 77.7838 201.393 77.1639C201.531 76.544 201.6 75.7748 201.6 74.8564C201.6 73.9495 201.531 73.1861 201.393 72.5662C201.267 71.9463 201.038 71.4469 200.705 71.0681C200.383 70.6892 199.941 70.4195 199.379 70.2588C198.828 70.0866 198.122 70.0005 197.261 70.0005C196.4 70.0005 195.688 70.0866 195.125 70.2588C194.574 70.4195 194.132 70.6892 193.8 71.0681C193.478 71.4469 193.249 71.9463 193.111 72.5662C192.984 73.1861 192.921 73.9495 192.921 74.8564Z" fill="white"/>
<path d="M216.195 80.8834H214.593V75.373H207.55V80.8834H205.949V68.8295H207.55V74.0643H214.593V68.8295H216.195V80.8834Z" fill="white"/>
<path d="M222.498 70.0177C222.682 69.5929 222.888 69.2657 223.118 69.0361C223.348 68.8065 223.692 68.6918 224.151 68.6918C224.587 68.6918 224.932 68.8123 225.184 69.0534C225.437 69.283 225.649 69.6044 225.822 70.0177L230.385 80.8834H228.697L227.337 77.6116H220.948L219.605 80.8834H217.918L222.498 70.0177ZM221.43 76.3029H226.855L224.582 70.7753C224.524 70.6491 224.461 70.5228 224.392 70.3965C224.335 70.2588 224.255 70.1899 224.151 70.1899C224.048 70.1899 223.968 70.2588 223.91 70.3965C223.853 70.5228 223.795 70.6491 223.738 70.7753L221.43 76.3029Z" fill="white"/>
<path d="M236.181 69.7938C236.342 69.4265 236.525 69.1509 236.732 68.9673C236.95 68.7836 237.277 68.6918 237.713 68.6918C238.161 68.6918 238.488 68.7836 238.695 68.9673C238.902 69.1509 239.085 69.4265 239.246 69.7938L243.913 80.8834H242.208L238.041 70.5859C238.006 70.5056 237.972 70.4252 237.937 70.3448C237.903 70.2645 237.828 70.2243 237.713 70.2243C237.599 70.2243 237.518 70.2702 237.472 70.3621C237.438 70.4424 237.409 70.5171 237.386 70.5859L233.219 80.8834H231.514L236.181 69.7938Z" fill="white"/>
<path d="M247.247 68.8295V73.9782H253.171C253.71 73.9782 254.152 74.0643 254.497 74.2365C254.841 74.4087 255.111 74.6498 255.306 74.9598C255.513 75.2582 255.656 75.6199 255.737 76.0446C255.817 76.4579 255.857 76.9113 255.857 77.405C255.857 77.8986 255.817 78.3578 255.737 78.7826C255.668 79.2073 255.53 79.5747 255.323 79.8846C255.128 80.1946 254.858 80.4414 254.514 80.6251C254.17 80.7973 253.733 80.8834 253.205 80.8834H247.333C246.828 80.8834 246.421 80.7686 246.111 80.539C245.801 80.2979 245.646 79.8731 245.646 79.2647V68.8295H247.247ZM247.247 75.2869V78.7481C247.247 79.0466 247.293 79.259 247.385 79.3852C247.488 79.5115 247.706 79.5747 248.039 79.5747H252.448C252.803 79.5747 253.09 79.5287 253.309 79.4369C253.538 79.3336 253.716 79.1901 253.842 79.0064C253.98 78.8227 254.072 78.5989 254.118 78.3348C254.164 78.0593 254.187 77.7494 254.187 77.405C254.187 77.0606 254.164 76.7564 254.118 76.4923C254.072 76.2283 253.986 76.0102 253.86 75.838C253.733 75.6543 253.555 75.5165 253.326 75.4247C253.108 75.3329 252.815 75.2869 252.448 75.2869H247.247Z" fill="white"/>
<path d="M268.614 80.8834H267.012V75.373H259.969V80.8834H258.368V68.8295H259.969V74.0643H267.012V68.8295H268.614V80.8834Z" fill="white"/>
<path d="M283.079 80.8834V68.8295H284.681V80.8834H283.079ZM273.23 68.8295V73.9782H278.981C279.521 73.9782 279.963 74.0643 280.307 74.2365C280.651 74.4087 280.921 74.6498 281.116 74.9598C281.323 75.2582 281.467 75.6199 281.547 76.0446C281.627 76.4579 281.667 76.9113 281.667 77.405C281.667 77.8986 281.627 78.3578 281.547 78.7826C281.478 79.2073 281.34 79.5747 281.134 79.8846C280.938 80.1946 280.669 80.4414 280.324 80.6251C279.98 80.7973 279.544 80.8834 279.016 80.8834H273.316C272.811 80.8834 272.403 80.7686 272.093 80.539C271.783 80.2979 271.628 79.8731 271.628 79.2647V68.8295H273.23ZM273.23 75.2869V78.7481C273.23 79.0466 273.276 79.259 273.367 79.3852C273.471 79.5115 273.689 79.5747 274.022 79.5747H278.258C278.614 79.5747 278.901 79.5287 279.119 79.4369C279.348 79.3336 279.526 79.1901 279.653 79.0064C279.79 78.8227 279.882 78.5989 279.928 78.3348C279.974 78.0593 279.997 77.7494 279.997 77.405C279.997 77.0606 279.974 76.7564 279.928 76.4923C279.882 76.2283 279.796 76.0102 279.67 75.838C279.544 75.6543 279.366 75.5165 279.136 75.4247C278.918 75.3329 278.625 75.2869 278.258 75.2869H273.23Z" fill="white"/>
<path d="M289.384 80.8834C288.856 80.8834 288.443 80.7514 288.145 80.4873C287.846 80.2233 287.697 79.787 287.697 79.1786V70.5343C287.697 69.8914 287.846 69.4494 288.145 69.2084C288.443 68.9558 288.856 68.8295 289.384 68.8295H296.841V70.1382H290.09C289.758 70.1382 289.539 70.2014 289.436 70.3276C289.344 70.4424 289.298 70.6491 289.298 70.9475V74.0643H296.668V75.373H289.298V78.7481C289.298 79.0466 289.344 79.259 289.436 79.3852C289.539 79.5115 289.758 79.5747 290.09 79.5747H296.91V80.8834H289.384Z" fill="white"/>
<path d="M142.355 105.148V94.7124C142.355 94.0925 142.492 93.6677 142.768 93.4382C143.055 93.2086 143.457 93.0938 143.973 93.0938H149.501C150.109 93.0938 150.609 93.1799 150.999 93.3521C151.401 93.5243 151.716 93.7711 151.946 94.0925C152.187 94.4025 152.353 94.787 152.445 95.2462C152.537 95.7054 152.583 96.2163 152.583 96.7788C152.583 97.3757 152.537 97.9096 152.445 98.3802C152.353 98.8394 152.187 99.2297 151.946 99.5512C151.716 99.8726 151.401 100.119 150.999 100.292C150.609 100.464 150.109 100.55 149.501 100.55H143.956V105.148H142.355ZM148.932 99.2412C149.357 99.2412 149.696 99.1896 149.948 99.0862C150.212 98.9714 150.413 98.8107 150.551 98.6041C150.7 98.3975 150.798 98.1449 150.844 97.8464C150.89 97.5365 150.913 97.1806 150.913 96.7788C150.913 96.3885 150.884 96.0498 150.827 95.7628C150.781 95.4643 150.683 95.2175 150.534 95.0224C150.396 94.8157 150.195 94.6608 149.931 94.5574C149.679 94.4541 149.346 94.4025 148.932 94.4025H144.731C144.386 94.4025 144.168 94.4656 144.077 94.5919C143.996 94.7182 143.956 94.9191 143.956 95.1946V99.2412H148.932Z" fill="white"/>
<path d="M157.172 94.2819C157.355 93.8572 157.562 93.53 157.792 93.3004C158.021 93.0708 158.366 92.956 158.825 92.956C159.261 92.956 159.605 93.0765 159.858 93.3176C160.111 93.5472 160.323 93.8686 160.495 94.2819L165.058 105.148H163.371L162.011 101.876H155.622L154.279 105.148H152.591L157.172 94.2819ZM156.104 100.567H161.528L159.255 95.0396C159.198 94.9133 159.135 94.787 159.066 94.6608C159.009 94.523 158.928 94.4541 158.825 94.4541C158.722 94.4541 158.641 94.523 158.584 94.6608C158.526 94.787 158.469 94.9133 158.412 95.0396L156.104 100.567Z" fill="white"/>
<path d="M171.474 105.148C170.464 105.148 169.631 104.993 168.977 104.683C168.334 104.361 167.823 103.931 167.444 103.391C167.066 102.84 166.801 102.197 166.652 101.463C166.514 100.728 166.446 99.9415 166.446 99.1035C166.446 98.2654 166.514 97.4848 166.652 96.7616C166.801 96.0269 167.066 95.3897 167.444 94.8502C167.835 94.2991 168.357 93.8686 169.011 93.5587C169.677 93.2487 170.527 93.0938 171.56 93.0938H176.226V94.4025H172.094C171.336 94.4025 170.705 94.4943 170.199 94.678C169.694 94.8617 169.287 95.1487 168.977 95.539C168.667 95.9178 168.443 96.4057 168.305 97.0026C168.179 97.5881 168.116 98.2884 168.116 99.1035C168.116 99.9185 168.179 100.625 168.305 101.221C168.432 101.818 168.644 102.312 168.942 102.702C169.252 103.093 169.654 103.38 170.148 103.563C170.641 103.747 171.261 103.839 172.008 103.839H176.399V105.148H171.474Z" fill="white"/>
<path d="M178.739 105.148V94.7985C178.739 94.1556 178.888 93.7137 179.186 93.4726C179.485 93.22 179.898 93.0938 180.426 93.0938H187.159C187.687 93.0938 188.1 93.22 188.399 93.4726C188.709 93.7137 188.864 94.1556 188.864 94.7985V105.148H187.262V95.2118C187.262 94.9133 187.211 94.7067 187.107 94.5919C187.004 94.4656 186.786 94.4025 186.453 94.4025H181.132C180.799 94.4025 180.581 94.4656 180.478 94.5919C180.386 94.7067 180.34 94.9133 180.34 95.2118V105.148H178.739Z" fill="white"/>
<path d="M191.881 105.148V94.7124C191.881 94.0925 192.019 93.6677 192.295 93.4382C192.582 93.2086 192.983 93.0938 193.5 93.0938H199.027C199.636 93.0938 200.135 93.1799 200.526 93.3521C200.927 93.5243 201.243 93.7711 201.473 94.0925C201.714 94.4025 201.88 94.787 201.972 95.2462C202.064 95.7054 202.11 96.2163 202.11 96.7788C202.11 97.3757 202.064 97.9096 201.972 98.3802C201.88 98.8394 201.714 99.2297 201.473 99.5512C201.243 99.8726 200.927 100.119 200.526 100.292C200.135 100.464 199.636 100.55 199.027 100.55H193.483V105.148H191.881ZM198.459 99.2412C198.884 99.2412 199.223 99.1896 199.475 99.0862C199.739 98.9714 199.94 98.8107 200.078 98.6041C200.227 98.3975 200.325 98.1449 200.371 97.8464C200.417 97.5365 200.44 97.1806 200.44 96.7788C200.44 96.3885 200.411 96.0498 200.353 95.7628C200.307 95.4643 200.21 95.2175 200.061 95.0224C199.923 94.8157 199.722 94.6608 199.458 94.5574C199.205 94.4541 198.873 94.4025 198.459 94.4025H194.258C193.913 94.4025 193.695 94.4656 193.603 94.5919C193.523 94.7182 193.483 94.9191 193.483 95.1946V99.2412H198.459Z" fill="white"/>
<path d="M206.308 105.148C205.78 105.148 205.367 105.016 205.068 104.752C204.77 104.488 204.62 104.051 204.62 103.443V94.7985C204.62 94.1556 204.77 93.7137 205.068 93.4726C205.367 93.22 205.78 93.0938 206.308 93.0938H213.764V94.4025H207.014C206.681 94.4025 206.463 94.4656 206.36 94.5919C206.268 94.7067 206.222 94.9133 206.222 95.2118V98.3286H213.592V99.6373H206.222V103.012C206.222 103.311 206.268 103.523 206.36 103.649C206.463 103.776 206.681 103.839 207.014 103.839H213.833V105.148H206.308Z" fill="white"/>
<path d="M217.514 105.148C217.215 105.148 217.02 105.211 216.928 105.337C216.848 105.463 216.808 105.67 216.808 105.957V107.472H215.206V105.526C215.206 104.884 215.338 104.442 215.602 104.201C215.878 103.959 216.28 103.839 216.808 103.839H217.186L221.457 94.1958C221.652 93.7481 221.876 93.4324 222.129 93.2487C222.393 93.0536 222.708 92.956 223.076 92.956C223.477 92.956 223.799 93.0536 224.04 93.2487C224.281 93.4324 224.499 93.7481 224.694 94.1958L228.948 103.839H229.344C229.872 103.839 230.268 103.959 230.532 104.201C230.807 104.442 230.945 104.884 230.945 105.526V107.472H229.344V105.957C229.344 105.67 229.298 105.463 229.206 105.337C229.114 105.211 228.919 105.148 228.62 105.148H217.514ZM218.84 103.839H227.294L223.42 94.9535C223.363 94.8387 223.311 94.7354 223.265 94.6435C223.219 94.5517 223.15 94.5058 223.058 94.5058C222.978 94.5058 222.909 94.5574 222.852 94.6608C222.806 94.7526 222.76 94.8502 222.714 94.9535L218.84 103.839Z" fill="white"/>
<path d="M234.022 105.148C233.494 105.148 233.081 105.016 232.783 104.752C232.484 104.488 232.335 104.051 232.335 103.443V94.7985C232.335 94.1556 232.484 93.7137 232.783 93.4726C233.081 93.22 233.494 93.0938 234.022 93.0938H241.479V94.4025H234.729C234.396 94.4025 234.177 94.4656 234.074 94.5919C233.982 94.7067 233.936 94.9133 233.936 95.2118V98.3286H241.306V99.6373H233.936V103.012C233.936 103.311 233.982 103.523 234.074 103.649C234.177 103.776 234.396 103.839 234.729 103.839H241.548V105.148H234.022Z" fill="white"/>
<path d="M247.423 94.0581C247.584 93.6907 247.768 93.4152 247.974 93.2315C248.192 93.0478 248.52 92.956 248.956 92.956C249.404 92.956 249.731 93.0478 249.937 93.2315C250.144 93.4152 250.328 93.6907 250.488 94.0581L255.155 105.148H253.45L249.283 94.8502C249.249 94.7698 249.214 94.6895 249.18 94.6091C249.145 94.5287 249.071 94.4886 248.956 94.4886C248.841 94.4886 248.761 94.5345 248.715 94.6263C248.68 94.7067 248.652 94.7813 248.629 94.8502L244.461 105.148H242.757L247.423 94.0581Z" fill="white"/>
<path d="M266.083 105.148L266.135 95.1429C266.135 95.0626 266.129 94.9822 266.118 94.9018C266.106 94.81 266.066 94.7641 265.997 94.7641C265.94 94.7641 265.865 94.8215 265.774 94.9363C265.682 95.0396 265.59 95.1601 265.498 95.2979L259.919 104.201C259.827 104.35 259.729 104.493 259.626 104.631C259.534 104.757 259.425 104.872 259.299 104.975C259.184 105.067 259.046 105.142 258.886 105.199C258.725 105.257 258.524 105.285 258.283 105.285C257.939 105.285 257.674 105.222 257.491 105.096C257.307 104.97 257.169 104.82 257.078 104.648C256.986 104.465 256.928 104.275 256.905 104.08C256.894 103.873 256.888 103.701 256.888 103.563V93.0938H258.49L258.455 102.943C258.455 103.104 258.461 103.236 258.472 103.34C258.484 103.431 258.535 103.477 258.627 103.477C258.696 103.477 258.759 103.443 258.817 103.374C258.874 103.294 258.932 103.208 258.989 103.116L264.482 94.2647C264.769 93.794 265.039 93.4611 265.291 93.266C265.544 93.0593 265.86 92.956 266.238 92.956C266.594 92.956 266.87 93.0306 267.065 93.1799C267.26 93.3291 267.404 93.507 267.496 93.7137C267.587 93.9088 267.639 94.1097 267.65 94.3164C267.673 94.523 267.685 94.6837 267.685 94.7985V105.148H266.083Z" fill="white"/>
<path d="M274.457 105.148V94.4025H269.584V93.0938H280.932V94.4025H276.059V105.148H274.457Z" fill="white"/>
<path d="M284.525 105.148C283.996 105.148 283.583 105.016 283.285 104.752C282.986 104.488 282.837 104.051 282.837 103.443V94.7985C282.837 94.1556 282.986 93.7137 283.285 93.4726C283.583 93.22 283.996 93.0938 284.525 93.0938H291.981V94.4025H285.231C284.898 94.4025 284.68 94.4656 284.576 94.5919C284.484 94.7067 284.438 94.9133 284.438 95.2118V98.3286H291.809V99.6373H284.438V103.012C284.438 103.311 284.484 103.523 284.576 103.649C284.68 103.776 284.898 103.839 285.231 103.839H292.05V105.148H284.525Z" fill="white"/>
<path d="M297.925 94.0581C298.086 93.6907 298.27 93.4152 298.476 93.2315C298.695 93.0478 299.022 92.956 299.458 92.956C299.906 92.956 300.233 93.0478 300.439 93.2315C300.646 93.4152 300.83 93.6907 300.99 94.0581L305.657 105.148H303.952L299.785 94.8502C299.751 94.7698 299.716 94.6895 299.682 94.6091C299.647 94.5287 299.573 94.4886 299.458 94.4886C299.343 94.4886 299.263 94.5345 299.217 94.6263C299.182 94.7067 299.154 94.7813 299.131 94.8502L294.964 105.148H293.259L297.925 94.0581Z" fill="white"/>
<path d="M308.992 93.0938V98.2425H314.915C315.455 98.2425 315.897 98.3286 316.241 98.5008C316.586 98.673 316.855 98.914 317.051 99.224C317.257 99.5225 317.401 99.8841 317.481 100.309C317.561 100.722 317.602 101.176 317.602 101.669C317.602 102.163 317.561 102.622 317.481 103.047C317.412 103.472 317.274 103.839 317.068 104.149C316.873 104.459 316.603 104.706 316.258 104.889C315.914 105.062 315.478 105.148 314.95 105.148H309.078C308.573 105.148 308.165 105.033 307.855 104.803C307.545 104.562 307.39 104.137 307.39 103.529V93.0938H308.992ZM308.992 99.5512V103.012C308.992 103.311 309.038 103.523 309.129 103.649C309.233 103.776 309.451 103.839 309.784 103.839H314.192C314.548 103.839 314.835 103.793 315.053 103.701C315.283 103.598 315.461 103.454 315.587 103.271C315.725 103.087 315.816 102.863 315.862 102.599C315.908 102.324 315.931 102.014 315.931 101.669C315.931 101.325 315.908 101.021 315.862 100.757C315.816 100.493 315.73 100.274 315.604 100.102C315.478 99.9185 315.3 99.7808 315.07 99.6889C314.852 99.5971 314.559 99.5512 314.192 99.5512H308.992Z" fill="white"/>
<path d="M330.358 105.148H328.757V99.6373H321.714V105.148H320.112V93.0938H321.714V98.3286H328.757V93.0938H330.358V105.148Z" fill="white"/>
<path d="M344.824 105.148V93.0938H346.425V105.148H344.824ZM334.974 93.0938V98.2425H340.726C341.265 98.2425 341.707 98.3286 342.052 98.5008C342.396 98.673 342.666 98.914 342.861 99.224C343.068 99.5225 343.211 99.8841 343.291 100.309C343.372 100.722 343.412 101.176 343.412 101.669C343.412 102.163 343.372 102.622 343.291 103.047C343.222 103.472 343.085 103.839 342.878 104.149C342.683 104.459 342.413 104.706 342.069 104.889C341.724 105.062 341.288 105.148 340.76 105.148H335.06C334.555 105.148 334.148 105.033 333.838 104.803C333.528 104.562 333.373 104.137 333.373 103.529V93.0938H334.974ZM334.974 99.5512V103.012C334.974 103.311 335.02 103.523 335.112 103.649C335.215 103.776 335.433 103.839 335.766 103.839H340.002C340.358 103.839 340.645 103.793 340.863 103.701C341.093 103.598 341.271 103.454 341.397 103.271C341.535 103.087 341.627 102.863 341.673 102.599C341.719 102.324 341.742 102.014 341.742 101.669C341.742 101.325 341.719 101.021 341.673 100.757C341.627 100.493 341.541 100.274 341.414 100.102C341.288 99.9185 341.11 99.7808 340.881 99.6889C340.662 99.5971 340.37 99.5512 340.002 99.5512H334.974Z" fill="white"/>
<path d="M351.129 105.148C350.601 105.148 350.188 105.016 349.889 104.752C349.591 104.488 349.441 104.051 349.441 103.443V94.7985C349.441 94.1556 349.591 93.7137 349.889 93.4726C350.188 93.22 350.601 93.0938 351.129 93.0938H358.585V94.4025H351.835C351.502 94.4025 351.284 94.4656 351.181 94.5919C351.089 94.7067 351.043 94.9133 351.043 95.2118V98.3286H358.413V99.6373H351.043V103.012C351.043 103.311 351.089 103.523 351.181 103.649C351.284 103.776 351.502 103.839 351.835 103.839H358.654V105.148H351.129Z" fill="white"/>
<path d="M144.025 129.412C143.485 129.412 143.072 129.303 142.785 129.085C142.498 128.867 142.355 128.442 142.355 127.81V117.358H143.956V127.38C143.956 127.667 144.008 127.862 144.111 127.965C144.214 128.057 144.415 128.103 144.714 128.103H150.878V117.358H152.48V128.103H152.841C153.369 128.103 153.765 128.224 154.03 128.465C154.305 128.706 154.443 129.148 154.443 129.791V131.737H152.841V130.221C152.841 129.923 152.795 129.71 152.704 129.584C152.612 129.469 152.399 129.412 152.066 129.412H144.025Z" fill="white"/>
<path d="M157.689 129.412C157.161 129.412 156.748 129.28 156.449 129.016C156.151 128.752 156.002 128.316 156.002 127.707V119.063C156.002 118.42 156.151 117.978 156.449 117.737C156.748 117.484 157.161 117.358 157.689 117.358H165.145V118.667H158.395C158.062 118.667 157.844 118.73 157.741 118.856C157.649 118.971 157.603 119.178 157.603 119.476V122.593H164.973V123.902H157.603V127.277C157.603 127.575 157.649 127.787 157.741 127.914C157.844 128.04 158.062 128.103 158.395 128.103H165.214V129.412H157.689Z" fill="white"/>
<path d="M177.961 129.412H176.359V123.902H169.316V129.412H167.715V117.358H169.316V122.593H176.359V117.358H177.961V129.412Z" fill="white"/>
<path d="M184.729 129.412V118.667H179.856V117.358H191.204V118.667H186.331V129.412H184.729Z" fill="white"/>
<path d="M193.109 129.412V118.977C193.109 118.357 193.247 117.932 193.522 117.702C193.809 117.473 194.211 117.358 194.728 117.358H200.255C200.864 117.358 201.363 117.444 201.753 117.616C202.155 117.788 202.471 118.035 202.7 118.357C202.941 118.667 203.108 119.051 203.2 119.51C203.291 119.97 203.337 120.481 203.337 121.043C203.337 121.64 203.291 122.174 203.2 122.644C203.108 123.104 202.941 123.494 202.7 123.815C202.471 124.137 202.155 124.384 201.753 124.556C201.363 124.728 200.864 124.814 200.255 124.814H194.71V129.412H193.109ZM199.687 123.505C200.112 123.505 200.45 123.454 200.703 123.35C200.967 123.236 201.168 123.075 201.305 122.868C201.455 122.662 201.552 122.409 201.598 122.111C201.644 121.801 201.667 121.445 201.667 121.043C201.667 120.653 201.638 120.314 201.581 120.027C201.535 119.729 201.438 119.482 201.288 119.287C201.151 119.08 200.95 118.925 200.686 118.822C200.433 118.718 200.1 118.667 199.687 118.667H195.485C195.141 118.667 194.923 118.73 194.831 118.856C194.75 118.982 194.71 119.183 194.71 119.459V123.505H199.687Z" fill="white"/>
<path d="M217.299 129.412V117.358H218.9V129.412H217.299ZM207.449 117.358V122.507H213.201C213.74 122.507 214.182 122.593 214.527 122.765C214.871 122.937 215.141 123.178 215.336 123.488C215.543 123.787 215.686 124.148 215.766 124.573C215.847 124.986 215.887 125.44 215.887 125.933C215.887 126.427 215.847 126.886 215.766 127.311C215.698 127.736 215.56 128.103 215.353 128.413C215.158 128.723 214.888 128.97 214.544 129.154C214.2 129.326 213.763 129.412 213.235 129.412H207.535C207.03 129.412 206.623 129.297 206.313 129.067C206.003 128.826 205.848 128.402 205.848 127.793V117.358H207.449ZM207.449 123.815V127.277C207.449 127.575 207.495 127.787 207.587 127.914C207.69 128.04 207.909 128.103 208.241 128.103H212.478C212.833 128.103 213.12 128.057 213.339 127.965C213.568 127.862 213.746 127.719 213.872 127.535C214.01 127.351 214.102 127.127 214.148 126.863C214.194 126.588 214.217 126.278 214.217 125.933C214.217 125.589 214.194 125.285 214.148 125.021C214.102 124.757 214.016 124.539 213.89 124.366C213.763 124.183 213.585 124.045 213.356 123.953C213.138 123.861 212.845 123.815 212.478 123.815H207.449Z" fill="white"/>
</g>
</svg>
