<svg width="321" height="132" viewBox="0 0 321 132" fill="none" xmlns="http://www.w3.org/2000/svg">
<g id="image_infogr_13">
<path fill-rule="evenodd" clip-rule="evenodd" d="M54.945 108.278V77.0187C54.945 76.4316 54.945 75.6978 54.6514 75.1108C54.2112 74.5238 53.4774 74.0835 52.7436 74.0835H5.92727C4.89995 74.0835 4.01939 74.9641 4.01939 75.9914V108.278H54.945ZM31.9037 84.0631C32.4907 84.2099 33.2245 84.5034 33.6648 84.7969C33.9583 84.9437 34.3986 84.9437 34.6921 84.7969L36.6 83.9164C36.8935 84.2099 37.3338 84.5034 37.6273 84.9437L36.7468 86.8516C36.6 87.1451 36.6 87.5854 36.7468 87.8789C37.0403 88.4659 37.3338 89.053 37.4806 89.64C37.6273 89.9335 37.7741 90.227 38.2144 90.3738L40.269 91.2544C40.269 91.5479 40.269 91.6946 40.269 91.9882C40.269 92.2817 40.269 92.4284 40.269 92.722L38.2144 93.6025C37.9209 93.7493 37.6273 94.0428 37.4806 94.3363C37.3338 94.9234 37.0403 95.5104 36.7468 96.0974C36.6 96.3909 36.6 96.8312 36.7468 97.1247L37.6273 99.0326C37.3338 99.3261 37.0403 99.6197 36.6 100.06L34.6921 99.1794C34.3986 99.0326 33.9583 99.0326 33.6648 99.1794C33.0778 99.4729 32.4907 99.7664 31.9037 99.9132C31.6102 100.06 31.3167 100.207 31.1699 100.647L30.2894 102.555C29.8491 102.555 29.4088 102.555 28.9685 102.555L28.088 100.647C27.9412 100.353 27.6477 100.06 27.3542 99.9132C26.7671 99.7664 26.0333 99.4729 25.593 99.1794C25.2995 99.0326 24.8592 99.0326 24.5657 99.1794L22.6579 100.06C22.3643 99.7664 22.0708 99.4729 21.6305 99.0326L22.5111 97.1247C22.6579 96.8312 22.6579 96.3909 22.5111 96.0974C22.2176 95.5104 21.9241 94.9234 21.7773 94.3363C21.6305 94.0428 21.4838 93.7493 21.0435 93.6025L18.9889 92.722C18.9889 92.4284 18.9889 92.2817 18.9889 91.9882C18.9889 91.6946 18.9889 91.5479 18.9889 91.2544L21.0435 90.3738C21.337 90.227 21.6305 89.9335 21.7773 89.64C21.9241 89.053 22.2176 88.4659 22.5111 87.8789C22.6579 87.5854 22.6579 87.1451 22.5111 86.8516L21.6305 84.9437C21.9241 84.6502 22.2176 84.2099 22.6579 83.9164L24.5657 84.7969C24.8592 84.9437 25.2995 84.9437 25.593 84.7969C26.1801 84.5034 26.7671 84.2099 27.3542 84.0631C27.6477 83.9164 27.9412 83.7696 28.088 83.3293L28.9685 81.4215C29.4088 81.4215 29.8491 81.4215 30.2894 81.4215L31.1699 83.3293C31.1699 83.7696 31.4634 83.9164 31.9037 84.0631ZM33.0778 92.1349C33.0778 94.1896 31.4634 95.6571 29.5556 95.6571C27.6477 95.6571 26.0333 94.0428 26.0333 92.1349C26.0333 90.227 27.6477 88.6127 29.5556 88.6127C31.4634 88.6127 33.0778 90.227 33.0778 92.1349ZM23.5384 92.1349C23.5384 95.3636 26.1801 98.1521 29.5556 98.1521C32.7843 98.1521 35.5727 95.5104 35.5727 92.1349C35.5727 88.9062 32.931 86.1178 29.5556 86.1178C26.3268 86.1178 23.5384 88.9062 23.5384 92.1349ZM27.7944 79.0733C27.3542 79.2201 27.0606 79.3668 26.9139 79.8071L26.0333 82.0085C25.593 82.1553 25.1528 82.302 24.8593 82.4488L22.8046 81.5682C22.3643 81.4215 21.9241 81.4215 21.4838 81.715C20.6032 82.4488 19.8694 83.1826 19.1356 84.0631C18.9889 84.3567 18.8421 84.9437 18.9889 85.2372L19.8694 87.2919C19.7227 87.7321 19.4291 88.0257 19.4291 88.4659L17.3745 89.3465C16.9342 89.4932 16.6407 89.9335 16.6407 90.3738C16.494 90.9608 16.494 91.5479 16.494 91.9882C16.494 92.4284 16.494 93.0155 16.6407 93.6025C16.6407 94.0428 16.9342 94.3363 17.3745 94.6298L19.4291 95.5104C19.5759 95.9507 19.7227 96.3909 19.8694 96.6845L18.9889 98.8859C18.8421 99.3261 18.8421 99.7664 19.1356 100.06C19.8694 100.94 20.6032 101.674 21.4838 102.408C21.7773 102.702 22.2176 102.702 22.6579 102.555L24.7125 101.674C25.1528 101.821 25.4463 102.115 25.8866 102.115L26.7671 104.169C26.9139 104.609 27.3542 104.903 27.6477 104.903C27.7944 104.903 27.9412 104.903 28.088 104.903H30.7296C30.8764 104.903 31.0231 104.903 31.1699 104.903C31.6102 104.903 31.9037 104.609 32.0505 104.169L32.931 102.115C33.3713 101.968 33.8116 101.821 34.1051 101.674L36.1597 102.555C36.6 102.702 37.0403 102.702 37.3338 102.408C38.2144 101.674 38.9482 100.94 39.682 100.06C39.9755 99.7664 39.9755 99.3261 39.8287 98.8859L38.9482 96.8312C39.0949 96.3909 39.3884 95.9507 39.3884 95.6571L41.5898 94.7766C42.0301 94.6298 42.3236 94.1896 42.3236 93.7493C42.3236 93.1622 42.4704 92.5752 42.4704 92.1349C42.4704 91.6946 42.4704 91.1076 42.3236 90.5206C42.3236 90.0803 42.0301 89.7868 41.5898 89.4932L39.3884 88.6127C39.2417 88.1724 39.0949 87.7321 38.9482 87.4386L39.8287 85.384C39.9755 84.9437 39.9755 84.5034 39.682 84.2099C38.9482 83.3293 38.2144 82.5955 37.3338 81.8617C37.0403 81.5682 36.6 81.5682 36.1597 81.715L34.1051 82.5955C33.6648 82.4488 33.3713 82.1553 32.931 82.1553L32.1972 79.8071C32.0505 79.3668 31.7569 79.2201 31.3167 79.0733H27.7944ZM29.5556 109.893C30.4361 109.893 31.0232 110.627 31.0232 111.36C31.0232 112.241 30.2894 112.828 29.5556 112.828C28.675 112.828 28.088 112.094 28.088 111.36C28.088 110.627 28.675 109.893 29.5556 109.893ZM77.9862 113.122V109.306H58.6139V111.214C58.6139 111.801 58.4672 112.534 58.3204 113.122H77.9862ZM81.9487 109.306V113.268H112.915L109.393 79.6604L95.5974 75.1108V76.2849C95.5974 76.7252 95.4506 77.1655 95.1571 77.6057L83.4163 91.2544C82.6825 92.1349 81.3617 92.1349 80.6279 91.4011C80.6279 91.4011 80.6279 91.4011 80.4811 91.2544L68.7404 77.6057C68.4468 77.3122 68.3001 76.8719 68.3001 76.2849V75.1108L58.6139 78.1928V105.343H78.133C80.1876 105.343 81.9487 107.104 81.9487 109.306ZM72.2626 64.1039V75.4043L81.9487 86.7048L91.6348 75.4043V64.1039C88.5529 65.5714 85.3242 66.3052 81.9487 66.3052C78.5733 66.452 75.1978 65.5714 72.2626 64.1039ZM103.082 41.0626H60.8153C61.6959 47.8135 65.0714 53.9774 70.208 58.2335C76.9589 63.8103 86.7918 63.8103 93.5427 58.2335C98.8261 53.9774 102.202 47.8135 103.082 41.0626ZM109.246 37.2469V33.2844H97.5052V29.4686H104.843C104.55 23.5982 102.495 7.74819 89.5802 6.13384V23.5982H85.6177V4.07921H77.8394V23.5982H73.8769V6.13384C61.1089 7.60143 59.0542 23.4515 58.7607 29.3218H93.396V33.1376H54.6514V36.9533L109.246 37.2469ZM5.92727 70.2678H52.7436C55.2385 70.2678 57.4399 71.8821 58.1737 74.2303L68.3001 70.8548V61.6089C68.1533 61.4622 68.0066 61.3154 67.8598 61.1687C61.8427 56.0321 57.8802 48.8409 56.9996 40.9158H52.7436C51.7162 40.9158 50.8357 40.0353 50.8357 39.008V31.2297C50.8357 30.2024 51.7162 29.3218 52.7436 29.3218H55.0917C55.532 16.8473 60.8153 3.34541 74.1705 2.17133C74.1705 1.14402 75.051 0.263458 76.0783 0.263458H87.8191C88.8464 0.263458 89.727 1.14402 89.727 2.17133C103.082 3.34541 108.365 16.994 108.806 29.3218H111.154C112.181 29.3218 113.062 30.2024 113.062 31.2297V39.008C113.062 40.0353 112.181 40.9158 111.154 40.9158H106.898C106.017 48.8409 102.055 56.0321 96.0376 61.1687C95.8909 61.3154 95.7441 61.4622 95.5974 61.6089V70.8548L110.567 75.8446C112.034 76.2849 113.062 77.6057 113.209 79.0733L117.024 114.883C117.171 115.91 116.29 116.937 115.263 116.937H5.92727C2.69856 116.937 0.0568848 114.296 0.0568848 111.067V76.1381C0.0568848 72.9094 2.69856 70.2678 5.92727 70.2678Z" fill="white"/>
<path d="M144.592 47.9153V42.9685L163.628 33.9516L144.592 24.8721V19.9253L172.394 33.9516L144.592 47.9153Z" fill="white"/>
<path d="M183.196 48.0092V41.4344H203.358C205.112 41.4344 206.343 40.8917 207.053 39.8063C207.763 38.721 208.117 37.0303 208.117 34.7343C208.117 32.6888 207.763 31.186 207.053 30.2259C206.385 29.224 205.153 28.7231 203.358 28.7231H191.085C188.414 28.7231 186.389 28.1804 185.012 27.095C183.634 26.0096 182.945 23.9433 182.945 20.8959V9.81261C182.945 8.05932 183.425 6.68174 184.385 5.67986C185.387 4.67798 186.848 4.17704 188.769 4.17704H215.193V10.7519H193.277C192.86 10.7519 192.505 10.7936 192.213 10.8771C191.962 10.9606 191.732 11.1693 191.524 11.5033C191.315 11.8372 191.211 12.3382 191.211 13.0061V18.4538C191.211 19.7896 191.419 20.7498 191.837 21.3342C192.296 21.8769 193.173 22.1482 194.467 22.1482H206.928C210.518 22.1482 213.022 23.2336 214.442 25.4043C215.903 27.5333 216.633 30.539 216.633 34.4212C216.633 35.9658 216.571 37.3434 216.445 38.554C216.32 39.7646 216.049 40.9961 215.631 42.2484C215.214 43.459 214.65 44.4818 213.941 45.3167C213.273 46.1098 212.334 46.7569 211.123 47.2578C209.954 47.7588 208.556 48.0092 206.928 48.0092H183.196Z" fill="white"/>
<path d="M236.264 48.0092V28.4726H227.403V26.0931H248.036V28.4726H239.176V48.0092H236.264Z" fill="white"/>
<path d="M273.245 48.0092V26.0931H276.157V48.0092H273.245ZM255.336 26.0931V35.4544H265.794C266.775 35.4544 267.578 35.611 268.204 35.9241C268.831 36.2372 269.321 36.6755 269.676 37.239C270.052 37.7817 270.312 38.4392 270.459 39.2115C270.605 39.9629 270.678 40.7874 270.678 41.6849C270.678 42.5824 270.605 43.4173 270.459 44.1896C270.333 44.9618 270.083 45.6298 269.707 46.1933C269.352 46.7569 268.862 47.2056 268.236 47.5396C267.609 47.8527 266.816 48.0092 265.856 48.0092H255.493C254.575 48.0092 253.834 47.8005 253.27 47.3831C252.707 46.9447 252.425 46.1725 252.425 45.0662V26.0931H255.336ZM255.336 37.8339V44.1269C255.336 44.6696 255.42 45.0558 255.587 45.2854C255.775 45.515 256.171 45.6298 256.777 45.6298H264.479C265.126 45.6298 265.647 45.5463 266.044 45.3793C266.462 45.1914 266.785 44.9305 267.015 44.5966C267.265 44.2626 267.432 43.8556 267.516 43.3755C267.599 42.8746 267.641 42.311 267.641 41.6849C267.641 41.0587 267.599 40.5056 267.516 40.0255C267.432 39.5454 267.276 39.1489 267.046 38.8358C266.816 38.5018 266.493 38.2513 266.075 38.0844C265.679 37.9174 265.147 37.8339 264.479 37.8339H255.336Z" fill="white"/>
<path d="M291.081 48.0092C289.245 48.0092 287.731 47.7274 286.542 47.1639C285.373 46.5795 284.444 45.7967 283.755 44.8157C283.066 43.8139 282.586 42.645 282.315 41.3092C282.065 39.9733 281.939 38.5436 281.939 37.0199C281.939 35.4962 282.065 34.0769 282.315 32.7619C282.586 31.4261 283.066 30.2676 283.755 29.2866C284.465 28.2847 285.415 27.502 286.604 26.9385C287.815 26.3749 289.36 26.0931 291.238 26.0931H299.723V28.4726H292.209C290.831 28.4726 289.683 28.6396 288.765 28.9735C287.846 29.3075 287.105 29.8293 286.542 30.539C285.978 31.2278 285.571 32.1148 285.321 33.2002C285.091 34.2647 284.976 35.5379 284.976 37.0199C284.976 38.5018 285.091 39.7855 285.321 40.8708C285.55 41.9562 285.936 42.8537 286.479 43.5634C287.043 44.2731 287.773 44.7949 288.671 45.1288C289.568 45.4628 290.695 45.6298 292.052 45.6298H300.036V48.0092H291.081Z" fill="white"/>
<path d="M304.902 48.0092V44.6279H307.751V48.0092H304.902Z" fill="white"/>
<path d="M189.429 80.8834V75.6141H183.884C183.058 75.6141 182.421 75.373 181.973 74.8909C181.525 74.4087 181.301 73.7544 181.301 72.9278V68.8295H182.903V72.6523C182.903 73.2378 183.023 73.6625 183.264 73.9266C183.506 74.1791 183.919 74.3054 184.504 74.3054H189.429V68.8295H191.031V80.8834H189.429Z" fill="white"/>
<path d="M195.734 80.8834C195.206 80.8834 194.793 80.7514 194.494 80.4873C194.196 80.2233 194.047 79.787 194.047 79.1786V70.5343C194.047 69.8914 194.196 69.4494 194.494 69.2084C194.793 68.9558 195.206 68.8295 195.734 68.8295H203.19V70.1382H196.44C196.107 70.1382 195.889 70.2014 195.786 70.3276C195.694 70.4424 195.648 70.6491 195.648 70.9475V74.0643H203.018V75.373H195.648V78.7481C195.648 79.0466 195.694 79.259 195.786 79.3852C195.889 79.5115 196.107 79.5747 196.44 79.5747H203.259V80.8834H195.734Z" fill="white"/>
<path d="M209.135 69.7938C209.296 69.4265 209.479 69.1509 209.686 68.9673C209.904 68.7836 210.231 68.6918 210.667 68.6918C211.115 68.6918 211.442 68.7836 211.649 68.9673C211.856 69.1509 212.039 69.4265 212.2 69.7938L216.867 80.8834H215.162L210.995 70.5859C210.96 70.5056 210.926 70.4252 210.891 70.3448C210.857 70.2645 210.782 70.2243 210.667 70.2243C210.553 70.2243 210.472 70.2702 210.426 70.3621C210.392 70.4424 210.363 70.5171 210.34 70.5859L206.173 80.8834H204.468L209.135 69.7938Z" fill="white"/>
<path d="M224.265 68.6918C225.379 68.6918 226.314 68.8008 227.072 69.0189C227.841 69.2256 228.461 69.57 228.932 70.0521C229.402 70.5343 229.741 71.1714 229.948 71.9635C230.166 72.7441 230.275 73.7085 230.275 74.8564C230.275 76.0159 230.166 76.9917 229.948 77.7838C229.741 78.5644 229.402 79.1958 228.932 79.678C228.461 80.1601 227.841 80.5045 227.072 80.7112C226.314 80.9178 225.379 81.0211 224.265 81.0211C223.163 81.0211 222.227 80.9178 221.458 80.7112C220.701 80.5045 220.081 80.1601 219.598 79.678C219.128 79.1958 218.783 78.5644 218.565 77.7838C218.359 76.9917 218.255 76.0159 218.255 74.8564C218.255 73.7085 218.359 72.7441 218.565 71.9635C218.783 71.1714 219.128 70.5343 219.598 70.0521C220.081 69.57 220.701 69.2256 221.458 69.0189C222.227 68.8008 223.163 68.6918 224.265 68.6918ZM219.926 74.8564C219.926 75.7748 219.989 76.544 220.115 77.1639C220.253 77.7838 220.482 78.2832 220.804 78.662C221.137 79.0408 221.579 79.3106 222.13 79.4713C222.692 79.6321 223.404 79.7124 224.265 79.7124C225.126 79.7124 225.832 79.6321 226.383 79.4713C226.946 79.3106 227.388 79.0408 227.709 78.662C228.042 78.2832 228.271 77.7838 228.398 77.1639C228.536 76.544 228.604 75.7748 228.604 74.8564C228.604 73.9495 228.536 73.1861 228.398 72.5662C228.271 71.9463 228.042 71.4469 227.709 71.0681C227.388 70.6892 226.946 70.4195 226.383 70.2588C225.832 70.0866 225.126 70.0005 224.265 70.0005C223.404 70.0005 222.692 70.0866 222.13 70.2588C221.579 70.4195 221.137 70.6892 220.804 71.0681C220.482 71.4469 220.253 71.9463 220.115 72.5662C219.989 73.1861 219.926 73.9495 219.926 74.8564Z" fill="white"/>
<path d="M234.555 78.6792C234.555 79.0121 234.6 79.2475 234.692 79.3852C234.784 79.5115 235.002 79.5747 235.347 79.5747H239.72C240.398 79.5747 240.857 79.4139 241.098 79.0925C241.351 78.7711 241.477 78.2487 241.477 77.5255C241.477 77.2155 241.454 76.9343 241.408 76.6817C241.362 76.4292 241.276 76.2111 241.15 76.0274C241.035 75.8437 240.868 75.7059 240.65 75.6141C240.444 75.5108 240.18 75.4591 239.858 75.4591H234.555V78.6792ZM234.555 74.1504H239.669C240.002 74.1504 240.271 74.1102 240.478 74.0299C240.696 73.9495 240.863 73.829 240.978 73.6683C241.104 73.4961 241.19 73.2837 241.236 73.0311C241.282 72.7671 241.305 72.4514 241.305 72.0841C241.305 71.4986 241.201 71.0279 240.995 70.672C240.8 70.3162 240.398 70.1382 239.789 70.1382H235.329C235.042 70.1382 234.842 70.1956 234.727 70.3104C234.612 70.4137 234.555 70.6146 234.555 70.9131V74.1504ZM241.322 74.8048C241.976 74.8966 242.441 75.1607 242.717 75.5969C242.992 76.0331 243.13 76.699 243.13 77.5944C243.13 78.0421 243.09 78.4669 243.009 78.8687C242.941 79.259 242.809 79.6034 242.613 79.9018C242.43 80.2003 242.166 80.4414 241.821 80.6251C241.477 80.7973 241.041 80.8834 240.513 80.8834H234.658C234.417 80.8834 234.187 80.8604 233.969 80.8145C233.762 80.7686 233.584 80.6825 233.435 80.5562C233.286 80.4299 233.165 80.2577 233.074 80.0396C232.993 79.8215 232.953 79.546 232.953 79.213V70.5343C232.953 69.3978 233.481 68.8295 234.537 68.8295H240.392C241.31 68.8295 241.971 69.1108 242.372 69.6733C242.774 70.2358 242.975 71.0451 242.975 72.1013C242.975 72.4342 242.946 72.7499 242.889 73.0484C242.843 73.3468 242.757 73.6166 242.631 73.8577C242.516 74.0873 242.349 74.2824 242.131 74.4432C241.913 74.5924 241.643 74.69 241.322 74.7359V74.8048Z" fill="white"/>
<path d="M247.581 80.8834C247.053 80.8834 246.64 80.7514 246.342 80.4873C246.043 80.2233 245.894 79.787 245.894 79.1786V70.5343C245.894 69.8914 246.043 69.4494 246.342 69.2084C246.64 68.9558 247.053 68.8295 247.581 68.8295H255.038V70.1382H248.287C247.955 70.1382 247.736 70.2014 247.633 70.3276C247.541 70.4424 247.495 70.6491 247.495 70.9475V74.0643H254.865V75.373H247.495V78.7481C247.495 79.0466 247.541 79.259 247.633 79.3852C247.736 79.5115 247.955 79.5747 248.287 79.5747H255.107V80.8834H247.581Z" fill="white"/>
<path d="M266.252 80.8834L260.69 76.2512C260.345 75.9642 260.121 75.6945 260.018 75.4419C259.915 75.1779 259.863 74.9253 259.863 74.6842C259.863 74.4891 259.92 74.2767 260.035 74.0471C260.15 73.8175 260.339 73.5879 260.603 73.3583L265.7 68.8295H267.784L262.102 73.806C261.941 73.9438 261.786 74.0758 261.637 74.2021C261.499 74.3284 261.43 74.4891 261.43 74.6842C261.43 74.9024 261.516 75.0975 261.688 75.2697C261.86 75.4419 262.044 75.6084 262.239 75.7691L268.421 80.8834H266.252ZM257.607 68.8295H259.209V80.8834H257.607V68.8295Z" fill="white"/>
<path d="M189.429 105.148V99.8783H183.884C183.058 99.8783 182.421 99.6373 181.973 99.1551C181.525 98.673 181.301 98.0186 181.301 97.1921V93.0938H182.903V96.9165C182.903 97.502 183.023 97.9268 183.264 98.1908C183.506 98.4434 183.919 98.5696 184.504 98.5696H189.429V93.0938H191.031V105.148H189.429Z" fill="white"/>
<path d="M203.242 105.148L203.294 95.1429C203.294 95.0626 203.288 94.9822 203.276 94.9018C203.265 94.81 203.225 94.7641 203.156 94.7641C203.098 94.7641 203.024 94.8215 202.932 94.9363C202.84 95.0396 202.748 95.1601 202.656 95.2979L197.077 104.201C196.985 104.35 196.888 104.493 196.784 104.631C196.693 104.757 196.584 104.872 196.457 104.975C196.342 105.067 196.205 105.142 196.044 105.199C195.883 105.257 195.682 105.285 195.441 105.285C195.097 105.285 194.833 105.222 194.649 105.096C194.466 104.97 194.328 104.82 194.236 104.648C194.144 104.465 194.087 104.275 194.064 104.08C194.052 103.873 194.047 103.701 194.047 103.563V93.0938H195.648L195.614 102.943C195.614 103.104 195.619 103.236 195.631 103.34C195.642 103.431 195.694 103.477 195.786 103.477C195.855 103.477 195.918 103.443 195.975 103.374C196.033 103.294 196.09 103.208 196.147 103.116L201.64 94.2647C201.927 93.794 202.197 93.4611 202.45 93.266C202.702 93.0593 203.018 92.956 203.397 92.956C203.753 92.956 204.028 93.0306 204.223 93.1799C204.419 93.3291 204.562 93.507 204.654 93.7137C204.746 93.9088 204.797 94.1097 204.809 94.3164C204.832 94.523 204.843 94.6837 204.843 94.7985V105.148H203.242Z" fill="white"/>
<path d="M212.546 105.148C211.535 105.148 210.703 104.993 210.049 104.683C209.406 104.361 208.895 103.931 208.516 103.391C208.137 102.84 207.873 102.197 207.724 101.463C207.586 100.728 207.517 99.9415 207.517 99.1035C207.517 98.2654 207.586 97.4848 207.724 96.7616C207.873 96.0269 208.137 95.3897 208.516 94.8502C208.906 94.2991 209.429 93.8686 210.083 93.5587C210.749 93.2487 211.598 93.0938 212.632 93.0938H217.298V94.4025H213.165C212.408 94.4025 211.776 94.4943 211.271 94.678C210.766 94.8617 210.359 95.1487 210.049 95.539C209.739 95.9178 209.515 96.4057 209.377 97.0026C209.251 97.5881 209.188 98.2884 209.188 99.1035C209.188 99.9185 209.251 100.625 209.377 101.221C209.503 101.818 209.716 102.312 210.014 102.702C210.324 103.093 210.726 103.38 211.22 103.563C211.713 103.747 212.333 103.839 213.079 103.839H217.47V105.148H212.546Z" fill="white"/>
<path d="M223.707 94.0581C223.868 93.6907 224.051 93.4152 224.258 93.2315C224.476 93.0478 224.803 92.956 225.239 92.956C225.687 92.956 226.014 93.0478 226.221 93.2315C226.428 93.4152 226.611 93.6907 226.772 94.0581L231.439 105.148H229.734L225.567 94.8502C225.532 94.7698 225.498 94.6895 225.463 94.6091C225.429 94.5287 225.354 94.4886 225.239 94.4886C225.125 94.4886 225.044 94.5345 224.998 94.6263C224.964 94.7067 224.935 94.7813 224.912 94.8502L220.745 105.148H219.04L223.707 94.0581Z" fill="white"/>
<path d="M234.859 105.148C234.331 105.148 233.918 105.016 233.619 104.752C233.321 104.488 233.172 104.051 233.172 103.443V94.7985C233.172 94.1556 233.321 93.7137 233.619 93.4726C233.918 93.22 234.331 93.0938 234.859 93.0938H242.315V94.4025H235.565C235.232 94.4025 235.014 94.4656 234.911 94.5919C234.819 94.7067 234.773 94.9133 234.773 95.2118V98.3286H242.143V99.6373H234.773V103.012C234.773 103.311 234.819 103.523 234.911 103.649C235.014 103.776 235.232 103.839 235.565 103.839H242.384V105.148H234.859Z" fill="white"/>
<path d="M255.131 105.148H253.529V99.6373H246.486V105.148H244.885V93.0938H246.486V98.3286H253.529V93.0938H255.131V105.148Z" fill="white"/>
<path d="M268.391 105.148H266.79V99.6373H259.747V105.148H258.145V93.0938H259.747V98.3286H266.79V93.0938H268.391V105.148Z" fill="white"/>
<path d="M277.071 92.956C278.185 92.956 279.12 93.0651 279.878 93.2832C280.647 93.4898 281.267 93.8342 281.737 94.3164C282.208 94.7985 282.547 95.4356 282.753 96.2278C282.972 97.0084 283.081 97.9727 283.081 99.1207C283.081 100.28 282.972 101.256 282.753 102.048C282.547 102.829 282.208 103.46 281.737 103.942C281.267 104.424 280.647 104.769 279.878 104.975C279.12 105.182 278.185 105.285 277.071 105.285C275.969 105.285 275.033 105.182 274.264 104.975C273.506 104.769 272.887 104.424 272.404 103.942C271.934 103.46 271.589 102.829 271.371 102.048C271.165 101.256 271.061 100.28 271.061 99.1207C271.061 97.9727 271.165 97.0084 271.371 96.2278C271.589 95.4356 271.934 94.7985 272.404 94.3164C272.887 93.8342 273.506 93.4898 274.264 93.2832C275.033 93.0651 275.969 92.956 277.071 92.956ZM272.732 99.1207C272.732 100.039 272.795 100.808 272.921 101.428C273.059 102.048 273.288 102.547 273.61 102.926C273.943 103.305 274.385 103.575 274.936 103.736C275.498 103.896 276.21 103.977 277.071 103.977C277.932 103.977 278.638 103.896 279.189 103.736C279.751 103.575 280.193 103.305 280.515 102.926C280.848 102.547 281.077 102.048 281.204 101.428C281.341 100.808 281.41 100.039 281.41 99.1207C281.41 98.2138 281.341 97.4504 281.204 96.8305C281.077 96.2105 280.848 95.7112 280.515 95.3323C280.193 94.9535 279.751 94.6837 279.189 94.523C278.638 94.3508 277.932 94.2647 277.071 94.2647C276.21 94.2647 275.498 94.3508 274.936 94.523C274.385 94.6837 273.943 94.9535 273.61 95.3323C273.288 95.7112 273.059 96.2105 272.921 96.8305C272.795 97.4504 272.732 98.2138 272.732 99.1207Z" fill="white"/>
<path d="M290.443 105.148C289.433 105.148 288.6 104.993 287.946 104.683C287.303 104.361 286.792 103.931 286.413 103.391C286.035 102.84 285.771 102.197 285.621 101.463C285.484 100.728 285.415 99.9415 285.415 99.1035C285.415 98.2654 285.484 97.4848 285.621 96.7616C285.771 96.0269 286.035 95.3897 286.413 94.8502C286.804 94.2991 287.326 93.8686 287.98 93.5587C288.646 93.2487 289.496 93.0938 290.529 93.0938H295.195V94.4025H291.063C290.305 94.4025 289.674 94.4943 289.169 94.678C288.663 94.8617 288.256 95.1487 287.946 95.539C287.636 95.9178 287.412 96.4057 287.274 97.0026C287.148 97.5881 287.085 98.2884 287.085 99.1035C287.085 99.9185 287.148 100.625 287.274 101.221C287.401 101.818 287.613 102.312 287.911 102.702C288.221 103.093 288.623 103.38 289.117 103.563C289.611 103.747 290.23 103.839 290.977 103.839H295.368V105.148H290.443Z" fill="white"/>
<path d="M301.63 105.148V94.4025H296.757V93.0938H308.104V94.4025H303.231V105.148H301.63Z" fill="white"/>
<path d="M311.611 93.0938V98.2425H317.535C318.074 98.2425 318.516 98.3286 318.86 98.5008C319.205 98.673 319.475 98.914 319.67 99.224C319.876 99.5225 320.02 99.8841 320.1 100.309C320.181 100.722 320.221 101.176 320.221 101.669C320.221 102.163 320.181 102.622 320.1 103.047C320.031 103.472 319.894 103.839 319.687 104.149C319.492 104.459 319.222 104.706 318.878 104.889C318.533 105.062 318.097 105.148 317.569 105.148H311.697C311.192 105.148 310.784 105.033 310.474 104.803C310.164 104.562 310.01 104.137 310.01 103.529V93.0938H311.611ZM311.611 99.5512V103.012C311.611 103.311 311.657 103.523 311.749 103.649C311.852 103.776 312.07 103.839 312.403 103.839H316.811C317.167 103.839 317.454 103.793 317.672 103.701C317.902 103.598 318.08 103.454 318.206 103.271C318.344 103.087 318.436 102.863 318.482 102.599C318.528 102.324 318.551 102.014 318.551 101.669C318.551 101.325 318.528 101.021 318.482 100.757C318.436 100.493 318.35 100.274 318.223 100.102C318.097 99.9185 317.919 99.7808 317.69 99.6889C317.471 99.5971 317.179 99.5512 316.811 99.5512H311.611Z" fill="white"/>
<path d="M186.244 129.412C185.233 129.412 184.401 129.257 183.747 128.947C183.104 128.625 182.593 128.195 182.214 127.655C181.835 127.104 181.571 126.462 181.422 125.727C181.284 124.992 181.215 124.206 181.215 123.368C181.215 122.53 181.284 121.749 181.422 121.026C181.571 120.291 181.835 119.654 182.214 119.114C182.604 118.563 183.127 118.133 183.781 117.823C184.447 117.513 185.296 117.358 186.33 117.358H190.996V118.667H186.863C186.106 118.667 185.474 118.759 184.969 118.942C184.464 119.126 184.057 119.413 183.747 119.803C183.437 120.182 183.213 120.67 183.075 121.267C182.949 121.852 182.886 122.553 182.886 123.368C182.886 124.183 182.949 124.889 183.075 125.486C183.201 126.083 183.414 126.576 183.712 126.967C184.022 127.357 184.424 127.644 184.918 127.828C185.411 128.011 186.031 128.103 186.777 128.103H191.168V129.412H186.244Z" fill="white"/>
<path d="M198.484 117.22C199.598 117.22 200.533 117.329 201.291 117.547C202.06 117.754 202.68 118.098 203.151 118.581C203.621 119.063 203.96 119.7 204.167 120.492C204.385 121.273 204.494 122.237 204.494 123.385C204.494 124.544 204.385 125.52 204.167 126.312C203.96 127.093 203.621 127.724 203.151 128.206C202.68 128.689 202.06 129.033 201.291 129.24C200.533 129.446 199.598 129.55 198.484 129.55C197.382 129.55 196.447 129.446 195.677 129.24C194.92 129.033 194.3 128.689 193.818 128.206C193.347 127.724 193.003 127.093 192.785 126.312C192.578 125.52 192.475 124.544 192.475 123.385C192.475 122.237 192.578 121.273 192.785 120.492C193.003 119.7 193.347 119.063 193.818 118.581C194.3 118.098 194.92 117.754 195.677 117.547C196.447 117.329 197.382 117.22 198.484 117.22ZM194.145 123.385C194.145 124.303 194.208 125.072 194.334 125.692C194.472 126.312 194.702 126.812 195.023 127.19C195.356 127.569 195.798 127.839 196.349 128C196.912 128.161 197.623 128.241 198.484 128.241C199.345 128.241 200.051 128.161 200.602 128C201.165 127.839 201.607 127.569 201.928 127.19C202.261 126.812 202.491 126.312 202.617 125.692C202.755 125.072 202.824 124.303 202.824 123.385C202.824 122.478 202.755 121.715 202.617 121.095C202.491 120.475 202.261 119.975 201.928 119.597C201.607 119.218 201.165 118.948 200.602 118.787C200.051 118.615 199.345 118.529 198.484 118.529C197.623 118.529 196.912 118.615 196.349 118.787C195.798 118.948 195.356 119.218 195.023 119.597C194.702 119.975 194.472 120.475 194.334 121.095C194.208 121.715 194.145 122.478 194.145 123.385Z" fill="white"/>
<path d="M210.069 129.412V118.667H205.195V117.358H216.543V118.667H211.67V129.412H210.069Z" fill="white"/>
<path d="M218.448 129.412V118.977C218.448 118.357 218.586 117.932 218.862 117.702C219.149 117.473 219.55 117.358 220.067 117.358H225.595C226.203 117.358 226.702 117.444 227.093 117.616C227.494 117.788 227.81 118.035 228.04 118.357C228.281 118.667 228.447 119.051 228.539 119.51C228.631 119.97 228.677 120.481 228.677 121.043C228.677 121.64 228.631 122.174 228.539 122.644C228.447 123.104 228.281 123.494 228.04 123.815C227.81 124.137 227.494 124.384 227.093 124.556C226.702 124.728 226.203 124.814 225.595 124.814H220.05V129.412H218.448ZM225.026 123.505C225.451 123.505 225.79 123.454 226.042 123.35C226.306 123.236 226.507 123.075 226.645 122.868C226.794 122.662 226.892 122.409 226.938 122.111C226.984 121.801 227.007 121.445 227.007 121.043C227.007 120.653 226.978 120.314 226.921 120.027C226.875 119.729 226.777 119.482 226.628 119.287C226.49 119.08 226.289 118.925 226.025 118.822C225.773 118.718 225.44 118.667 225.026 118.667H220.825C220.48 118.667 220.262 118.73 220.17 118.856C220.09 118.982 220.05 119.183 220.05 119.459V123.505H225.026Z" fill="white"/>
<path d="M233.908 129.412L235.182 127.053L229.896 117.358H231.67L236.009 125.555L240.142 117.358H241.898L235.647 129.412H233.908Z" fill="white"/>
<path d="M242.752 129.412C242.454 129.412 242.259 129.475 242.167 129.601C242.086 129.728 242.046 129.934 242.046 130.221V131.737H240.445V129.791C240.445 129.148 240.577 128.706 240.841 128.465C241.116 128.224 241.518 128.103 242.046 128.103H242.425L246.696 118.46C246.891 118.012 247.115 117.697 247.367 117.513C247.631 117.318 247.947 117.22 248.314 117.22C248.716 117.22 249.037 117.318 249.279 117.513C249.52 117.697 249.738 118.012 249.933 118.46L254.186 128.103H254.582C255.11 128.103 255.506 128.224 255.77 128.465C256.046 128.706 256.184 129.148 256.184 129.791V131.737H254.582V130.221C254.582 129.934 254.536 129.728 254.444 129.601C254.353 129.475 254.158 129.412 253.859 129.412H242.752ZM244.078 128.103H252.533L248.659 119.218C248.601 119.103 248.55 119 248.504 118.908C248.458 118.816 248.389 118.77 248.297 118.77C248.217 118.77 248.148 118.822 248.09 118.925C248.044 119.017 247.999 119.114 247.953 119.218L244.078 128.103Z" fill="white"/>
<path d="M267.987 129.412H266.386V123.902H259.343V129.412H257.742V117.358H259.343V122.593H266.386V117.358H267.987V129.412Z" fill="white"/>
<path d="M280.197 129.412L280.249 119.407C280.249 119.327 280.243 119.246 280.232 119.166C280.22 119.074 280.18 119.028 280.111 119.028C280.054 119.028 279.979 119.086 279.887 119.201C279.796 119.304 279.704 119.424 279.612 119.562L274.033 128.465C273.941 128.614 273.843 128.757 273.74 128.895C273.648 129.022 273.539 129.136 273.413 129.24C273.298 129.331 273.16 129.406 273 129.464C272.839 129.521 272.638 129.55 272.397 129.55C272.052 129.55 271.788 129.486 271.605 129.36C271.421 129.234 271.283 129.085 271.191 128.912C271.1 128.729 271.042 128.539 271.019 128.344C271.008 128.138 271.002 127.965 271.002 127.828V117.358H272.603L272.569 127.208C272.569 127.368 272.575 127.5 272.586 127.604C272.598 127.696 272.649 127.742 272.741 127.742C272.81 127.742 272.873 127.707 272.931 127.638C272.988 127.558 273.045 127.472 273.103 127.38L278.596 118.529C278.883 118.058 279.153 117.725 279.405 117.53C279.658 117.324 279.974 117.22 280.352 117.22C280.708 117.22 280.984 117.295 281.179 117.444C281.374 117.593 281.518 117.771 281.609 117.978C281.701 118.173 281.753 118.374 281.764 118.581C281.787 118.787 281.799 118.948 281.799 119.063V129.412H280.197Z" fill="white"/>
<path d="M293.462 129.412L287.9 124.78C287.555 124.493 287.331 124.223 287.228 123.97C287.125 123.706 287.073 123.454 287.073 123.213C287.073 123.018 287.13 122.805 287.245 122.576C287.36 122.346 287.55 122.116 287.814 121.887L292.911 117.358H294.994L289.312 122.335C289.151 122.472 288.996 122.604 288.847 122.731C288.709 122.857 288.64 123.018 288.64 123.213C288.64 123.431 288.726 123.626 288.898 123.798C289.071 123.97 289.254 124.137 289.449 124.298L295.631 129.412H293.462ZM284.817 117.358H286.419V129.412H284.817V117.358Z" fill="white"/>
<path d="M302.078 117.22C303.192 117.22 304.127 117.329 304.885 117.547C305.654 117.754 306.274 118.098 306.745 118.581C307.215 119.063 307.554 119.7 307.761 120.492C307.979 121.273 308.088 122.237 308.088 123.385C308.088 124.544 307.979 125.52 307.761 126.312C307.554 127.093 307.215 127.724 306.745 128.206C306.274 128.689 305.654 129.033 304.885 129.24C304.127 129.446 303.192 129.55 302.078 129.55C300.976 129.55 300.04 129.446 299.271 129.24C298.514 129.033 297.894 128.689 297.412 128.206C296.941 127.724 296.597 127.093 296.378 126.312C296.172 125.52 296.068 124.544 296.068 123.385C296.068 122.237 296.172 121.273 296.378 120.492C296.597 119.7 296.941 119.063 297.412 118.581C297.894 118.098 298.514 117.754 299.271 117.547C300.04 117.329 300.976 117.22 302.078 117.22ZM297.739 123.385C297.739 124.303 297.802 125.072 297.928 125.692C298.066 126.312 298.296 126.812 298.617 127.19C298.95 127.569 299.392 127.839 299.943 128C300.505 128.161 301.217 128.241 302.078 128.241C302.939 128.241 303.645 128.161 304.196 128C304.759 127.839 305.201 127.569 305.522 127.19C305.855 126.812 306.085 126.312 306.211 125.692C306.349 125.072 306.418 124.303 306.418 123.385C306.418 122.478 306.349 121.715 306.211 121.095C306.085 120.475 305.855 119.975 305.522 119.597C305.201 119.218 304.759 118.948 304.196 118.787C303.645 118.615 302.939 118.529 302.078 118.529C301.217 118.529 300.505 118.615 299.943 118.787C299.392 118.948 298.95 119.218 298.617 119.597C298.296 119.975 298.066 120.475 297.928 121.095C297.802 121.715 297.739 122.478 297.739 123.385Z" fill="white"/>
<path d="M312.368 127.208C312.368 127.541 312.414 127.776 312.505 127.914C312.597 128.04 312.815 128.103 313.16 128.103H317.534C318.211 128.103 318.67 127.942 318.911 127.621C319.164 127.3 319.29 126.777 319.29 126.054C319.29 125.744 319.267 125.463 319.221 125.21C319.175 124.958 319.089 124.74 318.963 124.556C318.848 124.372 318.682 124.234 318.463 124.143C318.257 124.039 317.993 123.988 317.671 123.988H312.368V127.208ZM312.368 122.679H317.482C317.815 122.679 318.085 122.639 318.291 122.558C318.509 122.478 318.676 122.357 318.791 122.197C318.917 122.025 319.003 121.812 319.049 121.56C319.095 121.296 319.118 120.98 319.118 120.613C319.118 120.027 319.014 119.556 318.808 119.201C318.613 118.845 318.211 118.667 317.602 118.667H313.143C312.856 118.667 312.655 118.724 312.54 118.839C312.425 118.942 312.368 119.143 312.368 119.442V122.679ZM319.135 123.333C319.789 123.425 320.254 123.689 320.53 124.125C320.805 124.562 320.943 125.227 320.943 126.123C320.943 126.571 320.903 126.995 320.823 127.397C320.754 127.787 320.622 128.132 320.427 128.43C320.243 128.729 319.979 128.97 319.634 129.154C319.29 129.326 318.854 129.412 318.326 129.412H312.471C312.23 129.412 312 129.389 311.782 129.343C311.576 129.297 311.398 129.211 311.248 129.085C311.099 128.958 310.979 128.786 310.887 128.568C310.806 128.35 310.766 128.074 310.766 127.742V119.063C310.766 117.926 311.294 117.358 312.35 117.358H318.205C319.124 117.358 319.784 117.639 320.185 118.202C320.587 118.764 320.788 119.574 320.788 120.63C320.788 120.963 320.759 121.278 320.702 121.577C320.656 121.875 320.57 122.145 320.444 122.386C320.329 122.616 320.163 122.811 319.944 122.972C319.726 123.121 319.456 123.218 319.135 123.264V123.333Z" fill="white"/>
</g>
</svg>
