<svg width="355" height="132" viewBox="0 0 355 132" fill="none" xmlns="http://www.w3.org/2000/svg">
<g id="image_infogr_14">
<path d="M110.217 92.8773C109.245 92.264 108.119 91.9386 106.969 91.9386C105.819 91.9386 104.692 92.264 103.72 92.8773L101.283 94.0956C99.9724 94.6813 98.8769 95.661 98.149 96.8983C97.4212 98.1357 97.0971 99.5693 97.222 100.999V103.436C97.1946 104.536 97.487 105.62 98.0636 106.558C98.6403 107.495 99.4766 108.244 100.471 108.715L106.563 111.964C104.17 113.018 101.563 113.494 98.9525 113.353C96.342 113.211 93.8015 112.458 91.5365 111.152C88.4451 109.457 86.0075 106.779 84.6098 103.543C83.2122 100.306 82.9344 96.6958 83.8205 93.2834C83.9061 92.9359 83.9141 92.5737 83.8439 92.2228C83.7737 91.8718 83.627 91.5407 83.4144 91.2529L64.3274 72.5719L67.5762 69.3231L78.135 79.4758L79.7594 80.2879L81.3838 79.4758C81.7834 79.0291 82.0044 78.4506 82.0044 77.8513C82.0044 77.2519 81.7834 76.6736 81.3838 76.2269L70.825 66.0742L74.074 62.8254L93.1609 81.5063C93.494 81.785 93.8956 81.9696 94.3241 82.041C94.7525 82.1124 95.1921 82.068 95.5976 81.9123C99.8439 80.7702 104.37 81.3543 108.187 83.5369C110.475 84.802 112.414 86.6137 113.831 88.8104C115.248 91.0071 116.099 93.5203 116.309 96.1261L110.217 92.8773ZM38.3364 91.2529C38.1238 91.5407 37.9772 91.8718 37.907 92.2228C37.8368 92.5737 37.8448 92.9359 37.9304 93.2834C38.5087 95.3171 38.6628 97.4479 38.3834 99.5437C38.104 101.639 37.3968 103.655 36.3059 105.467C34.9753 107.785 33.0932 109.74 30.8263 111.156C28.5593 112.573 25.9778 113.409 23.3105 113.589L26.5594 107.903C27.2232 106.95 27.5791 105.816 27.5791 104.654C27.5791 103.493 27.2232 102.359 26.5594 101.406L25.3411 98.9689C24.7554 97.6582 23.7757 96.5627 22.5383 95.8349C21.3009 95.107 19.8674 94.7829 18.4372 94.9078H15.5945C14.4359 94.8518 13.2852 95.1278 12.278 95.7034C11.2709 96.2789 10.4489 97.13 9.90892 98.1566L6.66012 103.842C5.60896 101.52 5.13387 98.978 5.27528 96.4327C5.41668 93.8875 6.17044 91.414 7.47238 89.2224C9.34615 86.2198 12.1278 83.8924 15.414 82.578C18.7001 81.2636 22.3196 81.0303 25.7472 81.9123C26.1527 82.068 26.5924 82.1124 27.0208 82.041C27.4492 81.9696 27.8507 81.785 28.1838 81.5063L83.0082 27.9001C83.2209 27.6123 83.3676 27.281 83.4378 26.9301C83.508 26.5791 83.5 26.2171 83.4144 25.8696C82.8361 23.8359 82.682 21.7051 82.9614 19.6093C83.2408 17.5135 83.9479 15.4975 85.0388 13.6864C86.3693 11.3677 88.2516 9.41337 90.5185 7.99654C92.7855 6.57971 95.3671 5.74421 98.0343 5.56421L94.7855 11.2497C94.1216 12.203 93.7657 13.3369 93.7657 14.4986C93.7657 15.6603 94.1216 16.7941 94.7855 17.7474L96.0037 20.1841C96.5894 21.4948 97.5691 22.5903 98.8065 23.3181C100.044 24.046 101.477 24.3701 102.908 24.2452H105.75C106.909 24.3012 108.06 24.0252 109.067 23.4496C110.074 22.8741 110.896 22.0229 111.436 20.9962L114.685 15.3108C115.736 17.6331 116.211 20.1749 116.07 22.7202C115.928 25.2654 115.174 27.739 113.872 29.9307C111.999 32.9332 109.217 35.2606 105.931 36.575C102.645 37.8895 99.0252 38.1225 95.5976 37.2405C95.1921 37.0849 94.7525 37.0406 94.3241 37.112C93.8956 37.1834 93.494 37.368 93.1609 37.6467L38.3364 91.2529ZM28.1838 38.0528C27.8507 37.7741 27.4492 37.5894 27.0208 37.518C26.5924 37.4466 26.1527 37.4911 25.7472 37.6467C21.5009 38.7888 16.9752 38.2049 13.1579 36.0223C10.8702 34.7571 8.93124 32.9454 7.51402 30.7487C6.09681 28.5521 5.24542 26.0387 5.03571 23.4329L11.1273 26.6818C12.1 27.2951 13.2263 27.6205 14.3761 27.6205C15.526 27.6205 16.6524 27.2951 17.6251 26.6818L20.0616 25.4634C21.3723 24.8778 22.4679 23.8981 23.1958 22.6607C23.9237 21.4233 24.2476 19.9898 24.1227 18.5597V16.123C24.1032 15.0328 23.7915 13.9678 23.2201 13.0392C22.6486 12.1105 21.8383 11.3522 20.8739 10.8436L14.7823 7.59475C17.1748 6.54102 19.7817 6.06546 22.3922 6.20656C25.0027 6.34767 27.5433 7.10152 29.8083 8.40701C32.8997 10.1018 35.3373 12.7795 36.735 16.0162C38.1326 19.2528 38.4104 22.8634 37.5243 26.2757C37.4387 26.6232 37.4307 26.9853 37.5009 27.3362C37.5711 27.6872 37.7178 28.0184 37.9304 28.3062L57.0174 46.9872L53.7686 50.236L43.2098 40.0833C42.763 39.6838 42.1847 39.4628 41.5854 39.4628C40.986 39.4628 40.4077 39.6838 39.961 40.0833C39.5614 40.5301 39.3404 41.1084 39.3404 41.7077C39.3404 42.3071 39.5614 42.8854 39.961 43.3321L50.5197 53.4848L47.2709 56.7338L28.1838 38.0528ZM110.217 79.8818C105.786 77.3644 100.606 76.501 95.5976 77.4453L77.3228 59.5764L95.5976 41.7077H99.6587C103.324 41.747 106.936 40.8316 110.141 39.0515C113.345 37.2713 116.03 34.6878 117.934 31.5551C119.695 28.6354 120.692 25.3193 120.834 21.9125C120.976 18.5057 120.258 15.118 118.746 12.062C118.445 11.1922 117.904 10.4254 117.185 9.85047C116.466 9.27551 115.599 8.91579 114.685 8.81302C113.803 8.83291 112.946 9.11355 112.224 9.61946C111.501 10.1254 110.944 10.8339 110.624 11.6558L106.969 17.7474C106.156 18.9658 106.156 18.9657 105.344 18.9657H102.501C100.877 18.9657 100.471 18.9657 99.6587 17.3413L98.4404 14.9046C98.0343 14.4985 98.0343 14.0924 98.4404 13.2802L102.095 7.18862C102.629 6.50373 102.952 5.67808 103.024 4.81255C103.097 3.94703 102.915 3.07924 102.501 2.3154C101.921 1.6177 101.157 1.09586 100.296 0.808859C99.4352 0.521854 98.5111 0.480986 97.6281 0.690874C94.2411 0.920214 90.9593 1.96275 88.0608 3.73011C85.1623 5.49747 82.7326 7.93755 80.9777 10.8436C78.4169 15.1102 77.5476 20.1814 78.5412 25.0573L60.2663 42.9261L41.9915 25.0573C42.8719 20.7966 42.3604 16.3658 40.5326 12.4176C38.7047 8.46951 35.6572 5.21289 31.8388 3.12754C28.8327 1.39925 25.4535 0.422811 21.9888 0.281395C18.5241 0.13998 15.0765 0.837846 11.9395 2.3154C9.90892 3.12762 8.69065 4.75202 8.69065 5.97034C8.71054 6.85231 8.99119 7.70858 9.49709 8.4313C10.003 9.15403 10.7116 9.71084 11.5335 10.0314L17.6251 13.6864C18.8434 14.0925 18.8433 14.4985 18.8433 15.3108V17.7474C18.8433 19.3719 18.8434 19.778 17.2189 20.5902L14.7823 21.8085C14.3762 22.2146 13.9701 22.2146 13.1579 21.8085L7.06625 18.1536C6.38136 17.6195 5.55558 17.2966 4.69006 17.2244C3.82453 17.1523 2.95675 17.3341 2.19291 17.7474C1.52915 18.2637 1.02454 18.9567 0.737179 19.747C0.449814 20.5372 0.391384 21.3926 0.568505 22.2146C0.870886 25.5779 1.99098 28.8162 3.83132 31.6475C5.67166 34.4788 8.17644 36.8172 11.1273 38.4589C15.5585 40.9764 20.7391 41.8398 25.7472 40.8956L44.022 58.7643L25.7472 76.633C21.4734 75.7506 17.0312 76.214 13.0314 77.9593C9.03173 79.7047 5.67098 82.6462 3.41131 86.3795C1.65014 89.2992 0.652577 92.6155 0.510628 96.0223C0.368679 99.429 1.08687 102.817 2.59904 105.873C2.90008 106.743 3.44129 107.509 4.15999 108.084C4.87869 108.659 5.74549 109.019 6.66012 109.122C7.54209 109.102 8.39848 108.821 9.1212 108.315C9.84392 107.809 10.4006 107.101 10.7212 106.279L14.3761 100.187C15.1883 98.9688 15.1883 98.9689 16.0005 98.9689H18.8433C20.4678 98.9689 20.8739 98.9689 21.6861 100.593L22.9044 103.03C23.3105 103.436 23.3105 103.842 22.9044 104.654L19.2495 110.746C18.7154 111.431 18.3925 112.257 18.3203 113.122C18.2482 113.988 18.43 114.855 18.8433 115.619C19.3242 116.216 19.9503 116.678 20.6615 116.963C21.3726 117.247 22.145 117.344 22.9044 117.244H23.7167C27.1037 117.014 30.3855 115.972 33.284 114.204C36.1825 112.437 38.612 109.997 40.367 107.091C42.9278 102.824 43.7972 97.7532 42.8036 92.8773L61.0785 75.0086L79.3533 92.8773C78.4729 97.138 78.9843 101.569 80.8121 105.517C82.64 109.465 85.6876 112.722 89.506 114.807C92.5121 116.535 95.8914 117.512 99.356 117.653C102.821 117.795 106.268 117.097 109.405 115.619C111.436 114.807 112.654 113.183 112.654 111.964C112.634 111.082 112.354 110.226 111.848 109.503C111.342 108.781 110.633 108.224 109.811 107.903L103.72 104.248C102.501 103.842 102.501 103.436 102.501 102.624V100.187C102.501 98.5627 102.501 98.1567 104.126 97.3445L106.563 96.1261C106.969 95.72 107.375 95.72 108.187 96.1261L114.279 99.7812C114.936 100.306 115.74 100.614 116.579 100.663C117.419 100.711 118.253 100.498 118.966 100.052C119.679 99.6065 120.236 98.9502 120.561 98.1742C120.885 97.3982 120.96 96.5408 120.776 95.7201C120.444 92.4183 119.308 89.2481 117.468 86.487C115.627 83.7259 113.138 81.458 110.217 79.8818Z" fill="white"/>
<path d="M146.36 48.0093L168.339 13.194C168.798 12.4843 169.027 11.9416 169.027 11.5659C169.027 11.0232 168.589 10.7519 167.712 10.7519H144.356V4.17707H173.223C175.101 4.17707 176.375 4.59452 177.042 5.42942C177.71 6.26432 178.044 7.37056 178.044 8.74815C178.044 10.4597 177.543 12.1504 176.542 13.8202L155.565 48.0093H146.36Z" fill="white"/>
<path d="M186.132 48.0093L208.11 13.194C208.57 12.4843 208.799 11.9416 208.799 11.5659C208.799 11.0232 208.361 10.7519 207.484 10.7519H184.128V4.17707H212.995C214.873 4.17707 216.146 4.59452 216.814 5.42942C217.482 6.26432 217.816 7.37056 217.816 8.74815C217.816 10.4597 217.315 12.1504 216.313 13.8202L195.337 48.0093H186.132Z" fill="white"/>
<path d="M248.16 31.0399H234.071C229.98 31.0399 227.058 30.0172 225.304 27.9717C223.551 25.8844 222.674 22.691 222.674 18.3912C222.674 16.137 222.821 14.2376 223.113 12.693C223.405 11.1067 223.948 9.62479 224.741 8.2472C225.576 6.86962 226.786 5.84687 228.373 5.17895C229.959 4.51103 231.963 4.17707 234.384 4.17707H245.342C252.731 4.17707 256.425 8.20546 256.425 16.2622V36.6129C256.425 40.203 255.465 42.9999 253.545 45.0036C251.666 47.0074 248.807 48.0093 244.966 48.0093H224.866V41.4344H242.023C244.11 41.4344 245.655 40.9961 246.657 40.1195C247.659 39.2011 248.16 37.74 248.16 35.7362V31.0399ZM248.16 24.4651V16.6379C248.16 14.5089 247.784 13.0061 247.033 12.1295C246.323 11.2111 244.799 10.7519 242.462 10.7519H237.139C234.927 10.7519 233.382 11.3572 232.505 12.5678C231.629 13.7367 231.19 15.5108 231.19 17.8903C231.19 20.1863 231.65 21.8561 232.568 22.8997C233.528 23.9433 235.281 24.4651 237.828 24.4651H248.16Z" fill="white"/>
<path d="M148.764 70.0177C148.948 69.5929 149.155 69.2658 149.384 69.0362C149.614 68.8066 149.958 68.6918 150.418 68.6918C150.854 68.6918 151.198 68.8123 151.451 69.0534C151.703 69.283 151.916 69.6044 152.088 70.0177L156.651 80.8834H154.964L153.603 77.6116H147.215L145.872 80.8834H144.184L148.764 70.0177ZM147.697 76.3029H153.121L150.848 70.7754C150.791 70.6491 150.728 70.5228 150.659 70.3965C150.601 70.2588 150.521 70.1899 150.418 70.1899C150.314 70.1899 150.234 70.2588 150.176 70.3965C150.119 70.5228 150.062 70.6491 150.004 70.7754L147.697 76.3029Z" fill="white"/>
<path d="M159.984 78.6793C159.984 79.0122 160.03 79.2475 160.122 79.3853C160.214 79.5116 160.432 79.5747 160.776 79.5747H165.15C165.827 79.5747 166.287 79.414 166.528 79.0925C166.78 78.7711 166.906 78.2488 166.906 77.5255C166.906 77.2156 166.883 76.9343 166.838 76.6818C166.792 76.4292 166.706 76.2111 166.579 76.0274C166.464 75.8437 166.298 75.706 166.08 75.6141C165.873 75.5108 165.609 75.4592 165.288 75.4592H159.984V78.6793ZM159.984 74.1505H165.098C165.431 74.1505 165.701 74.1103 165.908 74.0299C166.126 73.9496 166.292 73.829 166.407 73.6683C166.533 73.4961 166.619 73.2837 166.665 73.0312C166.711 72.7671 166.734 72.4514 166.734 72.0841C166.734 71.4986 166.631 71.0279 166.424 70.6721C166.229 70.3162 165.827 70.1383 165.219 70.1383H160.759C160.472 70.1383 160.271 70.1956 160.156 70.3104C160.042 70.4138 159.984 70.6147 159.984 70.9131V74.1505ZM166.751 74.8048C167.406 74.8967 167.871 75.1607 168.146 75.5969C168.422 76.0332 168.56 76.699 168.56 77.5944C168.56 78.0421 168.519 78.4669 168.439 78.8687C168.37 79.259 168.238 79.6034 168.043 79.9019C167.859 80.2003 167.595 80.4414 167.251 80.6251C166.906 80.7973 166.47 80.8834 165.942 80.8834H160.087C159.846 80.8834 159.617 80.8604 159.399 80.8145C159.192 80.7686 159.014 80.6825 158.865 80.5562C158.716 80.4299 158.595 80.2577 158.503 80.0396C158.423 79.8215 158.383 79.546 158.383 79.2131V70.5343C158.383 69.3978 158.911 68.8295 159.967 68.8295H165.822C166.74 68.8295 167.4 69.1108 167.802 69.6733C168.204 70.2358 168.405 71.0452 168.405 72.1013C168.405 72.4342 168.376 72.7499 168.318 73.0484C168.273 73.3469 168.186 73.6166 168.06 73.8577C167.945 74.0873 167.779 74.2825 167.561 74.4432C167.343 74.5924 167.073 74.69 166.751 74.7359V74.8048Z" fill="white"/>
<path d="M175.077 80.8834V70.1383H170.204V68.8295H181.552V70.1383H176.679V80.8834H175.077Z" fill="white"/>
<path d="M188.265 68.6918C189.378 68.6918 190.314 68.8008 191.072 69.019C191.841 69.2256 192.461 69.57 192.931 70.0522C193.402 70.5343 193.741 71.1714 193.947 71.9635C194.165 72.7442 194.275 73.7085 194.275 74.8565C194.275 76.0159 194.165 76.9917 193.947 77.7838C193.741 78.5645 193.402 79.1959 192.931 79.678C192.461 80.1602 191.841 80.5046 191.072 80.7112C190.314 80.9178 189.378 81.0212 188.265 81.0212C187.163 81.0212 186.227 80.9178 185.458 80.7112C184.7 80.5046 184.08 80.1602 183.598 79.678C183.128 79.1959 182.783 78.5645 182.565 77.7838C182.358 76.9917 182.255 76.0159 182.255 74.8565C182.255 73.7085 182.358 72.7442 182.565 71.9635C182.783 71.1714 183.128 70.5343 183.598 70.0522C184.08 69.57 184.7 69.2256 185.458 69.019C186.227 68.8008 187.163 68.6918 188.265 68.6918ZM183.925 74.8565C183.925 75.7749 183.989 76.544 184.115 77.1639C184.253 77.7838 184.482 78.2832 184.804 78.662C185.137 79.0409 185.579 79.3107 186.13 79.4714C186.692 79.6321 187.404 79.7124 188.265 79.7124C189.126 79.7124 189.832 79.6321 190.383 79.4714C190.945 79.3107 191.387 79.0409 191.709 78.662C192.042 78.2832 192.271 77.7838 192.398 77.1639C192.535 76.544 192.604 75.7749 192.604 74.8565C192.604 73.9496 192.535 73.1861 192.398 72.5662C192.271 71.9463 192.042 71.447 191.709 71.0681C191.387 70.6893 190.945 70.4195 190.383 70.2588C189.832 70.0866 189.126 70.0005 188.265 70.0005C187.404 70.0005 186.692 70.0866 186.13 70.2588C185.579 70.4195 185.137 70.6893 184.804 71.0681C184.482 71.447 184.253 71.9463 184.115 72.5662C183.989 73.1861 183.925 73.9496 183.925 74.8565Z" fill="white"/>
<path d="M196.953 80.8834V70.4482C196.953 69.8283 197.091 69.4035 197.366 69.1739C197.653 68.9443 198.055 68.8295 198.572 68.8295H204.099C204.708 68.8295 205.207 68.9156 205.597 69.0878C205.999 69.26 206.315 69.5069 206.544 69.8283C206.785 70.1382 206.952 70.5228 207.044 70.982C207.136 71.4412 207.181 71.9521 207.181 72.5146C207.181 73.1115 207.136 73.6453 207.044 74.116C206.952 74.5752 206.785 74.9655 206.544 75.287C206.315 75.6084 205.999 75.8552 205.597 76.0274C205.207 76.1996 204.708 76.2857 204.099 76.2857H198.554V80.8834H196.953ZM203.531 74.977C203.956 74.977 204.294 74.9253 204.547 74.822C204.811 74.7072 205.012 74.5465 205.15 74.3399C205.299 74.1332 205.396 73.8807 205.442 73.5822C205.488 73.2722 205.511 72.9164 205.511 72.5146C205.511 72.1243 205.482 71.7856 205.425 71.4986C205.379 71.2001 205.282 70.9533 205.132 70.7582C204.995 70.5515 204.794 70.3965 204.53 70.2932C204.277 70.1899 203.944 70.1383 203.531 70.1383H199.329C198.985 70.1383 198.767 70.2014 198.675 70.3277C198.595 70.4539 198.554 70.6548 198.554 70.9304V74.977H203.531Z" fill="white"/>
<path d="M218.887 80.8834L218.939 70.8787C218.939 70.7983 218.933 70.718 218.922 70.6376C218.91 70.5458 218.87 70.4999 218.801 70.4999C218.744 70.4999 218.669 70.5573 218.577 70.6721C218.486 70.7754 218.394 70.8959 218.302 71.0337L212.723 79.9363C212.631 80.0855 212.533 80.229 212.43 80.3668C212.338 80.4931 212.229 80.6079 212.103 80.7112C211.988 80.803 211.85 80.8777 211.689 80.9351C211.529 80.9925 211.328 81.0212 211.087 81.0212C210.742 81.0212 210.478 80.958 210.295 80.8317C210.111 80.7055 209.973 80.5562 209.881 80.384C209.79 80.2003 209.732 80.0109 209.709 79.8158C209.698 79.6091 209.692 79.4369 209.692 79.2992V68.8295H211.293L211.259 78.6793C211.259 78.84 211.265 78.972 211.276 79.0753C211.288 79.1672 211.339 79.2131 211.431 79.2131C211.5 79.2131 211.563 79.1786 211.621 79.1098C211.678 79.0294 211.735 78.9433 211.793 78.8515L217.286 70.0005C217.573 69.5298 217.843 69.1969 218.095 69.0017C218.348 68.7951 218.663 68.6918 219.042 68.6918C219.398 68.6918 219.674 68.7664 219.869 68.9156C220.064 69.0649 220.208 69.2428 220.299 69.4495C220.391 69.6446 220.443 69.8455 220.454 70.0522C220.477 70.2588 220.489 70.4195 220.489 70.5343V80.8834H218.887Z" fill="white"/>
<path d="M230.74 74.8048C231.394 74.8967 231.87 75.1607 232.169 75.5969C232.479 76.0332 232.634 76.699 232.634 77.5944C232.634 78.0421 232.594 78.4669 232.513 78.8687C232.433 79.259 232.289 79.6034 232.083 79.9019C231.876 80.2003 231.589 80.4414 231.222 80.6251C230.854 80.7973 230.384 80.8834 229.81 80.8834H223.163V79.5747H229.018C229.764 79.5747 230.275 79.414 230.55 79.0925C230.826 78.7596 230.963 78.2373 230.963 77.5255C230.963 77.2156 230.935 76.9343 230.877 76.6818C230.831 76.4292 230.745 76.2111 230.619 76.0274C230.493 75.8437 230.315 75.706 230.085 75.6141C229.867 75.5108 229.586 75.4592 229.241 75.4592H223.404V74.1505H229.018C229.672 74.1505 230.12 73.9897 230.361 73.6683C230.602 73.3354 230.722 72.8073 230.722 72.0841C230.722 71.4527 230.619 70.9705 230.412 70.6376C230.206 70.3047 229.775 70.1383 229.121 70.1383H223.232V68.8295H229.724C230.688 68.8295 231.371 69.0993 231.773 69.6389C232.186 70.1669 232.393 70.9591 232.393 72.0152C232.393 72.3252 232.37 72.6294 232.324 72.9278C232.289 73.2263 232.209 73.4961 232.083 73.7372C231.968 73.9783 231.801 74.1906 231.583 74.3743C231.365 74.5465 231.084 74.667 230.74 74.7359V74.8048Z" fill="white"/>
<path d="M244.584 80.8834L244.636 70.8787C244.636 70.7983 244.63 70.718 244.618 70.6376C244.607 70.5458 244.567 70.4999 244.498 70.4999C244.441 70.4999 244.366 70.5573 244.274 70.6721C244.182 70.7754 244.09 70.8959 243.999 71.0337L238.419 79.9363C238.327 80.0855 238.23 80.229 238.127 80.3668C238.035 80.4931 237.926 80.6079 237.799 80.7112C237.685 80.803 237.547 80.8777 237.386 80.9351C237.225 80.9925 237.025 81.0212 236.783 81.0212C236.439 81.0212 236.175 80.958 235.991 80.8317C235.808 80.7055 235.67 80.5562 235.578 80.384C235.486 80.2003 235.429 80.0109 235.406 79.8158C235.394 79.6091 235.389 79.4369 235.389 79.2992V68.8295H236.99L236.956 78.6793C236.956 78.84 236.961 78.972 236.973 79.0753C236.984 79.1672 237.036 79.2131 237.128 79.2131C237.197 79.2131 237.26 79.1786 237.317 79.1098C237.375 79.0294 237.432 78.9433 237.489 78.8515L242.983 70.0005C243.27 69.5298 243.539 69.1969 243.792 69.0017C244.044 68.7951 244.36 68.6918 244.739 68.6918C245.095 68.6918 245.37 68.7664 245.566 68.9156C245.761 69.0649 245.904 69.2428 245.996 69.4495C246.088 69.6446 246.14 69.8455 246.151 70.0522C246.174 70.2588 246.185 70.4195 246.185 70.5343V80.8834H244.584Z" fill="white"/>
<path d="M249.204 80.8834V70.4482C249.204 69.8283 249.342 69.4035 249.617 69.1739C249.904 68.9443 250.306 68.8295 250.823 68.8295H256.35C256.959 68.8295 257.458 68.9156 257.848 69.0878C258.25 69.26 258.566 69.5069 258.795 69.8283C259.036 70.1382 259.203 70.5228 259.295 70.982C259.387 71.4412 259.432 71.9521 259.432 72.5146C259.432 73.1115 259.387 73.6453 259.295 74.116C259.203 74.5752 259.036 74.9655 258.795 75.287C258.566 75.6084 258.25 75.8552 257.848 76.0274C257.458 76.1996 256.959 76.2857 256.35 76.2857H250.805V80.8834H249.204ZM255.782 74.977C256.207 74.977 256.545 74.9253 256.798 74.822C257.062 74.7072 257.263 74.5465 257.401 74.3399C257.55 74.1332 257.647 73.8807 257.693 73.5822C257.739 73.2722 257.762 72.9164 257.762 72.5146C257.762 72.1243 257.733 71.7856 257.676 71.4986C257.63 71.2001 257.533 70.9533 257.383 70.7582C257.246 70.5515 257.045 70.3965 256.781 70.2932C256.528 70.1899 256.195 70.1383 255.782 70.1383H251.58C251.236 70.1383 251.018 70.2014 250.926 70.3277C250.846 70.4539 250.805 70.6548 250.805 70.9304V74.977H255.782Z" fill="white"/>
<path d="M267.608 68.6918C268.722 68.6918 269.657 68.8008 270.415 69.019C271.184 69.2256 271.804 69.57 272.275 70.0522C272.745 70.5343 273.084 71.1714 273.291 71.9635C273.509 72.7442 273.618 73.7085 273.618 74.8565C273.618 76.0159 273.509 76.9917 273.291 77.7838C273.084 78.5645 272.745 79.1959 272.275 79.678C271.804 80.1602 271.184 80.5046 270.415 80.7112C269.657 80.9178 268.722 81.0212 267.608 81.0212C266.506 81.0212 265.571 80.9178 264.801 80.7112C264.044 80.5046 263.424 80.1602 262.942 79.678C262.471 79.1959 262.127 78.5645 261.909 77.7838C261.702 76.9917 261.599 76.0159 261.599 74.8565C261.599 73.7085 261.702 72.7442 261.909 71.9635C262.127 71.1714 262.471 70.5343 262.942 70.0522C263.424 69.57 264.044 69.2256 264.801 69.019C265.571 68.8008 266.506 68.6918 267.608 68.6918ZM263.269 74.8565C263.269 75.7749 263.332 76.544 263.458 77.1639C263.596 77.7838 263.826 78.2832 264.147 78.662C264.48 79.0409 264.922 79.3107 265.473 79.4714C266.035 79.6321 266.747 79.7124 267.608 79.7124C268.469 79.7124 269.175 79.6321 269.726 79.4714C270.289 79.3107 270.731 79.0409 271.052 78.662C271.385 78.2832 271.615 77.7838 271.741 77.1639C271.879 76.544 271.948 75.7749 271.948 74.8565C271.948 73.9496 271.879 73.1861 271.741 72.5662C271.615 71.9463 271.385 71.447 271.052 71.0681C270.731 70.6893 270.289 70.4195 269.726 70.2588C269.175 70.0866 268.469 70.0005 267.608 70.0005C266.747 70.0005 266.035 70.0866 265.473 70.2588C264.922 70.4195 264.48 70.6893 264.147 71.0681C263.826 71.447 263.596 71.9463 263.458 72.5662C263.332 73.1861 263.269 73.9496 263.269 74.8565Z" fill="white"/>
<path d="M277.898 78.6793C277.898 79.0122 277.944 79.2475 278.036 79.3853C278.127 79.5116 278.345 79.5747 278.69 79.5747H283.064C283.741 79.5747 284.2 79.414 284.441 79.0925C284.694 78.7711 284.82 78.2488 284.82 77.5255C284.82 77.2156 284.797 76.9343 284.751 76.6818C284.705 76.4292 284.619 76.2111 284.493 76.0274C284.378 75.8437 284.212 75.706 283.994 75.6141C283.787 75.5108 283.523 75.4592 283.201 75.4592H277.898V78.6793ZM277.898 74.1505H283.012C283.345 74.1505 283.615 74.1103 283.821 74.0299C284.039 73.9496 284.206 73.829 284.321 73.6683C284.447 73.4961 284.533 73.2837 284.579 73.0312C284.625 72.7671 284.648 72.4514 284.648 72.0841C284.648 71.4986 284.545 71.0279 284.338 70.6721C284.143 70.3162 283.741 70.1383 283.133 70.1383H278.673C278.386 70.1383 278.185 70.1956 278.07 70.3104C277.955 70.4138 277.898 70.6147 277.898 70.9131V74.1505ZM284.665 74.8048C285.319 74.8967 285.784 75.1607 286.06 75.5969C286.335 76.0332 286.473 76.699 286.473 77.5944C286.473 78.0421 286.433 78.4669 286.353 78.8687C286.284 79.259 286.152 79.6034 285.957 79.9019C285.773 80.2003 285.509 80.4414 285.165 80.6251C284.82 80.7973 284.384 80.8834 283.856 80.8834H278.001C277.76 80.8834 277.53 80.8604 277.312 80.8145C277.106 80.7686 276.928 80.6825 276.778 80.5562C276.629 80.4299 276.509 80.2577 276.417 80.0396C276.337 79.8215 276.296 79.546 276.296 79.2131V70.5343C276.296 69.3978 276.824 68.8295 277.881 68.8295H283.735C284.654 68.8295 285.314 69.1108 285.716 69.6733C286.117 70.2358 286.318 71.0452 286.318 72.1013C286.318 72.4342 286.29 72.7499 286.232 73.0484C286.186 73.3469 286.1 73.6166 285.974 73.8577C285.859 74.0873 285.693 74.2825 285.474 74.4432C285.256 74.5924 284.987 74.69 284.665 74.7359V74.8048Z" fill="white"/>
<path d="M292.526 70.0177C292.71 69.5929 292.916 69.2658 293.146 69.0362C293.376 68.8066 293.72 68.6918 294.179 68.6918C294.615 68.6918 294.96 68.8123 295.212 69.0534C295.465 69.283 295.677 69.6044 295.85 70.0177L300.413 80.8834H298.725L297.365 77.6116H290.976L289.633 80.8834H287.946L292.526 70.0177ZM291.458 76.3029H296.883L294.61 70.7754C294.552 70.6491 294.489 70.5228 294.42 70.3965C294.363 70.2588 294.283 70.1899 294.179 70.1899C294.076 70.1899 293.996 70.2588 293.938 70.3965C293.881 70.5228 293.823 70.6491 293.766 70.7754L291.458 76.3029Z" fill="white"/>
<path d="M312.39 80.8834H310.789V75.3731H303.746V80.8834H302.144V68.8295H303.746V74.0644H310.789V68.8295H312.39V80.8834Z" fill="white"/>
<path d="M325.65 80.8834H324.049V75.3731H317.006V80.8834H315.405V68.8295H317.006V74.0644H324.049V68.8295H325.65V80.8834Z" fill="white"/>
<path d="M340.116 80.8834V68.8295H341.718V80.8834H340.116ZM330.266 68.8295V73.9783H336.018C336.557 73.9783 336.999 74.0644 337.344 74.2366C337.688 74.4088 337.958 74.6498 338.153 74.9598C338.36 75.2583 338.503 75.6199 338.584 76.0446C338.664 76.4579 338.704 76.9114 338.704 77.405C338.704 77.8986 338.664 78.3578 338.584 78.7826C338.515 79.2073 338.377 79.5747 338.17 79.8846C337.975 80.1946 337.705 80.4414 337.361 80.6251C337.017 80.7973 336.58 80.8834 336.052 80.8834H330.353C329.847 80.8834 329.44 80.7686 329.13 80.539C328.82 80.2979 328.665 79.8732 328.665 79.2647V68.8295H330.266ZM330.266 75.287V78.7481C330.266 79.0466 330.312 79.259 330.404 79.3853C330.508 79.5116 330.726 79.5747 331.059 79.5747H335.295C335.651 79.5747 335.938 79.5288 336.156 79.4369C336.385 79.3336 336.563 79.1901 336.689 79.0064C336.827 78.8228 336.919 78.5989 336.965 78.3349C337.011 78.0593 337.034 77.7494 337.034 77.405C337.034 77.0606 337.011 76.7564 336.965 76.4923C336.919 76.2283 336.833 76.0102 336.707 75.838C336.58 75.6543 336.402 75.5166 336.173 75.4247C335.955 75.3329 335.662 75.287 335.295 75.287H330.266Z" fill="white"/>
<path d="M352.638 80.8834L349.004 75.9069L345.336 80.8834H343.442L348.092 74.7704L343.58 68.8295H345.474L348.987 73.6339L352.483 68.8295H354.394L349.882 74.7704L354.532 80.8834H352.638Z" fill="white"/>
<path d="M150.159 105.148C149.149 105.148 148.317 104.993 147.662 104.683C147.02 104.361 146.509 103.931 146.13 103.391C145.751 102.84 145.487 102.197 145.338 101.463C145.2 100.728 145.131 99.9415 145.131 99.1035C145.131 98.2655 145.2 97.4848 145.338 96.7616C145.487 96.0269 145.751 95.3898 146.13 94.8502C146.52 94.2992 147.042 93.8687 147.697 93.5587C148.363 93.2488 149.212 93.0938 150.245 93.0938H154.912V94.4025H150.779C150.021 94.4025 149.39 94.4943 148.885 94.678C148.38 94.8617 147.972 95.1487 147.662 95.539C147.352 95.9178 147.129 96.4057 146.991 97.0027C146.865 97.5882 146.801 98.2884 146.801 99.1035C146.801 99.9186 146.865 100.625 146.991 101.222C147.117 101.818 147.329 102.312 147.628 102.702C147.938 103.093 148.34 103.38 148.833 103.563C149.327 103.747 149.947 103.839 150.693 103.839H155.084V105.148H150.159Z" fill="white"/>
<path d="M159.112 105.148C158.584 105.148 158.17 105.016 157.872 104.752C157.573 104.488 157.424 104.051 157.424 103.443V94.7985C157.424 94.1557 157.573 93.7137 157.872 93.4726C158.17 93.2201 158.584 93.0938 159.112 93.0938H166.568V94.4025H159.818C159.485 94.4025 159.267 94.4656 159.163 94.5919C159.072 94.7067 159.026 94.9133 159.026 95.2118V98.3286H166.396V99.6373H159.026V103.012C159.026 103.311 159.072 103.523 159.163 103.65C159.267 103.776 159.485 103.839 159.818 103.839H166.637V105.148H159.112Z" fill="white"/>
<path d="M169.137 105.148V94.7124C169.137 94.0925 169.275 93.6678 169.551 93.4382C169.838 93.2086 170.239 93.0938 170.756 93.0938H176.284C176.892 93.0938 177.391 93.1799 177.782 93.3521C178.184 93.5243 178.499 93.7711 178.729 94.0925C178.97 94.4025 179.136 94.7871 179.228 95.2463C179.32 95.7055 179.366 96.2163 179.366 96.7788C179.366 97.3758 179.32 97.9096 179.228 98.3803C179.136 98.8395 178.97 99.2298 178.729 99.5512C178.499 99.8726 178.184 100.119 177.782 100.292C177.391 100.464 176.892 100.55 176.284 100.55H170.739V105.148H169.137ZM175.715 99.2412C176.14 99.2412 176.479 99.1896 176.731 99.0863C176.995 98.9715 177.196 98.8108 177.334 98.6041C177.483 98.3975 177.581 98.1449 177.627 97.8464C177.673 97.5365 177.696 97.1806 177.696 96.7788C177.696 96.3885 177.667 96.0499 177.61 95.7629C177.564 95.4644 177.466 95.2176 177.317 95.0224C177.179 94.8158 176.978 94.6608 176.714 94.5575C176.462 94.4542 176.129 94.4025 175.715 94.4025H171.514C171.169 94.4025 170.951 94.4656 170.859 94.5919C170.779 94.7182 170.739 94.9191 170.739 95.1946V99.2412H175.715Z" fill="white"/>
<path d="M183.478 102.944C183.478 103.276 183.524 103.512 183.616 103.65C183.707 103.776 183.926 103.839 184.27 103.839H188.644C189.321 103.839 189.78 103.678 190.021 103.357C190.274 103.035 190.4 102.513 190.4 101.79C190.4 101.48 190.377 101.199 190.331 100.946C190.285 100.693 190.199 100.475 190.073 100.292C189.958 100.108 189.792 99.9702 189.574 99.8784C189.367 99.7751 189.103 99.7234 188.782 99.7234H183.478V102.944ZM183.478 98.4147H188.592C188.925 98.4147 189.195 98.3745 189.401 98.2942C189.62 98.2138 189.786 98.0933 189.901 97.9325C190.027 97.7603 190.113 97.548 190.159 97.2954C190.205 97.0314 190.228 96.7157 190.228 96.3483C190.228 95.7628 190.125 95.2922 189.918 94.9363C189.723 94.5804 189.321 94.4025 188.713 94.4025H184.253C183.966 94.4025 183.765 94.4599 183.65 94.5747C183.535 94.678 183.478 94.8789 183.478 95.1774V98.4147ZM190.245 99.0691C190.9 99.1609 191.365 99.4249 191.64 99.8612C191.916 100.297 192.053 100.963 192.053 101.859C192.053 102.306 192.013 102.731 191.933 103.133C191.864 103.523 191.732 103.868 191.537 104.166C191.353 104.465 191.089 104.706 190.745 104.889C190.4 105.062 189.964 105.148 189.436 105.148H183.581C183.34 105.148 183.111 105.125 182.892 105.079C182.686 105.033 182.508 104.947 182.359 104.82C182.209 104.694 182.089 104.522 181.997 104.304C181.917 104.086 181.876 103.81 181.876 103.477V94.7985C181.876 93.662 182.404 93.0938 183.461 93.0938H189.315C190.234 93.0938 190.894 93.375 191.296 93.9376C191.697 94.5001 191.898 95.3094 191.898 96.3655C191.898 96.6985 191.87 97.0142 191.812 97.3126C191.766 97.6111 191.68 97.8809 191.554 98.122C191.439 98.3516 191.273 98.5467 191.055 98.7074C190.836 98.8567 190.567 98.9543 190.245 99.0002V99.0691Z" fill="white"/>
<path d="M204.013 105.148L204.064 95.1429C204.064 95.0626 204.059 94.9822 204.047 94.9019C204.036 94.81 203.995 94.7641 203.927 94.7641C203.869 94.7641 203.795 94.8215 203.703 94.9363C203.611 95.0396 203.519 95.1602 203.427 95.2979L197.848 104.201C197.756 104.35 197.659 104.493 197.555 104.631C197.463 104.757 197.354 104.872 197.228 104.975C197.113 105.067 196.975 105.142 196.815 105.199C196.654 105.257 196.453 105.285 196.212 105.285C195.868 105.285 195.604 105.222 195.42 105.096C195.236 104.97 195.099 104.82 195.007 104.648C194.915 104.465 194.857 104.275 194.834 104.08C194.823 103.873 194.817 103.701 194.817 103.563V93.0938H196.419L196.384 102.944C196.384 103.104 196.39 103.236 196.401 103.34C196.413 103.431 196.465 103.477 196.556 103.477C196.625 103.477 196.688 103.443 196.746 103.374C196.803 103.294 196.861 103.208 196.918 103.116L202.411 94.2647C202.698 93.7941 202.968 93.4611 203.221 93.266C203.473 93.0593 203.789 92.956 204.168 92.956C204.523 92.956 204.799 93.0306 204.994 93.1799C205.189 93.3291 205.333 93.5071 205.425 93.7137C205.516 93.9089 205.568 94.1098 205.58 94.3164C205.603 94.523 205.614 94.6837 205.614 94.7985V105.148H204.013Z" fill="white"/>
<path d="M213.316 105.148C212.306 105.148 211.474 104.993 210.819 104.683C210.177 104.361 209.666 103.931 209.287 103.391C208.908 102.84 208.644 102.197 208.495 101.463C208.357 100.728 208.288 99.9415 208.288 99.1035C208.288 98.2655 208.357 97.4848 208.495 96.7616C208.644 96.0269 208.908 95.3898 209.287 94.8502C209.677 94.2992 210.2 93.8687 210.854 93.5587C211.52 93.2488 212.369 93.0938 213.402 93.0938H218.069V94.4025H213.936C213.179 94.4025 212.547 94.4943 212.042 94.678C211.537 94.8617 211.129 95.1487 210.819 95.539C210.51 95.9178 210.286 96.4057 210.148 97.0027C210.022 97.5882 209.958 98.2884 209.958 99.1035C209.958 99.9186 210.022 100.625 210.148 101.222C210.274 101.818 210.487 102.312 210.785 102.702C211.095 103.093 211.497 103.38 211.99 103.563C212.484 103.747 213.104 103.839 213.85 103.839H218.241V105.148H213.316Z" fill="white"/>
<path d="M230.827 105.148H229.226V99.6373H222.183V105.148H220.581V93.0938H222.183V98.3286H229.226V93.0938H230.827V105.148Z" fill="white"/>
<path d="M245.293 105.148V93.0938H246.894V105.148H245.293ZM235.443 93.0938V98.2425H241.194C241.734 98.2425 242.176 98.3286 242.52 98.5008C242.865 98.673 243.134 98.9141 243.33 99.224C243.536 99.5225 243.68 99.8841 243.76 100.309C243.84 100.722 243.881 101.176 243.881 101.669C243.881 102.163 243.84 102.622 243.76 103.047C243.691 103.472 243.553 103.839 243.347 104.149C243.152 104.459 242.882 104.706 242.538 104.889C242.193 105.062 241.757 105.148 241.229 105.148H235.529C235.024 105.148 234.616 105.033 234.306 104.803C233.997 104.562 233.842 104.137 233.842 103.529V93.0938H235.443ZM235.443 99.5512V103.012C235.443 103.311 235.489 103.523 235.581 103.65C235.684 103.776 235.902 103.839 236.235 103.839H240.471C240.827 103.839 241.114 103.793 241.332 103.701C241.562 103.598 241.74 103.454 241.866 103.271C242.004 103.087 242.096 102.863 242.141 102.599C242.187 102.324 242.21 102.014 242.21 101.669C242.21 101.325 242.187 101.021 242.141 100.757C242.096 100.493 242.009 100.274 241.883 100.102C241.757 99.9186 241.579 99.7808 241.349 99.689C241.131 99.5971 240.839 99.5512 240.471 99.5512H235.443Z" fill="white"/>
<path d="M257.814 105.148L254.181 100.171L250.513 105.148H248.619L253.268 99.0346L248.756 93.0938H250.651L254.163 97.8981L257.659 93.0938H259.57L255.059 99.0346L259.708 105.148H257.814Z" fill="white"/>
<path d="M147.146 129.412C146.606 129.412 146.193 129.303 145.906 129.085C145.619 128.867 145.475 128.442 145.475 127.81V117.358H147.077V127.38C147.077 127.667 147.129 127.862 147.232 127.965C147.335 128.057 147.536 128.103 147.835 128.103H153.999V117.358H155.601V128.103H155.962C156.49 128.103 156.886 128.224 157.15 128.465C157.426 128.706 157.564 129.148 157.564 129.791V131.737H155.962V130.221C155.962 129.923 155.916 129.71 155.825 129.584C155.733 129.469 155.52 129.412 155.187 129.412H147.146Z" fill="white"/>
<path d="M160.81 129.412C160.282 129.412 159.869 129.28 159.57 129.016C159.272 128.752 159.123 128.316 159.123 127.707V119.063C159.123 118.42 159.272 117.978 159.57 117.737C159.869 117.484 160.282 117.358 160.81 117.358H168.266V118.667H161.516C161.183 118.667 160.965 118.73 160.862 118.856C160.77 118.971 160.724 119.178 160.724 119.476V122.593H168.094V123.902H160.724V127.277C160.724 127.575 160.77 127.787 160.862 127.914C160.965 128.04 161.183 128.103 161.516 128.103H168.335V129.412H160.81Z" fill="white"/>
<path d="M181.082 129.412H179.48V123.902H172.437V129.412H170.836V117.358H172.437V122.593H179.48V117.358H181.082V129.412Z" fill="white"/>
<path d="M187.85 129.412V118.667H182.977V117.358H194.325V118.667H189.452V129.412H187.85Z" fill="white"/>
<path d="M196.23 129.412V118.977C196.23 118.357 196.368 117.932 196.643 117.702C196.93 117.473 197.332 117.358 197.848 117.358H203.376C203.984 117.358 204.484 117.444 204.874 117.616C205.276 117.789 205.592 118.035 205.821 118.357C206.062 118.667 206.229 119.051 206.321 119.511C206.412 119.97 206.458 120.481 206.458 121.043C206.458 121.64 206.412 122.174 206.321 122.645C206.229 123.104 206.062 123.494 205.821 123.815C205.592 124.137 205.276 124.384 204.874 124.556C204.484 124.728 203.984 124.814 203.376 124.814H197.831V129.412H196.23ZM202.808 123.505C203.233 123.505 203.571 123.454 203.824 123.351C204.088 123.236 204.289 123.075 204.426 122.868C204.576 122.662 204.673 122.409 204.719 122.111C204.765 121.801 204.788 121.445 204.788 121.043C204.788 120.653 204.759 120.314 204.702 120.027C204.656 119.729 204.558 119.482 204.409 119.287C204.271 119.08 204.071 118.925 203.807 118.822C203.554 118.718 203.221 118.667 202.808 118.667H198.606C198.262 118.667 198.044 118.73 197.952 118.856C197.871 118.982 197.831 119.183 197.831 119.459V123.505H202.808Z" fill="white"/>
<path d="M214.634 117.22C215.748 117.22 216.683 117.329 217.441 117.547C218.21 117.754 218.83 118.098 219.301 118.581C219.771 119.063 220.11 119.7 220.317 120.492C220.535 121.273 220.644 122.237 220.644 123.385C220.644 124.544 220.535 125.52 220.317 126.312C220.11 127.093 219.771 127.724 219.301 128.206C218.83 128.689 218.21 129.033 217.441 129.24C216.683 129.446 215.748 129.55 214.634 129.55C213.532 129.55 212.596 129.446 211.827 129.24C211.07 129.033 210.45 128.689 209.968 128.206C209.497 127.724 209.153 127.093 208.934 126.312C208.728 125.52 208.624 124.544 208.624 123.385C208.624 122.237 208.728 121.273 208.934 120.492C209.153 119.7 209.497 119.063 209.968 118.581C210.45 118.098 211.07 117.754 211.827 117.547C212.596 117.329 213.532 117.22 214.634 117.22ZM210.295 123.385C210.295 124.303 210.358 125.072 210.484 125.692C210.622 126.312 210.852 126.812 211.173 127.191C211.506 127.569 211.948 127.839 212.499 128C213.061 128.161 213.773 128.241 214.634 128.241C215.495 128.241 216.201 128.161 216.752 128C217.315 127.839 217.757 127.569 218.078 127.191C218.411 126.812 218.641 126.312 218.767 125.692C218.905 125.072 218.974 124.303 218.974 123.385C218.974 122.478 218.905 121.715 218.767 121.095C218.641 120.475 218.411 119.975 218.078 119.597C217.757 119.218 217.315 118.948 216.752 118.787C216.201 118.615 215.495 118.529 214.634 118.529C213.773 118.529 213.061 118.615 212.499 118.787C211.948 118.948 211.506 119.218 211.173 119.597C210.852 119.975 210.622 120.475 210.484 121.095C210.358 121.715 210.295 122.478 210.295 123.385Z" fill="white"/>
<path d="M224.924 127.208C224.924 127.541 224.97 127.776 225.061 127.914C225.153 128.04 225.371 128.103 225.716 128.103H230.09C230.767 128.103 231.226 127.942 231.467 127.621C231.72 127.3 231.846 126.777 231.846 126.054C231.846 125.744 231.823 125.463 231.777 125.21C231.731 124.958 231.645 124.74 231.519 124.556C231.404 124.372 231.238 124.234 231.019 124.143C230.813 124.039 230.549 123.988 230.227 123.988H224.924V127.208ZM224.924 122.679H230.038C230.371 122.679 230.641 122.639 230.847 122.558C231.065 122.478 231.232 122.358 231.347 122.197C231.473 122.025 231.559 121.812 231.605 121.56C231.651 121.296 231.674 120.98 231.674 120.613C231.674 120.027 231.571 119.556 231.364 119.201C231.169 118.845 230.767 118.667 230.158 118.667H225.699C225.412 118.667 225.211 118.724 225.096 118.839C224.981 118.942 224.924 119.143 224.924 119.442V122.679ZM231.691 123.333C232.345 123.425 232.81 123.689 233.086 124.125C233.361 124.562 233.499 125.227 233.499 126.123C233.499 126.571 233.459 126.995 233.379 127.397C233.31 127.787 233.178 128.132 232.983 128.43C232.799 128.729 232.535 128.97 232.19 129.154C231.846 129.326 231.41 129.412 230.882 129.412H225.027C224.786 129.412 224.556 129.389 224.338 129.343C224.132 129.297 223.954 129.211 223.804 129.085C223.655 128.958 223.535 128.786 223.443 128.568C223.362 128.35 223.322 128.074 223.322 127.742V119.063C223.322 117.926 223.85 117.358 224.906 117.358H230.761C231.68 117.358 232.34 117.639 232.741 118.202C233.143 118.764 233.344 119.574 233.344 120.63C233.344 120.963 233.315 121.278 233.258 121.577C233.212 121.875 233.126 122.145 233 122.386C232.885 122.616 232.719 122.811 232.5 122.972C232.282 123.121 232.012 123.218 231.691 123.264V123.333Z" fill="white"/>
</g>
</svg>
