<svg width="331" height="132" viewBox="0 0 331 132" fill="none" xmlns="http://www.w3.org/2000/svg">
<g id="image_infogr_15">
<path d="M114.296 113.89H87.0272V43.5587H114.296V113.89ZM93.4657 35.6181H109.373L112.402 39.3994H89.6783L93.4657 35.6181ZM82.8612 113.89H74.9076V90.4461H78.695V86.6649H40.064V90.4461H43.8514V113.89H35.898V27.6775C35.898 21.4598 38.3719 15.4969 42.7755 11.1003C47.1792 6.70376 53.1519 4.23379 59.3796 4.23379C65.6073 4.23379 71.5798 6.70376 75.9834 11.1003C80.3871 15.4969 82.8612 21.4598 82.8612 27.6775V113.89ZM71.1203 113.89H47.6387V90.4461H71.1203V113.89ZM32.1107 113.89H4.84177V43.5587H32.1107V113.89ZM9.76527 35.6181H25.6722L29.4595 39.3994H6.73544L9.76527 35.6181ZM118.083 40.1556L112.024 32.215L110.509 31.4587H91.572L87.0272 35.9962V27.6775C87.0272 20.4069 84.1343 13.434 78.9848 8.29286C73.8354 3.15174 66.8513 0.263489 59.5689 0.263489C52.2865 0.263489 45.3024 3.15174 40.153 8.29286C35.0036 13.434 32.1107 20.4069 32.1107 27.6775V36.7525L27.5658 32.215H8.62911L7.11431 32.9713L1.05442 40.9119C0.808583 41.2391 0.675781 41.6372 0.675781 42.0462V115.78C0.675781 116.282 0.875204 116.763 1.23034 117.117C1.58547 117.472 2.06722 117.671 2.56945 117.671H116.19C116.692 117.671 117.174 117.472 117.529 117.117C117.884 116.763 118.083 116.282 118.083 115.78V41.29C118.083 40.8809 117.95 40.4829 117.705 40.1556" fill="white"/>
<path d="M75.2856 78.7243H65.4383V51.1212H75.2856V78.7243ZM77.1792 47.34H63.5447C63.0424 47.34 62.5609 47.5392 62.2058 47.8937C61.8506 48.2483 61.651 48.7292 61.651 49.2306V80.6149C61.651 81.1164 61.8506 81.5973 62.2058 81.9518C62.5609 82.3064 63.0424 82.5056 63.5447 82.5056H77.1792C77.6815 82.5056 78.163 82.3064 78.5181 81.9518C78.8733 81.5973 79.0729 81.1164 79.0729 80.6149V49.2306C79.0729 48.7292 78.8733 48.2483 78.5181 47.8937C78.163 47.5392 77.6815 47.34 77.1792 47.34Z" fill="white"/>
<path d="M53.6989 59.0617H43.8517V31.8368H53.6989V59.0617ZM55.5926 27.6774H41.958C41.4557 27.6774 40.9742 27.8766 40.6191 28.2312C40.264 28.5857 40.0643 29.0666 40.0643 29.568V60.9524C40.0643 61.4538 40.264 61.9347 40.6191 62.2892C40.9742 62.6438 41.4557 62.843 41.958 62.843H55.5926C56.0948 62.843 56.5763 62.6438 56.9314 62.2892C57.2866 61.9347 57.4862 61.4538 57.4862 60.9524V29.568C57.4862 29.0666 57.2866 28.5857 56.9314 28.2312C56.5763 27.8766 56.0948 27.6774 55.5926 27.6774Z" fill="white"/>
<path d="M59.7584 20.1151C59.0094 20.1151 58.2772 19.8933 57.6544 19.4778C57.0316 19.0623 56.546 18.4718 56.2593 17.7808C55.9727 17.0899 55.8978 16.3296 56.0439 15.5961C56.19 14.8626 56.5508 14.1889 57.0804 13.6601C57.6101 13.1313 58.285 12.7711 59.0196 12.6252C59.7543 12.4793 60.5158 12.5542 61.2078 12.8404C61.8998 13.1266 62.4914 13.6112 62.9075 14.2331C63.3237 14.8549 63.5458 15.586 63.5458 16.3338C63.5458 17.3367 63.1467 18.2984 62.4364 19.0076C61.7262 19.7167 60.7629 20.1151 59.7584 20.1151ZM67.712 16.3338C67.712 14.7633 67.2454 13.2281 66.3715 11.9222C65.4975 10.6164 64.2554 9.59865 62.8021 8.99764C61.3488 8.39664 59.7497 8.23938 58.2069 8.54577C56.6641 8.85216 55.2468 9.60844 54.1345 10.719C53.0222 11.8295 52.2648 13.2443 51.9579 14.7847C51.651 16.325 51.8085 17.9216 52.4105 19.3726C53.0125 20.8235 54.0318 22.0637 55.3398 22.9362C56.6477 23.8087 58.1854 24.2744 59.7584 24.2744C61.8678 24.2744 63.8908 23.4378 65.3823 21.9487C66.8739 20.4595 67.712 18.4398 67.712 16.3338Z" fill="white"/>
<path d="M107.858 19.3586C107.178 20.6229 106.167 21.6796 104.933 22.4161C103.7 23.1527 102.289 23.5417 100.852 23.5417C99.4141 23.5417 98.0033 23.1527 96.7695 22.4161C95.5358 21.6796 94.5251 20.6229 93.8449 19.3586C93.3304 18.2986 93.071 17.1333 93.0874 15.9555C93.0874 13.6867 93.8448 9.90548 96.8747 9.90548C97.3769 9.90548 97.8587 9.70629 98.2138 9.35173C98.569 8.99717 98.7684 8.51628 98.7684 8.01486V4.23361H102.556V8.01486C102.556 8.51628 102.755 8.99717 103.111 9.35173C103.466 9.70629 103.947 9.90548 104.449 9.90548C107.479 9.90548 108.237 13.6867 108.237 15.9555C108.253 17.1333 107.994 18.2986 107.479 19.3586H107.858ZM106.343 6.50237V4.23361H110.13V0.452369H90.4364V4.23361H94.2238V6.50237C92.2981 7.17124 90.6536 8.46703 89.5545 10.1815C88.4555 11.896 87.9657 13.9296 88.1639 15.9555C88.2228 17.5304 88.6097 19.0757 89.3 20.493C90.253 22.4953 91.7552 24.1868 93.6322 25.3712C95.5092 26.5555 97.6843 27.1842 99.9048 27.1842C102.125 27.1842 104.3 26.5555 106.177 25.3712C108.054 24.1868 109.556 22.4953 110.509 20.493C111.2 19.0757 111.587 17.5304 111.645 15.9555C111.844 13.9296 111.354 11.896 110.255 10.1815C109.156 8.46703 107.511 7.17124 105.586 6.50237" fill="white"/>
<path d="M7.87151 23.8961L14.31 11.0398V4.23361H18.0974V11.0398L24.5359 23.8961H7.87151ZM29.8383 25.0305L22.2636 9.90548V4.23361H26.0509V0.452369H6.35671V4.23361H10.1441V9.52736L2.56937 24.6523C2.43723 24.8738 2.35189 25.12 2.31856 25.3757C2.28523 25.6314 2.30448 25.8912 2.37543 26.1391C2.44637 26.387 2.56736 26.6178 2.73095 26.8173C2.89454 27.0168 3.09747 27.1808 3.32689 27.2992H28.3233C28.8255 27.2992 29.3072 27.1 29.6624 26.7455C30.0175 26.3909 30.2169 25.91 30.2169 25.4086V24.6523" fill="white"/>
<path d="M144.07 48.0093V41.4344H161.665C163.21 41.4344 164.337 41.3927 165.046 41.3092C165.798 41.2257 166.549 41.017 167.301 40.683C168.094 40.3073 168.616 39.702 168.866 38.8671C169.158 38.0322 169.304 36.9051 169.304 35.4858C169.304 33.3568 168.908 31.7705 168.115 30.7269C167.363 29.6832 165.777 29.1614 163.356 29.1614H145.197V22.5866H162.855C165.109 22.5866 166.633 22.1274 167.426 21.209C168.261 20.2906 168.678 18.7461 168.678 16.5753C168.678 14.6551 168.344 13.2149 167.676 12.2547C167.008 11.2528 165.631 10.7519 163.544 10.7519H144.821V4.17707H166.8C170.557 4.17707 173.228 5.11633 174.815 6.99486C176.401 8.83164 177.194 11.7329 177.194 15.6987C177.194 21.7517 175.003 25.0495 170.619 25.5922V25.8427C175.42 26.0932 177.82 29.4536 177.82 35.9241C177.82 39.7646 177.069 42.7494 175.566 44.8784C174.105 46.9656 171.413 48.0093 167.489 48.0093H144.07Z" fill="white"/>
<path d="M148.35 68.6918C149.463 68.6918 150.399 68.8008 151.156 69.019C151.926 69.2256 152.545 69.57 153.016 70.0522C153.487 70.5343 153.825 71.1714 154.032 71.9635C154.25 72.7442 154.359 73.7085 154.359 74.8565C154.359 76.0159 154.25 76.9917 154.032 77.7838C153.825 78.5645 153.487 79.1959 153.016 79.678C152.545 80.1602 151.926 80.5046 151.156 80.7112C150.399 80.9178 149.463 81.0212 148.35 81.0212C147.247 81.0212 146.312 80.9178 145.543 80.7112C144.785 80.5046 144.165 80.1602 143.683 79.678C143.212 79.1959 142.868 78.5645 142.65 77.7838C142.443 76.9917 142.34 76.0159 142.34 74.8565C142.34 73.7085 142.443 72.7442 142.65 71.9635C142.868 71.1714 143.212 70.5343 143.683 70.0522C144.165 69.57 144.785 69.2256 145.543 69.019C146.312 68.8008 147.247 68.6918 148.35 68.6918ZM144.01 74.8565C144.01 75.7749 144.073 76.544 144.2 77.1639C144.337 77.7838 144.567 78.2832 144.888 78.662C145.221 79.0409 145.663 79.3107 146.214 79.4714C146.777 79.6321 147.489 79.7124 148.35 79.7124C149.211 79.7124 149.917 79.6321 150.468 79.4714C151.03 79.3107 151.472 79.0409 151.794 78.662C152.126 78.2832 152.356 77.7838 152.482 77.1639C152.62 76.544 152.689 75.7749 152.689 74.8565C152.689 73.9496 152.62 73.1861 152.482 72.5662C152.356 71.9463 152.126 71.447 151.794 71.0681C151.472 70.6893 151.03 70.4195 150.468 70.2588C149.917 70.0866 149.211 70.0005 148.35 70.0005C147.489 70.0005 146.777 70.0866 146.214 70.2588C145.663 70.4195 145.221 70.6893 144.888 71.0681C144.567 71.447 144.337 71.9463 144.2 72.5662C144.073 73.1861 144.01 73.9496 144.01 74.8565Z" fill="white"/>
<path d="M157.038 80.8834V70.5343C157.038 69.8914 157.187 69.4495 157.485 69.2084C157.784 68.9558 158.197 68.8295 158.725 68.8295H165.458C165.986 68.8295 166.399 68.9558 166.698 69.2084C167.008 69.4495 167.163 69.8914 167.163 70.5343V80.8834H165.561V70.9476C165.561 70.6491 165.51 70.4425 165.406 70.3277C165.303 70.2014 165.085 70.1383 164.752 70.1383H159.431C159.098 70.1383 158.88 70.2014 158.777 70.3277C158.685 70.4425 158.639 70.6491 158.639 70.9476V80.8834H157.038Z" fill="white"/>
<path d="M181.631 80.8834V68.8295H183.233V80.8834H181.631ZM171.782 68.8295V73.9783H177.533C178.073 73.9783 178.515 74.0644 178.859 74.2366C179.203 74.4088 179.473 74.6498 179.668 74.9598C179.875 75.2583 180.018 75.6199 180.099 76.0446C180.179 76.4579 180.219 76.9114 180.219 77.405C180.219 77.8986 180.179 78.3578 180.099 78.7826C180.03 79.2073 179.892 79.5747 179.686 79.8846C179.49 80.1946 179.221 80.4414 178.876 80.6251C178.532 80.7973 178.096 80.8834 177.568 80.8834H171.868C171.363 80.8834 170.955 80.7686 170.645 80.539C170.335 80.2979 170.18 79.8732 170.18 79.2647V68.8295H171.782ZM171.782 75.287V78.7481C171.782 79.0466 171.828 79.259 171.919 79.3853C172.023 79.5116 172.241 79.5747 172.574 79.5747H176.81C177.166 79.5747 177.453 79.5288 177.671 79.4369C177.9 79.3336 178.078 79.1901 178.205 79.0064C178.342 78.8228 178.434 78.5989 178.48 78.3349C178.526 78.0593 178.549 77.7494 178.549 77.405C178.549 77.0606 178.526 76.7564 178.48 76.4923C178.434 76.2283 178.348 76.0102 178.222 75.838C178.096 75.6543 177.918 75.5166 177.688 75.4247C177.47 75.3329 177.177 75.287 176.81 75.287H171.782Z" fill="white"/>
<path d="M190.003 80.8834V70.1383H185.13V68.8295H196.477V70.1383H191.604V80.8834H190.003Z" fill="white"/>
<path d="M208.628 80.8834H207.027V75.3731H199.984V80.8834H198.383V68.8295H199.984V74.0644H207.027V68.8295H208.628V80.8834Z" fill="white"/>
<path d="M217.308 68.6918C218.422 68.6918 219.357 68.8008 220.115 69.019C220.884 69.2256 221.504 69.57 221.975 70.0522C222.445 70.5343 222.784 71.1714 222.991 71.9635C223.209 72.7442 223.318 73.7085 223.318 74.8565C223.318 76.0159 223.209 76.9917 222.991 77.7838C222.784 78.5645 222.445 79.1959 221.975 79.678C221.504 80.1602 220.884 80.5046 220.115 80.7112C219.357 80.9178 218.422 81.0212 217.308 81.0212C216.206 81.0212 215.271 80.9178 214.501 80.7112C213.744 80.5046 213.124 80.1602 212.642 79.678C212.171 79.1959 211.827 78.5645 211.608 77.7838C211.402 76.9917 211.298 76.0159 211.298 74.8565C211.298 73.7085 211.402 72.7442 211.608 71.9635C211.827 71.1714 212.171 70.5343 212.642 70.0522C213.124 69.57 213.744 69.2256 214.501 69.019C215.271 68.8008 216.206 68.6918 217.308 68.6918ZM212.969 74.8565C212.969 75.7749 213.032 76.544 213.158 77.1639C213.296 77.7838 213.526 78.2832 213.847 78.662C214.18 79.0409 214.622 79.3107 215.173 79.4714C215.735 79.6321 216.447 79.7124 217.308 79.7124C218.169 79.7124 218.875 79.6321 219.426 79.4714C219.989 79.3107 220.431 79.0409 220.752 78.662C221.085 78.2832 221.315 77.7838 221.441 77.1639C221.579 76.544 221.648 75.7749 221.648 74.8565C221.648 73.9496 221.579 73.1861 221.441 72.5662C221.315 71.9463 221.085 71.447 220.752 71.0681C220.431 70.6893 219.989 70.4195 219.426 70.2588C218.875 70.0866 218.169 70.0005 217.308 70.0005C216.447 70.0005 215.735 70.0866 215.173 70.2588C214.622 70.4195 214.18 70.6893 213.847 71.0681C213.526 71.447 213.296 71.9463 213.158 72.5662C213.032 73.1861 212.969 73.9496 212.969 74.8565Z" fill="white"/>
<path d="M225.652 75.5453H231.3V76.854H225.652V75.5453Z" fill="white"/>
<path d="M151.329 105.148L145.767 100.516C145.422 100.229 145.198 99.9587 145.095 99.7062C144.992 99.4421 144.94 99.1896 144.94 98.9485C144.94 98.7534 144.997 98.541 145.112 98.3114C145.227 98.0818 145.416 97.8522 145.68 97.6226L150.778 93.0938H152.861L147.179 98.0703C147.018 98.2081 146.863 98.3401 146.714 98.4664C146.576 98.5926 146.507 98.7534 146.507 98.9485C146.507 99.1666 146.593 99.3618 146.765 99.534C146.938 99.7062 147.121 99.8726 147.316 100.033L153.498 105.148H151.329ZM142.684 93.0938H144.286V105.148H142.684V93.0938Z" fill="white"/>
<path d="M159.945 92.956C161.059 92.956 161.994 93.0651 162.752 93.2832C163.521 93.4898 164.141 93.8342 164.612 94.3164C165.082 94.7985 165.421 95.4357 165.628 96.2278C165.846 97.0084 165.955 97.9727 165.955 99.1207C165.955 100.28 165.846 101.256 165.628 102.048C165.421 102.829 165.082 103.46 164.612 103.942C164.141 104.424 163.521 104.769 162.752 104.975C161.994 105.182 161.059 105.285 159.945 105.285C158.843 105.285 157.907 105.182 157.138 104.975C156.381 104.769 155.761 104.424 155.279 103.942C154.808 103.46 154.463 102.829 154.245 102.048C154.039 101.256 153.935 100.28 153.935 99.1207C153.935 97.9727 154.039 97.0084 154.245 96.2278C154.463 95.4357 154.808 94.7985 155.279 94.3164C155.761 93.8342 156.381 93.4898 157.138 93.2832C157.907 93.0651 158.843 92.956 159.945 92.956ZM155.606 99.1207C155.606 100.039 155.669 100.808 155.795 101.428C155.933 102.048 156.162 102.547 156.484 102.926C156.817 103.305 157.259 103.575 157.81 103.736C158.372 103.896 159.084 103.977 159.945 103.977C160.806 103.977 161.512 103.896 162.063 103.736C162.626 103.575 163.068 103.305 163.389 102.926C163.722 102.547 163.952 102.048 164.078 101.428C164.216 100.808 164.284 100.039 164.284 99.1207C164.284 98.2138 164.216 97.4504 164.078 96.8305C163.952 96.2106 163.722 95.7112 163.389 95.3324C163.068 94.9535 162.626 94.6837 162.063 94.523C161.512 94.3508 160.806 94.2647 159.945 94.2647C159.084 94.2647 158.372 94.3508 157.81 94.523C157.259 94.6837 156.817 94.9535 156.484 95.3324C156.162 95.7112 155.933 96.2106 155.795 96.8305C155.669 97.4504 155.606 98.2138 155.606 99.1207Z" fill="white"/>
<path d="M178.879 105.148H177.277V99.6373H170.235V105.148H168.633V93.0938H170.235V98.3286H177.277V93.0938H178.879V105.148Z" fill="white"/>
<path d="M186.577 105.148C185.567 105.148 184.735 104.993 184.08 104.683C183.438 104.361 182.927 103.931 182.548 103.391C182.169 102.84 181.905 102.197 181.756 101.463C181.618 100.728 181.549 99.9415 181.549 99.1035C181.549 98.2655 181.618 97.4848 181.756 96.7616C181.905 96.0269 182.169 95.3898 182.548 94.8502C182.938 94.2992 183.46 93.8687 184.115 93.5587C184.781 93.2488 185.63 93.0938 186.663 93.0938H191.33V94.4025H187.197C186.44 94.4025 185.808 94.4943 185.303 94.678C184.798 94.8617 184.39 95.1487 184.08 95.539C183.77 95.9178 183.547 96.4057 183.409 97.0027C183.283 97.5882 183.219 98.2884 183.219 99.1035C183.219 99.9186 183.283 100.625 183.409 101.222C183.535 101.818 183.747 102.312 184.046 102.702C184.356 103.093 184.758 103.38 185.251 103.563C185.745 103.747 186.365 103.839 187.111 103.839H191.502V105.148H186.577Z" fill="white"/>
<path d="M197.764 105.148V94.4025H192.891V93.0938H204.239V94.4025H199.366V105.148H197.764Z" fill="white"/>
<path d="M206.144 105.148V94.7124C206.144 94.0925 206.282 93.6678 206.557 93.4382C206.844 93.2086 207.246 93.0938 207.763 93.0938H213.29C213.899 93.0938 214.398 93.1799 214.788 93.3521C215.19 93.5243 215.506 93.7711 215.735 94.0925C215.976 94.4025 216.143 94.7871 216.235 95.2463C216.327 95.7055 216.373 96.2163 216.373 96.7788C216.373 97.3758 216.327 97.9096 216.235 98.3803C216.143 98.8395 215.976 99.2298 215.735 99.5512C215.506 99.8726 215.19 100.119 214.788 100.292C214.398 100.464 213.899 100.55 213.29 100.55H207.745V105.148H206.144ZM212.722 99.2412C213.147 99.2412 213.485 99.1896 213.738 99.0863C214.002 98.9715 214.203 98.8108 214.341 98.6041C214.49 98.3975 214.587 98.1449 214.633 97.8464C214.679 97.5365 214.702 97.1806 214.702 96.7788C214.702 96.3885 214.674 96.0499 214.616 95.7629C214.57 95.4644 214.473 95.2176 214.323 95.0224C214.186 94.8158 213.985 94.6608 213.721 94.5575C213.468 94.4542 213.135 94.4025 212.722 94.4025H208.52C208.176 94.4025 207.958 94.4656 207.866 94.5919C207.786 94.7182 207.745 94.9191 207.745 95.1946V99.2412H212.722Z" fill="white"/>
<path d="M221.604 105.148L222.878 102.789L217.592 93.0938H219.365L223.705 101.29L227.837 93.0938H229.594L223.343 105.148H221.604Z" fill="white"/>
<path d="M239.964 105.148L234.402 100.516C234.057 100.229 233.833 99.9587 233.73 99.7062C233.627 99.4421 233.575 99.1896 233.575 98.9485C233.575 98.7534 233.633 98.541 233.747 98.3114C233.862 98.0818 234.052 97.8522 234.316 97.6226L239.413 93.0938H241.496L235.814 98.0703C235.653 98.2081 235.498 98.3401 235.349 98.4664C235.211 98.5926 235.142 98.7534 235.142 98.9485C235.142 99.1666 235.228 99.3618 235.4 99.534C235.573 99.7062 235.756 99.8726 235.951 100.033L242.133 105.148H239.964ZM231.319 93.0938H232.921V105.148H231.319V93.0938Z" fill="white"/>
<path d="M247.695 105.148V94.4025H242.821V93.0938H254.169V94.4025H249.296V105.148H247.695Z" fill="white"/>
<path d="M260.882 92.956C261.996 92.956 262.931 93.0651 263.689 93.2832C264.458 93.4898 265.078 93.8342 265.549 94.3164C266.019 94.7985 266.358 95.4357 266.565 96.2278C266.783 97.0084 266.892 97.9727 266.892 99.1207C266.892 100.28 266.783 101.256 266.565 102.048C266.358 102.829 266.019 103.46 265.549 103.942C265.078 104.424 264.458 104.769 263.689 104.975C262.931 105.182 261.996 105.285 260.882 105.285C259.78 105.285 258.844 105.182 258.075 104.975C257.318 104.769 256.698 104.424 256.215 103.942C255.745 103.46 255.4 102.829 255.182 102.048C254.976 101.256 254.872 100.28 254.872 99.1207C254.872 97.9727 254.976 97.0084 255.182 96.2278C255.4 95.4357 255.745 94.7985 256.215 94.3164C256.698 93.8342 257.318 93.4898 258.075 93.2832C258.844 93.0651 259.78 92.956 260.882 92.956ZM256.543 99.1207C256.543 100.039 256.606 100.808 256.732 101.428C256.87 102.048 257.099 102.547 257.421 102.926C257.754 103.305 258.196 103.575 258.747 103.736C259.309 103.896 260.021 103.977 260.882 103.977C261.743 103.977 262.449 103.896 263 103.736C263.563 103.575 264.005 103.305 264.326 102.926C264.659 102.547 264.888 102.048 265.015 101.428C265.153 100.808 265.221 100.039 265.221 99.1207C265.221 98.2138 265.153 97.4504 265.015 96.8305C264.888 96.2106 264.659 95.7112 264.326 95.3324C264.005 94.9535 263.563 94.6837 263 94.523C262.449 94.3508 261.743 94.2647 260.882 94.2647C260.021 94.2647 259.309 94.3508 258.747 94.523C258.196 94.6837 257.754 94.9535 257.421 95.3324C257.099 95.7112 256.87 96.2106 256.732 96.8305C256.606 97.4504 256.543 98.2138 256.543 99.1207Z" fill="white"/>
<path d="M269.57 105.148V94.7124C269.57 94.0925 269.708 93.6678 269.983 93.4382C270.27 93.2086 270.672 93.0938 271.189 93.0938H276.716C277.325 93.0938 277.824 93.1799 278.214 93.3521C278.616 93.5243 278.932 93.7711 279.161 94.0925C279.403 94.4025 279.569 94.7871 279.661 95.2463C279.753 95.7055 279.799 96.2163 279.799 96.7788C279.799 97.3758 279.753 97.9096 279.661 98.3803C279.569 98.8395 279.403 99.2298 279.161 99.5512C278.932 99.8726 278.616 100.119 278.214 100.292C277.824 100.464 277.325 100.55 276.716 100.55H271.172V105.148H269.57ZM276.148 99.2412C276.573 99.2412 276.911 99.1896 277.164 99.0863C277.428 98.9715 277.629 98.8108 277.767 98.6041C277.916 98.3975 278.014 98.1449 278.059 97.8464C278.105 97.5365 278.128 97.1806 278.128 96.7788C278.128 96.3885 278.1 96.0499 278.042 95.7629C277.996 95.4644 277.899 95.2176 277.749 95.0224C277.612 94.8158 277.411 94.6608 277.147 94.5575C276.894 94.4542 276.561 94.4025 276.148 94.4025H271.946C271.602 94.4025 271.384 94.4656 271.292 94.5919C271.212 94.7182 271.172 94.9191 271.172 95.1946V99.2412H276.148Z" fill="white"/>
<path d="M286.993 105.148C285.983 105.148 285.15 104.993 284.496 104.683C283.853 104.361 283.342 103.931 282.963 103.391C282.585 102.84 282.321 102.197 282.171 101.463C282.034 100.728 281.965 99.9415 281.965 99.1035C281.965 98.2655 282.034 97.4848 282.171 96.7616C282.321 96.0269 282.585 95.3898 282.963 94.8502C283.354 94.2992 283.876 93.8687 284.53 93.5587C285.196 93.2488 286.046 93.0938 287.079 93.0938H291.746V94.4025H287.613C286.855 94.4025 286.224 94.4943 285.719 94.678C285.214 94.8617 284.806 95.1487 284.496 95.539C284.186 95.9178 283.962 96.4057 283.824 97.0027C283.698 97.5882 283.635 98.2884 283.635 99.1035C283.635 99.9186 283.698 100.625 283.824 101.222C283.951 101.818 284.163 102.312 284.462 102.702C284.772 103.093 285.173 103.38 285.667 103.563C286.161 103.747 286.781 103.839 287.527 103.839H291.918V105.148H286.993Z" fill="white"/>
<path d="M302.902 105.148L297.34 100.516C296.996 100.229 296.772 99.9587 296.669 99.7062C296.565 99.4421 296.514 99.1896 296.514 98.9485C296.514 98.7534 296.571 98.541 296.686 98.3114C296.801 98.0818 296.99 97.8522 297.254 97.6226L302.351 93.0938H304.435L298.752 98.0703C298.591 98.2081 298.436 98.3401 298.287 98.4664C298.149 98.5926 298.081 98.7534 298.081 98.9485C298.081 99.1666 298.167 99.3618 298.339 99.534C298.511 99.7062 298.695 99.8726 298.89 100.033L305.072 105.148H302.902ZM294.258 93.0938H295.859V105.148H294.258V93.0938Z" fill="white"/>
<path d="M315.906 105.148L315.958 95.1429C315.958 95.0626 315.952 94.9822 315.941 94.9019C315.929 94.81 315.889 94.7641 315.82 94.7641C315.763 94.7641 315.688 94.8215 315.596 94.9363C315.505 95.0396 315.413 95.1602 315.321 95.2979L309.742 104.201C309.65 104.35 309.552 104.493 309.449 104.631C309.357 104.757 309.248 104.872 309.122 104.975C309.007 105.067 308.869 105.142 308.708 105.199C308.548 105.257 308.347 105.285 308.106 105.285C307.761 105.285 307.497 105.222 307.314 105.096C307.13 104.97 306.992 104.82 306.9 104.648C306.809 104.465 306.751 104.275 306.728 104.08C306.717 103.873 306.711 103.701 306.711 103.563V93.0938H308.312L308.278 102.944C308.278 103.104 308.284 103.236 308.295 103.34C308.307 103.431 308.358 103.477 308.45 103.477C308.519 103.477 308.582 103.443 308.64 103.374C308.697 103.294 308.754 103.208 308.812 103.116L314.305 94.2647C314.592 93.7941 314.862 93.4611 315.114 93.266C315.367 93.0593 315.682 92.956 316.061 92.956C316.417 92.956 316.693 93.0306 316.888 93.1799C317.083 93.3291 317.227 93.5071 317.318 93.7137C317.41 93.9089 317.462 94.1098 317.473 94.3164C317.496 94.523 317.508 94.6837 317.508 94.7985V105.148H315.906Z" fill="white"/>
<path d="M328.43 105.148L324.797 100.171L321.129 105.148H319.235L323.884 99.0346L319.372 93.0938H321.267L324.78 97.8981L328.275 93.0938H330.187L325.675 99.0346L330.324 105.148H328.43Z" fill="white"/>
<path d="M144.355 129.412C143.815 129.412 143.402 129.303 143.115 129.085C142.828 128.867 142.684 128.442 142.684 127.81V117.358H144.286V127.38C144.286 127.667 144.337 127.862 144.441 127.965C144.544 128.057 144.745 128.103 145.043 128.103H151.208V117.358H152.809V128.103H153.171C153.699 128.103 154.095 128.224 154.359 128.465C154.635 128.706 154.773 129.148 154.773 129.791V131.737H153.171V130.221C153.171 129.923 153.125 129.71 153.033 129.584C152.941 129.469 152.729 129.412 152.396 129.412H144.355Z" fill="white"/>
<path d="M158.019 129.412C157.491 129.412 157.078 129.28 156.779 129.016C156.481 128.752 156.331 128.316 156.331 127.707V119.063C156.331 118.42 156.481 117.978 156.779 117.737C157.078 117.484 157.491 117.358 158.019 117.358H165.475V118.667H158.725C158.392 118.667 158.174 118.73 158.071 118.856C157.979 118.971 157.933 119.178 157.933 119.476V122.593H165.303V123.902H157.933V127.277C157.933 127.575 157.979 127.787 158.071 127.914C158.174 128.04 158.392 128.103 158.725 128.103H165.544V129.412H158.019Z" fill="white"/>
<path d="M178.29 129.412H176.689V123.902H169.646V129.412H168.045V117.358H169.646V122.593H176.689V117.358H178.29V129.412Z" fill="white"/>
<path d="M185.059 129.412V118.667H180.186V117.358H191.533V118.667H186.66V129.412H185.059Z" fill="white"/>
<path d="M193.439 129.412V118.977C193.439 118.357 193.576 117.932 193.852 117.702C194.139 117.473 194.541 117.358 195.057 117.358H200.585C201.193 117.358 201.693 117.444 202.083 117.616C202.485 117.789 202.8 118.035 203.03 118.357C203.271 118.667 203.438 119.051 203.529 119.511C203.621 119.97 203.667 120.481 203.667 121.043C203.667 121.64 203.621 122.174 203.529 122.645C203.438 123.104 203.271 123.494 203.03 123.815C202.8 124.137 202.485 124.384 202.083 124.556C201.693 124.728 201.193 124.814 200.585 124.814H195.04V129.412H193.439ZM200.017 123.505C200.441 123.505 200.78 123.454 201.033 123.351C201.297 123.236 201.497 123.075 201.635 122.868C201.784 122.662 201.882 122.409 201.928 122.111C201.974 121.801 201.997 121.445 201.997 121.043C201.997 120.653 201.968 120.314 201.911 120.027C201.865 119.729 201.767 119.482 201.618 119.287C201.48 119.08 201.279 118.925 201.015 118.822C200.763 118.718 200.43 118.667 200.017 118.667H195.815C195.471 118.667 195.252 118.73 195.161 118.856C195.08 118.982 195.04 119.183 195.04 119.459V123.505H200.017Z" fill="white"/>
<path d="M208.256 118.546C208.439 118.121 208.646 117.794 208.876 117.565C209.105 117.335 209.45 117.22 209.909 117.22C210.345 117.22 210.69 117.341 210.942 117.582C211.195 117.811 211.407 118.133 211.579 118.546L216.142 129.412H214.455L213.095 126.14H206.706L205.363 129.412H203.675L208.256 118.546ZM207.188 124.831H212.612L210.339 119.304C210.282 119.178 210.219 119.051 210.15 118.925C210.093 118.787 210.012 118.718 209.909 118.718C209.806 118.718 209.725 118.787 209.668 118.925C209.61 119.051 209.553 119.178 209.496 119.304L207.188 124.831Z" fill="white"/>
</g>
</svg>
