<svg width="463" height="77" viewBox="0 0 463 77" fill="none" xmlns="http://www.w3.org/2000/svg">
<g id="image__title-slider">
<path d="M28.7795 6.62985L21.5746 25.3943C21.0916 26.5998 20.5817 27.4703 20.0451 28.0061C19.5084 28.515 18.6765 28.7695 17.5495 28.7695C16.4225 28.7695 15.5906 28.515 15.0539 28.0061C14.5172 27.4703 14.0074 26.5998 13.5244 25.3943L6.31942 6.62985C6.07792 6.01374 5.84983 5.70569 5.63516 5.70569C5.33998 5.70569 5.19239 5.98695 5.19239 6.54949L5.31315 28.4481H0V3.69664C0 1.23221 1.51613 0 4.54838 0C5.99742 0 7.07078 0.308053 7.76846 0.924158C8.46615 1.54027 9.04308 2.43764 9.49926 3.61628L16.7847 22.3808C17.1067 23.0772 17.3616 23.4255 17.5495 23.4255C17.7373 23.4255 17.9922 23.0772 18.3143 22.3808L25.5997 3.61628C26.0559 2.43764 26.6328 1.54027 27.3305 0.924158C28.0282 0.308053 29.1016 0 30.5506 0C33.5828 0 35.099 1.23221 35.099 3.69664V28.4481H29.7858L29.9468 6.54949C29.9468 5.98695 29.7858 5.70569 29.4638 5.70569C29.2491 5.70569 29.021 6.01374 28.7795 6.62985Z" fill="white"/>
<path d="M69.226 24.2291V28.4481H50.7508C48.0137 28.4481 46.6452 27.0417 46.6452 24.2291V4.54044C46.6452 1.72778 48.0137 0.321445 50.7508 0.321445H69.065V4.54044H53.9709C53.1658 4.54044 52.6292 4.67438 52.3608 4.94225C52.0925 5.21012 51.9583 5.74587 51.9583 6.54949V11.9739H68.6625V16.1929H51.9583V22.22C51.9583 23.0237 52.0925 23.5594 52.3608 23.8273C52.6292 24.0951 53.1658 24.2291 53.9709 24.2291H69.226Z" fill="white"/>
<path d="M104.85 0.321445V28.4481H99.5365V16.0724H84.8851V28.4481H79.5719V0.321445H84.8851V11.8534H99.5365V0.321445H104.85Z" fill="white"/>
<path d="M141.265 28.4481H135.952V6.54949C135.952 5.74587 135.818 5.21012 135.55 4.94225C135.281 4.67438 134.745 4.54044 133.94 4.54044H125.366C123.756 4.54044 122.683 4.88868 122.146 5.58515C121.636 6.28161 121.381 7.48704 121.381 9.20143C121.381 10.9962 121.596 12.3087 122.025 13.1392C122.481 13.9696 123.394 14.3848 124.762 14.3848H130.237C131.015 14.3848 131.605 14.5589 132.008 14.9071C132.41 15.2286 132.611 15.6839 132.611 16.2733V16.9162C132.611 17.5591 132.169 18.3493 131.283 19.2868L122.186 28.4481H115.344L125.245 18.8047V18.6038H122.428C118.081 18.6038 115.907 15.4696 115.907 9.20143C115.907 6.25483 116.444 4.04488 117.517 2.57158C118.617 1.07149 120.429 0.321445 122.951 0.321445H137.16C139.897 0.321445 141.265 1.72778 141.265 4.54044V28.4481Z" fill="white"/>
<path d="M175.396 24.2291V28.4481H156.921C154.184 28.4481 152.815 27.0417 152.815 24.2291V4.54044C152.815 1.72778 154.184 0.321445 156.921 0.321445H175.235V4.54044H160.141C159.336 4.54044 158.799 4.67438 158.531 4.94225C158.263 5.21012 158.128 5.74587 158.128 6.54949V11.9739H174.833V16.1929H158.128V22.22C158.128 23.0237 158.263 23.5594 158.531 23.8273C158.799 24.0951 159.336 24.2291 160.141 24.2291H175.396Z" fill="white"/>
<path d="M214.522 6.62985L207.317 25.3943C206.834 26.5998 206.324 27.4703 205.787 28.0061C205.25 28.515 204.419 28.7695 203.292 28.7695C202.165 28.7695 201.333 28.515 200.796 28.0061C200.259 27.4703 199.749 26.5998 199.266 25.3943L192.062 6.62985C191.82 6.01374 191.592 5.70569 191.377 5.70569C191.082 5.70569 190.934 5.98695 190.934 6.54949L191.055 28.4481H185.742V3.69664C185.742 1.23221 187.258 0 190.29 0C191.74 0 192.813 0.308053 193.511 0.924158C194.208 1.54027 194.785 2.43764 195.241 3.61628L202.527 22.3808C202.849 23.0772 203.104 23.4255 203.292 23.4255C203.479 23.4255 203.734 23.0772 204.056 22.3808L211.342 3.61628C211.798 2.43764 212.375 1.54027 213.073 0.924158C213.77 0.308053 214.844 0 216.293 0C219.325 0 220.841 1.23221 220.841 3.69664V28.4481H215.528L215.689 6.54949C215.689 5.98695 215.528 5.70569 215.206 5.70569C214.991 5.70569 214.763 6.01374 214.522 6.62985Z" fill="white"/>
<path d="M275.459 28.4481H268.616L256.822 17.7198C255.856 16.8626 255.373 15.617 255.373 13.983C255.373 12.8043 255.829 11.7596 256.742 10.8488L267.408 0.321445H274.01L261.813 11.8534C261.76 11.9069 261.626 12.0275 261.411 12.215C261.223 12.4025 261.102 12.5364 261.049 12.6168C260.995 12.6704 260.901 12.7909 260.767 12.9784C260.66 13.1392 260.579 13.2999 260.525 13.4606C260.499 13.5945 260.485 13.7553 260.485 13.9428C260.485 14.7196 261.035 15.5768 262.135 16.5143L275.459 28.4481ZM248.49 28.4481V0.321445H253.803V28.4481H248.49Z" fill="white"/>
<path d="M282.328 28.4481L293.236 2.65194C293.558 1.82153 294.014 1.17864 294.605 0.723254C295.222 0.241085 296.201 0 297.543 0C298.885 0 299.851 0.241085 300.441 0.723254C301.058 1.17864 301.528 1.82153 301.85 2.65194L312.718 28.4481H307.083L298.187 5.98695C298.187 5.96017 298.174 5.90659 298.147 5.82623C298.12 5.74587 298.093 5.69229 298.066 5.66551C298.066 5.63872 298.053 5.59854 298.026 5.54496C297.999 5.4646 297.972 5.41103 297.946 5.38424C297.919 5.35745 297.878 5.33066 297.825 5.30388C297.798 5.2503 297.758 5.22352 297.704 5.22352C297.65 5.19673 297.597 5.18333 297.543 5.18333C297.275 5.18333 297.047 5.45121 296.859 5.98695L287.963 28.4481H282.328Z" fill="white"/>
<path d="M347.991 28.4481H342.637L342.839 7.07184C342.839 6.45573 342.704 6.14768 342.436 6.14768C342.382 6.14768 342.315 6.17447 342.235 6.22804C342.181 6.25483 342.114 6.32179 342.033 6.42894C341.98 6.50931 341.926 6.58967 341.872 6.67003C341.819 6.75039 341.738 6.87093 341.631 7.03166C341.524 7.19238 341.443 7.32632 341.389 7.43347L329.797 26.1176C329.421 26.6801 329.126 27.1087 328.912 27.4034C328.697 27.6712 328.268 27.9659 327.624 28.2874C326.98 28.6088 326.215 28.7695 325.329 28.7695C324.39 28.7695 323.612 28.6088 322.995 28.2874C322.378 27.9659 321.948 27.5105 321.707 26.9212C321.492 26.3319 321.344 25.8363 321.264 25.4345C321.21 25.0327 321.183 24.5371 321.183 23.9478V0.321445H326.537L326.376 21.2959C326.376 22.1531 326.537 22.5817 326.859 22.5817C326.913 22.5817 326.966 22.5683 327.02 22.5415C327.073 22.5147 327.127 22.4745 327.181 22.4209C327.234 22.3406 327.275 22.2736 327.302 22.22C327.355 22.1397 327.409 22.0459 327.463 21.9388C327.516 21.8316 327.57 21.7513 327.624 21.6977L338.974 3.13411C339.699 1.95547 340.41 1.13846 341.108 0.683074C341.832 0.227691 342.691 0 343.684 0C346.555 0 347.991 1.6876 347.991 5.06279V28.4481Z" fill="white"/>
<path d="M388.314 6.62985L381.109 25.3943C380.626 26.5998 380.116 27.4703 379.58 28.0061C379.043 28.515 378.211 28.7695 377.084 28.7695C375.957 28.7695 375.125 28.515 374.589 28.0061C374.052 27.4703 373.542 26.5998 373.059 25.3943L365.854 6.62985C365.613 6.01374 365.384 5.70569 365.17 5.70569C364.875 5.70569 364.727 5.98695 364.727 6.54949L364.848 28.4481H359.535V3.69664C359.535 1.23221 361.051 0 364.083 0C365.532 0 366.605 0.308053 367.303 0.924158C368.001 1.54027 368.578 2.43764 369.034 3.61628L376.319 22.3808C376.641 23.0772 376.896 23.4255 377.084 23.4255C377.272 23.4255 377.527 23.0772 377.849 22.3808L385.134 3.61628C385.591 2.43764 386.167 1.54027 386.865 0.924158C387.563 0.308053 388.636 0 390.085 0C393.117 0 394.634 1.23221 394.634 3.69664V28.4481H389.32L389.481 6.54949C389.481 5.98695 389.32 5.70569 388.998 5.70569C388.784 5.70569 388.556 6.01374 388.314 6.62985Z" fill="white"/>
<path d="M403.121 28.4481L413.747 3.17429C414.257 1.96886 414.834 1.13846 415.478 0.683074C416.149 0.227691 417.115 0 418.376 0C419.583 0 420.523 0.241085 421.193 0.723254C421.891 1.17864 422.495 1.99565 423.005 3.17429L433.631 28.4481H428.036L425.138 21.3361H411.573L408.716 28.4481H403.121ZM417.571 6.10749L412.942 17.5591H423.77L419.181 6.10749C418.886 5.33066 418.617 4.94225 418.376 4.94225C418.134 4.94225 417.866 5.33066 417.571 6.10749Z" fill="white"/>
<path d="M451.971 28.4481H446.658V4.54044H435.669V0.321445H463V4.54044H451.971V28.4481Z" fill="white"/>
<path d="M5.31315 64.9055V70.772C5.31315 71.5756 5.44732 72.1113 5.71566 72.3792C5.984 72.6471 6.52068 72.781 7.3257 72.781H15.7382C17.1336 72.781 18.113 72.4863 18.6765 71.897C19.2669 71.3077 19.562 70.3166 19.562 68.9236C19.562 67.5307 19.2803 66.5128 18.7168 65.8699C18.1801 65.227 17.308 64.9055 16.1004 64.9055H5.31315ZM5.31315 55.1014V60.6866H16.0199C17.2006 60.6866 18.0057 60.4053 18.435 59.8428C18.8912 59.2534 19.1193 58.2489 19.1193 56.8292C19.1193 55.5702 18.8778 54.6326 18.3948 54.0165C17.9386 53.4004 17.1336 53.0924 15.9797 53.0924H7.3257C6.52068 53.0924 5.984 53.2263 5.71566 53.4942C5.44732 53.762 5.31315 54.2978 5.31315 55.1014ZM20.6086 62.776C23.5603 63.017 25.0362 65.1868 25.0362 69.2853C25.0362 71.7229 24.5666 73.6248 23.6274 74.991C22.715 76.3303 21.0111 77 18.5155 77H4.10561C1.36854 77 0 75.5937 0 72.781V53.0924C0 50.2797 1.36854 48.8734 4.10561 48.8734H18.5155C22.5675 48.8734 24.5934 51.4449 24.5934 56.5881C24.5934 60.2312 23.2651 62.2402 20.6086 62.6152V62.776Z" fill="white"/>
<path d="M75.1953 77H63.4419C61.1074 77 59.1351 76.6652 57.525 75.9955C55.915 75.299 54.6806 74.2945 53.8219 72.9819C52.9632 71.6425 52.3595 70.1693 52.0106 68.562C51.6618 66.9548 51.4874 65.0797 51.4874 62.9367C51.4874 60.7937 51.6618 58.9186 52.0106 57.3114C52.3595 55.7041 52.9632 54.2442 53.8219 52.9316C54.6806 51.5923 55.915 50.5878 57.525 49.9181C59.1351 49.2216 61.1074 48.8734 63.4419 48.8734H74.7525V53.0924H65.9375C62.5027 53.0924 60.1413 53.7888 58.8533 55.1818C57.5921 56.5479 56.9615 59.1329 56.9615 62.9367C56.9615 66.7405 57.5921 69.3388 58.8533 70.7318C60.1413 72.0979 62.5027 72.781 65.9375 72.781H75.1953V77Z" fill="white"/>
<path d="M100.206 77H94.8932V53.0924H83.9047V48.8734H111.235V53.0924H100.206V77Z" fill="white"/>
<path d="M120.347 77V53.0924C120.347 50.2797 121.716 48.8734 124.453 48.8734H138.46C139.909 48.8734 141.117 49.1145 142.083 49.5966C143.076 50.052 143.814 50.7351 144.297 51.6459C144.806 52.5298 145.155 53.4674 145.343 54.4585C145.531 55.4229 145.625 56.5747 145.625 57.9141C145.625 59.2534 145.531 60.4187 145.343 61.4098C145.155 62.4009 144.806 63.3519 144.297 64.2626C143.814 65.1466 143.076 65.8297 142.083 66.3119C141.117 66.7941 139.909 67.0351 138.46 67.0351H125.66V77H120.347ZM125.66 62.8161H135.844C137.561 62.8161 138.702 62.4411 139.265 61.6911C139.856 60.9142 140.151 59.6552 140.151 57.9141C140.151 56.1729 139.856 54.9407 139.265 54.2174C138.702 53.4674 137.561 53.0924 135.844 53.0924H127.673C126.868 53.0924 126.331 53.2263 126.063 53.4942C125.794 53.762 125.66 54.2978 125.66 55.1014V62.8161Z" fill="white"/>
<path d="M150.49 77L161.116 51.7262C161.626 50.5208 162.203 49.6904 162.847 49.235C163.518 48.7796 164.484 48.5519 165.745 48.5519C166.953 48.5519 167.892 48.793 168.563 49.2752C169.26 49.7306 169.864 50.5476 170.374 51.7262L181 77H175.405L172.507 69.888H158.943L156.085 77H150.49ZM164.94 54.6594L160.311 66.111H171.139L166.55 54.6594C166.255 53.8826 165.987 53.4942 165.745 53.4942C165.504 53.4942 165.235 53.8826 164.94 54.6594Z" fill="white"/>
<path d="M214.741 48.8734V77H209.428V64.6243H194.776V77H189.463V48.8734H194.776V60.4053H209.428V48.8734H214.741Z" fill="white"/>
<path d="M248.862 72.781V77H230.387C227.65 77 226.281 75.5937 226.281 72.781V53.0924C226.281 50.2797 227.65 48.8734 230.387 48.8734H248.701V53.0924H233.607C232.802 53.0924 232.265 53.2263 231.997 53.4942C231.729 53.762 231.595 54.2978 231.595 55.1014V60.5258H248.299V64.7448H231.595V70.772C231.595 71.5756 231.729 72.1113 231.997 72.3792C232.265 72.6471 232.802 72.781 233.607 72.781H248.862Z" fill="white"/>
</g>
</svg>
