<svg width="640" height="93" viewBox="0 0 640 93" fill="none" xmlns="http://www.w3.org/2000/svg">
<g id="image__title">
<path d="M4.69 25.0002C4.08333 25.0002 3.68667 25.1285 3.5 25.3852C3.33667 25.6419 3.255 26.0619 3.255 26.6452V29.7252H0V25.7702C0 24.4635 0.268333 23.5652 0.805 23.0752C1.365 22.5852 2.18167 22.3402 3.255 22.3402H4.025L12.705 2.74021C13.1017 1.83021 13.5567 1.18855 14.07 0.815213C14.6067 0.418548 15.2483 0.220215 15.995 0.220215C16.8117 0.220215 17.465 0.418548 17.955 0.815213C18.445 1.18855 18.8883 1.83021 19.285 2.74021L27.93 22.3402H28.735C29.8083 22.3402 30.6133 22.5852 31.15 23.0752C31.71 23.5652 31.99 24.4635 31.99 25.7702V29.7252H28.735V26.6452C28.735 26.0619 28.6417 25.6419 28.455 25.3852C28.2683 25.1285 27.8717 25.0002 27.265 25.0002H4.69ZM7.385 22.3402H24.57L16.695 4.28021C16.5783 4.04688 16.4733 3.83688 16.38 3.65021C16.2867 3.46355 16.1467 3.37021 15.96 3.37021C15.7967 3.37021 15.6567 3.47521 15.54 3.68521C15.4467 3.87188 15.3533 4.07021 15.26 4.28021L7.385 22.3402Z" fill="white"/>
<path d="M43.169 2.46021C43.4957 1.71355 43.869 1.15355 44.289 0.780214C44.7323 0.406881 45.3973 0.220215 46.284 0.220215C47.194 0.220215 47.859 0.406881 48.279 0.780214C48.699 1.15355 49.0723 1.71355 49.399 2.46021L58.884 25.0002H55.419L46.949 4.07021C46.879 3.90688 46.809 3.74355 46.739 3.58021C46.669 3.41688 46.5173 3.33521 46.284 3.33521C46.0507 3.33521 45.8873 3.42855 45.794 3.61521C45.724 3.77855 45.6656 3.93021 45.619 4.07021L37.149 25.0002H33.684L43.169 2.46021Z" fill="white"/>
<path d="M81.914 25.0002H78.659V4.84021C78.659 4.16355 78.5074 3.72021 78.204 3.51021C77.9007 3.27688 77.469 3.16021 76.909 3.16021H68.194C67.3774 3.16021 66.7124 3.26521 66.199 3.47521C65.709 3.68521 65.324 4.00022 65.044 4.42022C64.7874 4.81688 64.6124 5.30688 64.519 5.89021C64.449 6.47355 64.414 7.15021 64.414 7.92021C64.414 8.66688 64.4374 9.35521 64.484 9.98521C64.554 10.6152 64.694 11.1635 64.904 11.6302C65.1374 12.0735 65.464 12.4235 65.884 12.6802C66.3274 12.9369 66.9224 13.0652 67.669 13.0652H73.654C74.634 13.0652 75.124 13.4735 75.124 14.2902V14.8502C75.124 15.1302 75.019 15.4102 74.809 15.6902C74.6224 15.9469 74.424 16.1685 74.214 16.3552L64.834 25.0002H60.494L70.539 15.9002V15.7252H66.584C65.534 15.7252 64.6474 15.5385 63.924 15.1652C63.224 14.7919 62.6524 14.2669 62.209 13.5902C61.789 12.9135 61.4857 12.0969 61.299 11.1402C61.1124 10.1602 61.019 9.08688 61.019 7.92021C61.019 6.77688 61.1124 5.75021 61.299 4.84021C61.509 3.93021 61.8357 3.16021 62.279 2.53021C62.7457 1.87688 63.364 1.37521 64.134 1.02521C64.904 0.675213 65.849 0.500213 66.969 0.500213H78.309C79.4757 0.500213 80.3624 0.79188 80.969 1.37521C81.599 1.93521 81.914 2.88021 81.914 4.21021V25.0002Z" fill="white"/>
<path d="M106.148 25.0002C104.095 25.0002 102.403 24.6852 101.073 24.0552C99.7667 23.4019 98.7283 22.5269 97.9583 21.4302C97.1883 20.3102 96.6516 19.0035 96.3483 17.5102C96.0683 16.0169 95.9283 14.4185 95.9283 12.7152C95.9283 11.0119 96.0683 9.42521 96.3483 7.95521C96.6516 6.46188 97.1883 5.16688 97.9583 4.07021C98.7517 2.95021 99.8133 2.07521 101.143 1.44521C102.497 0.815213 104.223 0.500213 106.323 0.500213H115.808V3.16021H107.408C105.868 3.16021 104.585 3.34688 103.558 3.72021C102.532 4.09355 101.703 4.67688 101.073 5.47021C100.443 6.24021 99.9883 7.23188 99.7083 8.44521C99.4517 9.63521 99.3233 11.0585 99.3233 12.7152C99.3233 14.3719 99.4517 15.8069 99.7083 17.0202C99.965 18.2335 100.397 19.2369 101.003 20.0302C101.633 20.8235 102.45 21.4069 103.453 21.7802C104.457 22.1535 105.717 22.3402 107.233 22.3402H116.158V25.0002H106.148Z" fill="white"/>
<path d="M130.437 0.220215C132.701 0.220215 134.602 0.441881 136.142 0.885215C137.706 1.30521 138.966 2.00521 139.922 2.98521C140.879 3.96521 141.567 5.26021 141.987 6.87021C142.431 8.45688 142.652 10.4169 142.652 12.7502C142.652 15.1069 142.431 17.0902 141.987 18.7002C141.567 20.2869 140.879 21.5702 139.922 22.5502C138.966 23.5302 137.706 24.2302 136.142 24.6502C134.602 25.0702 132.701 25.2802 130.437 25.2802C128.197 25.2802 126.296 25.0702 124.732 24.6502C123.192 24.2302 121.932 23.5302 120.952 22.5502C119.996 21.5702 119.296 20.2869 118.852 18.7002C118.432 17.0902 118.222 15.1069 118.222 12.7502C118.222 10.4169 118.432 8.45688 118.852 6.87021C119.296 5.26021 119.996 3.96521 120.952 2.98521C121.932 2.00521 123.192 1.30521 124.732 0.885215C126.296 0.441881 128.197 0.220215 130.437 0.220215ZM121.617 12.7502C121.617 14.6169 121.746 16.1802 122.002 17.4402C122.282 18.7002 122.749 19.7152 123.402 20.4852C124.079 21.2552 124.977 21.8035 126.097 22.1302C127.241 22.4569 128.687 22.6202 130.437 22.6202C132.187 22.6202 133.622 22.4569 134.742 22.1302C135.886 21.8035 136.784 21.2552 137.437 20.4852C138.114 19.7152 138.581 18.7002 138.837 17.4402C139.117 16.1802 139.257 14.6169 139.257 12.7502C139.257 10.9069 139.117 9.35522 138.837 8.09521C138.581 6.83522 138.114 5.82021 137.437 5.05021C136.784 4.28021 135.886 3.73188 134.742 3.40521C133.622 3.05521 132.187 2.88021 130.437 2.88021C128.687 2.88021 127.241 3.05521 126.097 3.40521C124.977 3.73188 124.079 4.28021 123.402 5.05021C122.749 5.82021 122.282 6.83522 122.002 8.09521C121.746 9.35522 121.617 10.9069 121.617 12.7502Z" fill="white"/>
<path d="M153.392 25.0002V3.16021H143.487V0.500213H166.552V3.16021H156.647V25.0002H153.392Z" fill="white"/>
<path d="M169.833 25.0002V3.79021C169.833 2.53021 170.113 1.66688 170.673 1.20021C171.257 0.733547 172.073 0.500213 173.123 0.500213H184.358C185.595 0.500213 186.61 0.675213 187.403 1.02521C188.22 1.37521 188.862 1.87688 189.328 2.53021C189.818 3.16021 190.157 3.94188 190.343 4.87521C190.53 5.80855 190.623 6.84688 190.623 7.99021C190.623 9.20355 190.53 10.2885 190.343 11.2452C190.157 12.1785 189.818 12.9719 189.328 13.6252C188.862 14.2785 188.22 14.7802 187.403 15.1302C186.61 15.4802 185.595 15.6552 184.358 15.6552H173.088V25.0002H169.833ZM183.203 12.9952C184.067 12.9952 184.755 12.8902 185.268 12.6802C185.805 12.4469 186.213 12.1202 186.493 11.7002C186.797 11.2802 186.995 10.7669 187.088 10.1602C187.182 9.53021 187.228 8.80688 187.228 7.99021C187.228 7.19688 187.17 6.50855 187.053 5.92521C186.96 5.31855 186.762 4.81688 186.458 4.42022C186.178 4.00022 185.77 3.68521 185.233 3.47521C184.72 3.26521 184.043 3.16021 183.203 3.16021H174.663C173.963 3.16021 173.52 3.28855 173.333 3.54521C173.17 3.80188 173.088 4.21021 173.088 4.77021V12.9952H183.203Z" fill="white"/>
<path d="M200.665 25.0002L203.255 20.2052L192.51 0.500213H196.115L204.935 17.1602L213.335 0.500213H216.905L204.2 25.0002H200.665Z" fill="white"/>
<path d="M218.05 25.0002C217.444 25.0002 217.047 25.1285 216.86 25.3852C216.697 25.6419 216.615 26.0619 216.615 26.6452V29.7252H213.36V25.7702C213.36 24.4635 213.629 23.5652 214.165 23.0752C214.725 22.5852 215.542 22.3402 216.615 22.3402H217.385L226.065 2.74021C226.462 1.83021 226.917 1.18855 227.43 0.815213C227.967 0.418548 228.609 0.220215 229.355 0.220215C230.172 0.220215 230.825 0.418548 231.315 0.815213C231.805 1.18855 232.249 1.83021 232.645 2.74021L241.29 22.3402H242.095C243.169 22.3402 243.974 22.5852 244.51 23.0752C245.07 23.5652 245.35 24.4635 245.35 25.7702V29.7252H242.095V26.6452C242.095 26.0619 242.002 25.6419 241.815 25.3852C241.629 25.1285 241.232 25.0002 240.625 25.0002H218.05ZM220.745 22.3402H237.93L230.055 4.28021C229.939 4.04688 229.834 3.83688 229.74 3.65021C229.647 3.46355 229.507 3.37021 229.32 3.37021C229.157 3.37021 229.017 3.47521 228.9 3.68521C228.807 3.87188 228.714 4.07021 228.62 4.28021L220.745 22.3402Z" fill="white"/>
<path d="M268.751 25.0002H265.496V13.8002H251.181V25.0002H247.926V0.500213H251.181V11.1402H265.496V0.500213H268.751V25.0002Z" fill="white"/>
<path d="M292.978 25.0002L293.082 4.66521C293.082 4.50188 293.071 4.33855 293.047 4.17521C293.024 3.98855 292.943 3.89521 292.802 3.89521C292.686 3.89521 292.534 4.01188 292.348 4.24521C292.161 4.45521 291.974 4.70021 291.788 4.98021L280.448 23.0752C280.261 23.3785 280.062 23.6702 279.853 23.9502C279.666 24.2069 279.444 24.4402 279.188 24.6502C278.954 24.8369 278.674 24.9885 278.348 25.1052C278.021 25.2219 277.612 25.2802 277.122 25.2802C276.422 25.2802 275.886 25.1519 275.513 24.8952C275.139 24.6385 274.859 24.3352 274.672 23.9852C274.486 23.6119 274.369 23.2269 274.323 22.8302C274.299 22.4102 274.288 22.0602 274.288 21.7802V0.500213H277.543L277.473 20.5202C277.473 20.8469 277.484 21.1152 277.508 21.3252C277.531 21.5119 277.636 21.6052 277.823 21.6052C277.963 21.6052 278.091 21.5352 278.207 21.3952C278.324 21.2319 278.441 21.0569 278.557 20.8702L289.723 2.88021C290.306 1.92355 290.854 1.24688 291.367 0.850213C291.881 0.430214 292.523 0.220215 293.293 0.220215C294.016 0.220215 294.576 0.371881 294.973 0.675213C295.369 0.978547 295.661 1.34021 295.848 1.76021C296.034 2.15688 296.139 2.56521 296.163 2.98521C296.209 3.40521 296.233 3.73188 296.233 3.96521V25.0002H292.978Z" fill="white"/>
<path d="M319.347 25.0002L308.042 15.5852C307.342 15.0019 306.887 14.4535 306.677 13.9402C306.467 13.4035 306.362 12.8902 306.362 12.4002C306.362 12.0035 306.478 11.5719 306.712 11.1052C306.945 10.6385 307.33 10.1719 307.867 9.70521L318.227 0.500213H322.462L310.912 10.6152C310.585 10.8952 310.27 11.1635 309.967 11.4202C309.687 11.6769 309.547 12.0035 309.547 12.4002C309.547 12.8435 309.722 13.2402 310.072 13.5902C310.422 13.9402 310.795 14.2785 311.192 14.6052L323.757 25.0002H319.347ZM301.777 0.500213H305.032V25.0002H301.777V0.500213Z" fill="white"/>
<path d="M336.269 0.220215C338.533 0.220215 340.434 0.441881 341.974 0.885215C343.538 1.30521 344.798 2.00521 345.754 2.98521C346.711 3.96521 347.399 5.26021 347.819 6.87021C348.263 8.45688 348.484 10.4169 348.484 12.7502C348.484 15.1069 348.263 17.0902 347.819 18.7002C347.399 20.2869 346.711 21.5702 345.754 22.5502C344.798 23.5302 343.538 24.2302 341.974 24.6502C340.434 25.0702 338.533 25.2802 336.269 25.2802C334.029 25.2802 332.128 25.0702 330.564 24.6502C329.024 24.2302 327.764 23.5302 326.784 22.5502C325.828 21.5702 325.128 20.2869 324.684 18.7002C324.264 17.0902 324.054 15.1069 324.054 12.7502C324.054 10.4169 324.264 8.45688 324.684 6.87021C325.128 5.26021 325.828 3.96521 326.784 2.98521C327.764 2.00521 329.024 1.30521 330.564 0.885215C332.128 0.441881 334.029 0.220215 336.269 0.220215ZM327.449 12.7502C327.449 14.6169 327.578 16.1802 327.834 17.4402C328.114 18.7002 328.581 19.7152 329.234 20.4852C329.911 21.2552 330.809 21.8035 331.929 22.1302C333.073 22.4569 334.519 22.6202 336.269 22.6202C338.019 22.6202 339.454 22.4569 340.574 22.1302C341.718 21.8035 342.616 21.2552 343.269 20.4852C343.946 19.7152 344.413 18.7002 344.669 17.4402C344.949 16.1802 345.089 14.6169 345.089 12.7502C345.089 10.9069 344.949 9.35522 344.669 8.09521C344.413 6.83522 343.946 5.82021 343.269 5.05021C342.616 4.28021 341.718 3.73188 340.574 3.40521C339.454 3.05521 338.019 2.88021 336.269 2.88021C334.519 2.88021 333.073 3.05521 331.929 3.40521C330.809 3.73188 329.911 4.28021 329.234 5.05021C328.581 5.82021 328.114 6.83522 327.834 8.09521C327.578 9.35522 327.449 10.9069 327.449 12.7502Z" fill="white"/>
<path d="M356.592 20.5202C356.592 21.1969 356.686 21.6752 356.872 21.9552C357.059 22.2119 357.502 22.3402 358.202 22.3402H367.092C368.469 22.3402 369.402 22.0135 369.892 21.3602C370.406 20.7069 370.662 19.6452 370.662 18.1752C370.662 17.5452 370.616 16.9735 370.522 16.4602C370.429 15.9469 370.254 15.5035 369.997 15.1302C369.764 14.7569 369.426 14.4769 368.982 14.2902C368.562 14.0802 368.026 13.9752 367.372 13.9752H356.592V20.5202ZM356.592 11.3152H366.987C367.664 11.3152 368.212 11.2335 368.632 11.0702C369.076 10.9069 369.414 10.6619 369.647 10.3352C369.904 9.98521 370.079 9.55355 370.172 9.04021C370.266 8.50355 370.312 7.86188 370.312 7.11521C370.312 5.92521 370.102 4.96855 369.682 4.24521C369.286 3.52188 368.469 3.16021 367.232 3.16021H358.167C357.584 3.16021 357.176 3.27688 356.942 3.51021C356.709 3.72021 356.592 4.12855 356.592 4.73521V11.3152ZM370.347 12.6452C371.677 12.8319 372.622 13.3685 373.182 14.2552C373.742 15.1419 374.022 16.4952 374.022 18.3152C374.022 19.2252 373.941 20.0885 373.777 20.9052C373.637 21.6985 373.369 22.3985 372.972 23.0052C372.599 23.6119 372.062 24.1019 371.362 24.4752C370.662 24.8252 369.776 25.0002 368.702 25.0002H356.802C356.312 25.0002 355.846 24.9535 355.402 24.8602C354.982 24.7669 354.621 24.5919 354.317 24.3352C354.014 24.0785 353.769 23.7285 353.582 23.2852C353.419 22.8419 353.337 22.2819 353.337 21.6052V3.96521C353.337 1.65521 354.411 0.500213 356.557 0.500213H368.457C370.324 0.500213 371.666 1.07188 372.482 2.21521C373.299 3.35855 373.707 5.00355 373.707 7.15021C373.707 7.82688 373.649 8.46855 373.532 9.07521C373.439 9.68188 373.264 10.2302 373.007 10.7202C372.774 11.1869 372.436 11.5835 371.992 11.9102C371.549 12.2135 371.001 12.4119 370.347 12.5052V12.6452Z" fill="white"/>
<path d="M395.848 25.0002V3.16021H385.943V0.500213H409.008V3.16021H399.103V25.0002H395.848Z" fill="white"/>
<path d="M415.719 25.0002C414.646 25.0002 413.806 24.7319 413.199 24.1952C412.593 23.6585 412.289 22.7719 412.289 21.5352V3.96521C412.289 2.65855 412.593 1.76021 413.199 1.27021C413.806 0.75688 414.646 0.500213 415.719 0.500213H430.874V3.16021H417.154C416.478 3.16021 416.034 3.28855 415.824 3.54521C415.638 3.77855 415.544 4.19855 415.544 4.80521V11.1402H430.524V13.8002H415.544V20.6602C415.544 21.2669 415.638 21.6985 415.824 21.9552C416.034 22.2119 416.478 22.3402 417.154 22.3402H431.014V25.0002H415.719Z" fill="white"/>
<path d="M451.571 25.0002L444.186 14.8852L436.731 25.0002H432.881L442.331 12.5752L433.161 0.500213H437.011L444.151 10.2652L451.256 0.500213H455.141L445.971 12.5752L455.421 25.0002H451.571Z" fill="white"/>
<path d="M479.172 25.0002H475.917V13.8002H461.602V25.0002H458.347V0.500213H461.602V11.1402H475.917V0.500213H479.172V25.0002Z" fill="white"/>
<path d="M496.223 0.220215C498.487 0.220215 500.388 0.441881 501.928 0.885215C503.492 1.30521 504.752 2.00521 505.708 2.98521C506.665 3.96521 507.353 5.26021 507.773 6.87021C508.217 8.45688 508.438 10.4169 508.438 12.7502C508.438 15.1069 508.217 17.0902 507.773 18.7002C507.353 20.2869 506.665 21.5702 505.708 22.5502C504.752 23.5302 503.492 24.2302 501.928 24.6502C500.388 25.0702 498.487 25.2802 496.223 25.2802C493.983 25.2802 492.082 25.0702 490.518 24.6502C488.978 24.2302 487.718 23.5302 486.738 22.5502C485.782 21.5702 485.082 20.2869 484.638 18.7002C484.218 17.0902 484.008 15.1069 484.008 12.7502C484.008 10.4169 484.218 8.45688 484.638 6.87021C485.082 5.26021 485.782 3.96521 486.738 2.98521C487.718 2.00521 488.978 1.30521 490.518 0.885215C492.082 0.441881 493.983 0.220215 496.223 0.220215ZM487.403 12.7502C487.403 14.6169 487.532 16.1802 487.788 17.4402C488.068 18.7002 488.535 19.7152 489.188 20.4852C489.865 21.2552 490.763 21.8035 491.883 22.1302C493.027 22.4569 494.473 22.6202 496.223 22.6202C497.973 22.6202 499.408 22.4569 500.528 22.1302C501.672 21.8035 502.57 21.2552 503.223 20.4852C503.9 19.7152 504.367 18.7002 504.623 17.4402C504.903 16.1802 505.043 14.6169 505.043 12.7502C505.043 10.9069 504.903 9.35522 504.623 8.09521C504.367 6.83522 503.9 5.82021 503.223 5.05021C502.57 4.28021 501.672 3.73188 500.528 3.40521C499.408 3.05521 497.973 2.88021 496.223 2.88021C494.473 2.88021 493.027 3.05521 491.883 3.40521C490.763 3.73188 489.865 4.28021 489.188 5.05021C488.535 5.82021 488.068 6.83522 487.788 8.09521C487.532 9.35522 487.403 10.9069 487.403 12.7502Z" fill="white"/>
<path d="M513.291 25.0002V3.96521C513.291 2.65855 513.595 1.76021 514.201 1.27021C514.808 0.75688 515.648 0.500213 516.721 0.500213H530.406C531.48 0.500213 532.32 0.75688 532.926 1.27021C533.556 1.76021 533.871 2.65855 533.871 3.96521V25.0002H530.616V4.80521C530.616 4.19855 530.511 3.77855 530.301 3.54521C530.091 3.28855 529.648 3.16021 528.971 3.16021H518.156C517.48 3.16021 517.036 3.28855 516.826 3.54521C516.64 3.77855 516.546 4.19855 516.546 4.80521V25.0002H513.291Z" fill="white"/>
<path d="M546.098 2.91521C546.472 2.05188 546.892 1.38688 547.358 0.920214C547.825 0.453548 548.525 0.220215 549.458 0.220215C550.345 0.220215 551.045 0.465214 551.558 0.955214C552.072 1.42188 552.503 2.07521 552.853 2.91521L562.128 25.0002H558.698L555.933 18.3502H542.948L540.219 25.0002H536.788L546.098 2.91521ZM543.928 15.6902H554.953L550.333 4.45521C550.217 4.19855 550.089 3.94188 549.948 3.68521C549.832 3.40521 549.669 3.26521 549.458 3.26521C549.248 3.26521 549.085 3.40521 548.969 3.68521C548.852 3.94188 548.735 4.19855 548.618 4.45521L543.928 15.6902Z" fill="white"/>
<path d="M565.057 25.0002V3.79021C565.057 2.53021 565.337 1.66688 565.897 1.20021C566.48 0.733547 567.297 0.500213 568.347 0.500213H579.582C580.819 0.500213 581.834 0.675213 582.627 1.02521C583.444 1.37521 584.085 1.87688 584.552 2.53021C585.042 3.16021 585.38 3.94188 585.567 4.87521C585.754 5.80855 585.847 6.84688 585.847 7.99021C585.847 9.20355 585.754 10.2885 585.567 11.2452C585.38 12.1785 585.042 12.9719 584.552 13.6252C584.085 14.2785 583.444 14.7802 582.627 15.1302C581.834 15.4802 580.819 15.6552 579.582 15.6552H568.312V25.0002H565.057ZM578.427 12.9952C579.29 12.9952 579.979 12.8902 580.492 12.6802C581.029 12.4469 581.437 12.1202 581.717 11.7002C582.02 11.2802 582.219 10.7669 582.312 10.1602C582.405 9.53021 582.452 8.80688 582.452 7.99021C582.452 7.19688 582.394 6.50855 582.277 5.92521C582.184 5.31855 581.985 4.81688 581.682 4.42022C581.402 4.00022 580.994 3.68521 580.457 3.47521C579.944 3.26521 579.267 3.16021 578.427 3.16021H569.887C569.187 3.16021 568.744 3.28855 568.557 3.54521C568.394 3.80188 568.312 4.21021 568.312 4.77021V12.9952H578.427Z" fill="white"/>
<path d="M607.929 25.0002L596.624 15.5852C595.924 15.0019 595.469 14.4535 595.259 13.9402C595.049 13.4035 594.944 12.8902 594.944 12.4002C594.944 12.0035 595.06 11.5719 595.294 11.1052C595.527 10.6385 595.912 10.1719 596.449 9.70521L606.809 0.500213H611.044L599.494 10.6152C599.167 10.8952 598.852 11.1635 598.549 11.4202C598.269 11.6769 598.129 12.0035 598.129 12.4002C598.129 12.8435 598.304 13.2402 598.654 13.5902C599.004 13.9402 599.377 14.2785 599.774 14.6052L612.339 25.0002H607.929ZM590.359 0.500213H593.614V25.0002H590.359V0.500213Z" fill="white"/>
<path d="M623.166 2.91521C623.539 2.05188 623.959 1.38688 624.426 0.920214C624.893 0.453548 625.593 0.220215 626.526 0.220215C627.413 0.220215 628.113 0.465214 628.626 0.955214C629.139 1.42188 629.571 2.07521 629.921 2.91521L639.196 25.0002H635.766L633.001 18.3502H620.016L617.286 25.0002H613.856L623.166 2.91521ZM620.996 15.6902H632.021L627.401 4.45521C627.284 4.19855 627.156 3.94188 627.016 3.68521C626.899 3.40521 626.736 3.26521 626.526 3.26521C626.316 3.26521 626.153 3.40521 626.036 3.68521C625.919 3.94188 625.802 4.19855 625.686 4.45521L620.996 15.6902Z" fill="white"/>
<path d="M3.70287 92.0002V61.6552C3.70287 58.0852 5.43687 56.3002 8.90487 56.3002H26.6529C28.4889 56.3002 30.0189 56.6062 31.2429 57.2182C32.5009 57.7962 33.4359 58.6632 34.0479 59.8192C34.6939 60.9412 35.1359 62.1312 35.3739 63.3892C35.6119 64.6132 35.7309 66.0752 35.7309 67.7752C35.7309 69.4752 35.6119 70.9542 35.3739 72.2122C35.1359 73.4702 34.6939 74.6772 34.0479 75.8332C33.4359 76.9552 32.5009 77.8222 31.2429 78.4342C30.0189 79.0462 28.4889 79.3522 26.6529 79.3522H10.4349V92.0002H3.70287ZM10.4349 73.9972H23.3379C25.5139 73.9972 26.9589 73.5212 27.6729 72.5692C28.4209 71.5832 28.7949 69.9852 28.7949 67.7752C28.7949 65.5652 28.4209 64.0012 27.6729 63.0832C26.9589 62.1312 25.5139 61.6552 23.3379 61.6552H12.9849C11.9649 61.6552 11.2849 61.8252 10.9449 62.1652C10.6049 62.5052 10.4349 63.1852 10.4349 64.2052V73.9972Z" fill="white"/>
<path d="M55.4363 92.0002H48.1433L52.4783 84.0952L37.2293 56.3002H44.6753L55.9463 77.9242L66.8093 56.3002H74.1533L55.4363 92.0002Z" fill="white"/>
<path d="M105.694 92.0002H90.8016C87.8436 92.0002 85.3446 91.5752 83.3046 90.7252C81.2645 89.8412 79.7005 88.5662 78.6125 86.9002C77.5246 85.2002 76.7596 83.3302 76.3176 81.2902C75.8755 79.2502 75.6545 76.8702 75.6545 74.1502C75.6545 71.4302 75.8755 69.0502 76.3176 67.0102C76.7596 64.9702 77.5246 63.1172 78.6125 61.4512C79.7005 59.7512 81.2645 58.4762 83.3046 57.6262C85.3446 56.7422 87.8436 56.3002 90.8016 56.3002H105.133V61.6552H93.9636C89.6116 61.6552 86.6196 62.5392 84.9875 64.3072C83.3895 66.0412 82.5906 69.3222 82.5906 74.1502C82.5906 78.9782 83.3895 82.2762 84.9875 84.0442C86.6196 85.7782 89.6116 86.6452 93.9636 86.6452H105.694V92.0002Z" fill="white"/>
<path d="M145.463 92.0002H136.793L121.85 78.3832C120.626 77.2952 120.014 75.7142 120.014 73.6402C120.014 72.1442 120.592 70.8182 121.748 69.6622L135.263 56.3002H143.627L128.174 70.9372C128.106 71.0052 127.936 71.1582 127.664 71.3962C127.426 71.6342 127.273 71.8042 127.205 71.9062C127.137 71.9742 127.018 72.1272 126.848 72.3652C126.712 72.5692 126.61 72.7732 126.542 72.9772C126.508 73.1472 126.491 73.3512 126.491 73.5892C126.491 74.5752 127.188 75.6632 128.582 76.8532L145.463 92.0002ZM111.293 92.0002V56.3002H118.025V92.0002H111.293Z" fill="white"/>
<path d="M146.667 92.0002L160.488 59.2582C160.896 58.2042 161.474 57.3882 162.222 56.8102C163.004 56.1982 164.245 55.8922 165.945 55.8922C167.645 55.8922 168.869 56.1982 169.617 56.8102C170.399 57.3882 170.994 58.2042 171.402 59.2582L185.172 92.0002H178.032L166.761 63.4912C166.761 63.4572 166.744 63.3892 166.71 63.2872C166.676 63.1852 166.642 63.1172 166.608 63.0832C166.608 63.0492 166.591 62.9982 166.557 62.9302C166.523 62.8282 166.489 62.7602 166.455 62.7262C166.421 62.6922 166.37 62.6582 166.302 62.6242C166.268 62.5562 166.217 62.5222 166.149 62.5222C166.081 62.4882 166.013 62.4712 165.945 62.4712C165.605 62.4712 165.316 62.8112 165.078 63.4912L153.807 92.0002H146.667Z" fill="white"/>
<path d="M222.364 92.0002H215.581L215.836 64.8682C215.836 64.0862 215.666 63.6952 215.326 63.6952C215.258 63.6952 215.173 63.7292 215.071 63.7972C215.003 63.8312 214.918 63.9162 214.816 64.0522C214.748 64.1542 214.68 64.2562 214.612 64.3582C214.544 64.4602 214.442 64.6132 214.306 64.8172C214.17 65.0212 214.068 65.1912 214 65.3272L199.312 89.0422C198.836 89.7562 198.462 90.3002 198.19 90.6742C197.918 91.0142 197.374 91.3882 196.558 91.7962C195.742 92.2042 194.773 92.4082 193.651 92.4082C192.461 92.4082 191.475 92.2042 190.693 91.7962C189.911 91.3882 189.367 90.8102 189.061 90.0622C188.789 89.3142 188.602 88.6852 188.5 88.1752C188.432 87.6652 188.398 87.0362 188.398 86.2882V56.3002H195.181L194.977 82.9222C194.977 84.0102 195.181 84.5542 195.589 84.5542C195.657 84.5542 195.725 84.5372 195.793 84.5032C195.861 84.4692 195.929 84.4182 195.997 84.3502C196.065 84.2482 196.116 84.1632 196.15 84.0952C196.218 83.9932 196.286 83.8742 196.354 83.7382C196.422 83.6022 196.49 83.5002 196.558 83.4322L210.94 59.8702C211.858 58.3742 212.759 57.3372 213.643 56.7592C214.561 56.1812 215.649 55.8922 216.907 55.8922C220.545 55.8922 222.364 58.0342 222.364 62.3182V92.0002Z" fill="white"/>
<path d="M265.956 64.3072L256.827 88.1242C256.215 89.6542 255.569 90.7592 254.889 91.4392C254.209 92.0852 253.155 92.4082 251.727 92.4082C250.299 92.4082 249.245 92.0852 248.565 91.4392C247.885 90.7592 247.239 89.6542 246.627 88.1242L237.498 64.3072C237.192 63.5252 236.903 63.1342 236.631 63.1342C236.257 63.1342 236.07 63.4912 236.07 64.2052L236.223 92.0002H229.491V60.5842C229.491 57.4562 231.412 55.8922 235.254 55.8922C237.09 55.8922 238.45 56.2832 239.334 57.0652C240.218 57.8472 240.949 58.9862 241.527 60.4822L250.758 84.2992C251.166 85.1832 251.489 85.6252 251.727 85.6252C251.965 85.6252 252.288 85.1832 252.696 84.2992L261.927 60.4822C262.505 58.9862 263.236 57.8472 264.12 57.0652C265.004 56.2832 266.364 55.8922 268.2 55.8922C272.042 55.8922 273.963 57.4562 273.963 60.5842V92.0002H267.231L267.435 64.2052C267.435 63.4912 267.231 63.1342 266.823 63.1342C266.551 63.1342 266.262 63.5252 265.956 64.3072Z" fill="white"/>
<path d="M277.217 92.0002L290.681 59.9212C291.327 58.3912 292.058 57.3372 292.874 56.7592C293.724 56.1812 294.948 55.8922 296.546 55.8922C298.076 55.8922 299.266 56.1982 300.116 56.8102C301 57.3882 301.765 58.4252 302.411 59.9212L315.875 92.0002H308.786L305.114 82.9732H287.927L284.306 92.0002H277.217ZM295.526 63.6442L289.661 78.1792H303.38L297.566 63.6442C297.192 62.6582 296.852 62.1652 296.546 62.1652C296.24 62.1652 295.9 62.6582 295.526 63.6442Z" fill="white"/>
<path d="M331.612 92.0002H324.88V61.6552H310.957V56.3002H345.586V61.6552H331.612V92.0002Z" fill="white"/>
<path d="M396.501 92.0002H389.718L389.973 64.8682C389.973 64.0862 389.803 63.6952 389.463 63.6952C389.395 63.6952 389.31 63.7292 389.208 63.7972C389.14 63.8312 389.055 63.9162 388.953 64.0522C388.885 64.1542 388.817 64.2562 388.749 64.3582C388.681 64.4602 388.579 64.6132 388.443 64.8172C388.307 65.0212 388.205 65.1912 388.137 65.3272L373.449 89.0422C372.973 89.7562 372.599 90.3002 372.327 90.6742C372.055 91.0142 371.511 91.3882 370.695 91.7962C369.879 92.2042 368.91 92.4082 367.788 92.4082C366.598 92.4082 365.612 92.2042 364.83 91.7962C364.048 91.3882 363.504 90.8102 363.198 90.0622C362.926 89.3142 362.739 88.6852 362.637 88.1752C362.569 87.6652 362.535 87.0362 362.535 86.2882V56.3002H369.318L369.114 82.9222C369.114 84.0102 369.318 84.5542 369.726 84.5542C369.794 84.5542 369.862 84.5372 369.93 84.5032C369.998 84.4692 370.066 84.4182 370.134 84.3502C370.202 84.2482 370.253 84.1632 370.287 84.0952C370.355 83.9932 370.423 83.8742 370.491 83.7382C370.559 83.6022 370.627 83.5002 370.695 83.4322L385.077 59.8702C385.995 58.3742 386.896 57.3372 387.78 56.7592C388.698 56.1812 389.786 55.8922 391.044 55.8922C394.682 55.8922 396.501 58.0342 396.501 62.3182V92.0002Z" fill="white"/>
<path d="M437.798 92.0002H429.128L414.185 78.3832C412.961 77.2952 412.349 75.7142 412.349 73.6402C412.349 72.1442 412.927 70.8182 414.083 69.6622L427.598 56.3002H435.962L420.509 70.9372C420.441 71.0052 420.271 71.1582 419.999 71.3962C419.761 71.6342 419.608 71.8042 419.54 71.9062C419.472 71.9742 419.353 72.1272 419.183 72.3652C419.047 72.5692 418.945 72.7732 418.877 72.9772C418.843 73.1472 418.826 73.3512 418.826 73.5892C418.826 74.5752 419.523 75.6632 420.917 76.8532L437.798 92.0002ZM403.628 92.0002V56.3002H410.36V92.0002H403.628Z" fill="white"/>
<path d="M467.315 92.0002H452.423C449.465 92.0002 446.966 91.5752 444.926 90.7252C442.886 89.8412 441.322 88.5662 440.234 86.9002C439.146 85.2002 438.381 83.3302 437.939 81.2902C437.497 79.2502 437.276 76.8702 437.276 74.1502C437.276 71.4302 437.497 69.0502 437.939 67.0102C438.381 64.9702 439.146 63.1172 440.234 61.4512C441.322 59.7512 442.886 58.4762 444.926 57.6262C446.966 56.7422 449.465 56.3002 452.423 56.3002H466.754V61.6552H455.585C451.233 61.6552 448.241 62.5392 446.609 64.3072C445.011 66.0412 444.212 69.3222 444.212 74.1502C444.212 78.9782 445.011 82.2762 446.609 84.0442C448.241 85.7782 451.233 86.6452 455.585 86.6452H467.315V92.0002Z" fill="white"/>
<path d="M486.837 92.0002H471.894V86.6452H483.675C487.653 86.6452 490.458 85.9312 492.09 84.5032C493.756 83.0412 494.708 80.3892 494.946 76.5472H473.118V71.1922H494.946C494.674 67.5882 493.705 65.1062 492.039 63.7462C490.373 62.3522 487.585 61.6552 483.675 61.6552H472.455V56.3002H486.837C489.795 56.3002 492.294 56.7422 494.334 57.6262C496.374 58.4762 497.938 59.7512 499.026 61.4512C500.114 63.1172 500.879 64.9702 501.321 67.0102C501.763 69.0502 501.984 71.4302 501.984 74.1502C501.984 76.8702 501.763 79.2502 501.321 81.2902C500.879 83.3302 500.114 85.2002 499.026 86.9002C497.938 88.5662 496.374 89.8412 494.334 90.7252C492.294 91.5752 489.795 92.0002 486.837 92.0002Z" fill="white"/>
<path d="M504.51 92.0002L515.169 66.9082C515.781 65.4122 517.209 64.6642 519.453 64.6642C521.697 64.6642 523.125 65.4122 523.737 66.9082L534.396 92.0002H527.868L519.963 71.1412C519.759 70.6312 519.589 70.3762 519.453 70.3762C519.317 70.3762 519.147 70.6312 518.943 71.1412L511.038 92.0002H504.51Z" fill="white"/>
</g>
</svg>
